<?xml version="1.0" encoding="utf-8" standalone="no"?>
<!DOCTYPE svg PUBLIC "-//W3C//DTD SVG 1.1//EN"
  "http://www.w3.org/Graphics/SVG/1.1/DTD/svg11.dtd">
<svg xmlns:xlink="http://www.w3.org/1999/xlink" width="835.2pt" height="530.64pt" viewBox="0 0 835.2 530.64" xmlns="http://www.w3.org/2000/svg" version="1.1">
 <metadata>
  <rdf:RDF xmlns:dc="http://purl.org/dc/elements/1.1/" xmlns:cc="http://creativecommons.org/ns#" xmlns:rdf="http://www.w3.org/1999/02/22-rdf-syntax-ns#">
   <cc:Work>
    <dc:type rdf:resource="http://purl.org/dc/dcmitype/StillImage"/>
    <dc:format>image/svg+xml</dc:format>
    <dc:creator>
     <cc:Agent>
      <dc:title>Matplotlib v3.10.8, https://matplotlib.org/</dc:title>
     </cc:Agent>
    </dc:creator>
   </cc:Work>
  </rdf:RDF>
 </metadata>
 <defs>
  <style type="text/css">*{stroke-linejoin: round; stroke-linecap: butt}</style>
 </defs>
 <g id="figure_1">
  <g id="patch_1">
   <path d="M 0 530.64
L 835.2 530.64
L 835.2 0
L 0 0
z
" style="fill: #ffffff"/>
  </g>
  <g id="axes_1">
   <g id="patch_2">
    <path d="M 144.4032 160.5384
L 232.7904 160.5384
L 232.7904 195.4656
L 144.4032 195.4656
z
" clip-path="url(#p8c755e3773)" style="fill: #7657e8; stroke: #7657e8; stroke-linejoin: miter"/>
   </g>
   <g id="patch_3">
    <path d="M 248.8608 160.5384
L 337.248 160.5384
L 337.248 195.4656
L 248.8608 195.4656
z
" clip-path="url(#p8c755e3773)" style="fill: #eaf4ff; stroke: #9bcbfa; stroke-linejoin: miter"/>
   </g>
   <g id="patch_4">
    <path d="M 353.3184 160.5384
L 441.7056 160.5384
L 441.7056 195.4656
L 353.3184 195.4656
z
" clip-path="url(#p8c755e3773)" style="fill: #eaf4ff; stroke: #9bcbfa; stroke-linejoin: miter"/>
   </g>
   <g id="patch_5">
    <path d="M 457.776 160.5384
L 546.1632 160.5384
L 546.1632 195.4656
L 457.776 195.4656
z
" clip-path="url(#p8c755e3773)" style="fill: #eaf4ff; stroke: #9bcbfa; stroke-linejoin: miter"/>
   </g>
   <g id="patch_6">
    <path d="M 562.2336 160.5384
L 650.6208 160.5384
L 650.6208 195.4656
L 562.2336 195.4656
z
" clip-path="url(#p8c755e3773)" style="fill: #eaf4ff; stroke: #9bcbfa; stroke-linejoin: miter"/>
   </g>
   <g id="patch_7">
    <path d="M 144.4032 210.4344
L 232.7904 210.4344
L 232.7904 245.3616
L 144.4032 245.3616
z
" clip-path="url(#p8c755e3773)" style="fill: #eaf4ff; stroke: #9bcbfa; stroke-linejoin: miter"/>
   </g>
   <g id="patch_8">
    <path d="M 248.8608 210.4344
L 337.248 210.4344
L 337.248 245.3616
L 248.8608 245.3616
z
" clip-path="url(#p8c755e3773)" style="fill: #7657e8; stroke: #7657e8; stroke-linejoin: miter"/>
   </g>
   <g id="patch_9">
    <path d="M 353.3184 210.4344
L 441.7056 210.4344
L 441.7056 245.3616
L 353.3184 245.3616
z
" clip-path="url(#p8c755e3773)" style="fill: #eaf4ff; stroke: #9bcbfa; stroke-linejoin: miter"/>
   </g>
   <g id="patch_10">
    <path d="M 457.776 210.4344
L 546.1632 210.4344
L 546.1632 245.3616
L 457.776 245.3616
z
" clip-path="url(#p8c755e3773)" style="fill: #eaf4ff; stroke: #9bcbfa; stroke-linejoin: miter"/>
   </g>
   <g id="patch_11">
    <path d="M 562.2336 210.4344
L 650.6208 210.4344
L 650.6208 245.3616
L 562.2336 245.3616
z
" clip-path="url(#p8c755e3773)" style="fill: #eaf4ff; stroke: #9bcbfa; stroke-linejoin: miter"/>
   </g>
   <g id="patch_12">
    <path d="M 144.4032 260.3304
L 232.7904 260.3304
L 232.7904 295.2576
L 144.4032 295.2576
z
" clip-path="url(#p8c755e3773)" style="fill: #eaf4ff; stroke: #9bcbfa; stroke-linejoin: miter"/>
   </g>
   <g id="patch_13">
    <path d="M 248.8608 260.3304
L 337.248 260.3304
L 337.248 295.2576
L 248.8608 295.2576
z
" clip-path="url(#p8c755e3773)" style="fill: #eaf4ff; stroke: #9bcbfa; stroke-linejoin: miter"/>
   </g>
   <g id="patch_14">
    <path d="M 353.3184 260.3304
L 441.7056 260.3304
L 441.7056 295.2576
L 353.3184 295.2576
z
" clip-path="url(#p8c755e3773)" style="fill: #7657e8; stroke: #7657e8; stroke-linejoin: miter"/>
   </g>
   <g id="patch_15">
    <path d="M 457.776 260.3304
L 546.1632 260.3304
L 546.1632 295.2576
L 457.776 295.2576
z
" clip-path="url(#p8c755e3773)" style="fill: #eaf4ff; stroke: #9bcbfa; stroke-linejoin: miter"/>
   </g>
   <g id="patch_16">
    <path d="M 562.2336 260.3304
L 650.6208 260.3304
L 650.6208 295.2576
L 562.2336 295.2576
z
" clip-path="url(#p8c755e3773)" style="fill: #eaf4ff; stroke: #9bcbfa; stroke-linejoin: miter"/>
   </g>
   <g id="patch_17">
    <path d="M 144.4032 310.2264
L 232.7904 310.2264
L 232.7904 345.1536
L 144.4032 345.1536
z
" clip-path="url(#p8c755e3773)" style="fill: #eaf4ff; stroke: #9bcbfa; stroke-linejoin: miter"/>
   </g>
   <g id="patch_18">
    <path d="M 248.8608 310.2264
L 337.248 310.2264
L 337.248 345.1536
L 248.8608 345.1536
z
" clip-path="url(#p8c755e3773)" style="fill: #eaf4ff; stroke: #9bcbfa; stroke-linejoin: miter"/>
   </g>
   <g id="patch_19">
    <path d="M 353.3184 310.2264
L 441.7056 310.2264
L 441.7056 345.1536
L 353.3184 345.1536
z
" clip-path="url(#p8c755e3773)" style="fill: #eaf4ff; stroke: #9bcbfa; stroke-linejoin: miter"/>
   </g>
   <g id="patch_20">
    <path d="M 457.776 310.2264
L 546.1632 310.2264
L 546.1632 345.1536
L 457.776 345.1536
z
" clip-path="url(#p8c755e3773)" style="fill: #7657e8; stroke: #7657e8; stroke-linejoin: miter"/>
   </g>
   <g id="patch_21">
    <path d="M 562.2336 310.2264
L 650.6208 310.2264
L 650.6208 345.1536
L 562.2336 345.1536
z
" clip-path="url(#p8c755e3773)" style="fill: #eaf4ff; stroke: #9bcbfa; stroke-linejoin: miter"/>
   </g>
   <g id="patch_22">
    <path d="M 144.4032 360.1224
L 232.7904 360.1224
L 232.7904 395.0496
L 144.4032 395.0496
z
" clip-path="url(#p8c755e3773)" style="fill: #eaf4ff; stroke: #9bcbfa; stroke-linejoin: miter"/>
   </g>
   <g id="patch_23">
    <path d="M 248.8608 360.1224
L 337.248 360.1224
L 337.248 395.0496
L 248.8608 395.0496
z
" clip-path="url(#p8c755e3773)" style="fill: #eaf4ff; stroke: #9bcbfa; stroke-linejoin: miter"/>
   </g>
   <g id="patch_24">
    <path d="M 353.3184 360.1224
L 441.7056 360.1224
L 441.7056 395.0496
L 353.3184 395.0496
z
" clip-path="url(#p8c755e3773)" style="fill: #eaf4ff; stroke: #9bcbfa; stroke-linejoin: miter"/>
   </g>
   <g id="patch_25">
    <path d="M 457.776 360.1224
L 546.1632 360.1224
L 546.1632 395.0496
L 457.776 395.0496
z
" clip-path="url(#p8c755e3773)" style="fill: #eaf4ff; stroke: #9bcbfa; stroke-linejoin: miter"/>
   </g>
   <g id="patch_26">
    <path d="M 562.2336 360.1224
L 650.6208 360.1224
L 650.6208 395.0496
L 562.2336 395.0496
z
" clip-path="url(#p8c755e3773)" style="fill: #7657e8; stroke: #7657e8; stroke-linejoin: miter"/>
   </g>
   <g id="patch_27">
    <path d="M 154.4472 413.26164
L 648.612 413.26164
Q 661.46832 413.26164 661.46832 421.245
L 661.46832 458.667
Q 661.46832 466.65036 648.612 466.65036
L 154.4472 466.65036
Q 141.59088 466.65036 141.59088 458.667
L 141.59088 421.245
Q 141.59088 413.26164 154.4472 413.26164
z
" clip-path="url(#p8c755e3773)" style="fill: #f0ecff; stroke: #c4b8fa; stroke-width: 1.1; stroke-linejoin: miter"/>
   </g>
   <g id="patch_28">
    <path d="M 692.8056 138.83364
L 777.1752 138.83364
Q 790.03152 138.83364 790.03152 146.817
L 790.03152 358.875
Q 790.03152 366.85836 777.1752 366.85836
L 692.8056 366.85836
Q 679.94928 366.85836 679.94928 358.875
L 679.94928 146.817
Q 679.94928 138.83364 692.8056 138.83364
z
" clip-path="url(#p8c755e3773)" style="fill: #f7fafd; stroke: #d9e3ec; stroke-width: 1.1; stroke-linejoin: miter"/>
   </g>
   <g id="patch_29">
    <path d="M 722.9376 200.4552
L 767.93472 200.4552
L 767.93472 215.424
L 722.9376 215.424
z
" clip-path="url(#p8c755e3773)" style="fill: #0b70e0; opacity: 0.75"/>
   </g>
   <g id="patch_30">
    <path d="M 722.9376 230.3928
L 770.74704 230.3928
L 770.74704 245.3616
L 722.9376 245.3616
z
" clip-path="url(#p8c755e3773)" style="fill: #0b70e0; opacity: 0.75"/>
   </g>
   <g id="patch_31">
    <path d="M 722.9376 260.3304
L 773.55936 260.3304
L 773.55936 275.2992
L 722.9376 275.2992
z
" clip-path="url(#p8c755e3773)" style="fill: #0b70e0; opacity: 0.75"/>
   </g>
   <g id="patch_32">
    <path d="M 722.9376 290.268
L 765.1224 290.268
L 765.1224 305.2368
L 722.9376 305.2368
z
" clip-path="url(#p8c755e3773)" style="fill: #0b70e0; opacity: 0.75"/>
   </g>
   <g id="patch_33">
    <path d="M 722.9376 320.2056
L 776.37168 320.2056
L 776.37168 335.1744
L 722.9376 335.1744
z
" clip-path="url(#p8c755e3773)" style="fill: #0b70e0; opacity: 0.75"/>
   </g>
   <g id="line2d_1">
    <path d="M 47.9808 90.684
L 787.2192 90.684
" clip-path="url(#p8c755e3773)" style="fill: none; stroke: #d9e3ec; stroke-linecap: square"/>
   </g>
   <g id="text_1">
    <text style="font-weight: 700; font-size: 24px; font-family: 'DejaVu Sans'; text-anchor: start; fill: #182431" x="47.9808" y="54.03465" transform="rotate(-0 47.9808 54.03465)">Кросс-валидация по пяти частям</text>
   </g>
   <g id="text_2">
    <text style="font-size: 11px; font-family: 'DejaVu Sans'; text-anchor: start; fill: #5d6b78" x="47.9808" y="74.281625" transform="rotate(-0 47.9808 74.281625)">Каждая часть один раз служит проверкой, остальные четыре — обучением.</text>
   </g>
   <g id="text_3">
    <text style="font-weight: 700; font-size: 9.2px; font-family: 'DejaVu Sans'; text-anchor: start; fill: #5d6b78" x="88.1568" y="122.622563" transform="rotate(-0 88.1568 122.622563)">СТРОКИ — ИТЕРАЦИИ</text>
   </g>
   <g id="text_4">
    <text style="font-weight: 700; font-size: 9.2px; font-family: 'DejaVu Sans'; text-anchor: middle; fill: #5d6b78" x="401.5296" y="122.622563" transform="rotate(-0 401.5296 122.622563)">СТОЛБЦЫ — ЧАСТИ ДАННЫХ</text>
   </g>
   <g id="text_5">
    <text style="font-weight: 700; font-size: 9.5px; font-family: 'DejaVu Sans'; text-anchor: middle; fill: #182431" x="188.5968" y="147.798516" transform="rotate(-0 188.5968 147.798516)">Часть 1</text>
   </g>
   <g id="text_6">
    <text style="font-weight: 700; font-size: 9.5px; font-family: 'DejaVu Sans'; text-anchor: middle; fill: #182431" x="293.0544" y="147.798516" transform="rotate(-0 293.0544 147.798516)">Часть 2</text>
   </g>
   <g id="text_7">
    <text style="font-weight: 700; font-size: 9.5px; font-family: 'DejaVu Sans'; text-anchor: middle; fill: #182431" x="397.512" y="147.798516" transform="rotate(-0 397.512 147.798516)">Часть 3</text>
   </g>
   <g id="text_8">
    <text style="font-weight: 700; font-size: 9.5px; font-family: 'DejaVu Sans'; text-anchor: middle; fill: #182431" x="501.9696" y="147.798516" transform="rotate(-0 501.9696 147.798516)">Часть 4</text>
   </g>
   <g id="text_9">
    <text style="font-weight: 700; font-size: 9.5px; font-family: 'DejaVu Sans'; text-anchor: middle; fill: #182431" x="606.4272" y="147.798516" transform="rotate(-0 606.4272 147.798516)">Часть 5</text>
   </g>
   <g id="text_10">
    <text style="font-size: 9.2px; font-family: 'DejaVu Sans'; text-anchor: end; fill: #182431" x="112.2624" y="180.540625" transform="rotate(-0 112.2624 180.540625)">Итерация 1</text>
   </g>
   <g id="text_11">
    <text style="font-weight: 700; font-size: 8px; font-family: 'DejaVu Sans'; text-anchor: middle; fill: #ffffff" x="188.5968" y="180.2095" transform="rotate(-0 188.5968 180.2095)">проверка</text>
   </g>
   <g id="text_12">
    <text style="font-size: 8px; font-family: 'DejaVu Sans'; text-anchor: middle; fill: #0758b4" x="293.0544" y="180.277625" transform="rotate(-0 293.0544 180.277625)">обучение</text>
   </g>
   <g id="text_13">
    <text style="font-size: 8px; font-family: 'DejaVu Sans'; text-anchor: middle; fill: #0758b4" x="397.512" y="180.277625" transform="rotate(-0 397.512 180.277625)">обучение</text>
   </g>
   <g id="text_14">
    <text style="font-size: 8px; font-family: 'DejaVu Sans'; text-anchor: middle; fill: #0758b4" x="501.9696" y="180.277625" transform="rotate(-0 501.9696 180.277625)">обучение</text>
   </g>
   <g id="text_15">
    <text style="font-size: 8px; font-family: 'DejaVu Sans'; text-anchor: middle; fill: #0758b4" x="606.4272" y="180.277625" transform="rotate(-0 606.4272 180.277625)">обучение</text>
   </g>
   <g id="text_16">
    <text style="font-size: 9.2px; font-family: 'DejaVu Sans'; text-anchor: end; fill: #182431" x="112.2624" y="230.436625" transform="rotate(-0 112.2624 230.436625)">Итерация 2</text>
   </g>
   <g id="text_17">
    <text style="font-size: 8px; font-family: 'DejaVu Sans'; text-anchor: middle; fill: #0758b4" x="188.5968" y="230.173625" transform="rotate(-0 188.5968 230.173625)">обучение</text>
   </g>
   <g id="text_18">
    <text style="font-weight: 700; font-size: 8px; font-family: 'DejaVu Sans'; text-anchor: middle; fill: #ffffff" x="293.0544" y="230.1055" transform="rotate(-0 293.0544 230.1055)">проверка</text>
   </g>
   <g id="text_19">
    <text style="font-size: 8px; font-family: 'DejaVu Sans'; text-anchor: middle; fill: #0758b4" x="397.512" y="230.173625" transform="rotate(-0 397.512 230.173625)">обучение</text>
   </g>
   <g id="text_20">
    <text style="font-size: 8px; font-family: 'DejaVu Sans'; text-anchor: middle; fill: #0758b4" x="501.9696" y="230.173625" transform="rotate(-0 501.9696 230.173625)">обучение</text>
   </g>
   <g id="text_21">
    <text style="font-size: 8px; font-family: 'DejaVu Sans'; text-anchor: middle; fill: #0758b4" x="606.4272" y="230.173625" transform="rotate(-0 606.4272 230.173625)">обучение</text>
   </g>
   <g id="text_22">
    <text style="font-size: 9.2px; font-family: 'DejaVu Sans'; text-anchor: end; fill: #182431" x="112.2624" y="280.332625" transform="rotate(-0 112.2624 280.332625)">Итерация 3</text>
   </g>
   <g id="text_23">
    <text style="font-size: 8px; font-family: 'DejaVu Sans'; text-anchor: middle; fill: #0758b4" x="188.5968" y="280.069625" transform="rotate(-0 188.5968 280.069625)">обучение</text>
   </g>
   <g id="text_24">
    <text style="font-size: 8px; font-family: 'DejaVu Sans'; text-anchor: middle; fill: #0758b4" x="293.0544" y="280.069625" transform="rotate(-0 293.0544 280.069625)">обучение</text>
   </g>
   <g id="text_25">
    <text style="font-weight: 700; font-size: 8px; font-family: 'DejaVu Sans'; text-anchor: middle; fill: #ffffff" x="397.512" y="280.0015" transform="rotate(-0 397.512 280.0015)">проверка</text>
   </g>
   <g id="text_26">
    <text style="font-size: 8px; font-family: 'DejaVu Sans'; text-anchor: middle; fill: #0758b4" x="501.9696" y="280.069625" transform="rotate(-0 501.9696 280.069625)">обучение</text>
   </g>
   <g id="text_27">
    <text style="font-size: 8px; font-family: 'DejaVu Sans'; text-anchor: middle; fill: #0758b4" x="606.4272" y="280.069625" transform="rotate(-0 606.4272 280.069625)">обучение</text>
   </g>
   <g id="text_28">
    <text style="font-size: 9.2px; font-family: 'DejaVu Sans'; text-anchor: end; fill: #182431" x="112.2624" y="330.228625" transform="rotate(-0 112.2624 330.228625)">Итерация 4</text>
   </g>
   <g id="text_29">
    <text style="font-size: 8px; font-family: 'DejaVu Sans'; text-anchor: middle; fill: #0758b4" x="188.5968" y="329.965625" transform="rotate(-0 188.5968 329.965625)">обучение</text>
   </g>
   <g id="text_30">
    <text style="font-size: 8px; font-family: 'DejaVu Sans'; text-anchor: middle; fill: #0758b4" x="293.0544" y="329.965625" transform="rotate(-0 293.0544 329.965625)">обучение</text>
   </g>
   <g id="text_31">
    <text style="font-size: 8px; font-family: 'DejaVu Sans'; text-anchor: middle; fill: #0758b4" x="397.512" y="329.965625" transform="rotate(-0 397.512 329.965625)">обучение</text>
   </g>
   <g id="text_32">
    <text style="font-weight: 700; font-size: 8px; font-family: 'DejaVu Sans'; text-anchor: middle; fill: #ffffff" x="501.9696" y="329.8975" transform="rotate(-0 501.9696 329.8975)">проверка</text>
   </g>
   <g id="text_33">
    <text style="font-size: 8px; font-family: 'DejaVu Sans'; text-anchor: middle; fill: #0758b4" x="606.4272" y="329.965625" transform="rotate(-0 606.4272 329.965625)">обучение</text>
   </g>
   <g id="text_34">
    <text style="font-size: 9.2px; font-family: 'DejaVu Sans'; text-anchor: end; fill: #182431" x="112.2624" y="380.124625" transform="rotate(-0 112.2624 380.124625)">Итерация 5</text>
   </g>
   <g id="text_35">
    <text style="font-size: 8px; font-family: 'DejaVu Sans'; text-anchor: middle; fill: #0758b4" x="188.5968" y="379.861625" transform="rotate(-0 188.5968 379.861625)">обучение</text>
   </g>
   <g id="text_36">
    <text style="font-size: 8px; font-family: 'DejaVu Sans'; text-anchor: middle; fill: #0758b4" x="293.0544" y="379.861625" transform="rotate(-0 293.0544 379.861625)">обучение</text>
   </g>
   <g id="text_37">
    <text style="font-size: 8px; font-family: 'DejaVu Sans'; text-anchor: middle; fill: #0758b4" x="397.512" y="379.861625" transform="rotate(-0 397.512 379.861625)">обучение</text>
   </g>
   <g id="text_38">
    <text style="font-size: 8px; font-family: 'DejaVu Sans'; text-anchor: middle; fill: #0758b4" x="501.9696" y="379.861625" transform="rotate(-0 501.9696 379.861625)">обучение</text>
   </g>
   <g id="text_39">
    <text style="font-weight: 700; font-size: 8px; font-family: 'DejaVu Sans'; text-anchor: middle; fill: #ffffff" x="606.4272" y="379.7935" transform="rotate(-0 606.4272 379.7935)">проверка</text>
   </g>
   <g id="text_40">
    <text style="font-weight: 700; font-size: 10.5px; font-family: 'DejaVu Sans'; text-anchor: middle; fill: #7657e8" x="401.5296" y="442.983773" transform="rotate(-0 401.5296 442.983773)">Внефолдовый прогноз: модель не обучалась на проверяемом объекте.</text>
   </g>
   <g id="text_41">
    <text style="font-weight: 700; font-size: 10px; font-family: 'DejaVu Sans'; text-anchor: middle; fill: #182431" x="734.9904" y="173.126438" transform="rotate(-0 734.9904 173.126438)">МЕТРИКА</text>
   </g>
   <g id="text_42">
    <text style="font-size: 9px; font-family: 'DejaVu Sans'; text-anchor: start; fill: #5d6b78" x="706.8672" y="217.272994" transform="rotate(-0 706.8672 217.272994)">1</text>
   </g>
   <g id="text_43">
    <text style="font-size: 8.5px; font-family: 'DejaVu Sans'; text-anchor: end; fill: #182431" x="775.1664" y="210.285069" transform="rotate(-0 775.1664 210.285069)">0.80</text>
   </g>
   <g id="text_44">
    <text style="font-size: 9px; font-family: 'DejaVu Sans'; text-anchor: start; fill: #5d6b78" x="706.8672" y="247.210594" transform="rotate(-0 706.8672 247.210594)">2</text>
   </g>
   <g id="text_45">
    <text style="font-size: 8.5px; font-family: 'DejaVu Sans'; text-anchor: end; fill: #182431" x="775.1664" y="240.222669" transform="rotate(-0 775.1664 240.222669)">0.85</text>
   </g>
   <g id="text_46">
    <text style="font-size: 9px; font-family: 'DejaVu Sans'; text-anchor: start; fill: #5d6b78" x="706.8672" y="277.148194" transform="rotate(-0 706.8672 277.148194)">3</text>
   </g>
   <g id="text_47">
    <text style="font-size: 8.5px; font-family: 'DejaVu Sans'; text-anchor: end; fill: #182431" x="775.1664" y="270.160269" transform="rotate(-0 775.1664 270.160269)">0.90</text>
   </g>
   <g id="text_48">
    <text style="font-size: 9px; font-family: 'DejaVu Sans'; text-anchor: start; fill: #5d6b78" x="706.8672" y="307.085794" transform="rotate(-0 706.8672 307.085794)">4</text>
   </g>
   <g id="text_49">
    <text style="font-size: 8.5px; font-family: 'DejaVu Sans'; text-anchor: end; fill: #182431" x="775.1664" y="300.097869" transform="rotate(-0 775.1664 300.097869)">0.75</text>
   </g>
   <g id="text_50">
    <text style="font-size: 9px; font-family: 'DejaVu Sans'; text-anchor: start; fill: #5d6b78" x="706.8672" y="337.023394" transform="rotate(-0 706.8672 337.023394)">5</text>
   </g>
   <g id="text_51">
    <text style="font-size: 8.5px; font-family: 'DejaVu Sans'; text-anchor: end; fill: #182431" x="775.1664" y="330.035469" transform="rotate(-0 775.1664 330.035469)">0.95</text>
   </g>
   <g id="text_52">
    <text style="font-weight: 700; font-size: 9.3px; font-family: 'DejaVu Sans'; text-anchor: middle; fill: #0758b4" x="734.9904" y="347.230547" transform="rotate(-0 734.9904 347.230547)">среднее 0,85</text>
   </g>
   <g id="text_53">
    <text style="font-weight: 700; font-size: 8.8px; font-family: 'DejaVu Sans'; text-anchor: middle; fill: #ce3b36" x="734.9904" y="367.0964" transform="rotate(-0 734.9904 367.0964)">разброс важен</text>
   </g>
  </g>
 </g>
 <defs>
  <clipPath id="p8c755e3773">
   <rect x="15.84" y="15.84" width="803.52" height="498.96"/>
  </clipPath>
 </defs>
</svg>
