<?xml version="1.0" encoding="utf-8" standalone="no"?>
<!DOCTYPE svg PUBLIC "-//W3C//DTD SVG 1.1//EN"
  "http://www.w3.org/Graphics/SVG/1.1/DTD/svg11.dtd">
<svg xmlns:xlink="http://www.w3.org/1999/xlink" width="835.2pt" height="530.64pt" viewBox="0 0 835.2 530.64" xmlns="http://www.w3.org/2000/svg" version="1.1">
 <metadata>
  <rdf:RDF xmlns:dc="http://purl.org/dc/elements/1.1/" xmlns:cc="http://creativecommons.org/ns#" xmlns:rdf="http://www.w3.org/1999/02/22-rdf-syntax-ns#">
   <cc:Work>
    <dc:type rdf:resource="http://purl.org/dc/dcmitype/StillImage"/>
    <dc:format>image/svg+xml</dc:format>
    <dc:creator>
     <cc:Agent>
      <dc:title>Matplotlib v3.10.8, https://matplotlib.org/</dc:title>
     </cc:Agent>
    </dc:creator>
   </cc:Work>
  </rdf:RDF>
 </metadata>
 <defs>
  <style type="text/css">*{stroke-linejoin: round; stroke-linecap: butt}</style>
 </defs>
 <g id="figure_1">
  <g id="patch_1">
   <path d="M 0 530.64
L 835.2 530.64
L 835.2 0
L 0 0
z
" style="fill: #ffffff"/>
  </g>
  <g id="axes_1">
   <g id="patch_2">
    <path d="M 90.1656 118.87524
L 745.0344 118.87524
Q 757.89072 118.87524 757.89072 126.8586
L 757.89072 423.7398
Q 757.89072 431.72316 745.0344 431.72316
L 90.1656 431.72316
Q 77.30928 431.72316 77.30928 423.7398
L 77.30928 126.8586
Q 77.30928 118.87524 90.1656 118.87524
z
" clip-path="url(#p8c755e3773)" style="fill: #eaf4ff; stroke: #9bcbfa; stroke-width: 1.1; stroke-linejoin: miter"/>
   </g>
   <g id="patch_3">
    <path d="M 152.4384 390.06
L 305.1072 390.06
L 305.1072 140.58
L 152.4384 140.58
z
" clip-path="url(#p8c755e3773)" style="fill: #0b70e0; opacity: 0.06"/>
   </g>
   <g id="patch_4">
    <path d="M 305.1072 390.06
L 489.9168 390.06
L 489.9168 140.58
L 305.1072 140.58
z
" clip-path="url(#p8c755e3773)" style="fill: #138a57; opacity: 0.08"/>
   </g>
   <g id="patch_5">
    <path d="M 489.9168 390.06
L 690.7968 390.06
L 690.7968 140.58
L 489.9168 140.58
z
" clip-path="url(#p8c755e3773)" style="fill: #ce3b36; opacity: 0.06"/>
   </g>
   <g id="patch_6">
    <path d="M 146.412 448.18884
L 688.788 448.18884
Q 701.64432 448.18884 701.64432 456.1722
L 701.64432 483.615
Q 701.64432 491.59836 688.788 491.59836
L 146.412 491.59836
Q 133.55568 491.59836 133.55568 483.615
L 133.55568 456.1722
Q 133.55568 448.18884 146.412 448.18884
z
" clip-path="url(#p8c755e3773)" style="fill: #fff4dd; stroke: #f2c36f; stroke-width: 1.1; stroke-linejoin: miter"/>
   </g>
   <g id="line2d_1">
    <path d="M 47.9808 90.684
L 787.2192 90.684
" clip-path="url(#p8c755e3773)" style="fill: none; stroke: #d9e3ec; stroke-linecap: square"/>
   </g>
   <g id="line2d_2">
    <path d="M 152.4384 175.5072
L 152.4384 380.0808
" clip-path="url(#p8c755e3773)" style="fill: none; stroke: #182431; stroke-width: 1.4; stroke-linecap: square"/>
   </g>
   <g id="line2d_3">
    <path d="M 152.4384 380.0808
L 690.7968 380.0808
" clip-path="url(#p8c755e3773)" style="fill: none; stroke: #182431; stroke-width: 1.4; stroke-linecap: square"/>
   </g>
   <g id="line2d_4">
    <path d="M 160.4736 345.1536
L 240.8256 310.2264
L 329.2128 275.2992
L 417.6 245.3616
L 505.9872 220.4136
L 594.3744 195.4656
L 674.7264 175.5072
" clip-path="url(#p8c755e3773)" style="fill: none; stroke: #0b70e0; stroke-width: 2.3; stroke-linecap: square"/>
    <defs>
     <path id="md1881c84a1" d="M 0 3
C 0.795609 3 1.55874 2.683901 2.12132 2.12132
C 2.683901 1.55874 3 0.795609 3 0
C 3 -0.795609 2.683901 -1.55874 2.12132 -2.12132
C 1.55874 -2.683901 0.795609 -3 0 -3
C -0.795609 -3 -1.55874 -2.683901 -2.12132 -2.12132
C -2.683901 -1.55874 -3 -0.795609 -3 0
C -3 0.795609 -2.683901 1.55874 -2.12132 2.12132
C -1.55874 2.683901 -0.795609 3 0 3
z
" style="stroke: #0b70e0"/>
    </defs>
    <g clip-path="url(#p8c755e3773)">
     <use xlink:href="#md1881c84a1" x="160.4736" y="345.1536" style="fill: #0b70e0; stroke: #0b70e0"/>
     <use xlink:href="#md1881c84a1" x="240.8256" y="310.2264" style="fill: #0b70e0; stroke: #0b70e0"/>
     <use xlink:href="#md1881c84a1" x="329.2128" y="275.2992" style="fill: #0b70e0; stroke: #0b70e0"/>
     <use xlink:href="#md1881c84a1" x="417.6" y="245.3616" style="fill: #0b70e0; stroke: #0b70e0"/>
     <use xlink:href="#md1881c84a1" x="505.9872" y="220.4136" style="fill: #0b70e0; stroke: #0b70e0"/>
     <use xlink:href="#md1881c84a1" x="594.3744" y="195.4656" style="fill: #0b70e0; stroke: #0b70e0"/>
     <use xlink:href="#md1881c84a1" x="674.7264" y="175.5072" style="fill: #0b70e0; stroke: #0b70e0"/>
    </g>
   </g>
   <g id="line2d_5">
    <path d="M 160.4736 355.1328
L 240.8256 310.2264
L 329.2128 260.3304
L 417.6 225.4032
L 505.9872 235.3824
L 594.3744 280.2888
L 674.7264 340.164
" clip-path="url(#p8c755e3773)" style="fill: none; stroke: #ce3b36; stroke-width: 2.3; stroke-linecap: square"/>
    <defs>
     <path id="m281140b234" d="M -3 3
L 3 3
L 3 -3
L -3 -3
z
" style="stroke: #ce3b36; stroke-linejoin: miter"/>
    </defs>
    <g clip-path="url(#p8c755e3773)">
     <use xlink:href="#m281140b234" x="160.4736" y="355.1328" style="fill: #ce3b36; stroke: #ce3b36; stroke-linejoin: miter"/>
     <use xlink:href="#m281140b234" x="240.8256" y="310.2264" style="fill: #ce3b36; stroke: #ce3b36; stroke-linejoin: miter"/>
     <use xlink:href="#m281140b234" x="329.2128" y="260.3304" style="fill: #ce3b36; stroke: #ce3b36; stroke-linejoin: miter"/>
     <use xlink:href="#m281140b234" x="417.6" y="225.4032" style="fill: #ce3b36; stroke: #ce3b36; stroke-linejoin: miter"/>
     <use xlink:href="#m281140b234" x="505.9872" y="235.3824" style="fill: #ce3b36; stroke: #ce3b36; stroke-linejoin: miter"/>
     <use xlink:href="#m281140b234" x="594.3744" y="280.2888" style="fill: #ce3b36; stroke: #ce3b36; stroke-linejoin: miter"/>
     <use xlink:href="#m281140b234" x="674.7264" y="340.164" style="fill: #ce3b36; stroke: #ce3b36; stroke-linejoin: miter"/>
    </g>
   </g>
   <g id="text_1">
    <text style="font-weight: 700; font-size: 24px; font-family: 'DejaVu Sans'; text-anchor: start; fill: #182431" x="47.9808" y="54.03465" transform="rotate(-0 47.9808 54.03465)">Сложность модели и две ошибки</text>
   </g>
   <g id="text_2">
    <text style="font-size: 11px; font-family: 'DejaVu Sans'; text-anchor: start; fill: #5d6b78" x="47.9808" y="74.281625" transform="rotate(-0 47.9808 74.281625)">Сравниваем ошибку на обучении и на проверке.</text>
   </g>
   <g id="text_3">
    <text style="font-weight: 700; font-size: 9.5px; font-family: 'DejaVu Sans'; text-anchor: middle; fill: #0b70e0" x="224.7552" y="162.767316" transform="rotate(-0 224.7552 162.767316)">НЕДООБУЧЕНИЕ</text>
   </g>
   <g id="text_4">
    <text style="font-weight: 700; font-size: 9.5px; font-family: 'DejaVu Sans'; text-anchor: middle; fill: #138a57" x="401.5296" y="162.767316" transform="rotate(-0 401.5296 162.767316)">ПОДХОДЯЩАЯ СЛОЖНОСТЬ</text>
   </g>
   <g id="text_5">
    <text style="font-weight: 700; font-size: 9.5px; font-family: 'DejaVu Sans'; text-anchor: middle; fill: #ce3b36" x="594.3744" y="162.767316" transform="rotate(-0 594.3744 162.767316)">ПЕРЕОБУЧЕНИЕ</text>
   </g>
   <g id="text_6">
    <text style="font-size: 9px; font-family: 'DejaVu Sans'; text-anchor: middle; fill: #5d6b78" x="120.2976" y="267.803438" transform="rotate(-0 120.2976 267.803438)">ошибка</text>
   </g>
   <g id="text_7">
    <text style="font-size: 9.5px; font-family: 'DejaVu Sans'; text-anchor: middle; fill: #5d6b78" x="417.6" y="412.247316" transform="rotate(-0 417.6 412.247316)">сложность модели</text>
   </g>
   <g id="text_8">
    <text style="font-weight: 700; font-size: 9.5px; font-family: 'DejaVu Sans'; text-anchor: start; fill: #0b70e0" x="546.1632" y="207.98395" transform="rotate(-0 546.1632 207.98395)">обучение</text>
   </g>
   <g id="text_9">
    <text style="font-weight: 700; font-size: 9.5px; font-family: 'DejaVu Sans'; text-anchor: start; fill: #ce3b36" x="554.1984" y="322.434516" transform="rotate(-0 554.1984 322.434516)">проверка</text>
   </g>
   <g id="text_10">
    <text style="font-weight: 700; font-size: 10.5px; font-family: 'DejaVu Sans'; text-anchor: middle; fill: #b96a00" x="417.6" y="472.921373" transform="rotate(-0 417.6 472.921373)">Минимальная ошибка на обучении не означает лучшую работу на новых данных.</text>
   </g>
  </g>
 </g>
 <defs>
  <clipPath id="p8c755e3773">
   <rect x="15.84" y="15.84" width="803.52" height="498.96"/>
  </clipPath>
 </defs>
</svg>
