<?xml version="1.0" encoding="utf-8" standalone="no"?>
<!DOCTYPE svg PUBLIC "-//W3C//DTD SVG 1.1//EN"
  "http://www.w3.org/Graphics/SVG/1.1/DTD/svg11.dtd">
<svg xmlns:xlink="http://www.w3.org/1999/xlink" width="835.2pt" height="530.64pt" viewBox="0 0 835.2 530.64" xmlns="http://www.w3.org/2000/svg" version="1.1">
 <metadata>
  <rdf:RDF xmlns:dc="http://purl.org/dc/elements/1.1/" xmlns:cc="http://creativecommons.org/ns#" xmlns:rdf="http://www.w3.org/1999/02/22-rdf-syntax-ns#">
   <cc:Work>
    <dc:type rdf:resource="http://purl.org/dc/dcmitype/StillImage"/>
    <dc:format>image/svg+xml</dc:format>
    <dc:creator>
     <cc:Agent>
      <dc:title>Matplotlib v3.10.8, https://matplotlib.org/</dc:title>
     </cc:Agent>
    </dc:creator>
   </cc:Work>
  </rdf:RDF>
 </metadata>
 <defs>
  <style type="text/css">*{stroke-linejoin: round; stroke-linecap: butt}</style>
 </defs>
 <g id="figure_1">
  <g id="patch_1">
   <path d="M 0 530.64
L 835.2 530.64
L 835.2 0
L 0 0
z
" style="fill: #ffffff"/>
  </g>
  <g id="axes_1">
   <g id="patch_2">
    <path d="M 130.3416 148.81284
L 262.9224 148.81284
Q 275.77872 148.81284 275.77872 156.7962
L 275.77872 229.1454
Q 275.77872 237.12876 262.9224 237.12876
L 130.3416 237.12876
Q 117.48528 237.12876 117.48528 229.1454
L 117.48528 156.7962
Q 117.48528 148.81284 130.3416 148.81284
z
" clip-path="url(#p8c755e3773)" style="fill: #e8f7ef; stroke: #138a57; stroke-width: 1.1; stroke-linejoin: miter"/>
   </g>
   <g id="patch_3">
    <path d="M 299.0808 148.81284
L 431.6616 148.81284
Q 444.51792 148.81284 444.51792 156.7962
L 444.51792 229.1454
Q 444.51792 237.12876 431.6616 237.12876
L 299.0808 237.12876
Q 286.22448 237.12876 286.22448 229.1454
L 286.22448 156.7962
Q 286.22448 148.81284 299.0808 148.81284
z
" clip-path="url(#p8c755e3773)" style="fill: #fff0ef; stroke: #ce3b36; stroke-width: 1.1; stroke-linejoin: miter"/>
   </g>
   <g id="patch_4">
    <path d="M 130.3416 248.60484
L 262.9224 248.60484
Q 275.77872 248.60484 275.77872 256.5882
L 275.77872 328.9374
Q 275.77872 336.92076 262.9224 336.92076
L 130.3416 336.92076
Q 117.48528 336.92076 117.48528 328.9374
L 117.48528 256.5882
Q 117.48528 248.60484 130.3416 248.60484
z
" clip-path="url(#p8c755e3773)" style="fill: #fff0ef; stroke: #ce3b36; stroke-width: 1.1; stroke-linejoin: miter"/>
   </g>
   <g id="patch_5">
    <path d="M 299.0808 248.60484
L 431.6616 248.60484
Q 444.51792 248.60484 444.51792 256.5882
L 444.51792 328.9374
Q 444.51792 336.92076 431.6616 336.92076
L 299.0808 336.92076
Q 286.22448 336.92076 286.22448 328.9374
L 286.22448 256.5882
Q 286.22448 248.60484 299.0808 248.60484
z
" clip-path="url(#p8c755e3773)" style="fill: #e8f7ef; stroke: #138a57; stroke-width: 1.1; stroke-linejoin: miter"/>
   </g>
   <g id="patch_6">
    <path d="M 507.996 123.86484
L 769.14 123.86484
Q 781.99632 123.86484 781.99632 131.8482
L 781.99632 378.8334
Q 781.99632 386.81676 769.14 386.81676
L 507.996 386.81676
Q 495.13968 386.81676 495.13968 378.8334
L 495.13968 131.8482
Q 495.13968 123.86484 507.996 123.86484
z
" clip-path="url(#p8c755e3773)" style="fill: #fff4dd; stroke: #f2c36f; stroke-width: 1.1; stroke-linejoin: miter"/>
   </g>
   <g id="patch_7">
    <path d="M 526.47696 138.83364
L 654.23664 138.83364
Q 661.46832 138.83364 661.46832 143.32428
L 661.46832 164.2806
Q 661.46832 168.77124 654.23664 168.77124
L 526.47696 168.77124
Q 519.24528 168.77124 519.24528 164.2806
L 519.24528 143.32428
Q 519.24528 138.83364 526.47696 138.83364
z
" clip-path="url(#p8c755e3773)" style="fill: #b96a00; stroke: #b96a00; stroke-width: 1.1; stroke-linejoin: miter"/>
   </g>
   <g id="patch_8">
    <path d="M 530.0928 203.19948
C 531.051732 203.19948 531.971518 203.436061 532.649585 203.857119
C 533.327652 204.278177 533.70864 204.849334 533.70864 205.4448
C 533.70864 206.040266 533.327652 206.611423 532.649585 207.032481
C 531.971518 207.453539 531.051732 207.69012 530.0928 207.69012
C 529.133868 207.69012 528.214082 207.453539 527.536015 207.032481
C 526.857948 206.611423 526.47696 206.040266 526.47696 205.4448
C 526.47696 204.849334 526.857948 204.278177 527.536015 203.857119
C 528.214082 203.436061 529.133868 203.19948 530.0928 203.19948
z
" clip-path="url(#p8c755e3773)" style="fill: #aab7c2"/>
   </g>
   <g id="patch_9">
    <path d="M 540.94032 203.19948
C 541.899252 203.19948 542.819038 203.436061 543.497105 203.857119
C 544.175172 204.278177 544.55616 204.849334 544.55616 205.4448
C 544.55616 206.040266 544.175172 206.611423 543.497105 207.032481
C 542.819038 207.453539 541.899252 207.69012 540.94032 207.69012
C 539.981388 207.69012 539.061602 207.453539 538.383535 207.032481
C 537.705468 206.611423 537.32448 206.040266 537.32448 205.4448
C 537.32448 204.849334 537.705468 204.278177 538.383535 203.857119
C 539.061602 203.436061 539.981388 203.19948 540.94032 203.19948
z
" clip-path="url(#p8c755e3773)" style="fill: #aab7c2"/>
   </g>
   <g id="patch_10">
    <path d="M 551.78784 203.19948
C 552.746772 203.19948 553.666558 203.436061 554.344625 203.857119
C 555.022692 204.278177 555.40368 204.849334 555.40368 205.4448
C 555.40368 206.040266 555.022692 206.611423 554.344625 207.032481
C 553.666558 207.453539 552.746772 207.69012 551.78784 207.69012
C 550.828908 207.69012 549.909122 207.453539 549.231055 207.032481
C 548.552988 206.611423 548.172 206.040266 548.172 205.4448
C 548.172 204.849334 548.552988 204.278177 549.231055 203.857119
C 549.909122 203.436061 550.828908 203.19948 551.78784 203.19948
z
" clip-path="url(#p8c755e3773)" style="fill: #aab7c2"/>
   </g>
   <g id="patch_11">
    <path d="M 562.63536 203.19948
C 563.594292 203.19948 564.514078 203.436061 565.192145 203.857119
C 565.870212 204.278177 566.2512 204.849334 566.2512 205.4448
C 566.2512 206.040266 565.870212 206.611423 565.192145 207.032481
C 564.514078 207.453539 563.594292 207.69012 562.63536 207.69012
C 561.676428 207.69012 560.756642 207.453539 560.078575 207.032481
C 559.400508 206.611423 559.01952 206.040266 559.01952 205.4448
C 559.01952 204.849334 559.400508 204.278177 560.078575 203.857119
C 560.756642 203.436061 561.676428 203.19948 562.63536 203.19948
z
" clip-path="url(#p8c755e3773)" style="fill: #aab7c2"/>
   </g>
   <g id="patch_12">
    <path d="M 573.48288 203.19948
C 574.441812 203.19948 575.361598 203.436061 576.039665 203.857119
C 576.717732 204.278177 577.09872 204.849334 577.09872 205.4448
C 577.09872 206.040266 576.717732 206.611423 576.039665 207.032481
C 575.361598 207.453539 574.441812 207.69012 573.48288 207.69012
C 572.523948 207.69012 571.604162 207.453539 570.926095 207.032481
C 570.248028 206.611423 569.86704 206.040266 569.86704 205.4448
C 569.86704 204.849334 570.248028 204.278177 570.926095 203.857119
C 571.604162 203.436061 572.523948 203.19948 573.48288 203.19948
z
" clip-path="url(#p8c755e3773)" style="fill: #aab7c2"/>
   </g>
   <g id="patch_13">
    <path d="M 584.3304 203.19948
C 585.289332 203.19948 586.209118 203.436061 586.887185 203.857119
C 587.565252 204.278177 587.94624 204.849334 587.94624 205.4448
C 587.94624 206.040266 587.565252 206.611423 586.887185 207.032481
C 586.209118 207.453539 585.289332 207.69012 584.3304 207.69012
C 583.371468 207.69012 582.451682 207.453539 581.773615 207.032481
C 581.095548 206.611423 580.71456 206.040266 580.71456 205.4448
C 580.71456 204.849334 581.095548 204.278177 581.773615 203.857119
C 582.451682 203.436061 583.371468 203.19948 584.3304 203.19948
z
" clip-path="url(#p8c755e3773)" style="fill: #aab7c2"/>
   </g>
   <g id="patch_14">
    <path d="M 595.17792 203.19948
C 596.136852 203.19948 597.056638 203.436061 597.734705 203.857119
C 598.412772 204.278177 598.79376 204.849334 598.79376 205.4448
C 598.79376 206.040266 598.412772 206.611423 597.734705 207.032481
C 597.056638 207.453539 596.136852 207.69012 595.17792 207.69012
C 594.218988 207.69012 593.299202 207.453539 592.621135 207.032481
C 591.943068 206.611423 591.56208 206.040266 591.56208 205.4448
C 591.56208 204.849334 591.943068 204.278177 592.621135 203.857119
C 593.299202 203.436061 594.218988 203.19948 595.17792 203.19948
z
" clip-path="url(#p8c755e3773)" style="fill: #aab7c2"/>
   </g>
   <g id="patch_15">
    <path d="M 606.02544 203.19948
C 606.984372 203.19948 607.904158 203.436061 608.582225 203.857119
C 609.260292 204.278177 609.64128 204.849334 609.64128 205.4448
C 609.64128 206.040266 609.260292 206.611423 608.582225 207.032481
C 607.904158 207.453539 606.984372 207.69012 606.02544 207.69012
C 605.066508 207.69012 604.146722 207.453539 603.468655 207.032481
C 602.790588 206.611423 602.4096 206.040266 602.4096 205.4448
C 602.4096 204.849334 602.790588 204.278177 603.468655 203.857119
C 604.146722 203.436061 605.066508 203.19948 606.02544 203.19948
z
" clip-path="url(#p8c755e3773)" style="fill: #aab7c2"/>
   </g>
   <g id="patch_16">
    <path d="M 616.87296 203.19948
C 617.831892 203.19948 618.751678 203.436061 619.429745 203.857119
C 620.107812 204.278177 620.4888 204.849334 620.4888 205.4448
C 620.4888 206.040266 620.107812 206.611423 619.429745 207.032481
C 618.751678 207.453539 617.831892 207.69012 616.87296 207.69012
C 615.914028 207.69012 614.994242 207.453539 614.316175 207.032481
C 613.638108 206.611423 613.25712 206.040266 613.25712 205.4448
C 613.25712 204.849334 613.638108 204.278177 614.316175 203.857119
C 614.994242 203.436061 615.914028 203.19948 616.87296 203.19948
z
" clip-path="url(#p8c755e3773)" style="fill: #aab7c2"/>
   </g>
   <g id="patch_17">
    <path d="M 627.72048 203.19948
C 628.679412 203.19948 629.599198 203.436061 630.277265 203.857119
C 630.955332 204.278177 631.33632 204.849334 631.33632 205.4448
C 631.33632 206.040266 630.955332 206.611423 630.277265 207.032481
C 629.599198 207.453539 628.679412 207.69012 627.72048 207.69012
C 626.761548 207.69012 625.841762 207.453539 625.163695 207.032481
C 624.485628 206.611423 624.10464 206.040266 624.10464 205.4448
C 624.10464 204.849334 624.485628 204.278177 625.163695 203.857119
C 625.841762 203.436061 626.761548 203.19948 627.72048 203.19948
z
" clip-path="url(#p8c755e3773)" style="fill: #aab7c2"/>
   </g>
   <g id="patch_18">
    <path d="M 638.568 203.19948
C 639.526932 203.19948 640.446718 203.436061 641.124785 203.857119
C 641.802852 204.278177 642.18384 204.849334 642.18384 205.4448
C 642.18384 206.040266 641.802852 206.611423 641.124785 207.032481
C 640.446718 207.453539 639.526932 207.69012 638.568 207.69012
C 637.609068 207.69012 636.689282 207.453539 636.011215 207.032481
C 635.333148 206.611423 634.95216 206.040266 634.95216 205.4448
C 634.95216 204.849334 635.333148 204.278177 636.011215 203.857119
C 636.689282 203.436061 637.609068 203.19948 638.568 203.19948
z
" clip-path="url(#p8c755e3773)" style="fill: #aab7c2"/>
   </g>
   <g id="patch_19">
    <path d="M 649.41552 203.19948
C 650.374452 203.19948 651.294238 203.436061 651.972305 203.857119
C 652.650372 204.278177 653.03136 204.849334 653.03136 205.4448
C 653.03136 206.040266 652.650372 206.611423 651.972305 207.032481
C 651.294238 207.453539 650.374452 207.69012 649.41552 207.69012
C 648.456588 207.69012 647.536802 207.453539 646.858735 207.032481
C 646.180668 206.611423 645.79968 206.040266 645.79968 205.4448
C 645.79968 204.849334 646.180668 204.278177 646.858735 203.857119
C 647.536802 203.436061 648.456588 203.19948 649.41552 203.19948
z
" clip-path="url(#p8c755e3773)" style="fill: #aab7c2"/>
   </g>
   <g id="patch_20">
    <path d="M 660.26304 203.19948
C 661.221972 203.19948 662.141758 203.436061 662.819825 203.857119
C 663.497892 204.278177 663.87888 204.849334 663.87888 205.4448
C 663.87888 206.040266 663.497892 206.611423 662.819825 207.032481
C 662.141758 207.453539 661.221972 207.69012 660.26304 207.69012
C 659.304108 207.69012 658.384322 207.453539 657.706255 207.032481
C 657.028188 206.611423 656.6472 206.040266 656.6472 205.4448
C 656.6472 204.849334 657.028188 204.278177 657.706255 203.857119
C 658.384322 203.436061 659.304108 203.19948 660.26304 203.19948
z
" clip-path="url(#p8c755e3773)" style="fill: #aab7c2"/>
   </g>
   <g id="patch_21">
    <path d="M 671.11056 203.19948
C 672.069492 203.19948 672.989278 203.436061 673.667345 203.857119
C 674.345412 204.278177 674.7264 204.849334 674.7264 205.4448
C 674.7264 206.040266 674.345412 206.611423 673.667345 207.032481
C 672.989278 207.453539 672.069492 207.69012 671.11056 207.69012
C 670.151628 207.69012 669.231842 207.453539 668.553775 207.032481
C 667.875708 206.611423 667.49472 206.040266 667.49472 205.4448
C 667.49472 204.849334 667.875708 204.278177 668.553775 203.857119
C 669.231842 203.436061 670.151628 203.19948 671.11056 203.19948
z
" clip-path="url(#p8c755e3773)" style="fill: #aab7c2"/>
   </g>
   <g id="patch_22">
    <path d="M 681.95808 203.19948
C 682.917012 203.19948 683.836798 203.436061 684.514865 203.857119
C 685.192932 204.278177 685.57392 204.849334 685.57392 205.4448
C 685.57392 206.040266 685.192932 206.611423 684.514865 207.032481
C 683.836798 207.453539 682.917012 207.69012 681.95808 207.69012
C 680.999148 207.69012 680.079362 207.453539 679.401295 207.032481
C 678.723228 206.611423 678.34224 206.040266 678.34224 205.4448
C 678.34224 204.849334 678.723228 204.278177 679.401295 203.857119
C 680.079362 203.436061 680.999148 203.19948 681.95808 203.19948
z
" clip-path="url(#p8c755e3773)" style="fill: #aab7c2"/>
   </g>
   <g id="patch_23">
    <path d="M 692.8056 203.19948
C 693.764532 203.19948 694.684318 203.436061 695.362385 203.857119
C 696.040452 204.278177 696.42144 204.849334 696.42144 205.4448
C 696.42144 206.040266 696.040452 206.611423 695.362385 207.032481
C 694.684318 207.453539 693.764532 207.69012 692.8056 207.69012
C 691.846668 207.69012 690.926882 207.453539 690.248815 207.032481
C 689.570748 206.611423 689.18976 206.040266 689.18976 205.4448
C 689.18976 204.849334 689.570748 204.278177 690.248815 203.857119
C 690.926882 203.436061 691.846668 203.19948 692.8056 203.19948
z
" clip-path="url(#p8c755e3773)" style="fill: #aab7c2"/>
   </g>
   <g id="patch_24">
    <path d="M 703.65312 203.19948
C 704.612052 203.19948 705.531838 203.436061 706.209905 203.857119
C 706.887972 204.278177 707.26896 204.849334 707.26896 205.4448
C 707.26896 206.040266 706.887972 206.611423 706.209905 207.032481
C 705.531838 207.453539 704.612052 207.69012 703.65312 207.69012
C 702.694188 207.69012 701.774402 207.453539 701.096335 207.032481
C 700.418268 206.611423 700.03728 206.040266 700.03728 205.4448
C 700.03728 204.849334 700.418268 204.278177 701.096335 203.857119
C 701.774402 203.436061 702.694188 203.19948 703.65312 203.19948
z
" clip-path="url(#p8c755e3773)" style="fill: #aab7c2"/>
   </g>
   <g id="patch_25">
    <path d="M 714.50064 203.19948
C 715.459572 203.19948 716.379358 203.436061 717.057425 203.857119
C 717.735492 204.278177 718.11648 204.849334 718.11648 205.4448
C 718.11648 206.040266 717.735492 206.611423 717.057425 207.032481
C 716.379358 207.453539 715.459572 207.69012 714.50064 207.69012
C 713.541708 207.69012 712.621922 207.453539 711.943855 207.032481
C 711.265788 206.611423 710.8848 206.040266 710.8848 205.4448
C 710.8848 204.849334 711.265788 204.278177 711.943855 203.857119
C 712.621922 203.436061 713.541708 203.19948 714.50064 203.19948
z
" clip-path="url(#p8c755e3773)" style="fill: #aab7c2"/>
   </g>
   <g id="patch_26">
    <path d="M 725.34816 203.19948
C 726.307092 203.19948 727.226878 203.436061 727.904945 203.857119
C 728.583012 204.278177 728.964 204.849334 728.964 205.4448
C 728.964 206.040266 728.583012 206.611423 727.904945 207.032481
C 727.226878 207.453539 726.307092 207.69012 725.34816 207.69012
C 724.389228 207.69012 723.469442 207.453539 722.791375 207.032481
C 722.113308 206.611423 721.73232 206.040266 721.73232 205.4448
C 721.73232 204.849334 722.113308 204.278177 722.791375 203.857119
C 723.469442 203.436061 724.389228 203.19948 725.34816 203.19948
z
" clip-path="url(#p8c755e3773)" style="fill: #aab7c2"/>
   </g>
   <g id="patch_27">
    <path d="M 736.19568 203.19948
C 737.154612 203.19948 738.074398 203.436061 738.752465 203.857119
C 739.430532 204.278177 739.81152 204.849334 739.81152 205.4448
C 739.81152 206.040266 739.430532 206.611423 738.752465 207.032481
C 738.074398 207.453539 737.154612 207.69012 736.19568 207.69012
C 735.236748 207.69012 734.316962 207.453539 733.638895 207.032481
C 732.960828 206.611423 732.57984 206.040266 732.57984 205.4448
C 732.57984 204.849334 732.960828 204.278177 733.638895 203.857119
C 734.316962 203.436061 735.236748 203.19948 736.19568 203.19948
z
" clip-path="url(#p8c755e3773)" style="fill: #aab7c2"/>
   </g>
   <g id="patch_28">
    <path d="M 530.0928 218.16828
C 531.051732 218.16828 531.971518 218.404861 532.649585 218.825919
C 533.327652 219.246977 533.70864 219.818134 533.70864 220.4136
C 533.70864 221.009066 533.327652 221.580223 532.649585 222.001281
C 531.971518 222.422339 531.051732 222.65892 530.0928 222.65892
C 529.133868 222.65892 528.214082 222.422339 527.536015 222.001281
C 526.857948 221.580223 526.47696 221.009066 526.47696 220.4136
C 526.47696 219.818134 526.857948 219.246977 527.536015 218.825919
C 528.214082 218.404861 529.133868 218.16828 530.0928 218.16828
z
" clip-path="url(#p8c755e3773)" style="fill: #aab7c2"/>
   </g>
   <g id="patch_29">
    <path d="M 540.94032 218.16828
C 541.899252 218.16828 542.819038 218.404861 543.497105 218.825919
C 544.175172 219.246977 544.55616 219.818134 544.55616 220.4136
C 544.55616 221.009066 544.175172 221.580223 543.497105 222.001281
C 542.819038 222.422339 541.899252 222.65892 540.94032 222.65892
C 539.981388 222.65892 539.061602 222.422339 538.383535 222.001281
C 537.705468 221.580223 537.32448 221.009066 537.32448 220.4136
C 537.32448 219.818134 537.705468 219.246977 538.383535 218.825919
C 539.061602 218.404861 539.981388 218.16828 540.94032 218.16828
z
" clip-path="url(#p8c755e3773)" style="fill: #aab7c2"/>
   </g>
   <g id="patch_30">
    <path d="M 551.78784 218.16828
C 552.746772 218.16828 553.666558 218.404861 554.344625 218.825919
C 555.022692 219.246977 555.40368 219.818134 555.40368 220.4136
C 555.40368 221.009066 555.022692 221.580223 554.344625 222.001281
C 553.666558 222.422339 552.746772 222.65892 551.78784 222.65892
C 550.828908 222.65892 549.909122 222.422339 549.231055 222.001281
C 548.552988 221.580223 548.172 221.009066 548.172 220.4136
C 548.172 219.818134 548.552988 219.246977 549.231055 218.825919
C 549.909122 218.404861 550.828908 218.16828 551.78784 218.16828
z
" clip-path="url(#p8c755e3773)" style="fill: #aab7c2"/>
   </g>
   <g id="patch_31">
    <path d="M 562.63536 218.16828
C 563.594292 218.16828 564.514078 218.404861 565.192145 218.825919
C 565.870212 219.246977 566.2512 219.818134 566.2512 220.4136
C 566.2512 221.009066 565.870212 221.580223 565.192145 222.001281
C 564.514078 222.422339 563.594292 222.65892 562.63536 222.65892
C 561.676428 222.65892 560.756642 222.422339 560.078575 222.001281
C 559.400508 221.580223 559.01952 221.009066 559.01952 220.4136
C 559.01952 219.818134 559.400508 219.246977 560.078575 218.825919
C 560.756642 218.404861 561.676428 218.16828 562.63536 218.16828
z
" clip-path="url(#p8c755e3773)" style="fill: #aab7c2"/>
   </g>
   <g id="patch_32">
    <path d="M 573.48288 218.16828
C 574.441812 218.16828 575.361598 218.404861 576.039665 218.825919
C 576.717732 219.246977 577.09872 219.818134 577.09872 220.4136
C 577.09872 221.009066 576.717732 221.580223 576.039665 222.001281
C 575.361598 222.422339 574.441812 222.65892 573.48288 222.65892
C 572.523948 222.65892 571.604162 222.422339 570.926095 222.001281
C 570.248028 221.580223 569.86704 221.009066 569.86704 220.4136
C 569.86704 219.818134 570.248028 219.246977 570.926095 218.825919
C 571.604162 218.404861 572.523948 218.16828 573.48288 218.16828
z
" clip-path="url(#p8c755e3773)" style="fill: #aab7c2"/>
   </g>
   <g id="patch_33">
    <path d="M 584.3304 218.16828
C 585.289332 218.16828 586.209118 218.404861 586.887185 218.825919
C 587.565252 219.246977 587.94624 219.818134 587.94624 220.4136
C 587.94624 221.009066 587.565252 221.580223 586.887185 222.001281
C 586.209118 222.422339 585.289332 222.65892 584.3304 222.65892
C 583.371468 222.65892 582.451682 222.422339 581.773615 222.001281
C 581.095548 221.580223 580.71456 221.009066 580.71456 220.4136
C 580.71456 219.818134 581.095548 219.246977 581.773615 218.825919
C 582.451682 218.404861 583.371468 218.16828 584.3304 218.16828
z
" clip-path="url(#p8c755e3773)" style="fill: #aab7c2"/>
   </g>
   <g id="patch_34">
    <path d="M 595.17792 218.16828
C 596.136852 218.16828 597.056638 218.404861 597.734705 218.825919
C 598.412772 219.246977 598.79376 219.818134 598.79376 220.4136
C 598.79376 221.009066 598.412772 221.580223 597.734705 222.001281
C 597.056638 222.422339 596.136852 222.65892 595.17792 222.65892
C 594.218988 222.65892 593.299202 222.422339 592.621135 222.001281
C 591.943068 221.580223 591.56208 221.009066 591.56208 220.4136
C 591.56208 219.818134 591.943068 219.246977 592.621135 218.825919
C 593.299202 218.404861 594.218988 218.16828 595.17792 218.16828
z
" clip-path="url(#p8c755e3773)" style="fill: #aab7c2"/>
   </g>
   <g id="patch_35">
    <path d="M 606.02544 218.16828
C 606.984372 218.16828 607.904158 218.404861 608.582225 218.825919
C 609.260292 219.246977 609.64128 219.818134 609.64128 220.4136
C 609.64128 221.009066 609.260292 221.580223 608.582225 222.001281
C 607.904158 222.422339 606.984372 222.65892 606.02544 222.65892
C 605.066508 222.65892 604.146722 222.422339 603.468655 222.001281
C 602.790588 221.580223 602.4096 221.009066 602.4096 220.4136
C 602.4096 219.818134 602.790588 219.246977 603.468655 218.825919
C 604.146722 218.404861 605.066508 218.16828 606.02544 218.16828
z
" clip-path="url(#p8c755e3773)" style="fill: #aab7c2"/>
   </g>
   <g id="patch_36">
    <path d="M 616.87296 218.16828
C 617.831892 218.16828 618.751678 218.404861 619.429745 218.825919
C 620.107812 219.246977 620.4888 219.818134 620.4888 220.4136
C 620.4888 221.009066 620.107812 221.580223 619.429745 222.001281
C 618.751678 222.422339 617.831892 222.65892 616.87296 222.65892
C 615.914028 222.65892 614.994242 222.422339 614.316175 222.001281
C 613.638108 221.580223 613.25712 221.009066 613.25712 220.4136
C 613.25712 219.818134 613.638108 219.246977 614.316175 218.825919
C 614.994242 218.404861 615.914028 218.16828 616.87296 218.16828
z
" clip-path="url(#p8c755e3773)" style="fill: #aab7c2"/>
   </g>
   <g id="patch_37">
    <path d="M 627.72048 218.16828
C 628.679412 218.16828 629.599198 218.404861 630.277265 218.825919
C 630.955332 219.246977 631.33632 219.818134 631.33632 220.4136
C 631.33632 221.009066 630.955332 221.580223 630.277265 222.001281
C 629.599198 222.422339 628.679412 222.65892 627.72048 222.65892
C 626.761548 222.65892 625.841762 222.422339 625.163695 222.001281
C 624.485628 221.580223 624.10464 221.009066 624.10464 220.4136
C 624.10464 219.818134 624.485628 219.246977 625.163695 218.825919
C 625.841762 218.404861 626.761548 218.16828 627.72048 218.16828
z
" clip-path="url(#p8c755e3773)" style="fill: #aab7c2"/>
   </g>
   <g id="patch_38">
    <path d="M 638.568 218.16828
C 639.526932 218.16828 640.446718 218.404861 641.124785 218.825919
C 641.802852 219.246977 642.18384 219.818134 642.18384 220.4136
C 642.18384 221.009066 641.802852 221.580223 641.124785 222.001281
C 640.446718 222.422339 639.526932 222.65892 638.568 222.65892
C 637.609068 222.65892 636.689282 222.422339 636.011215 222.001281
C 635.333148 221.580223 634.95216 221.009066 634.95216 220.4136
C 634.95216 219.818134 635.333148 219.246977 636.011215 218.825919
C 636.689282 218.404861 637.609068 218.16828 638.568 218.16828
z
" clip-path="url(#p8c755e3773)" style="fill: #aab7c2"/>
   </g>
   <g id="patch_39">
    <path d="M 649.41552 218.16828
C 650.374452 218.16828 651.294238 218.404861 651.972305 218.825919
C 652.650372 219.246977 653.03136 219.818134 653.03136 220.4136
C 653.03136 221.009066 652.650372 221.580223 651.972305 222.001281
C 651.294238 222.422339 650.374452 222.65892 649.41552 222.65892
C 648.456588 222.65892 647.536802 222.422339 646.858735 222.001281
C 646.180668 221.580223 645.79968 221.009066 645.79968 220.4136
C 645.79968 219.818134 646.180668 219.246977 646.858735 218.825919
C 647.536802 218.404861 648.456588 218.16828 649.41552 218.16828
z
" clip-path="url(#p8c755e3773)" style="fill: #aab7c2"/>
   </g>
   <g id="patch_40">
    <path d="M 660.26304 218.16828
C 661.221972 218.16828 662.141758 218.404861 662.819825 218.825919
C 663.497892 219.246977 663.87888 219.818134 663.87888 220.4136
C 663.87888 221.009066 663.497892 221.580223 662.819825 222.001281
C 662.141758 222.422339 661.221972 222.65892 660.26304 222.65892
C 659.304108 222.65892 658.384322 222.422339 657.706255 222.001281
C 657.028188 221.580223 656.6472 221.009066 656.6472 220.4136
C 656.6472 219.818134 657.028188 219.246977 657.706255 218.825919
C 658.384322 218.404861 659.304108 218.16828 660.26304 218.16828
z
" clip-path="url(#p8c755e3773)" style="fill: #aab7c2"/>
   </g>
   <g id="patch_41">
    <path d="M 671.11056 218.16828
C 672.069492 218.16828 672.989278 218.404861 673.667345 218.825919
C 674.345412 219.246977 674.7264 219.818134 674.7264 220.4136
C 674.7264 221.009066 674.345412 221.580223 673.667345 222.001281
C 672.989278 222.422339 672.069492 222.65892 671.11056 222.65892
C 670.151628 222.65892 669.231842 222.422339 668.553775 222.001281
C 667.875708 221.580223 667.49472 221.009066 667.49472 220.4136
C 667.49472 219.818134 667.875708 219.246977 668.553775 218.825919
C 669.231842 218.404861 670.151628 218.16828 671.11056 218.16828
z
" clip-path="url(#p8c755e3773)" style="fill: #aab7c2"/>
   </g>
   <g id="patch_42">
    <path d="M 681.95808 218.16828
C 682.917012 218.16828 683.836798 218.404861 684.514865 218.825919
C 685.192932 219.246977 685.57392 219.818134 685.57392 220.4136
C 685.57392 221.009066 685.192932 221.580223 684.514865 222.001281
C 683.836798 222.422339 682.917012 222.65892 681.95808 222.65892
C 680.999148 222.65892 680.079362 222.422339 679.401295 222.001281
C 678.723228 221.580223 678.34224 221.009066 678.34224 220.4136
C 678.34224 219.818134 678.723228 219.246977 679.401295 218.825919
C 680.079362 218.404861 680.999148 218.16828 681.95808 218.16828
z
" clip-path="url(#p8c755e3773)" style="fill: #aab7c2"/>
   </g>
   <g id="patch_43">
    <path d="M 692.8056 218.16828
C 693.764532 218.16828 694.684318 218.404861 695.362385 218.825919
C 696.040452 219.246977 696.42144 219.818134 696.42144 220.4136
C 696.42144 221.009066 696.040452 221.580223 695.362385 222.001281
C 694.684318 222.422339 693.764532 222.65892 692.8056 222.65892
C 691.846668 222.65892 690.926882 222.422339 690.248815 222.001281
C 689.570748 221.580223 689.18976 221.009066 689.18976 220.4136
C 689.18976 219.818134 689.570748 219.246977 690.248815 218.825919
C 690.926882 218.404861 691.846668 218.16828 692.8056 218.16828
z
" clip-path="url(#p8c755e3773)" style="fill: #aab7c2"/>
   </g>
   <g id="patch_44">
    <path d="M 703.65312 218.16828
C 704.612052 218.16828 705.531838 218.404861 706.209905 218.825919
C 706.887972 219.246977 707.26896 219.818134 707.26896 220.4136
C 707.26896 221.009066 706.887972 221.580223 706.209905 222.001281
C 705.531838 222.422339 704.612052 222.65892 703.65312 222.65892
C 702.694188 222.65892 701.774402 222.422339 701.096335 222.001281
C 700.418268 221.580223 700.03728 221.009066 700.03728 220.4136
C 700.03728 219.818134 700.418268 219.246977 701.096335 218.825919
C 701.774402 218.404861 702.694188 218.16828 703.65312 218.16828
z
" clip-path="url(#p8c755e3773)" style="fill: #aab7c2"/>
   </g>
   <g id="patch_45">
    <path d="M 714.50064 218.16828
C 715.459572 218.16828 716.379358 218.404861 717.057425 218.825919
C 717.735492 219.246977 718.11648 219.818134 718.11648 220.4136
C 718.11648 221.009066 717.735492 221.580223 717.057425 222.001281
C 716.379358 222.422339 715.459572 222.65892 714.50064 222.65892
C 713.541708 222.65892 712.621922 222.422339 711.943855 222.001281
C 711.265788 221.580223 710.8848 221.009066 710.8848 220.4136
C 710.8848 219.818134 711.265788 219.246977 711.943855 218.825919
C 712.621922 218.404861 713.541708 218.16828 714.50064 218.16828
z
" clip-path="url(#p8c755e3773)" style="fill: #aab7c2"/>
   </g>
   <g id="patch_46">
    <path d="M 725.34816 218.16828
C 726.307092 218.16828 727.226878 218.404861 727.904945 218.825919
C 728.583012 219.246977 728.964 219.818134 728.964 220.4136
C 728.964 221.009066 728.583012 221.580223 727.904945 222.001281
C 727.226878 222.422339 726.307092 222.65892 725.34816 222.65892
C 724.389228 222.65892 723.469442 222.422339 722.791375 222.001281
C 722.113308 221.580223 721.73232 221.009066 721.73232 220.4136
C 721.73232 219.818134 722.113308 219.246977 722.791375 218.825919
C 723.469442 218.404861 724.389228 218.16828 725.34816 218.16828
z
" clip-path="url(#p8c755e3773)" style="fill: #aab7c2"/>
   </g>
   <g id="patch_47">
    <path d="M 736.19568 218.16828
C 737.154612 218.16828 738.074398 218.404861 738.752465 218.825919
C 739.430532 219.246977 739.81152 219.818134 739.81152 220.4136
C 739.81152 221.009066 739.430532 221.580223 738.752465 222.001281
C 738.074398 222.422339 737.154612 222.65892 736.19568 222.65892
C 735.236748 222.65892 734.316962 222.422339 733.638895 222.001281
C 732.960828 221.580223 732.57984 221.009066 732.57984 220.4136
C 732.57984 219.818134 732.960828 219.246977 733.638895 218.825919
C 734.316962 218.404861 735.236748 218.16828 736.19568 218.16828
z
" clip-path="url(#p8c755e3773)" style="fill: #aab7c2"/>
   </g>
   <g id="patch_48">
    <path d="M 530.0928 233.13708
C 531.051732 233.13708 531.971518 233.373661 532.649585 233.794719
C 533.327652 234.215777 533.70864 234.786934 533.70864 235.3824
C 533.70864 235.977866 533.327652 236.549023 532.649585 236.970081
C 531.971518 237.391139 531.051732 237.62772 530.0928 237.62772
C 529.133868 237.62772 528.214082 237.391139 527.536015 236.970081
C 526.857948 236.549023 526.47696 235.977866 526.47696 235.3824
C 526.47696 234.786934 526.857948 234.215777 527.536015 233.794719
C 528.214082 233.373661 529.133868 233.13708 530.0928 233.13708
z
" clip-path="url(#p8c755e3773)" style="fill: #aab7c2"/>
   </g>
   <g id="patch_49">
    <path d="M 540.94032 233.13708
C 541.899252 233.13708 542.819038 233.373661 543.497105 233.794719
C 544.175172 234.215777 544.55616 234.786934 544.55616 235.3824
C 544.55616 235.977866 544.175172 236.549023 543.497105 236.970081
C 542.819038 237.391139 541.899252 237.62772 540.94032 237.62772
C 539.981388 237.62772 539.061602 237.391139 538.383535 236.970081
C 537.705468 236.549023 537.32448 235.977866 537.32448 235.3824
C 537.32448 234.786934 537.705468 234.215777 538.383535 233.794719
C 539.061602 233.373661 539.981388 233.13708 540.94032 233.13708
z
" clip-path="url(#p8c755e3773)" style="fill: #aab7c2"/>
   </g>
   <g id="patch_50">
    <path d="M 551.78784 233.13708
C 552.746772 233.13708 553.666558 233.373661 554.344625 233.794719
C 555.022692 234.215777 555.40368 234.786934 555.40368 235.3824
C 555.40368 235.977866 555.022692 236.549023 554.344625 236.970081
C 553.666558 237.391139 552.746772 237.62772 551.78784 237.62772
C 550.828908 237.62772 549.909122 237.391139 549.231055 236.970081
C 548.552988 236.549023 548.172 235.977866 548.172 235.3824
C 548.172 234.786934 548.552988 234.215777 549.231055 233.794719
C 549.909122 233.373661 550.828908 233.13708 551.78784 233.13708
z
" clip-path="url(#p8c755e3773)" style="fill: #aab7c2"/>
   </g>
   <g id="patch_51">
    <path d="M 562.63536 233.13708
C 563.594292 233.13708 564.514078 233.373661 565.192145 233.794719
C 565.870212 234.215777 566.2512 234.786934 566.2512 235.3824
C 566.2512 235.977866 565.870212 236.549023 565.192145 236.970081
C 564.514078 237.391139 563.594292 237.62772 562.63536 237.62772
C 561.676428 237.62772 560.756642 237.391139 560.078575 236.970081
C 559.400508 236.549023 559.01952 235.977866 559.01952 235.3824
C 559.01952 234.786934 559.400508 234.215777 560.078575 233.794719
C 560.756642 233.373661 561.676428 233.13708 562.63536 233.13708
z
" clip-path="url(#p8c755e3773)" style="fill: #aab7c2"/>
   </g>
   <g id="patch_52">
    <path d="M 573.48288 233.13708
C 574.441812 233.13708 575.361598 233.373661 576.039665 233.794719
C 576.717732 234.215777 577.09872 234.786934 577.09872 235.3824
C 577.09872 235.977866 576.717732 236.549023 576.039665 236.970081
C 575.361598 237.391139 574.441812 237.62772 573.48288 237.62772
C 572.523948 237.62772 571.604162 237.391139 570.926095 236.970081
C 570.248028 236.549023 569.86704 235.977866 569.86704 235.3824
C 569.86704 234.786934 570.248028 234.215777 570.926095 233.794719
C 571.604162 233.373661 572.523948 233.13708 573.48288 233.13708
z
" clip-path="url(#p8c755e3773)" style="fill: #aab7c2"/>
   </g>
   <g id="patch_53">
    <path d="M 584.3304 233.13708
C 585.289332 233.13708 586.209118 233.373661 586.887185 233.794719
C 587.565252 234.215777 587.94624 234.786934 587.94624 235.3824
C 587.94624 235.977866 587.565252 236.549023 586.887185 236.970081
C 586.209118 237.391139 585.289332 237.62772 584.3304 237.62772
C 583.371468 237.62772 582.451682 237.391139 581.773615 236.970081
C 581.095548 236.549023 580.71456 235.977866 580.71456 235.3824
C 580.71456 234.786934 581.095548 234.215777 581.773615 233.794719
C 582.451682 233.373661 583.371468 233.13708 584.3304 233.13708
z
" clip-path="url(#p8c755e3773)" style="fill: #aab7c2"/>
   </g>
   <g id="patch_54">
    <path d="M 595.17792 233.13708
C 596.136852 233.13708 597.056638 233.373661 597.734705 233.794719
C 598.412772 234.215777 598.79376 234.786934 598.79376 235.3824
C 598.79376 235.977866 598.412772 236.549023 597.734705 236.970081
C 597.056638 237.391139 596.136852 237.62772 595.17792 237.62772
C 594.218988 237.62772 593.299202 237.391139 592.621135 236.970081
C 591.943068 236.549023 591.56208 235.977866 591.56208 235.3824
C 591.56208 234.786934 591.943068 234.215777 592.621135 233.794719
C 593.299202 233.373661 594.218988 233.13708 595.17792 233.13708
z
" clip-path="url(#p8c755e3773)" style="fill: #aab7c2"/>
   </g>
   <g id="patch_55">
    <path d="M 606.02544 233.13708
C 606.984372 233.13708 607.904158 233.373661 608.582225 233.794719
C 609.260292 234.215777 609.64128 234.786934 609.64128 235.3824
C 609.64128 235.977866 609.260292 236.549023 608.582225 236.970081
C 607.904158 237.391139 606.984372 237.62772 606.02544 237.62772
C 605.066508 237.62772 604.146722 237.391139 603.468655 236.970081
C 602.790588 236.549023 602.4096 235.977866 602.4096 235.3824
C 602.4096 234.786934 602.790588 234.215777 603.468655 233.794719
C 604.146722 233.373661 605.066508 233.13708 606.02544 233.13708
z
" clip-path="url(#p8c755e3773)" style="fill: #aab7c2"/>
   </g>
   <g id="patch_56">
    <path d="M 616.87296 233.13708
C 617.831892 233.13708 618.751678 233.373661 619.429745 233.794719
C 620.107812 234.215777 620.4888 234.786934 620.4888 235.3824
C 620.4888 235.977866 620.107812 236.549023 619.429745 236.970081
C 618.751678 237.391139 617.831892 237.62772 616.87296 237.62772
C 615.914028 237.62772 614.994242 237.391139 614.316175 236.970081
C 613.638108 236.549023 613.25712 235.977866 613.25712 235.3824
C 613.25712 234.786934 613.638108 234.215777 614.316175 233.794719
C 614.994242 233.373661 615.914028 233.13708 616.87296 233.13708
z
" clip-path="url(#p8c755e3773)" style="fill: #aab7c2"/>
   </g>
   <g id="patch_57">
    <path d="M 627.72048 233.13708
C 628.679412 233.13708 629.599198 233.373661 630.277265 233.794719
C 630.955332 234.215777 631.33632 234.786934 631.33632 235.3824
C 631.33632 235.977866 630.955332 236.549023 630.277265 236.970081
C 629.599198 237.391139 628.679412 237.62772 627.72048 237.62772
C 626.761548 237.62772 625.841762 237.391139 625.163695 236.970081
C 624.485628 236.549023 624.10464 235.977866 624.10464 235.3824
C 624.10464 234.786934 624.485628 234.215777 625.163695 233.794719
C 625.841762 233.373661 626.761548 233.13708 627.72048 233.13708
z
" clip-path="url(#p8c755e3773)" style="fill: #aab7c2"/>
   </g>
   <g id="patch_58">
    <path d="M 638.568 233.13708
C 639.526932 233.13708 640.446718 233.373661 641.124785 233.794719
C 641.802852 234.215777 642.18384 234.786934 642.18384 235.3824
C 642.18384 235.977866 641.802852 236.549023 641.124785 236.970081
C 640.446718 237.391139 639.526932 237.62772 638.568 237.62772
C 637.609068 237.62772 636.689282 237.391139 636.011215 236.970081
C 635.333148 236.549023 634.95216 235.977866 634.95216 235.3824
C 634.95216 234.786934 635.333148 234.215777 636.011215 233.794719
C 636.689282 233.373661 637.609068 233.13708 638.568 233.13708
z
" clip-path="url(#p8c755e3773)" style="fill: #aab7c2"/>
   </g>
   <g id="patch_59">
    <path d="M 649.41552 233.13708
C 650.374452 233.13708 651.294238 233.373661 651.972305 233.794719
C 652.650372 234.215777 653.03136 234.786934 653.03136 235.3824
C 653.03136 235.977866 652.650372 236.549023 651.972305 236.970081
C 651.294238 237.391139 650.374452 237.62772 649.41552 237.62772
C 648.456588 237.62772 647.536802 237.391139 646.858735 236.970081
C 646.180668 236.549023 645.79968 235.977866 645.79968 235.3824
C 645.79968 234.786934 646.180668 234.215777 646.858735 233.794719
C 647.536802 233.373661 648.456588 233.13708 649.41552 233.13708
z
" clip-path="url(#p8c755e3773)" style="fill: #aab7c2"/>
   </g>
   <g id="patch_60">
    <path d="M 660.26304 233.13708
C 661.221972 233.13708 662.141758 233.373661 662.819825 233.794719
C 663.497892 234.215777 663.87888 234.786934 663.87888 235.3824
C 663.87888 235.977866 663.497892 236.549023 662.819825 236.970081
C 662.141758 237.391139 661.221972 237.62772 660.26304 237.62772
C 659.304108 237.62772 658.384322 237.391139 657.706255 236.970081
C 657.028188 236.549023 656.6472 235.977866 656.6472 235.3824
C 656.6472 234.786934 657.028188 234.215777 657.706255 233.794719
C 658.384322 233.373661 659.304108 233.13708 660.26304 233.13708
z
" clip-path="url(#p8c755e3773)" style="fill: #aab7c2"/>
   </g>
   <g id="patch_61">
    <path d="M 671.11056 233.13708
C 672.069492 233.13708 672.989278 233.373661 673.667345 233.794719
C 674.345412 234.215777 674.7264 234.786934 674.7264 235.3824
C 674.7264 235.977866 674.345412 236.549023 673.667345 236.970081
C 672.989278 237.391139 672.069492 237.62772 671.11056 237.62772
C 670.151628 237.62772 669.231842 237.391139 668.553775 236.970081
C 667.875708 236.549023 667.49472 235.977866 667.49472 235.3824
C 667.49472 234.786934 667.875708 234.215777 668.553775 233.794719
C 669.231842 233.373661 670.151628 233.13708 671.11056 233.13708
z
" clip-path="url(#p8c755e3773)" style="fill: #aab7c2"/>
   </g>
   <g id="patch_62">
    <path d="M 681.95808 233.13708
C 682.917012 233.13708 683.836798 233.373661 684.514865 233.794719
C 685.192932 234.215777 685.57392 234.786934 685.57392 235.3824
C 685.57392 235.977866 685.192932 236.549023 684.514865 236.970081
C 683.836798 237.391139 682.917012 237.62772 681.95808 237.62772
C 680.999148 237.62772 680.079362 237.391139 679.401295 236.970081
C 678.723228 236.549023 678.34224 235.977866 678.34224 235.3824
C 678.34224 234.786934 678.723228 234.215777 679.401295 233.794719
C 680.079362 233.373661 680.999148 233.13708 681.95808 233.13708
z
" clip-path="url(#p8c755e3773)" style="fill: #aab7c2"/>
   </g>
   <g id="patch_63">
    <path d="M 692.8056 233.13708
C 693.764532 233.13708 694.684318 233.373661 695.362385 233.794719
C 696.040452 234.215777 696.42144 234.786934 696.42144 235.3824
C 696.42144 235.977866 696.040452 236.549023 695.362385 236.970081
C 694.684318 237.391139 693.764532 237.62772 692.8056 237.62772
C 691.846668 237.62772 690.926882 237.391139 690.248815 236.970081
C 689.570748 236.549023 689.18976 235.977866 689.18976 235.3824
C 689.18976 234.786934 689.570748 234.215777 690.248815 233.794719
C 690.926882 233.373661 691.846668 233.13708 692.8056 233.13708
z
" clip-path="url(#p8c755e3773)" style="fill: #aab7c2"/>
   </g>
   <g id="patch_64">
    <path d="M 703.65312 233.13708
C 704.612052 233.13708 705.531838 233.373661 706.209905 233.794719
C 706.887972 234.215777 707.26896 234.786934 707.26896 235.3824
C 707.26896 235.977866 706.887972 236.549023 706.209905 236.970081
C 705.531838 237.391139 704.612052 237.62772 703.65312 237.62772
C 702.694188 237.62772 701.774402 237.391139 701.096335 236.970081
C 700.418268 236.549023 700.03728 235.977866 700.03728 235.3824
C 700.03728 234.786934 700.418268 234.215777 701.096335 233.794719
C 701.774402 233.373661 702.694188 233.13708 703.65312 233.13708
z
" clip-path="url(#p8c755e3773)" style="fill: #aab7c2"/>
   </g>
   <g id="patch_65">
    <path d="M 714.50064 233.13708
C 715.459572 233.13708 716.379358 233.373661 717.057425 233.794719
C 717.735492 234.215777 718.11648 234.786934 718.11648 235.3824
C 718.11648 235.977866 717.735492 236.549023 717.057425 236.970081
C 716.379358 237.391139 715.459572 237.62772 714.50064 237.62772
C 713.541708 237.62772 712.621922 237.391139 711.943855 236.970081
C 711.265788 236.549023 710.8848 235.977866 710.8848 235.3824
C 710.8848 234.786934 711.265788 234.215777 711.943855 233.794719
C 712.621922 233.373661 713.541708 233.13708 714.50064 233.13708
z
" clip-path="url(#p8c755e3773)" style="fill: #aab7c2"/>
   </g>
   <g id="patch_66">
    <path d="M 725.34816 233.13708
C 726.307092 233.13708 727.226878 233.373661 727.904945 233.794719
C 728.583012 234.215777 728.964 234.786934 728.964 235.3824
C 728.964 235.977866 728.583012 236.549023 727.904945 236.970081
C 727.226878 237.391139 726.307092 237.62772 725.34816 237.62772
C 724.389228 237.62772 723.469442 237.391139 722.791375 236.970081
C 722.113308 236.549023 721.73232 235.977866 721.73232 235.3824
C 721.73232 234.786934 722.113308 234.215777 722.791375 233.794719
C 723.469442 233.373661 724.389228 233.13708 725.34816 233.13708
z
" clip-path="url(#p8c755e3773)" style="fill: #aab7c2"/>
   </g>
   <g id="patch_67">
    <path d="M 736.19568 233.13708
C 737.154612 233.13708 738.074398 233.373661 738.752465 233.794719
C 739.430532 234.215777 739.81152 234.786934 739.81152 235.3824
C 739.81152 235.977866 739.430532 236.549023 738.752465 236.970081
C 738.074398 237.391139 737.154612 237.62772 736.19568 237.62772
C 735.236748 237.62772 734.316962 237.391139 733.638895 236.970081
C 732.960828 236.549023 732.57984 235.977866 732.57984 235.3824
C 732.57984 234.786934 732.960828 234.215777 733.638895 233.794719
C 734.316962 233.373661 735.236748 233.13708 736.19568 233.13708
z
" clip-path="url(#p8c755e3773)" style="fill: #aab7c2"/>
   </g>
   <g id="patch_68">
    <path d="M 530.0928 248.10588
C 531.051732 248.10588 531.971518 248.342461 532.649585 248.763519
C 533.327652 249.184577 533.70864 249.755734 533.70864 250.3512
C 533.70864 250.946666 533.327652 251.517823 532.649585 251.938881
C 531.971518 252.359939 531.051732 252.59652 530.0928 252.59652
C 529.133868 252.59652 528.214082 252.359939 527.536015 251.938881
C 526.857948 251.517823 526.47696 250.946666 526.47696 250.3512
C 526.47696 249.755734 526.857948 249.184577 527.536015 248.763519
C 528.214082 248.342461 529.133868 248.10588 530.0928 248.10588
z
" clip-path="url(#p8c755e3773)" style="fill: #aab7c2"/>
   </g>
   <g id="patch_69">
    <path d="M 540.94032 248.10588
C 541.899252 248.10588 542.819038 248.342461 543.497105 248.763519
C 544.175172 249.184577 544.55616 249.755734 544.55616 250.3512
C 544.55616 250.946666 544.175172 251.517823 543.497105 251.938881
C 542.819038 252.359939 541.899252 252.59652 540.94032 252.59652
C 539.981388 252.59652 539.061602 252.359939 538.383535 251.938881
C 537.705468 251.517823 537.32448 250.946666 537.32448 250.3512
C 537.32448 249.755734 537.705468 249.184577 538.383535 248.763519
C 539.061602 248.342461 539.981388 248.10588 540.94032 248.10588
z
" clip-path="url(#p8c755e3773)" style="fill: #aab7c2"/>
   </g>
   <g id="patch_70">
    <path d="M 551.78784 248.10588
C 552.746772 248.10588 553.666558 248.342461 554.344625 248.763519
C 555.022692 249.184577 555.40368 249.755734 555.40368 250.3512
C 555.40368 250.946666 555.022692 251.517823 554.344625 251.938881
C 553.666558 252.359939 552.746772 252.59652 551.78784 252.59652
C 550.828908 252.59652 549.909122 252.359939 549.231055 251.938881
C 548.552988 251.517823 548.172 250.946666 548.172 250.3512
C 548.172 249.755734 548.552988 249.184577 549.231055 248.763519
C 549.909122 248.342461 550.828908 248.10588 551.78784 248.10588
z
" clip-path="url(#p8c755e3773)" style="fill: #aab7c2"/>
   </g>
   <g id="patch_71">
    <path d="M 562.63536 248.10588
C 563.594292 248.10588 564.514078 248.342461 565.192145 248.763519
C 565.870212 249.184577 566.2512 249.755734 566.2512 250.3512
C 566.2512 250.946666 565.870212 251.517823 565.192145 251.938881
C 564.514078 252.359939 563.594292 252.59652 562.63536 252.59652
C 561.676428 252.59652 560.756642 252.359939 560.078575 251.938881
C 559.400508 251.517823 559.01952 250.946666 559.01952 250.3512
C 559.01952 249.755734 559.400508 249.184577 560.078575 248.763519
C 560.756642 248.342461 561.676428 248.10588 562.63536 248.10588
z
" clip-path="url(#p8c755e3773)" style="fill: #aab7c2"/>
   </g>
   <g id="patch_72">
    <path d="M 573.48288 248.10588
C 574.441812 248.10588 575.361598 248.342461 576.039665 248.763519
C 576.717732 249.184577 577.09872 249.755734 577.09872 250.3512
C 577.09872 250.946666 576.717732 251.517823 576.039665 251.938881
C 575.361598 252.359939 574.441812 252.59652 573.48288 252.59652
C 572.523948 252.59652 571.604162 252.359939 570.926095 251.938881
C 570.248028 251.517823 569.86704 250.946666 569.86704 250.3512
C 569.86704 249.755734 570.248028 249.184577 570.926095 248.763519
C 571.604162 248.342461 572.523948 248.10588 573.48288 248.10588
z
" clip-path="url(#p8c755e3773)" style="fill: #aab7c2"/>
   </g>
   <g id="patch_73">
    <path d="M 584.3304 248.10588
C 585.289332 248.10588 586.209118 248.342461 586.887185 248.763519
C 587.565252 249.184577 587.94624 249.755734 587.94624 250.3512
C 587.94624 250.946666 587.565252 251.517823 586.887185 251.938881
C 586.209118 252.359939 585.289332 252.59652 584.3304 252.59652
C 583.371468 252.59652 582.451682 252.359939 581.773615 251.938881
C 581.095548 251.517823 580.71456 250.946666 580.71456 250.3512
C 580.71456 249.755734 581.095548 249.184577 581.773615 248.763519
C 582.451682 248.342461 583.371468 248.10588 584.3304 248.10588
z
" clip-path="url(#p8c755e3773)" style="fill: #aab7c2"/>
   </g>
   <g id="patch_74">
    <path d="M 595.17792 248.10588
C 596.136852 248.10588 597.056638 248.342461 597.734705 248.763519
C 598.412772 249.184577 598.79376 249.755734 598.79376 250.3512
C 598.79376 250.946666 598.412772 251.517823 597.734705 251.938881
C 597.056638 252.359939 596.136852 252.59652 595.17792 252.59652
C 594.218988 252.59652 593.299202 252.359939 592.621135 251.938881
C 591.943068 251.517823 591.56208 250.946666 591.56208 250.3512
C 591.56208 249.755734 591.943068 249.184577 592.621135 248.763519
C 593.299202 248.342461 594.218988 248.10588 595.17792 248.10588
z
" clip-path="url(#p8c755e3773)" style="fill: #aab7c2"/>
   </g>
   <g id="patch_75">
    <path d="M 606.02544 248.10588
C 606.984372 248.10588 607.904158 248.342461 608.582225 248.763519
C 609.260292 249.184577 609.64128 249.755734 609.64128 250.3512
C 609.64128 250.946666 609.260292 251.517823 608.582225 251.938881
C 607.904158 252.359939 606.984372 252.59652 606.02544 252.59652
C 605.066508 252.59652 604.146722 252.359939 603.468655 251.938881
C 602.790588 251.517823 602.4096 250.946666 602.4096 250.3512
C 602.4096 249.755734 602.790588 249.184577 603.468655 248.763519
C 604.146722 248.342461 605.066508 248.10588 606.02544 248.10588
z
" clip-path="url(#p8c755e3773)" style="fill: #aab7c2"/>
   </g>
   <g id="patch_76">
    <path d="M 616.87296 248.10588
C 617.831892 248.10588 618.751678 248.342461 619.429745 248.763519
C 620.107812 249.184577 620.4888 249.755734 620.4888 250.3512
C 620.4888 250.946666 620.107812 251.517823 619.429745 251.938881
C 618.751678 252.359939 617.831892 252.59652 616.87296 252.59652
C 615.914028 252.59652 614.994242 252.359939 614.316175 251.938881
C 613.638108 251.517823 613.25712 250.946666 613.25712 250.3512
C 613.25712 249.755734 613.638108 249.184577 614.316175 248.763519
C 614.994242 248.342461 615.914028 248.10588 616.87296 248.10588
z
" clip-path="url(#p8c755e3773)" style="fill: #aab7c2"/>
   </g>
   <g id="patch_77">
    <path d="M 627.72048 248.10588
C 628.679412 248.10588 629.599198 248.342461 630.277265 248.763519
C 630.955332 249.184577 631.33632 249.755734 631.33632 250.3512
C 631.33632 250.946666 630.955332 251.517823 630.277265 251.938881
C 629.599198 252.359939 628.679412 252.59652 627.72048 252.59652
C 626.761548 252.59652 625.841762 252.359939 625.163695 251.938881
C 624.485628 251.517823 624.10464 250.946666 624.10464 250.3512
C 624.10464 249.755734 624.485628 249.184577 625.163695 248.763519
C 625.841762 248.342461 626.761548 248.10588 627.72048 248.10588
z
" clip-path="url(#p8c755e3773)" style="fill: #aab7c2"/>
   </g>
   <g id="patch_78">
    <path d="M 638.568 248.10588
C 639.526932 248.10588 640.446718 248.342461 641.124785 248.763519
C 641.802852 249.184577 642.18384 249.755734 642.18384 250.3512
C 642.18384 250.946666 641.802852 251.517823 641.124785 251.938881
C 640.446718 252.359939 639.526932 252.59652 638.568 252.59652
C 637.609068 252.59652 636.689282 252.359939 636.011215 251.938881
C 635.333148 251.517823 634.95216 250.946666 634.95216 250.3512
C 634.95216 249.755734 635.333148 249.184577 636.011215 248.763519
C 636.689282 248.342461 637.609068 248.10588 638.568 248.10588
z
" clip-path="url(#p8c755e3773)" style="fill: #aab7c2"/>
   </g>
   <g id="patch_79">
    <path d="M 649.41552 248.10588
C 650.374452 248.10588 651.294238 248.342461 651.972305 248.763519
C 652.650372 249.184577 653.03136 249.755734 653.03136 250.3512
C 653.03136 250.946666 652.650372 251.517823 651.972305 251.938881
C 651.294238 252.359939 650.374452 252.59652 649.41552 252.59652
C 648.456588 252.59652 647.536802 252.359939 646.858735 251.938881
C 646.180668 251.517823 645.79968 250.946666 645.79968 250.3512
C 645.79968 249.755734 646.180668 249.184577 646.858735 248.763519
C 647.536802 248.342461 648.456588 248.10588 649.41552 248.10588
z
" clip-path="url(#p8c755e3773)" style="fill: #aab7c2"/>
   </g>
   <g id="patch_80">
    <path d="M 660.26304 248.10588
C 661.221972 248.10588 662.141758 248.342461 662.819825 248.763519
C 663.497892 249.184577 663.87888 249.755734 663.87888 250.3512
C 663.87888 250.946666 663.497892 251.517823 662.819825 251.938881
C 662.141758 252.359939 661.221972 252.59652 660.26304 252.59652
C 659.304108 252.59652 658.384322 252.359939 657.706255 251.938881
C 657.028188 251.517823 656.6472 250.946666 656.6472 250.3512
C 656.6472 249.755734 657.028188 249.184577 657.706255 248.763519
C 658.384322 248.342461 659.304108 248.10588 660.26304 248.10588
z
" clip-path="url(#p8c755e3773)" style="fill: #aab7c2"/>
   </g>
   <g id="patch_81">
    <path d="M 671.11056 248.10588
C 672.069492 248.10588 672.989278 248.342461 673.667345 248.763519
C 674.345412 249.184577 674.7264 249.755734 674.7264 250.3512
C 674.7264 250.946666 674.345412 251.517823 673.667345 251.938881
C 672.989278 252.359939 672.069492 252.59652 671.11056 252.59652
C 670.151628 252.59652 669.231842 252.359939 668.553775 251.938881
C 667.875708 251.517823 667.49472 250.946666 667.49472 250.3512
C 667.49472 249.755734 667.875708 249.184577 668.553775 248.763519
C 669.231842 248.342461 670.151628 248.10588 671.11056 248.10588
z
" clip-path="url(#p8c755e3773)" style="fill: #aab7c2"/>
   </g>
   <g id="patch_82">
    <path d="M 681.95808 248.10588
C 682.917012 248.10588 683.836798 248.342461 684.514865 248.763519
C 685.192932 249.184577 685.57392 249.755734 685.57392 250.3512
C 685.57392 250.946666 685.192932 251.517823 684.514865 251.938881
C 683.836798 252.359939 682.917012 252.59652 681.95808 252.59652
C 680.999148 252.59652 680.079362 252.359939 679.401295 251.938881
C 678.723228 251.517823 678.34224 250.946666 678.34224 250.3512
C 678.34224 249.755734 678.723228 249.184577 679.401295 248.763519
C 680.079362 248.342461 680.999148 248.10588 681.95808 248.10588
z
" clip-path="url(#p8c755e3773)" style="fill: #aab7c2"/>
   </g>
   <g id="patch_83">
    <path d="M 692.8056 248.10588
C 693.764532 248.10588 694.684318 248.342461 695.362385 248.763519
C 696.040452 249.184577 696.42144 249.755734 696.42144 250.3512
C 696.42144 250.946666 696.040452 251.517823 695.362385 251.938881
C 694.684318 252.359939 693.764532 252.59652 692.8056 252.59652
C 691.846668 252.59652 690.926882 252.359939 690.248815 251.938881
C 689.570748 251.517823 689.18976 250.946666 689.18976 250.3512
C 689.18976 249.755734 689.570748 249.184577 690.248815 248.763519
C 690.926882 248.342461 691.846668 248.10588 692.8056 248.10588
z
" clip-path="url(#p8c755e3773)" style="fill: #aab7c2"/>
   </g>
   <g id="patch_84">
    <path d="M 703.65312 248.10588
C 704.612052 248.10588 705.531838 248.342461 706.209905 248.763519
C 706.887972 249.184577 707.26896 249.755734 707.26896 250.3512
C 707.26896 250.946666 706.887972 251.517823 706.209905 251.938881
C 705.531838 252.359939 704.612052 252.59652 703.65312 252.59652
C 702.694188 252.59652 701.774402 252.359939 701.096335 251.938881
C 700.418268 251.517823 700.03728 250.946666 700.03728 250.3512
C 700.03728 249.755734 700.418268 249.184577 701.096335 248.763519
C 701.774402 248.342461 702.694188 248.10588 703.65312 248.10588
z
" clip-path="url(#p8c755e3773)" style="fill: #aab7c2"/>
   </g>
   <g id="patch_85">
    <path d="M 714.50064 248.10588
C 715.459572 248.10588 716.379358 248.342461 717.057425 248.763519
C 717.735492 249.184577 718.11648 249.755734 718.11648 250.3512
C 718.11648 250.946666 717.735492 251.517823 717.057425 251.938881
C 716.379358 252.359939 715.459572 252.59652 714.50064 252.59652
C 713.541708 252.59652 712.621922 252.359939 711.943855 251.938881
C 711.265788 251.517823 710.8848 250.946666 710.8848 250.3512
C 710.8848 249.755734 711.265788 249.184577 711.943855 248.763519
C 712.621922 248.342461 713.541708 248.10588 714.50064 248.10588
z
" clip-path="url(#p8c755e3773)" style="fill: #aab7c2"/>
   </g>
   <g id="patch_86">
    <path d="M 725.34816 248.10588
C 726.307092 248.10588 727.226878 248.342461 727.904945 248.763519
C 728.583012 249.184577 728.964 249.755734 728.964 250.3512
C 728.964 250.946666 728.583012 251.517823 727.904945 251.938881
C 727.226878 252.359939 726.307092 252.59652 725.34816 252.59652
C 724.389228 252.59652 723.469442 252.359939 722.791375 251.938881
C 722.113308 251.517823 721.73232 250.946666 721.73232 250.3512
C 721.73232 249.755734 722.113308 249.184577 722.791375 248.763519
C 723.469442 248.342461 724.389228 248.10588 725.34816 248.10588
z
" clip-path="url(#p8c755e3773)" style="fill: #aab7c2"/>
   </g>
   <g id="patch_87">
    <path d="M 736.19568 248.10588
C 737.154612 248.10588 738.074398 248.342461 738.752465 248.763519
C 739.430532 249.184577 739.81152 249.755734 739.81152 250.3512
C 739.81152 250.946666 739.430532 251.517823 738.752465 251.938881
C 738.074398 252.359939 737.154612 252.59652 736.19568 252.59652
C 735.236748 252.59652 734.316962 252.359939 733.638895 251.938881
C 732.960828 251.517823 732.57984 250.946666 732.57984 250.3512
C 732.57984 249.755734 732.960828 249.184577 733.638895 248.763519
C 734.316962 248.342461 735.236748 248.10588 736.19568 248.10588
z
" clip-path="url(#p8c755e3773)" style="fill: #aab7c2"/>
   </g>
   <g id="patch_88">
    <path d="M 530.0928 263.07468
C 531.051732 263.07468 531.971518 263.311261 532.649585 263.732319
C 533.327652 264.153377 533.70864 264.724534 533.70864 265.32
C 533.70864 265.915466 533.327652 266.486623 532.649585 266.907681
C 531.971518 267.328739 531.051732 267.56532 530.0928 267.56532
C 529.133868 267.56532 528.214082 267.328739 527.536015 266.907681
C 526.857948 266.486623 526.47696 265.915466 526.47696 265.32
C 526.47696 264.724534 526.857948 264.153377 527.536015 263.732319
C 528.214082 263.311261 529.133868 263.07468 530.0928 263.07468
z
" clip-path="url(#p8c755e3773)" style="fill: #aab7c2"/>
   </g>
   <g id="patch_89">
    <path d="M 540.94032 263.07468
C 541.899252 263.07468 542.819038 263.311261 543.497105 263.732319
C 544.175172 264.153377 544.55616 264.724534 544.55616 265.32
C 544.55616 265.915466 544.175172 266.486623 543.497105 266.907681
C 542.819038 267.328739 541.899252 267.56532 540.94032 267.56532
C 539.981388 267.56532 539.061602 267.328739 538.383535 266.907681
C 537.705468 266.486623 537.32448 265.915466 537.32448 265.32
C 537.32448 264.724534 537.705468 264.153377 538.383535 263.732319
C 539.061602 263.311261 539.981388 263.07468 540.94032 263.07468
z
" clip-path="url(#p8c755e3773)" style="fill: #aab7c2"/>
   </g>
   <g id="patch_90">
    <path d="M 551.78784 263.07468
C 552.746772 263.07468 553.666558 263.311261 554.344625 263.732319
C 555.022692 264.153377 555.40368 264.724534 555.40368 265.32
C 555.40368 265.915466 555.022692 266.486623 554.344625 266.907681
C 553.666558 267.328739 552.746772 267.56532 551.78784 267.56532
C 550.828908 267.56532 549.909122 267.328739 549.231055 266.907681
C 548.552988 266.486623 548.172 265.915466 548.172 265.32
C 548.172 264.724534 548.552988 264.153377 549.231055 263.732319
C 549.909122 263.311261 550.828908 263.07468 551.78784 263.07468
z
" clip-path="url(#p8c755e3773)" style="fill: #aab7c2"/>
   </g>
   <g id="patch_91">
    <path d="M 562.63536 263.07468
C 563.594292 263.07468 564.514078 263.311261 565.192145 263.732319
C 565.870212 264.153377 566.2512 264.724534 566.2512 265.32
C 566.2512 265.915466 565.870212 266.486623 565.192145 266.907681
C 564.514078 267.328739 563.594292 267.56532 562.63536 267.56532
C 561.676428 267.56532 560.756642 267.328739 560.078575 266.907681
C 559.400508 266.486623 559.01952 265.915466 559.01952 265.32
C 559.01952 264.724534 559.400508 264.153377 560.078575 263.732319
C 560.756642 263.311261 561.676428 263.07468 562.63536 263.07468
z
" clip-path="url(#p8c755e3773)" style="fill: #aab7c2"/>
   </g>
   <g id="patch_92">
    <path d="M 573.48288 263.07468
C 574.441812 263.07468 575.361598 263.311261 576.039665 263.732319
C 576.717732 264.153377 577.09872 264.724534 577.09872 265.32
C 577.09872 265.915466 576.717732 266.486623 576.039665 266.907681
C 575.361598 267.328739 574.441812 267.56532 573.48288 267.56532
C 572.523948 267.56532 571.604162 267.328739 570.926095 266.907681
C 570.248028 266.486623 569.86704 265.915466 569.86704 265.32
C 569.86704 264.724534 570.248028 264.153377 570.926095 263.732319
C 571.604162 263.311261 572.523948 263.07468 573.48288 263.07468
z
" clip-path="url(#p8c755e3773)" style="fill: #aab7c2"/>
   </g>
   <g id="patch_93">
    <path d="M 584.3304 263.07468
C 585.289332 263.07468 586.209118 263.311261 586.887185 263.732319
C 587.565252 264.153377 587.94624 264.724534 587.94624 265.32
C 587.94624 265.915466 587.565252 266.486623 586.887185 266.907681
C 586.209118 267.328739 585.289332 267.56532 584.3304 267.56532
C 583.371468 267.56532 582.451682 267.328739 581.773615 266.907681
C 581.095548 266.486623 580.71456 265.915466 580.71456 265.32
C 580.71456 264.724534 581.095548 264.153377 581.773615 263.732319
C 582.451682 263.311261 583.371468 263.07468 584.3304 263.07468
z
" clip-path="url(#p8c755e3773)" style="fill: #aab7c2"/>
   </g>
   <g id="patch_94">
    <path d="M 595.17792 263.07468
C 596.136852 263.07468 597.056638 263.311261 597.734705 263.732319
C 598.412772 264.153377 598.79376 264.724534 598.79376 265.32
C 598.79376 265.915466 598.412772 266.486623 597.734705 266.907681
C 597.056638 267.328739 596.136852 267.56532 595.17792 267.56532
C 594.218988 267.56532 593.299202 267.328739 592.621135 266.907681
C 591.943068 266.486623 591.56208 265.915466 591.56208 265.32
C 591.56208 264.724534 591.943068 264.153377 592.621135 263.732319
C 593.299202 263.311261 594.218988 263.07468 595.17792 263.07468
z
" clip-path="url(#p8c755e3773)" style="fill: #aab7c2"/>
   </g>
   <g id="patch_95">
    <path d="M 606.02544 263.07468
C 606.984372 263.07468 607.904158 263.311261 608.582225 263.732319
C 609.260292 264.153377 609.64128 264.724534 609.64128 265.32
C 609.64128 265.915466 609.260292 266.486623 608.582225 266.907681
C 607.904158 267.328739 606.984372 267.56532 606.02544 267.56532
C 605.066508 267.56532 604.146722 267.328739 603.468655 266.907681
C 602.790588 266.486623 602.4096 265.915466 602.4096 265.32
C 602.4096 264.724534 602.790588 264.153377 603.468655 263.732319
C 604.146722 263.311261 605.066508 263.07468 606.02544 263.07468
z
" clip-path="url(#p8c755e3773)" style="fill: #aab7c2"/>
   </g>
   <g id="patch_96">
    <path d="M 616.87296 263.07468
C 617.831892 263.07468 618.751678 263.311261 619.429745 263.732319
C 620.107812 264.153377 620.4888 264.724534 620.4888 265.32
C 620.4888 265.915466 620.107812 266.486623 619.429745 266.907681
C 618.751678 267.328739 617.831892 267.56532 616.87296 267.56532
C 615.914028 267.56532 614.994242 267.328739 614.316175 266.907681
C 613.638108 266.486623 613.25712 265.915466 613.25712 265.32
C 613.25712 264.724534 613.638108 264.153377 614.316175 263.732319
C 614.994242 263.311261 615.914028 263.07468 616.87296 263.07468
z
" clip-path="url(#p8c755e3773)" style="fill: #aab7c2"/>
   </g>
   <g id="patch_97">
    <path d="M 627.72048 263.07468
C 628.679412 263.07468 629.599198 263.311261 630.277265 263.732319
C 630.955332 264.153377 631.33632 264.724534 631.33632 265.32
C 631.33632 265.915466 630.955332 266.486623 630.277265 266.907681
C 629.599198 267.328739 628.679412 267.56532 627.72048 267.56532
C 626.761548 267.56532 625.841762 267.328739 625.163695 266.907681
C 624.485628 266.486623 624.10464 265.915466 624.10464 265.32
C 624.10464 264.724534 624.485628 264.153377 625.163695 263.732319
C 625.841762 263.311261 626.761548 263.07468 627.72048 263.07468
z
" clip-path="url(#p8c755e3773)" style="fill: #aab7c2"/>
   </g>
   <g id="patch_98">
    <path d="M 638.568 263.07468
C 639.526932 263.07468 640.446718 263.311261 641.124785 263.732319
C 641.802852 264.153377 642.18384 264.724534 642.18384 265.32
C 642.18384 265.915466 641.802852 266.486623 641.124785 266.907681
C 640.446718 267.328739 639.526932 267.56532 638.568 267.56532
C 637.609068 267.56532 636.689282 267.328739 636.011215 266.907681
C 635.333148 266.486623 634.95216 265.915466 634.95216 265.32
C 634.95216 264.724534 635.333148 264.153377 636.011215 263.732319
C 636.689282 263.311261 637.609068 263.07468 638.568 263.07468
z
" clip-path="url(#p8c755e3773)" style="fill: #aab7c2"/>
   </g>
   <g id="patch_99">
    <path d="M 649.41552 263.07468
C 650.374452 263.07468 651.294238 263.311261 651.972305 263.732319
C 652.650372 264.153377 653.03136 264.724534 653.03136 265.32
C 653.03136 265.915466 652.650372 266.486623 651.972305 266.907681
C 651.294238 267.328739 650.374452 267.56532 649.41552 267.56532
C 648.456588 267.56532 647.536802 267.328739 646.858735 266.907681
C 646.180668 266.486623 645.79968 265.915466 645.79968 265.32
C 645.79968 264.724534 646.180668 264.153377 646.858735 263.732319
C 647.536802 263.311261 648.456588 263.07468 649.41552 263.07468
z
" clip-path="url(#p8c755e3773)" style="fill: #aab7c2"/>
   </g>
   <g id="patch_100">
    <path d="M 660.26304 263.07468
C 661.221972 263.07468 662.141758 263.311261 662.819825 263.732319
C 663.497892 264.153377 663.87888 264.724534 663.87888 265.32
C 663.87888 265.915466 663.497892 266.486623 662.819825 266.907681
C 662.141758 267.328739 661.221972 267.56532 660.26304 267.56532
C 659.304108 267.56532 658.384322 267.328739 657.706255 266.907681
C 657.028188 266.486623 656.6472 265.915466 656.6472 265.32
C 656.6472 264.724534 657.028188 264.153377 657.706255 263.732319
C 658.384322 263.311261 659.304108 263.07468 660.26304 263.07468
z
" clip-path="url(#p8c755e3773)" style="fill: #aab7c2"/>
   </g>
   <g id="patch_101">
    <path d="M 671.11056 263.07468
C 672.069492 263.07468 672.989278 263.311261 673.667345 263.732319
C 674.345412 264.153377 674.7264 264.724534 674.7264 265.32
C 674.7264 265.915466 674.345412 266.486623 673.667345 266.907681
C 672.989278 267.328739 672.069492 267.56532 671.11056 267.56532
C 670.151628 267.56532 669.231842 267.328739 668.553775 266.907681
C 667.875708 266.486623 667.49472 265.915466 667.49472 265.32
C 667.49472 264.724534 667.875708 264.153377 668.553775 263.732319
C 669.231842 263.311261 670.151628 263.07468 671.11056 263.07468
z
" clip-path="url(#p8c755e3773)" style="fill: #aab7c2"/>
   </g>
   <g id="patch_102">
    <path d="M 681.95808 263.07468
C 682.917012 263.07468 683.836798 263.311261 684.514865 263.732319
C 685.192932 264.153377 685.57392 264.724534 685.57392 265.32
C 685.57392 265.915466 685.192932 266.486623 684.514865 266.907681
C 683.836798 267.328739 682.917012 267.56532 681.95808 267.56532
C 680.999148 267.56532 680.079362 267.328739 679.401295 266.907681
C 678.723228 266.486623 678.34224 265.915466 678.34224 265.32
C 678.34224 264.724534 678.723228 264.153377 679.401295 263.732319
C 680.079362 263.311261 680.999148 263.07468 681.95808 263.07468
z
" clip-path="url(#p8c755e3773)" style="fill: #aab7c2"/>
   </g>
   <g id="patch_103">
    <path d="M 692.8056 263.07468
C 693.764532 263.07468 694.684318 263.311261 695.362385 263.732319
C 696.040452 264.153377 696.42144 264.724534 696.42144 265.32
C 696.42144 265.915466 696.040452 266.486623 695.362385 266.907681
C 694.684318 267.328739 693.764532 267.56532 692.8056 267.56532
C 691.846668 267.56532 690.926882 267.328739 690.248815 266.907681
C 689.570748 266.486623 689.18976 265.915466 689.18976 265.32
C 689.18976 264.724534 689.570748 264.153377 690.248815 263.732319
C 690.926882 263.311261 691.846668 263.07468 692.8056 263.07468
z
" clip-path="url(#p8c755e3773)" style="fill: #aab7c2"/>
   </g>
   <g id="patch_104">
    <path d="M 703.65312 263.07468
C 704.612052 263.07468 705.531838 263.311261 706.209905 263.732319
C 706.887972 264.153377 707.26896 264.724534 707.26896 265.32
C 707.26896 265.915466 706.887972 266.486623 706.209905 266.907681
C 705.531838 267.328739 704.612052 267.56532 703.65312 267.56532
C 702.694188 267.56532 701.774402 267.328739 701.096335 266.907681
C 700.418268 266.486623 700.03728 265.915466 700.03728 265.32
C 700.03728 264.724534 700.418268 264.153377 701.096335 263.732319
C 701.774402 263.311261 702.694188 263.07468 703.65312 263.07468
z
" clip-path="url(#p8c755e3773)" style="fill: #aab7c2"/>
   </g>
   <g id="patch_105">
    <path d="M 714.50064 263.07468
C 715.459572 263.07468 716.379358 263.311261 717.057425 263.732319
C 717.735492 264.153377 718.11648 264.724534 718.11648 265.32
C 718.11648 265.915466 717.735492 266.486623 717.057425 266.907681
C 716.379358 267.328739 715.459572 267.56532 714.50064 267.56532
C 713.541708 267.56532 712.621922 267.328739 711.943855 266.907681
C 711.265788 266.486623 710.8848 265.915466 710.8848 265.32
C 710.8848 264.724534 711.265788 264.153377 711.943855 263.732319
C 712.621922 263.311261 713.541708 263.07468 714.50064 263.07468
z
" clip-path="url(#p8c755e3773)" style="fill: #aab7c2"/>
   </g>
   <g id="patch_106">
    <path d="M 725.34816 263.07468
C 726.307092 263.07468 727.226878 263.311261 727.904945 263.732319
C 728.583012 264.153377 728.964 264.724534 728.964 265.32
C 728.964 265.915466 728.583012 266.486623 727.904945 266.907681
C 727.226878 267.328739 726.307092 267.56532 725.34816 267.56532
C 724.389228 267.56532 723.469442 267.328739 722.791375 266.907681
C 722.113308 266.486623 721.73232 265.915466 721.73232 265.32
C 721.73232 264.724534 722.113308 264.153377 722.791375 263.732319
C 723.469442 263.311261 724.389228 263.07468 725.34816 263.07468
z
" clip-path="url(#p8c755e3773)" style="fill: #aab7c2"/>
   </g>
   <g id="patch_107">
    <path d="M 736.19568 263.07468
C 737.154612 263.07468 738.074398 263.311261 738.752465 263.732319
C 739.430532 264.153377 739.81152 264.724534 739.81152 265.32
C 739.81152 265.915466 739.430532 266.486623 738.752465 266.907681
C 738.074398 267.328739 737.154612 267.56532 736.19568 267.56532
C 735.236748 267.56532 734.316962 267.328739 733.638895 266.907681
C 732.960828 266.486623 732.57984 265.915466 732.57984 265.32
C 732.57984 264.724534 732.960828 264.153377 733.638895 263.732319
C 734.316962 263.311261 735.236748 263.07468 736.19568 263.07468
z
" clip-path="url(#p8c755e3773)" style="fill: #ce3b36"/>
   </g>
   <g id="patch_108">
    <path d="M 507.996 403.28244
L 769.14 403.28244
Q 781.99632 403.28244 781.99632 411.2658
L 781.99632 463.6566
Q 781.99632 471.63996 769.14 471.63996
L 507.996 471.63996
Q 495.13968 471.63996 495.13968 463.6566
L 495.13968 411.2658
Q 495.13968 403.28244 507.996 403.28244
z
" clip-path="url(#p8c755e3773)" style="fill: #fff0ef; stroke: #efa19d; stroke-width: 1.1; stroke-linejoin: miter"/>
   </g>
   <g id="line2d_1">
    <path d="M 47.9808 90.684
L 787.2192 90.684
" clip-path="url(#p8c755e3773)" style="fill: none; stroke: #d9e3ec; stroke-linecap: square"/>
   </g>
   <g id="text_1">
    <text style="font-weight: 700; font-size: 24px; font-family: 'DejaVu Sans'; text-anchor: start; fill: #182431" x="47.9808" y="54.8184" transform="rotate(-0 47.9808 54.8184)">Матрица ошибок и ловушка 99% Accuracy</text>
   </g>
   <g id="text_2">
    <text style="font-size: 11px; font-family: 'DejaVu Sans'; text-anchor: start; fill: #5d6b78" x="47.9808" y="74.094281" transform="rotate(-0 47.9808 74.094281)">FP и FN различаются реальным классом; редкий класс проверяется отдельно.</text>
   </g>
   <g id="text_3">
    <text style="font-weight: 700; font-size: 11px; font-family: 'DejaVu Sans'; text-anchor: middle; fill: #0758b4" x="232.7904" y="123.990281" transform="rotate(-0 232.7904 123.990281)">ПРОГНОЗ</text>
   </g>
   <g id="text_4">
    <text style="font-weight: 700; font-size: 11px; font-family: 'DejaVu Sans'; text-anchor: start; fill: #0758b4" x="47.9808" y="258.376113" transform="rotate(-0 47.9808 258.376113)">ИСТИНА</text>
   </g>
   <g id="text_5">
    <text style="font-weight: 700; font-size: 17px; font-family: 'DejaVu Sans'; text-anchor: middle; fill: #138a57" x="196.632" y="183.434944" transform="rotate(-0 196.632 183.434944)">TN</text>
   </g>
   <g id="text_6">
    <text style="font-size: 9.5px; font-family: 'DejaVu Sans'; fill: #182431" transform="translate(171.403562 197.757645)">реально 0</text>
    <text style="font-size: 9.5px; font-family: 'DejaVu Sans'; fill: #182431" transform="translate(172.039617 208.395567)">прогноз 0</text>
   </g>
   <g id="text_7">
    <text style="font-weight: 700; font-size: 17px; font-family: 'DejaVu Sans'; text-anchor: middle; fill: #ce3b36" x="365.3712" y="183.434944" transform="rotate(-0 365.3712 183.434944)">FP</text>
   </g>
   <g id="text_8">
    <text style="font-size: 9.5px; font-family: 'DejaVu Sans'; fill: #182431" transform="translate(340.142763 197.757645)">реально 0</text>
    <text style="font-size: 9.5px; font-family: 'DejaVu Sans'; fill: #182431" transform="translate(340.778817 208.395567)">прогноз 1</text>
   </g>
   <g id="text_9">
    <text style="font-weight: 700; font-size: 17px; font-family: 'DejaVu Sans'; text-anchor: middle; fill: #ce3b36" x="196.632" y="283.226944" transform="rotate(-0 196.632 283.226944)">FN</text>
   </g>
   <g id="text_10">
    <text style="font-size: 9.5px; font-family: 'DejaVu Sans'; fill: #182431" transform="translate(171.403562 297.549645)">реально 1</text>
    <text style="font-size: 9.5px; font-family: 'DejaVu Sans'; fill: #182431" transform="translate(172.039617 308.187567)">прогноз 0</text>
   </g>
   <g id="text_11">
    <text style="font-weight: 700; font-size: 17px; font-family: 'DejaVu Sans'; text-anchor: middle; fill: #138a57" x="365.3712" y="283.226944" transform="rotate(-0 365.3712 283.226944)">TP</text>
   </g>
   <g id="text_12">
    <text style="font-size: 9.5px; font-family: 'DejaVu Sans'; fill: #182431" transform="translate(340.142763 297.549645)">реально 1</text>
    <text style="font-size: 9.5px; font-family: 'DejaVu Sans'; fill: #182431" transform="translate(340.778817 308.187567)">прогноз 1</text>
   </g>
   <g id="text_13">
    <text style="font-weight: 700; font-size: 11px; font-family: 'DejaVu Sans'; text-anchor: middle; fill: #5d6b78" x="196.632" y="363.491081" transform="rotate(-0 196.632 363.491081)">0</text>
   </g>
   <g id="text_14">
    <text style="font-weight: 700; font-size: 11px; font-family: 'DejaVu Sans'; text-anchor: middle; fill: #5d6b78" x="365.3712" y="363.491081" transform="rotate(-0 365.3712 363.491081)">1</text>
   </g>
   <g id="text_15">
    <text style="font-weight: 700; font-size: 11px; font-family: 'DejaVu Sans'; text-anchor: middle; fill: #5d6b78" x="88.1568" y="201.329081" transform="rotate(-0 88.1568 201.329081)">0</text>
   </g>
   <g id="text_16">
    <text style="font-weight: 700; font-size: 11px; font-family: 'DejaVu Sans'; text-anchor: middle; fill: #5d6b78" x="88.1568" y="301.121081" transform="rotate(-0 88.1568 301.121081)">1</text>
   </g>
   <g id="text_17">
    <text style="font-weight: 700; font-size: 10.2px; font-family: 'DejaVu Sans'; text-anchor: middle; fill: #ffffff" x="590.3568" y="156.617003" transform="rotate(-0 590.3568 156.617003)">ДИСБАЛАНС</text>
   </g>
   <g id="text_18">
    <text style="font-size: 10px; font-family: 'DejaVu Sans'; text-anchor: middle; fill: #182431" x="638.568" y="302.856038" transform="rotate(-0 638.568 302.856038)">99 объектов класса 0</text>
   </g>
   <g id="text_19">
    <text style="font-weight: 700; font-size: 10px; font-family: 'DejaVu Sans'; text-anchor: middle; fill: #ce3b36" x="638.568" y="327.804038" transform="rotate(-0 638.568 327.804038)">1 объект класса 1</text>
   </g>
   <g id="text_20">
    <text style="font-size: 10px; font-family: 'DejaVu Sans'; text-anchor: middle; fill: #5d6b78" x="638.568" y="362.731238" transform="rotate(-0 638.568 362.731238)">всегда прогнозируем 0</text>
   </g>
   <g id="text_21">
    <text style="font-weight: 700; font-size: 14px; font-family: 'DejaVu Sans'; text-anchor: middle; fill: #182431" x="638.568" y="430.526038" transform="rotate(-0 638.568 430.526038)">Accuracy = 99%</text>
   </g>
   <g id="text_22">
    <text style="font-weight: 700; font-size: 14px; font-family: 'DejaVu Sans'; text-anchor: middle; fill: #ce3b36" x="638.568" y="460.573013" transform="rotate(-0 638.568 460.573013)">Recall класса 1 = 0%</text>
   </g>
  </g>
 </g>
 <defs>
  <clipPath id="p8c755e3773">
   <rect x="15.84" y="15.84" width="803.52" height="498.96"/>
  </clipPath>
 </defs>
</svg>
