<?xml version="1.0" encoding="utf-8" standalone="no"?>
<!DOCTYPE svg PUBLIC "-//W3C//DTD SVG 1.1//EN"
  "http://www.w3.org/Graphics/SVG/1.1/DTD/svg11.dtd">
<svg xmlns:xlink="http://www.w3.org/1999/xlink" width="835.2pt" height="530.64pt" viewBox="0 0 835.2 530.64" xmlns="http://www.w3.org/2000/svg" version="1.1">
 <metadata>
  <rdf:RDF xmlns:dc="http://purl.org/dc/elements/1.1/" xmlns:cc="http://creativecommons.org/ns#" xmlns:rdf="http://www.w3.org/1999/02/22-rdf-syntax-ns#">
   <cc:Work>
    <dc:type rdf:resource="http://purl.org/dc/dcmitype/StillImage"/>
    <dc:format>image/svg+xml</dc:format>
    <dc:creator>
     <cc:Agent>
      <dc:title>Matplotlib v3.10.8, https://matplotlib.org/</dc:title>
     </cc:Agent>
    </dc:creator>
   </cc:Work>
  </rdf:RDF>
 </metadata>
 <defs>
  <style type="text/css">*{stroke-linejoin: round; stroke-linecap: butt}</style>
 </defs>
 <g id="figure_1">
  <g id="patch_1">
   <path d="M 0 530.64
L 835.2 530.64
L 835.2 0
L 0 0
z
" style="fill: #ffffff"/>
  </g>
  <g id="axes_1">
   <g id="patch_2">
    <path d="M 66.06 143.82324
L 182.5704 143.82324
Q 195.42672 143.82324 195.42672 151.8066
L 195.42672 378.8334
Q 195.42672 386.81676 182.5704 386.81676
L 66.06 386.81676
Q 53.20368 386.81676 53.20368 378.8334
L 53.20368 151.8066
Q 53.20368 143.82324 66.06 143.82324
z
" clip-path="url(#p8c755e3773)" style="fill: #ffffff; stroke: #0b70e0; stroke-width: 1.1; stroke-linejoin: miter"/>
   </g>
   <g id="patch_3">
    <path d="M 124.3152 162.53424
C 129.855696 162.53424 135.170013 163.901153 139.087735 166.333932
C 143.005458 168.766711 145.20672 172.066731 145.20672 175.5072
C 145.20672 178.947669 143.005458 182.247689 139.087735 184.680468
C 135.170013 187.113247 129.855696 188.48016 124.3152 188.48016
C 118.774704 188.48016 113.460387 187.113247 109.542665 184.680468
C 105.624942 182.247689 103.42368 178.947669 103.42368 175.5072
C 103.42368 172.066731 105.624942 168.766711 109.542665 166.333932
C 113.460387 163.901153 118.774704 162.53424 124.3152 162.53424
z
" clip-path="url(#p8c755e3773)" style="fill: #0b70e0"/>
   </g>
   <g id="patch_4">
    <path d="M 88.1568 285.77736
C 90.074664 285.77736 91.914235 286.250522 93.27037 287.092638
C 94.626505 287.934754 95.38848 289.077068 95.38848 290.268
C 95.38848 291.458932 94.626505 292.601246 93.27037 293.443362
C 91.914235 294.285478 90.074664 294.75864 88.1568 294.75864
C 86.238936 294.75864 84.399365 294.285478 83.04323 293.443362
C 81.687095 292.601246 80.92512 291.458932 80.92512 290.268
C 80.92512 289.077068 81.687095 287.934754 83.04323 287.092638
C 84.399365 286.250522 86.238936 285.77736 88.1568 285.77736
z
" clip-path="url(#p8c755e3773)" style="fill: #0b70e0; opacity: 0.75"/>
   </g>
   <g id="patch_5">
    <path d="M 112.2624 285.77736
C 114.180264 285.77736 116.019835 286.250522 117.37597 287.092638
C 118.732105 287.934754 119.49408 289.077068 119.49408 290.268
C 119.49408 291.458932 118.732105 292.601246 117.37597 293.443362
C 116.019835 294.285478 114.180264 294.75864 112.2624 294.75864
C 110.344536 294.75864 108.504965 294.285478 107.14883 293.443362
C 105.792695 292.601246 105.03072 291.458932 105.03072 290.268
C 105.03072 289.077068 105.792695 287.934754 107.14883 287.092638
C 108.504965 286.250522 110.344536 285.77736 112.2624 285.77736
z
" clip-path="url(#p8c755e3773)" style="fill: #0b70e0; opacity: 0.75"/>
   </g>
   <g id="patch_6">
    <path d="M 136.368 285.77736
C 138.285864 285.77736 140.125435 286.250522 141.48157 287.092638
C 142.837705 287.934754 143.59968 289.077068 143.59968 290.268
C 143.59968 291.458932 142.837705 292.601246 141.48157 293.443362
C 140.125435 294.285478 138.285864 294.75864 136.368 294.75864
C 134.450136 294.75864 132.610565 294.285478 131.25443 293.443362
C 129.898295 292.601246 129.13632 291.458932 129.13632 290.268
C 129.13632 289.077068 129.898295 287.934754 131.25443 287.092638
C 132.610565 286.250522 134.450136 285.77736 136.368 285.77736
z
" clip-path="url(#p8c755e3773)" style="fill: #0b70e0; opacity: 0.75"/>
   </g>
   <g id="patch_7">
    <path d="M 160.4736 285.77736
C 162.391464 285.77736 164.231035 286.250522 165.58717 287.092638
C 166.943305 287.934754 167.70528 289.077068 167.70528 290.268
C 167.70528 291.458932 166.943305 292.601246 165.58717 293.443362
C 164.231035 294.285478 162.391464 294.75864 160.4736 294.75864
C 158.555736 294.75864 156.716165 294.285478 155.36003 293.443362
C 154.003895 292.601246 153.24192 291.458932 153.24192 290.268
C 153.24192 289.077068 154.003895 287.934754 155.36003 287.092638
C 156.716165 286.250522 158.555736 285.77736 160.4736 285.77736
z
" clip-path="url(#p8c755e3773)" style="fill: #0b70e0; opacity: 0.75"/>
   </g>
   <g id="patch_8">
    <path d="M 88.1568 315.71496
C 90.074664 315.71496 91.914235 316.188122 93.27037 317.030238
C 94.626505 317.872354 95.38848 319.014668 95.38848 320.2056
C 95.38848 321.396532 94.626505 322.538846 93.27037 323.380962
C 91.914235 324.223078 90.074664 324.69624 88.1568 324.69624
C 86.238936 324.69624 84.399365 324.223078 83.04323 323.380962
C 81.687095 322.538846 80.92512 321.396532 80.92512 320.2056
C 80.92512 319.014668 81.687095 317.872354 83.04323 317.030238
C 84.399365 316.188122 86.238936 315.71496 88.1568 315.71496
z
" clip-path="url(#p8c755e3773)" style="fill: #0b70e0; opacity: 0.75"/>
   </g>
   <g id="patch_9">
    <path d="M 112.2624 315.71496
C 114.180264 315.71496 116.019835 316.188122 117.37597 317.030238
C 118.732105 317.872354 119.49408 319.014668 119.49408 320.2056
C 119.49408 321.396532 118.732105 322.538846 117.37597 323.380962
C 116.019835 324.223078 114.180264 324.69624 112.2624 324.69624
C 110.344536 324.69624 108.504965 324.223078 107.14883 323.380962
C 105.792695 322.538846 105.03072 321.396532 105.03072 320.2056
C 105.03072 319.014668 105.792695 317.872354 107.14883 317.030238
C 108.504965 316.188122 110.344536 315.71496 112.2624 315.71496
z
" clip-path="url(#p8c755e3773)" style="fill: #0b70e0; opacity: 0.75"/>
   </g>
   <g id="patch_10">
    <path d="M 136.368 315.71496
C 138.285864 315.71496 140.125435 316.188122 141.48157 317.030238
C 142.837705 317.872354 143.59968 319.014668 143.59968 320.2056
C 143.59968 321.396532 142.837705 322.538846 141.48157 323.380962
C 140.125435 324.223078 138.285864 324.69624 136.368 324.69624
C 134.450136 324.69624 132.610565 324.223078 131.25443 323.380962
C 129.898295 322.538846 129.13632 321.396532 129.13632 320.2056
C 129.13632 319.014668 129.898295 317.872354 131.25443 317.030238
C 132.610565 316.188122 134.450136 315.71496 136.368 315.71496
z
" clip-path="url(#p8c755e3773)" style="fill: #0b70e0; opacity: 0.75"/>
   </g>
   <g id="patch_11">
    <path d="M 160.4736 315.71496
C 162.391464 315.71496 164.231035 316.188122 165.58717 317.030238
C 166.943305 317.872354 167.70528 319.014668 167.70528 320.2056
C 167.70528 321.396532 166.943305 322.538846 165.58717 323.380962
C 164.231035 324.223078 162.391464 324.69624 160.4736 324.69624
C 158.555736 324.69624 156.716165 324.223078 155.36003 323.380962
C 154.003895 322.538846 153.24192 321.396532 153.24192 320.2056
C 153.24192 319.014668 154.003895 317.872354 155.36003 317.030238
C 156.716165 316.188122 158.555736 315.71496 160.4736 315.71496
z
" clip-path="url(#p8c755e3773)" style="fill: #0b70e0; opacity: 0.75"/>
   </g>
   <g id="patch_12">
    <path d="M 198.628049 265.32
Q 216.718317 265.32 232.796125 265.32
" clip-path="url(#p8c755e3773)" style="fill: none; stroke: #d9e3ec; stroke-width: 1.8; stroke-linecap: round"/>
    <path d="M 227.196125 262.52
L 232.796125 265.32
L 227.196125 268.12
z
" clip-path="url(#p8c755e3773)" style="fill: #d9e3ec; stroke: #d9e3ec; stroke-width: 1.8; stroke-linecap: round"/>
   </g>
   <g id="patch_13">
    <path d="M 250.8696 143.82324
L 367.38 143.82324
Q 380.23632 143.82324 380.23632 151.8066
L 380.23632 378.8334
Q 380.23632 386.81676 367.38 386.81676
L 250.8696 386.81676
Q 238.01328 386.81676 238.01328 378.8334
L 238.01328 151.8066
Q 238.01328 143.82324 250.8696 143.82324
z
" clip-path="url(#p8c755e3773)" style="fill: #ffffff; stroke: #7657e8; stroke-width: 1.1; stroke-linejoin: miter"/>
   </g>
   <g id="patch_14">
    <path d="M 309.1248 162.53424
C 314.665296 162.53424 319.979613 163.901153 323.897335 166.333932
C 327.815058 168.766711 330.01632 172.066731 330.01632 175.5072
C 330.01632 178.947669 327.815058 182.247689 323.897335 184.680468
C 319.979613 187.113247 314.665296 188.48016 309.1248 188.48016
C 303.584304 188.48016 298.269987 187.113247 294.352265 184.680468
C 290.434542 182.247689 288.23328 178.947669 288.23328 175.5072
C 288.23328 172.066731 290.434542 168.766711 294.352265 166.333932
C 298.269987 163.901153 303.584304 162.53424 309.1248 162.53424
z
" clip-path="url(#p8c755e3773)" style="fill: #7657e8"/>
   </g>
   <g id="patch_15">
    <path d="M 383.43863 265.32
Q 413.579207 265.32 441.707323 265.32
" clip-path="url(#p8c755e3773)" style="fill: none; stroke: #d9e3ec; stroke-width: 1.8; stroke-linecap: round"/>
    <path d="M 436.107323 262.52
L 441.707323 265.32
L 436.107323 268.12
z
" clip-path="url(#p8c755e3773)" style="fill: #d9e3ec; stroke: #d9e3ec; stroke-width: 1.8; stroke-linecap: round"/>
   </g>
   <g id="patch_16">
    <path d="M 459.7848 143.82324
L 576.2952 143.82324
Q 589.15152 143.82324 589.15152 151.8066
L 589.15152 378.8334
Q 589.15152 386.81676 576.2952 386.81676
L 459.7848 386.81676
Q 446.92848 386.81676 446.92848 378.8334
L 446.92848 151.8066
Q 446.92848 143.82324 459.7848 143.82324
z
" clip-path="url(#p8c755e3773)" style="fill: #ffffff; stroke: #138a57; stroke-width: 1.1; stroke-linejoin: miter"/>
   </g>
   <g id="patch_17">
    <path d="M 518.04 162.53424
C 523.580496 162.53424 528.894813 163.901153 532.812535 166.333932
C 536.730258 168.766711 538.93152 172.066731 538.93152 175.5072
C 538.93152 178.947669 536.730258 182.247689 532.812535 184.680468
C 528.894813 187.113247 523.580496 188.48016 518.04 188.48016
C 512.499504 188.48016 507.185187 187.113247 503.267465 184.680468
C 499.349742 182.247689 497.14848 178.947669 497.14848 175.5072
C 497.14848 172.066731 499.349742 168.766711 503.267465 166.333932
C 507.185187 163.901153 512.499504 162.53424 518.04 162.53424
z
" clip-path="url(#p8c755e3773)" style="fill: #138a57"/>
   </g>
   <g id="patch_18">
    <path d="M 592.358244 265.32
Q 618.47919 265.32 642.587675 265.32
" clip-path="url(#p8c755e3773)" style="fill: none; stroke: #d9e3ec; stroke-width: 1.8; stroke-linecap: round"/>
    <path d="M 636.987675 262.52
L 642.587675 265.32
L 636.987675 268.12
z
" clip-path="url(#p8c755e3773)" style="fill: #d9e3ec; stroke: #d9e3ec; stroke-width: 1.8; stroke-linecap: round"/>
   </g>
   <g id="patch_19">
    <path d="M 660.6648 143.82324
L 777.1752 143.82324
Q 790.03152 143.82324 790.03152 151.8066
L 790.03152 378.8334
Q 790.03152 386.81676 777.1752 386.81676
L 660.6648 386.81676
Q 647.80848 386.81676 647.80848 378.8334
L 647.80848 151.8066
Q 647.80848 143.82324 660.6648 143.82324
z
" clip-path="url(#p8c755e3773)" style="fill: #ffffff; stroke: #b96a00; stroke-width: 1.1; stroke-linejoin: miter"/>
   </g>
   <g id="patch_20">
    <path d="M 718.92 162.53424
C 724.460496 162.53424 729.774813 163.901153 733.692535 166.333932
C 737.610258 168.766711 739.81152 172.066731 739.81152 175.5072
C 739.81152 178.947669 737.610258 182.247689 733.692535 184.680468
C 729.774813 187.113247 724.460496 188.48016 718.92 188.48016
C 713.379504 188.48016 708.065187 187.113247 704.147465 184.680468
C 700.229742 182.247689 698.02848 178.947669 698.02848 175.5072
C 698.02848 172.066731 700.229742 168.766711 704.147465 166.333932
C 708.065187 163.901153 713.379504 162.53424 718.92 162.53424
z
" clip-path="url(#p8c755e3773)" style="fill: #b96a00"/>
   </g>
   <g id="patch_21">
    <path d="M 666.6912 335.1744
L 678.744 335.1744
L 678.744 345.1536
L 666.6912 345.1536
z
" clip-path="url(#p8c755e3773)" style="fill: #b96a00; opacity: 0.75"/>
   </g>
   <g id="patch_22">
    <path d="M 681.15456 320.2056
L 693.20736 320.2056
L 693.20736 345.1536
L 681.15456 345.1536
z
" clip-path="url(#p8c755e3773)" style="fill: #b96a00; opacity: 0.75"/>
   </g>
   <g id="patch_23">
    <path d="M 695.61792 300.2472
L 707.67072 300.2472
L 707.67072 345.1536
L 695.61792 345.1536
z
" clip-path="url(#p8c755e3773)" style="fill: #b96a00; opacity: 0.75"/>
   </g>
   <g id="patch_24">
    <path d="M 710.08128 280.2888
L 722.13408 280.2888
L 722.13408 345.1536
L 710.08128 345.1536
z
" clip-path="url(#p8c755e3773)" style="fill: #b96a00; opacity: 0.75"/>
   </g>
   <g id="patch_25">
    <path d="M 724.54464 295.2576
L 736.59744 295.2576
L 736.59744 345.1536
L 724.54464 345.1536
z
" clip-path="url(#p8c755e3773)" style="fill: #b96a00; opacity: 0.75"/>
   </g>
   <g id="patch_26">
    <path d="M 739.008 315.216
L 751.0608 315.216
L 751.0608 345.1536
L 739.008 345.1536
z
" clip-path="url(#p8c755e3773)" style="fill: #b96a00; opacity: 0.75"/>
   </g>
   <g id="patch_27">
    <path d="M 753.47136 330.1848
L 765.52416 330.1848
L 765.52416 345.1536
L 753.47136 345.1536
z
" clip-path="url(#p8c755e3773)" style="fill: #b96a00; opacity: 0.75"/>
   </g>
   <g id="patch_28">
    <path d="M 106.236 418.25124
L 728.964 418.25124
Q 741.82032 418.25124 741.82032 426.2346
L 741.82032 468.6462
Q 741.82032 476.62956 728.964 476.62956
L 106.236 476.62956
Q 93.37968 476.62956 93.37968 468.6462
L 93.37968 426.2346
Q 93.37968 418.25124 106.236 418.25124
z
" clip-path="url(#p8c755e3773)" style="fill: #fff0ef; stroke: #efa19d; stroke-width: 1.1; stroke-linejoin: miter"/>
   </g>
   <g id="line2d_1">
    <path d="M 47.9808 90.684
L 787.2192 90.684
" clip-path="url(#p8c755e3773)" style="fill: none; stroke: #d9e3ec; stroke-linecap: square"/>
   </g>
   <g id="text_1">
    <text style="font-weight: 700; font-size: 24px; font-family: 'DejaVu Sans'; text-anchor: start; fill: #182431" x="47.9808" y="54.03465" transform="rotate(-0 47.9808 54.03465)">Bootstrap-оценка интервала метрики</text>
   </g>
   <g id="text_2">
    <text style="font-size: 11px; font-family: 'DejaVu Sans'; text-anchor: start; fill: #5d6b78" x="47.9808" y="74.281625" transform="rotate(-0 47.9808 74.281625)">Повторные выборки строятся с возвращением и уважают единицу независимости.</text>
   </g>
   <g id="text_3">
    <text style="font-weight: 700; font-size: 10px; font-family: 'DejaVu Sans'; text-anchor: middle; fill: #ffffff" x="124.3152" y="178.266575" transform="rotate(-0 124.3152 178.266575)">1</text>
   </g>
   <g id="text_4">
    <text style="font-weight: 700; font-size: 9.2px; font-family: 'DejaVu Sans'; fill: #0b70e0" transform="translate(94.584106 207.822031)">ИСХОДНАЯ</text>
    <text style="font-weight: 700; font-size: 9.2px; font-family: 'DejaVu Sans'; fill: #0b70e0" transform="translate(97.934919 218.124019)">ВЫБОРКА</text>
   </g>
   <g id="text_5">
    <text style="font-weight: 700; font-size: 10px; font-family: 'DejaVu Sans'; text-anchor: middle; fill: #ffffff" x="309.1248" y="178.266575" transform="rotate(-0 309.1248 178.266575)">2</text>
   </g>
   <g id="text_6">
    <text style="font-weight: 700; font-size: 9.2px; font-family: 'DejaVu Sans'; fill: #7657e8" transform="translate(277.477519 207.822031)">ВЫБОРКИ С</text>
    <text style="font-weight: 700; font-size: 9.2px; font-family: 'DejaVu Sans'; fill: #7657e8" transform="translate(263.342581 218.124019)">ВОЗВРАЩЕНИЕМ</text>
   </g>
   <g id="text_7">
    <text style="font-size: 8.8px; font-family: 'DejaVu Sans'; text-anchor: middle; fill: #182431" x="309.1248" y="281.985825" transform="rotate(-0 309.1248 281.985825)">A C C D</text>
   </g>
   <g id="text_8">
    <text style="font-size: 8.8px; font-family: 'DejaVu Sans'; text-anchor: middle; fill: #182431" x="309.1248" y="311.923425" transform="rotate(-0 309.1248 311.923425)">B B C A</text>
   </g>
   <g id="text_9">
    <text style="font-size: 8.8px; font-family: 'DejaVu Sans'; text-anchor: middle; fill: #182431" x="309.1248" y="341.861025" transform="rotate(-0 309.1248 341.861025)">D A D C</text>
   </g>
   <g id="text_10">
    <text style="font-weight: 700; font-size: 10px; font-family: 'DejaVu Sans'; text-anchor: middle; fill: #ffffff" x="518.04" y="178.266575" transform="rotate(-0 518.04 178.266575)">3</text>
   </g>
   <g id="text_11">
    <text style="font-weight: 700; font-size: 9.2px; font-family: 'DejaVu Sans'; fill: #138a57" transform="translate(492.640812 207.192406)">МЕТРИКА</text>
    <text style="font-weight: 700; font-size: 9.2px; font-family: 'DejaVu Sans'; fill: #138a57" transform="translate(464.961031 218.753644)">КАЖДОЙ ВЫБОРКИ</text>
   </g>
   <g id="text_12">
    <text style="font-size: 8.8px; font-family: 'DejaVu Sans'; text-anchor: middle; fill: #182431" x="518.04" y="276.996225" transform="rotate(-0 518.04 276.996225)">F1 = 0,74</text>
   </g>
   <g id="text_13">
    <text style="font-size: 8.8px; font-family: 'DejaVu Sans'; text-anchor: middle; fill: #182431" x="518.04" y="301.944225" transform="rotate(-0 518.04 301.944225)">F1 = 0,81</text>
   </g>
   <g id="text_14">
    <text style="font-size: 8.8px; font-family: 'DejaVu Sans'; text-anchor: middle; fill: #182431" x="518.04" y="326.892225" transform="rotate(-0 518.04 326.892225)">F1 = 0,77</text>
   </g>
   <g id="text_15">
    <text style="font-size: 8.8px; font-family: 'DejaVu Sans'; text-anchor: middle; fill: #182431" x="518.04" y="351.840225" transform="rotate(-0 518.04 351.840225)">F1 = 0,85</text>
   </g>
   <g id="text_16">
    <text style="font-weight: 700; font-size: 10px; font-family: 'DejaVu Sans'; text-anchor: middle; fill: #ffffff" x="718.92" y="178.266575" transform="rotate(-0 718.92 178.266575)">4</text>
   </g>
   <g id="text_17">
    <text style="font-weight: 700; font-size: 9.2px; font-family: 'DejaVu Sans'; fill: #b96a00" transform="translate(673.204625 207.822031)">РАСПРЕДЕЛЕНИЕ</text>
    <text style="font-weight: 700; font-size: 9.2px; font-family: 'DejaVu Sans'; fill: #b96a00" transform="translate(685.23075 218.124019)">И ИНТЕРВАЛ</text>
   </g>
   <g id="text_18">
    <text style="font-weight: 700; font-size: 8px; font-family: 'DejaVu Sans'; text-anchor: middle; fill: #b96a00" x="718.92" y="366.20115" transform="rotate(-0 718.92 366.20115)">2,5%      97,5%</text>
   </g>
   <g id="text_19">
    <text style="font-weight: 700; font-size: 10.5px; font-family: 'DejaVu Sans'; text-anchor: middle; fill: #ce3b36" x="417.6" y="442.862728" transform="rotate(-0 417.6 442.862728)">Групповые данные: ресэмплировать пациентов целиком.</text>
   </g>
   <g id="text_20">
    <text style="font-size: 9.5px; font-family: 'DejaVu Sans'; text-anchor: middle; fill: #ce3b36" x="417.6" y="467.132916" transform="rotate(-0 417.6 467.132916)">Простой bootstrap строк может разрушить зависимость и дать неверный интервал.</text>
   </g>
  </g>
 </g>
 <defs>
  <clipPath id="p8c755e3773">
   <rect x="15.84" y="15.84" width="803.52" height="498.96"/>
  </clipPath>
 </defs>
</svg>
