<?xml version="1.0" encoding="utf-8" standalone="no"?>
<!DOCTYPE svg PUBLIC "-//W3C//DTD SVG 1.1//EN"
  "http://www.w3.org/Graphics/SVG/1.1/DTD/svg11.dtd">
<svg xmlns:xlink="http://www.w3.org/1999/xlink" width="835.2pt" height="530.64pt" viewBox="0 0 835.2 530.64" xmlns="http://www.w3.org/2000/svg" version="1.1">
 <metadata>
  <rdf:RDF xmlns:dc="http://purl.org/dc/elements/1.1/" xmlns:cc="http://creativecommons.org/ns#" xmlns:rdf="http://www.w3.org/1999/02/22-rdf-syntax-ns#">
   <cc:Work>
    <dc:type rdf:resource="http://purl.org/dc/dcmitype/StillImage"/>
    <dc:format>image/svg+xml</dc:format>
    <dc:creator>
     <cc:Agent>
      <dc:title>Matplotlib v3.10.8, https://matplotlib.org/</dc:title>
     </cc:Agent>
    </dc:creator>
   </cc:Work>
  </rdf:RDF>
 </metadata>
 <defs>
  <style type="text/css">*{stroke-linejoin: round; stroke-linecap: butt}</style>
 </defs>
 <g id="figure_1">
  <g id="patch_1">
   <path d="M 0 530.64
L 835.2 530.64
L 835.2 0
L 0 0
z
" style="fill: #ffffff"/>
  </g>
  <g id="axes_1">
   <g id="patch_2">
    <path d="M 66.06 123.86484
L 391.4856 123.86484
Q 404.34192 123.86484 404.34192 131.8482
L 404.34192 423.7398
Q 404.34192 431.72316 391.4856 431.72316
L 66.06 431.72316
Q 53.20368 431.72316 53.20368 423.7398
L 53.20368 131.8482
Q 53.20368 123.86484 66.06 123.86484
z
" clip-path="url(#p8c755e3773)" style="fill: #eaf4ff; stroke: #0b70e0; stroke-width: 1.1; stroke-linejoin: miter"/>
   </g>
   <g id="patch_3">
    <path d="M 100.61136 143.82324
L 340.86384 143.82324
Q 348.09552 143.82324 348.09552 148.31388
L 348.09552 169.2702
Q 348.09552 173.76084 340.86384 173.76084
L 100.61136 173.76084
Q 93.37968 173.76084 93.37968 169.2702
L 93.37968 148.31388
Q 93.37968 143.82324 100.61136 143.82324
z
" clip-path="url(#p8c755e3773)" style="fill: #0b70e0; stroke: #0b70e0; stroke-width: 1.1; stroke-linejoin: miter"/>
   </g>
   <g id="patch_4">
    <path d="M 228.7728 242.371616
Q 228.7728 257.836567 228.7728 271.289057
" clip-path="url(#p8c755e3773)" style="fill: none; stroke: #0b70e0; stroke-width: 1.8; stroke-linecap: round"/>
    <path d="M 231.5728 265.689057
L 228.7728 271.289057
L 225.9728 265.689057
z
" clip-path="url(#p8c755e3773)" style="fill: #0b70e0; stroke: #0b70e0; stroke-width: 1.8; stroke-linecap: round"/>
   </g>
   <g id="patch_5">
    <path d="M 123.91344 278.54244
L 333.63216 278.54244
Q 340.06032 278.54244 340.06032 282.53412
L 340.06032 322.94988
Q 340.06032 326.94156 333.63216 326.94156
L 123.91344 326.94156
Q 117.48528 326.94156 117.48528 322.94988
L 117.48528 282.53412
Q 117.48528 278.54244 123.91344 278.54244
z
" clip-path="url(#p8c755e3773)" style="fill: #ffffff; stroke: #0b70e0; stroke-width: 1.1; stroke-linejoin: miter"/>
   </g>
   <g id="patch_6">
    <path d="M 443.7144 123.86484
L 769.14 123.86484
Q 781.99632 123.86484 781.99632 131.8482
L 781.99632 423.7398
Q 781.99632 431.72316 769.14 431.72316
L 443.7144 431.72316
Q 430.85808 431.72316 430.85808 423.7398
L 430.85808 131.8482
Q 430.85808 123.86484 443.7144 123.86484
z
" clip-path="url(#p8c755e3773)" style="fill: #f0ecff; stroke: #7657e8; stroke-width: 1.1; stroke-linejoin: miter"/>
   </g>
   <g id="patch_7">
    <path d="M 478.26576 143.82324
L 718.51824 143.82324
Q 725.74992 143.82324 725.74992 148.31388
L 725.74992 169.2702
Q 725.74992 173.76084 718.51824 173.76084
L 478.26576 173.76084
Q 471.03408 173.76084 471.03408 169.2702
L 471.03408 148.31388
Q 471.03408 143.82324 478.26576 143.82324
z
" clip-path="url(#p8c755e3773)" style="fill: #7657e8; stroke: #7657e8; stroke-width: 1.1; stroke-linejoin: miter"/>
   </g>
   <g id="patch_8">
    <path d="M 606.4272 242.371616
Q 606.4272 257.836567 606.4272 271.289057
" clip-path="url(#p8c755e3773)" style="fill: none; stroke: #7657e8; stroke-width: 1.8; stroke-linecap: round"/>
    <path d="M 609.2272 265.689057
L 606.4272 271.289057
L 603.6272 265.689057
z
" clip-path="url(#p8c755e3773)" style="fill: #7657e8; stroke: #7657e8; stroke-width: 1.8; stroke-linecap: round"/>
   </g>
   <g id="patch_9">
    <path d="M 501.56784 278.54244
L 711.28656 278.54244
Q 717.71472 278.54244 717.71472 282.53412
L 717.71472 322.94988
Q 717.71472 326.94156 711.28656 326.94156
L 501.56784 326.94156
Q 495.13968 326.94156 495.13968 322.94988
L 495.13968 282.53412
Q 495.13968 278.54244 501.56784 278.54244
z
" clip-path="url(#p8c755e3773)" style="fill: #ffffff; stroke: #7657e8; stroke-width: 1.1; stroke-linejoin: miter"/>
   </g>
   <g id="patch_10">
    <path d="M 162.4824 448.18884
L 672.7176 448.18884
Q 685.57392 448.18884 685.57392 456.1722
L 685.57392 483.615
Q 685.57392 491.59836 672.7176 491.59836
L 162.4824 491.59836
Q 149.62608 491.59836 149.62608 483.615
L 149.62608 456.1722
Q 149.62608 448.18884 162.4824 448.18884
z
" clip-path="url(#p8c755e3773)" style="fill: #e8f7ef; stroke: #8bd0aa; stroke-width: 1.1; stroke-linejoin: miter"/>
   </g>
   <g id="line2d_1">
    <path d="M 47.9808 90.684
L 787.2192 90.684
" clip-path="url(#p8c755e3773)" style="fill: none; stroke: #d9e3ec; stroke-linecap: square"/>
   </g>
   <g id="text_1">
    <text style="font-weight: 700; font-size: 24px; font-family: 'DejaVu Sans'; text-anchor: start; fill: #182431" x="47.9808" y="54.03465" transform="rotate(-0 47.9808 54.03465)">Параметр или гиперпараметр?</text>
   </g>
   <g id="text_2">
    <text style="font-size: 11px; font-family: 'DejaVu Sans'; text-anchor: start; fill: #5d6b78" x="47.9808" y="74.281625" transform="rotate(-0 47.9808 74.281625)">Разница определяется тем, когда и кем выбирается значение.</text>
   </g>
   <g id="text_3">
    <text style="font-weight: 700; font-size: 10.2px; font-family: 'DejaVu Sans'; text-anchor: middle; fill: #ffffff" x="220.7376" y="161.606603" transform="rotate(-0 220.7376 161.606603)">ПАРАМЕТР МОДЕЛИ</text>
   </g>
   <g id="text_4">
    <text style="font-weight: 700; font-size: 12px; font-family: 'DejaVu Sans'; text-anchor: middle; fill: #182431" x="228.7728" y="219.9444" transform="rotate(-0 228.7728 219.9444)">Находит обучение</text>
   </g>
   <g id="text_5">
    <text style="font-weight: 700; font-size: 10px; font-family: 'DejaVu Sans'; text-anchor: middle; fill: #0b70e0" x="228.7728" y="305.501375" transform="rotate(-0 228.7728 305.501375)">После model.fit(...)</text>
   </g>
   <g id="text_6">
    <text style="font-size: 10.5px; font-family: 'DejaVu Sans'; fill: #5d6b78" transform="translate(184.450495 367.120092)">коэффициент w</text>
    <text style="font-size: 10.5px; font-family: 'DejaVu Sans'; fill: #5d6b78" transform="translate(159.147956 378.877795)">значение в листе дерева</text>
   </g>
   <g id="text_7">
    <text style="font-weight: 700; font-size: 10.2px; font-family: 'DejaVu Sans'; text-anchor: middle; fill: #ffffff" x="598.392" y="161.606603" transform="rotate(-0 598.392 161.606603)">ГИПЕРПАРАМЕТР</text>
   </g>
   <g id="text_8">
    <text style="font-weight: 700; font-size: 12px; font-family: 'DejaVu Sans'; text-anchor: middle; fill: #182431" x="606.4272" y="219.552525" transform="rotate(-0 606.4272 219.552525)">Задаёт человек или поиск</text>
   </g>
   <g id="text_9">
    <text style="font-weight: 700; font-size: 10px; font-family: 'DejaVu Sans'; text-anchor: middle; fill: #7657e8" x="606.4272" y="305.501375" transform="rotate(-0 606.4272 305.501375)">До model.fit(...)</text>
   </g>
   <g id="text_10">
    <text style="font-size: 10.5px; font-family: 'DejaVu Sans'; fill: #5d6b78" transform="translate(562.502747 367.209506)">глубина дерева</text>
    <text style="font-size: 10.5px; font-family: 'DejaVu Sans'; fill: #5d6b78" transform="translate(549.793645 378.967209)">сила регуляризации</text>
   </g>
   <g id="text_11">
    <text style="font-weight: 700; font-size: 10px; font-family: 'DejaVu Sans'; text-anchor: middle; fill: #138a57" x="417.6" y="472.677194" transform="rotate(-0 417.6 472.677194)">coef_ появился после обучения → параметр.  max_depth=5 задан заранее → гиперпараметр.</text>
   </g>
  </g>
 </g>
 <defs>
  <clipPath id="p8c755e3773">
   <rect x="15.84" y="15.84" width="803.52" height="498.96"/>
  </clipPath>
 </defs>
</svg>
