<?xml version="1.0" encoding="utf-8" standalone="no"?>
<!DOCTYPE svg PUBLIC "-//W3C//DTD SVG 1.1//EN"
  "http://www.w3.org/Graphics/SVG/1.1/DTD/svg11.dtd">
<svg xmlns:xlink="http://www.w3.org/1999/xlink" width="835.2pt" height="530.64pt" viewBox="0 0 835.2 530.64" xmlns="http://www.w3.org/2000/svg" version="1.1">
 <metadata>
  <rdf:RDF xmlns:dc="http://purl.org/dc/elements/1.1/" xmlns:cc="http://creativecommons.org/ns#" xmlns:rdf="http://www.w3.org/1999/02/22-rdf-syntax-ns#">
   <cc:Work>
    <dc:type rdf:resource="http://purl.org/dc/dcmitype/StillImage"/>
    <dc:format>image/svg+xml</dc:format>
    <dc:creator>
     <cc:Agent>
      <dc:title>Matplotlib v3.10.8, https://matplotlib.org/</dc:title>
     </cc:Agent>
    </dc:creator>
   </cc:Work>
  </rdf:RDF>
 </metadata>
 <defs>
  <style type="text/css">*{stroke-linejoin: round; stroke-linecap: butt}</style>
 </defs>
 <g id="figure_1">
  <g id="patch_1">
   <path d="M 0 530.64
L 835.2 530.64
L 835.2 0
L 0 0
z
" style="fill: #ffffff"/>
  </g>
  <g id="axes_1">
   <g id="patch_2">
    <path d="M 56.016 130.6008
L 160.4736 130.6008
L 160.4736 165.528
L 56.016 165.528
z
" clip-path="url(#p8c755e3773)" style="fill: #eaf4ff; stroke: #ffffff; stroke-linejoin: miter"/>
   </g>
   <g id="patch_3">
    <path d="M 160.4736 130.6008
L 264.9312 130.6008
L 264.9312 165.528
L 160.4736 165.528
z
" clip-path="url(#p8c755e3773)" style="fill: #0b70e0; stroke: #ffffff; stroke-linejoin: miter"/>
   </g>
   <g id="patch_4">
    <path d="M 264.9312 130.6008
L 369.3888 130.6008
L 369.3888 165.528
L 264.9312 165.528
z
" clip-path="url(#p8c755e3773)" style="fill: #0b70e0; stroke: #ffffff; stroke-linejoin: miter"/>
   </g>
   <g id="patch_5">
    <path d="M 369.3888 130.6008
L 473.8464 130.6008
L 473.8464 165.528
L 369.3888 165.528
z
" clip-path="url(#p8c755e3773)" style="fill: #eaf4ff; stroke: #ffffff; stroke-linejoin: miter"/>
   </g>
   <g id="patch_6">
    <path d="M 473.8464 130.6008
L 578.304 130.6008
L 578.304 165.528
L 473.8464 165.528
z
" clip-path="url(#p8c755e3773)" style="fill: #eaf4ff; stroke: #ffffff; stroke-linejoin: miter"/>
   </g>
   <g id="patch_7">
    <path d="M 56.016 165.528
L 160.4736 165.528
L 160.4736 200.4552
L 56.016 200.4552
z
" clip-path="url(#p8c755e3773)" style="fill: #ffffff; stroke: #d9e3ec; stroke-linejoin: miter"/>
   </g>
   <g id="patch_8">
    <path d="M 160.4736 165.528
L 264.9312 165.528
L 264.9312 200.4552
L 160.4736 200.4552
z
" clip-path="url(#p8c755e3773)" style="fill: #ffffff; stroke: #d9e3ec; stroke-linejoin: miter"/>
   </g>
   <g id="patch_9">
    <path d="M 264.9312 165.528
L 369.3888 165.528
L 369.3888 200.4552
L 264.9312 200.4552
z
" clip-path="url(#p8c755e3773)" style="fill: #ffffff; stroke: #d9e3ec; stroke-linejoin: miter"/>
   </g>
   <g id="patch_10">
    <path d="M 369.3888 165.528
L 473.8464 165.528
L 473.8464 200.4552
L 369.3888 200.4552
z
" clip-path="url(#p8c755e3773)" style="fill: #ffffff; stroke: #d9e3ec; stroke-linejoin: miter"/>
   </g>
   <g id="patch_11">
    <path d="M 473.8464 165.528
L 578.304 165.528
L 578.304 200.4552
L 473.8464 200.4552
z
" clip-path="url(#p8c755e3773)" style="fill: #ffffff; stroke: #d9e3ec; stroke-linejoin: miter"/>
   </g>
   <g id="patch_12">
    <path d="M 56.016 200.4552
L 160.4736 200.4552
L 160.4736 235.3824
L 56.016 235.3824
z
" clip-path="url(#p8c755e3773)" style="fill: #ffffff; stroke: #d9e3ec; stroke-linejoin: miter"/>
   </g>
   <g id="patch_13">
    <path d="M 160.4736 200.4552
L 264.9312 200.4552
L 264.9312 235.3824
L 160.4736 235.3824
z
" clip-path="url(#p8c755e3773)" style="fill: #ffffff; stroke: #d9e3ec; stroke-linejoin: miter"/>
   </g>
   <g id="patch_14">
    <path d="M 264.9312 200.4552
L 369.3888 200.4552
L 369.3888 235.3824
L 264.9312 235.3824
z
" clip-path="url(#p8c755e3773)" style="fill: #ffffff; stroke: #d9e3ec; stroke-linejoin: miter"/>
   </g>
   <g id="patch_15">
    <path d="M 369.3888 200.4552
L 473.8464 200.4552
L 473.8464 235.3824
L 369.3888 235.3824
z
" clip-path="url(#p8c755e3773)" style="fill: #ffffff; stroke: #d9e3ec; stroke-linejoin: miter"/>
   </g>
   <g id="patch_16">
    <path d="M 473.8464 200.4552
L 578.304 200.4552
L 578.304 235.3824
L 473.8464 235.3824
z
" clip-path="url(#p8c755e3773)" style="fill: #ffffff; stroke: #d9e3ec; stroke-linejoin: miter"/>
   </g>
   <g id="patch_17">
    <path d="M 56.016 235.3824
L 160.4736 235.3824
L 160.4736 270.3096
L 56.016 270.3096
z
" clip-path="url(#p8c755e3773)" style="fill: #ffffff; stroke: #d9e3ec; stroke-linejoin: miter"/>
   </g>
   <g id="patch_18">
    <path d="M 160.4736 235.3824
L 264.9312 235.3824
L 264.9312 270.3096
L 160.4736 270.3096
z
" clip-path="url(#p8c755e3773)" style="fill: #ffffff; stroke: #d9e3ec; stroke-linejoin: miter"/>
   </g>
   <g id="patch_19">
    <path d="M 264.9312 235.3824
L 369.3888 235.3824
L 369.3888 270.3096
L 264.9312 270.3096
z
" clip-path="url(#p8c755e3773)" style="fill: #ffffff; stroke: #d9e3ec; stroke-linejoin: miter"/>
   </g>
   <g id="patch_20">
    <path d="M 369.3888 235.3824
L 473.8464 235.3824
L 473.8464 270.3096
L 369.3888 270.3096
z
" clip-path="url(#p8c755e3773)" style="fill: #ffffff; stroke: #d9e3ec; stroke-linejoin: miter"/>
   </g>
   <g id="patch_21">
    <path d="M 473.8464 235.3824
L 578.304 235.3824
L 578.304 270.3096
L 473.8464 270.3096
z
" clip-path="url(#p8c755e3773)" style="fill: #ffffff; stroke: #d9e3ec; stroke-linejoin: miter"/>
   </g>
   <g id="patch_22">
    <path d="M 56.016 270.3096
L 160.4736 270.3096
L 160.4736 305.2368
L 56.016 305.2368
z
" clip-path="url(#p8c755e3773)" style="fill: #ffffff; stroke: #d9e3ec; stroke-linejoin: miter"/>
   </g>
   <g id="patch_23">
    <path d="M 160.4736 270.3096
L 264.9312 270.3096
L 264.9312 305.2368
L 160.4736 305.2368
z
" clip-path="url(#p8c755e3773)" style="fill: #ffffff; stroke: #d9e3ec; stroke-linejoin: miter"/>
   </g>
   <g id="patch_24">
    <path d="M 264.9312 270.3096
L 369.3888 270.3096
L 369.3888 305.2368
L 264.9312 305.2368
z
" clip-path="url(#p8c755e3773)" style="fill: #ffffff; stroke: #d9e3ec; stroke-linejoin: miter"/>
   </g>
   <g id="patch_25">
    <path d="M 369.3888 270.3096
L 473.8464 270.3096
L 473.8464 305.2368
L 369.3888 305.2368
z
" clip-path="url(#p8c755e3773)" style="fill: #ffffff; stroke: #d9e3ec; stroke-linejoin: miter"/>
   </g>
   <g id="patch_26">
    <path d="M 473.8464 270.3096
L 578.304 270.3096
L 578.304 305.2368
L 473.8464 305.2368
z
" clip-path="url(#p8c755e3773)" style="fill: #ffffff; stroke: #d9e3ec; stroke-linejoin: miter"/>
   </g>
   <g id="patch_27">
    <path d="M 66.06 323.44884
L 568.26 323.44884
Q 581.11632 323.44884 581.11632 331.4322
L 581.11632 408.771
Q 581.11632 416.75436 568.26 416.75436
L 66.06 416.75436
Q 53.20368 416.75436 53.20368 408.771
L 53.20368 331.4322
Q 53.20368 323.44884 66.06 323.44884
z
" clip-path="url(#p8c755e3773)" style="fill: #eaf4ff; stroke: #9bcbfa; stroke-width: 1.1; stroke-linejoin: miter"/>
   </g>
   <g id="patch_28">
    <path d="M 620.4888 128.85444
L 777.1752 128.85444
Q 790.03152 128.85444 790.03152 136.8378
L 790.03152 408.771
Q 790.03152 416.75436 777.1752 416.75436
L 620.4888 416.75436
Q 607.63248 416.75436 607.63248 408.771
L 607.63248 136.8378
Q 607.63248 128.85444 620.4888 128.85444
z
" clip-path="url(#p8c755e3773)" style="fill: #e8f7ef; stroke: #8bd0aa; stroke-width: 1.1; stroke-linejoin: miter"/>
   </g>
   <g id="patch_29">
    <path d="M 638.96976 143.82324
L 766.72944 143.82324
Q 773.96112 143.82324 773.96112 148.31388
L 773.96112 169.2702
Q 773.96112 173.76084 766.72944 173.76084
L 638.96976 173.76084
Q 631.73808 173.76084 631.73808 169.2702
L 631.73808 148.31388
Q 631.73808 143.82324 638.96976 143.82324
z
" clip-path="url(#p8c755e3773)" style="fill: #138a57; stroke: #138a57; stroke-width: 1.1; stroke-linejoin: miter"/>
   </g>
   <g id="patch_30">
    <path d="M 698.832 267.319616
Q 698.832 282.784567 698.832 296.237057
" clip-path="url(#p8c755e3773)" style="fill: none; stroke: #138a57; stroke-width: 1.8; stroke-linecap: round"/>
    <path d="M 701.632 290.637057
L 698.832 296.237057
L 696.032 290.637057
z
" clip-path="url(#p8c755e3773)" style="fill: #138a57; stroke: #138a57; stroke-width: 1.8; stroke-linecap: round"/>
   </g>
   <g id="line2d_1">
    <path d="M 47.9808 90.684
L 787.2192 90.684
" clip-path="url(#p8c755e3773)" style="fill: none; stroke: #d9e3ec; stroke-linecap: square"/>
   </g>
   <g id="text_1">
    <text style="font-weight: 700; font-size: 24px; font-family: 'DejaVu Sans'; text-anchor: start; fill: #182431" x="47.9808" y="54.03465" transform="rotate(-0 47.9808 54.03465)">Остаток, MAE и сравнение с простым ориентиром</text>
   </g>
   <g id="text_2">
    <text style="font-size: 11px; font-family: 'DejaVu Sans'; text-anchor: start; fill: #5d6b78" x="47.9808" y="74.281625" transform="rotate(-0 47.9808 74.281625)">Один набор чисел связывает истинные значения, прогнозы и итоговую ошибку.</text>
   </g>
   <g id="text_3">
    <text style="font-weight: 700; font-size: 9.2px; font-family: 'DejaVu Sans'; text-anchor: middle; fill: #0758b4" x="108.2448" y="150.603025" transform="rotate(-0 108.2448 150.603025)">Объект</text>
   </g>
   <g id="text_4">
    <text style="font-weight: 700; font-size: 9.2px; font-family: 'DejaVu Sans'; text-anchor: middle; fill: #ffffff" x="212.7024" y="150.53115" transform="rotate(-0 212.7024 150.53115)">Истина y</text>
   </g>
   <g id="text_5">
    <text style="font-weight: 700; font-size: 9.2px; font-family: 'DejaVu Sans'; text-anchor: middle; fill: #ffffff" x="317.16" y="150.751088" transform="rotate(-0 317.16 150.751088)">Прогноз ŷ</text>
   </g>
   <g id="text_6">
    <text style="font-weight: 700; font-size: 9.2px; font-family: 'DejaVu Sans'; text-anchor: middle; fill: #0758b4" x="421.6176" y="150.751088" transform="rotate(-0 421.6176 150.751088)">Остаток y−ŷ</text>
   </g>
   <g id="text_7">
    <text style="font-weight: 700; font-size: 9.2px; font-family: 'DejaVu Sans'; text-anchor: middle; fill: #0758b4" x="526.0752" y="150.625306" transform="rotate(-0 526.0752 150.625306)">|ошибка|</text>
   </g>
   <g id="text_8">
    <text style="font-size: 10.5px; font-family: 'DejaVu Sans'; text-anchor: middle; fill: #182431" x="108.2448" y="185.888944" transform="rotate(-0 108.2448 185.888944)">1</text>
   </g>
   <g id="text_9">
    <text style="font-size: 10.5px; font-family: 'DejaVu Sans'; text-anchor: middle; fill: #182431" x="212.7024" y="185.888944" transform="rotate(-0 212.7024 185.888944)">10</text>
   </g>
   <g id="text_10">
    <text style="font-size: 10.5px; font-family: 'DejaVu Sans'; text-anchor: middle; fill: #182431" x="317.16" y="185.888944" transform="rotate(-0 317.16 185.888944)">11</text>
   </g>
   <g id="text_11">
    <text style="font-size: 10.5px; font-family: 'DejaVu Sans'; text-anchor: middle; fill: #182431" x="421.6176" y="185.888944" transform="rotate(-0 421.6176 185.888944)">−1</text>
   </g>
   <g id="text_12">
    <text style="font-size: 10.5px; font-family: 'DejaVu Sans'; text-anchor: middle; fill: #182431" x="526.0752" y="185.888944" transform="rotate(-0 526.0752 185.888944)">1</text>
   </g>
   <g id="text_13">
    <text style="font-size: 10.5px; font-family: 'DejaVu Sans'; text-anchor: middle; fill: #182431" x="108.2448" y="220.816144" transform="rotate(-0 108.2448 220.816144)">2</text>
   </g>
   <g id="text_14">
    <text style="font-size: 10.5px; font-family: 'DejaVu Sans'; text-anchor: middle; fill: #182431" x="212.7024" y="220.816144" transform="rotate(-0 212.7024 220.816144)">12</text>
   </g>
   <g id="text_15">
    <text style="font-size: 10.5px; font-family: 'DejaVu Sans'; text-anchor: middle; fill: #182431" x="317.16" y="220.816144" transform="rotate(-0 317.16 220.816144)">10</text>
   </g>
   <g id="text_16">
    <text style="font-size: 10.5px; font-family: 'DejaVu Sans'; text-anchor: middle; fill: #182431" x="421.6176" y="220.816144" transform="rotate(-0 421.6176 220.816144)">2</text>
   </g>
   <g id="text_17">
    <text style="font-size: 10.5px; font-family: 'DejaVu Sans'; text-anchor: middle; fill: #182431" x="526.0752" y="220.816144" transform="rotate(-0 526.0752 220.816144)">2</text>
   </g>
   <g id="text_18">
    <text style="font-size: 10.5px; font-family: 'DejaVu Sans'; text-anchor: middle; fill: #182431" x="108.2448" y="255.743344" transform="rotate(-0 108.2448 255.743344)">3</text>
   </g>
   <g id="text_19">
    <text style="font-size: 10.5px; font-family: 'DejaVu Sans'; text-anchor: middle; fill: #182431" x="212.7024" y="255.743344" transform="rotate(-0 212.7024 255.743344)">20</text>
   </g>
   <g id="text_20">
    <text style="font-size: 10.5px; font-family: 'DejaVu Sans'; text-anchor: middle; fill: #182431" x="317.16" y="255.743344" transform="rotate(-0 317.16 255.743344)">16</text>
   </g>
   <g id="text_21">
    <text style="font-size: 10.5px; font-family: 'DejaVu Sans'; text-anchor: middle; fill: #182431" x="421.6176" y="255.743344" transform="rotate(-0 421.6176 255.743344)">4</text>
   </g>
   <g id="text_22">
    <text style="font-size: 10.5px; font-family: 'DejaVu Sans'; text-anchor: middle; fill: #182431" x="526.0752" y="255.743344" transform="rotate(-0 526.0752 255.743344)">4</text>
   </g>
   <g id="text_23">
    <text style="font-size: 10.5px; font-family: 'DejaVu Sans'; text-anchor: middle; fill: #182431" x="108.2448" y="290.670544" transform="rotate(-0 108.2448 290.670544)">4</text>
   </g>
   <g id="text_24">
    <text style="font-size: 10.5px; font-family: 'DejaVu Sans'; text-anchor: middle; fill: #182431" x="212.7024" y="290.670544" transform="rotate(-0 212.7024 290.670544)">14</text>
   </g>
   <g id="text_25">
    <text style="font-size: 10.5px; font-family: 'DejaVu Sans'; text-anchor: middle; fill: #182431" x="317.16" y="290.670544" transform="rotate(-0 317.16 290.670544)">15</text>
   </g>
   <g id="text_26">
    <text style="font-size: 10.5px; font-family: 'DejaVu Sans'; text-anchor: middle; fill: #182431" x="421.6176" y="290.670544" transform="rotate(-0 421.6176 290.670544)">−1</text>
   </g>
   <g id="text_27">
    <text style="font-size: 10.5px; font-family: 'DejaVu Sans'; text-anchor: middle; fill: #182431" x="526.0752" y="290.670544" transform="rotate(-0 526.0752 290.670544)">1</text>
   </g>
   <g id="text_28">
    <text style="font-weight: 700; font-size: 15px; font-family: 'DejaVu Sans'; text-anchor: start; fill: #0758b4" x="88.1568" y="356.551256" transform="rotate(-0 88.1568 356.551256)">MAE = (1 + 2 + 4 + 1) / 4 = 2</text>
   </g>
   <g id="text_29">
    <text style="font-size: 10.5px; font-family: 'DejaVu Sans'; text-anchor: start; fill: #5d6b78" x="88.1568" y="388.237988" transform="rotate(-0 88.1568 388.237988)">Средняя абсолютная ошибка — 2 единицы цели</text>
   </g>
   <g id="text_30">
    <text style="font-weight: 700; font-size: 10.2px; font-family: 'DejaVu Sans'; text-anchor: middle; fill: #ffffff" x="702.8496" y="161.606603" transform="rotate(-0 702.8496 161.606603)">ПРОСТОЙ ОРИЕНТИР</text>
   </g>
   <g id="text_31">
    <text style="font-weight: 700; font-size: 10.5px; font-family: 'DejaVu Sans'; text-anchor: middle; fill: #182431" x="698.832" y="208.77645" transform="rotate(-0 698.832 208.77645)">Среднее y на обучении</text>
   </g>
   <g id="text_32">
    <text style="font-weight: 700; font-size: 16px; font-family: 'DejaVu Sans'; text-anchor: middle; fill: #5d6b78" x="698.832" y="247.5399" transform="rotate(-0 698.832 247.5399)">MAE = 4,00</text>
   </g>
   <g id="text_33">
    <text style="font-weight: 700; font-size: 11px; font-family: 'DejaVu Sans'; text-anchor: middle; fill: #182431" x="698.832" y="318.584681" transform="rotate(-0 698.832 318.584681)">Линейная модель</text>
   </g>
   <g id="text_34">
    <text style="font-weight: 700; font-size: 16px; font-family: 'DejaVu Sans'; text-anchor: middle; fill: #138a57" x="698.832" y="357.3111" transform="rotate(-0 698.832 357.3111)">MAE = 2,33</text>
   </g>
   <g id="text_35">
    <text style="font-weight: 700; font-size: 10px; font-family: 'DejaVu Sans'; text-anchor: middle; fill: #138a57" x="698.832" y="387.679238" transform="rotate(-0 698.832 387.679238)">ниже на 1,67</text>
   </g>
   <g id="text_36">
    <text style="font-weight: 700; font-size: 11px; font-family: 'DejaVu Sans'; text-anchor: middle; fill: #182431" x="417.6" y="473.262281" transform="rotate(-0 417.6 473.262281)">Обе модели оцениваются на одной и той же тестовой части.</text>
   </g>
  </g>
 </g>
 <defs>
  <clipPath id="p8c755e3773">
   <rect x="15.84" y="15.84" width="803.52" height="498.96"/>
  </clipPath>
 </defs>
</svg>
