<?xml version="1.0" encoding="utf-8" standalone="no"?>
<!DOCTYPE svg PUBLIC "-//W3C//DTD SVG 1.1//EN"
  "http://www.w3.org/Graphics/SVG/1.1/DTD/svg11.dtd">
<svg xmlns:xlink="http://www.w3.org/1999/xlink" width="835.2pt" height="530.64pt" viewBox="0 0 835.2 530.64" xmlns="http://www.w3.org/2000/svg" version="1.1">
 <metadata>
  <rdf:RDF xmlns:dc="http://purl.org/dc/elements/1.1/" xmlns:cc="http://creativecommons.org/ns#" xmlns:rdf="http://www.w3.org/1999/02/22-rdf-syntax-ns#">
   <cc:Work>
    <dc:type rdf:resource="http://purl.org/dc/dcmitype/StillImage"/>
    <dc:format>image/svg+xml</dc:format>
    <dc:creator>
     <cc:Agent>
      <dc:title>Matplotlib v3.10.8, https://matplotlib.org/</dc:title>
     </cc:Agent>
    </dc:creator>
   </cc:Work>
  </rdf:RDF>
 </metadata>
 <defs>
  <style type="text/css">*{stroke-linejoin: round; stroke-linecap: butt}</style>
 </defs>
 <g id="figure_1">
  <g id="patch_1">
   <path d="M 0 530.64
L 835.2 530.64
L 835.2 0
L 0 0
z
" style="fill: #ffffff"/>
  </g>
  <g id="axes_1">
   <g id="patch_2">
    <path d="M 58.0248 123.86484
L 262.9224 123.86484
Q 275.77872 123.86484 275.77872 131.8482
L 275.77872 423.7398
Q 275.77872 431.72316 262.9224 431.72316
L 58.0248 431.72316
Q 45.16848 431.72316 45.16848 423.7398
L 45.16848 131.8482
Q 45.16848 123.86484 58.0248 123.86484
z
" clip-path="url(#p8c755e3773)" style="fill: #ffffff; stroke: #0b70e0; stroke-width: 1.1; stroke-linejoin: miter"/>
   </g>
   <g id="patch_3">
    <path d="M 96.192 238.37616
C 99.175344 238.37616 102.036899 239.11219 104.146442 240.422148
C 106.255985 241.732106 107.44128 243.50904 107.44128 245.3616
C 107.44128 247.21416 106.255985 248.991094 104.146442 250.301052
C 102.036899 251.61101 99.175344 252.34704 96.192 252.34704
C 93.208656 252.34704 90.347101 251.61101 88.237558 250.301052
C 86.128015 248.991094 84.94272 247.21416 84.94272 245.3616
C 84.94272 243.50904 86.128015 241.732106 88.237558 240.422148
C 90.347101 239.11219 93.208656 238.37616 96.192 238.37616
z
" clip-path="url(#p8c755e3773)" style="fill: #0b70e0; stroke: #ffffff; stroke-width: 0.7; stroke-linejoin: miter"/>
   </g>
   <g id="patch_4">
    <path d="M 139.58208 238.37616
C 142.565424 238.37616 145.426979 239.11219 147.536522 240.422148
C 149.646065 241.732106 150.83136 243.50904 150.83136 245.3616
C 150.83136 247.21416 149.646065 248.991094 147.536522 250.301052
C 145.426979 251.61101 142.565424 252.34704 139.58208 252.34704
C 136.598736 252.34704 133.737181 251.61101 131.627638 250.301052
C 129.518095 248.991094 128.3328 247.21416 128.3328 245.3616
C 128.3328 243.50904 129.518095 241.732106 131.627638 240.422148
C 133.737181 239.11219 136.598736 238.37616 139.58208 238.37616
z
" clip-path="url(#p8c755e3773)" style="fill: #0b70e0; stroke: #ffffff; stroke-width: 0.7; stroke-linejoin: miter"/>
   </g>
   <g id="patch_5">
    <path d="M 182.97216 238.37616
C 185.955504 238.37616 188.817059 239.11219 190.926602 240.422148
C 193.036145 241.732106 194.22144 243.50904 194.22144 245.3616
C 194.22144 247.21416 193.036145 248.991094 190.926602 250.301052
C 188.817059 251.61101 185.955504 252.34704 182.97216 252.34704
C 179.988816 252.34704 177.127261 251.61101 175.017718 250.301052
C 172.908175 248.991094 171.72288 247.21416 171.72288 245.3616
C 171.72288 243.50904 172.908175 241.732106 175.017718 240.422148
C 177.127261 239.11219 179.988816 238.37616 182.97216 238.37616
z
" clip-path="url(#p8c755e3773)" style="fill: #0b70e0; stroke: #ffffff; stroke-width: 0.7; stroke-linejoin: miter"/>
   </g>
   <g id="patch_6">
    <path d="M 226.36224 238.37616
C 229.345584 238.37616 232.207139 239.11219 234.316682 240.422148
C 236.426225 241.732106 237.61152 243.50904 237.61152 245.3616
C 237.61152 247.21416 236.426225 248.991094 234.316682 250.301052
C 232.207139 251.61101 229.345584 252.34704 226.36224 252.34704
C 223.378896 252.34704 220.517341 251.61101 218.407798 250.301052
C 216.298255 248.991094 215.11296 247.21416 215.11296 245.3616
C 215.11296 243.50904 216.298255 241.732106 218.407798 240.422148
C 220.517341 239.11219 223.378896 238.37616 226.36224 238.37616
z
" clip-path="url(#p8c755e3773)" style="fill: #0b70e0; stroke: #ffffff; stroke-width: 0.7; stroke-linejoin: miter"/>
   </g>
   <g id="patch_7">
    <path d="M 96.192 273.30336
C 99.175344 273.30336 102.036899 274.03939 104.146442 275.349348
C 106.255985 276.659306 107.44128 278.43624 107.44128 280.2888
C 107.44128 282.14136 106.255985 283.918294 104.146442 285.228252
C 102.036899 286.53821 99.175344 287.27424 96.192 287.27424
C 93.208656 287.27424 90.347101 286.53821 88.237558 285.228252
C 86.128015 283.918294 84.94272 282.14136 84.94272 280.2888
C 84.94272 278.43624 86.128015 276.659306 88.237558 275.349348
C 90.347101 274.03939 93.208656 273.30336 96.192 273.30336
z
" clip-path="url(#p8c755e3773)" style="fill: #0b70e0; stroke: #ffffff; stroke-width: 0.7; stroke-linejoin: miter"/>
   </g>
   <g id="patch_8">
    <path d="M 139.58208 273.30336
C 142.565424 273.30336 145.426979 274.03939 147.536522 275.349348
C 149.646065 276.659306 150.83136 278.43624 150.83136 280.2888
C 150.83136 282.14136 149.646065 283.918294 147.536522 285.228252
C 145.426979 286.53821 142.565424 287.27424 139.58208 287.27424
C 136.598736 287.27424 133.737181 286.53821 131.627638 285.228252
C 129.518095 283.918294 128.3328 282.14136 128.3328 280.2888
C 128.3328 278.43624 129.518095 276.659306 131.627638 275.349348
C 133.737181 274.03939 136.598736 273.30336 139.58208 273.30336
z
" clip-path="url(#p8c755e3773)" style="fill: #0b70e0; stroke: #ffffff; stroke-width: 0.7; stroke-linejoin: miter"/>
   </g>
   <g id="patch_9">
    <path d="M 182.97216 273.30336
C 185.955504 273.30336 188.817059 274.03939 190.926602 275.349348
C 193.036145 276.659306 194.22144 278.43624 194.22144 280.2888
C 194.22144 282.14136 193.036145 283.918294 190.926602 285.228252
C 188.817059 286.53821 185.955504 287.27424 182.97216 287.27424
C 179.988816 287.27424 177.127261 286.53821 175.017718 285.228252
C 172.908175 283.918294 171.72288 282.14136 171.72288 280.2888
C 171.72288 278.43624 172.908175 276.659306 175.017718 275.349348
C 177.127261 274.03939 179.988816 273.30336 182.97216 273.30336
z
" clip-path="url(#p8c755e3773)" style="fill: #0b70e0; stroke: #ffffff; stroke-width: 0.7; stroke-linejoin: miter"/>
   </g>
   <g id="patch_10">
    <path d="M 226.36224 273.30336
C 229.345584 273.30336 232.207139 274.03939 234.316682 275.349348
C 236.426225 276.659306 237.61152 278.43624 237.61152 280.2888
C 237.61152 282.14136 236.426225 283.918294 234.316682 285.228252
C 232.207139 286.53821 229.345584 287.27424 226.36224 287.27424
C 223.378896 287.27424 220.517341 286.53821 218.407798 285.228252
C 216.298255 283.918294 215.11296 282.14136 215.11296 280.2888
C 215.11296 278.43624 216.298255 276.659306 218.407798 275.349348
C 220.517341 274.03939 223.378896 273.30336 226.36224 273.30336
z
" clip-path="url(#p8c755e3773)" style="fill: #0b70e0; stroke: #ffffff; stroke-width: 0.7; stroke-linejoin: miter"/>
   </g>
   <g id="patch_11">
    <path d="M 96.192 308.23056
C 99.175344 308.23056 102.036899 308.96659 104.146442 310.276548
C 106.255985 311.586506 107.44128 313.36344 107.44128 315.216
C 107.44128 317.06856 106.255985 318.845494 104.146442 320.155452
C 102.036899 321.46541 99.175344 322.20144 96.192 322.20144
C 93.208656 322.20144 90.347101 321.46541 88.237558 320.155452
C 86.128015 318.845494 84.94272 317.06856 84.94272 315.216
C 84.94272 313.36344 86.128015 311.586506 88.237558 310.276548
C 90.347101 308.96659 93.208656 308.23056 96.192 308.23056
z
" clip-path="url(#p8c755e3773)" style="fill: #0b70e0; stroke: #ffffff; stroke-width: 0.7; stroke-linejoin: miter"/>
   </g>
   <g id="patch_12">
    <path d="M 139.58208 308.23056
C 142.565424 308.23056 145.426979 308.96659 147.536522 310.276548
C 149.646065 311.586506 150.83136 313.36344 150.83136 315.216
C 150.83136 317.06856 149.646065 318.845494 147.536522 320.155452
C 145.426979 321.46541 142.565424 322.20144 139.58208 322.20144
C 136.598736 322.20144 133.737181 321.46541 131.627638 320.155452
C 129.518095 318.845494 128.3328 317.06856 128.3328 315.216
C 128.3328 313.36344 129.518095 311.586506 131.627638 310.276548
C 133.737181 308.96659 136.598736 308.23056 139.58208 308.23056
z
" clip-path="url(#p8c755e3773)" style="fill: #0b70e0; stroke: #ffffff; stroke-width: 0.7; stroke-linejoin: miter"/>
   </g>
   <g id="patch_13">
    <path d="M 182.97216 308.23056
C 185.955504 308.23056 188.817059 308.96659 190.926602 310.276548
C 193.036145 311.586506 194.22144 313.36344 194.22144 315.216
C 194.22144 317.06856 193.036145 318.845494 190.926602 320.155452
C 188.817059 321.46541 185.955504 322.20144 182.97216 322.20144
C 179.988816 322.20144 177.127261 321.46541 175.017718 320.155452
C 172.908175 318.845494 171.72288 317.06856 171.72288 315.216
C 171.72288 313.36344 172.908175 311.586506 175.017718 310.276548
C 177.127261 308.96659 179.988816 308.23056 182.97216 308.23056
z
" clip-path="url(#p8c755e3773)" style="fill: #0b70e0; stroke: #ffffff; stroke-width: 0.7; stroke-linejoin: miter"/>
   </g>
   <g id="patch_14">
    <path d="M 226.36224 308.23056
C 229.345584 308.23056 232.207139 308.96659 234.316682 310.276548
C 236.426225 311.586506 237.61152 313.36344 237.61152 315.216
C 237.61152 317.06856 236.426225 318.845494 234.316682 320.155452
C 232.207139 321.46541 229.345584 322.20144 226.36224 322.20144
C 223.378896 322.20144 220.517341 321.46541 218.407798 320.155452
C 216.298255 318.845494 215.11296 317.06856 215.11296 315.216
C 215.11296 313.36344 216.298255 311.586506 218.407798 310.276548
C 220.517341 308.96659 223.378896 308.23056 226.36224 308.23056
z
" clip-path="url(#p8c755e3773)" style="fill: #0b70e0; stroke: #ffffff; stroke-width: 0.7; stroke-linejoin: miter"/>
   </g>
   <g id="patch_15">
    <path d="M 160.4736 357.133634
Q 160.4736 367.608601 160.4736 376.071106
" clip-path="url(#p8c755e3773)" style="fill: none; stroke: #0b70e0; stroke-width: 1.8; stroke-linecap: round"/>
    <path d="M 163.2736 370.471106
L 160.4736 376.071106
L 157.6736 370.471106
z
" clip-path="url(#p8c755e3773)" style="fill: #0b70e0; stroke: #0b70e0; stroke-width: 1.8; stroke-linecap: round"/>
   </g>
   <g id="patch_16">
    <path d="M 315.1512 123.86484
L 520.0488 123.86484
Q 532.90512 123.86484 532.90512 131.8482
L 532.90512 423.7398
Q 532.90512 431.72316 520.0488 431.72316
L 315.1512 431.72316
Q 302.29488 431.72316 302.29488 423.7398
L 302.29488 131.8482
Q 302.29488 123.86484 315.1512 123.86484
z
" clip-path="url(#p8c755e3773)" style="fill: #ffffff; stroke: #ce3b36; stroke-width: 1.1; stroke-linejoin: miter"/>
   </g>
   <g id="patch_17">
    <path d="M 353.3184 238.37616
C 356.301744 238.37616 359.163299 239.11219 361.272842 240.422148
C 363.382385 241.732106 364.56768 243.50904 364.56768 245.3616
C 364.56768 247.21416 363.382385 248.991094 361.272842 250.301052
C 359.163299 251.61101 356.301744 252.34704 353.3184 252.34704
C 350.335056 252.34704 347.473501 251.61101 345.363958 250.301052
C 343.254415 248.991094 342.06912 247.21416 342.06912 245.3616
C 342.06912 243.50904 343.254415 241.732106 345.363958 240.422148
C 347.473501 239.11219 350.335056 238.37616 353.3184 238.37616
z
" clip-path="url(#p8c755e3773)" style="fill: #ce3b36; stroke: #ffffff; stroke-width: 0.7; stroke-linejoin: miter"/>
   </g>
   <g id="patch_18">
    <path d="M 396.70848 238.37616
C 399.691824 238.37616 402.553379 239.11219 404.662922 240.422148
C 406.772465 241.732106 407.95776 243.50904 407.95776 245.3616
C 407.95776 247.21416 406.772465 248.991094 404.662922 250.301052
C 402.553379 251.61101 399.691824 252.34704 396.70848 252.34704
C 393.725136 252.34704 390.863581 251.61101 388.754038 250.301052
C 386.644495 248.991094 385.4592 247.21416 385.4592 245.3616
C 385.4592 243.50904 386.644495 241.732106 388.754038 240.422148
C 390.863581 239.11219 393.725136 238.37616 396.70848 238.37616
z
" clip-path="url(#p8c755e3773)" style="fill: #d5dde4; stroke: #ffffff; stroke-width: 0.7; stroke-linejoin: miter"/>
   </g>
   <g id="patch_19">
    <path d="M 440.09856 238.37616
C 443.081904 238.37616 445.943459 239.11219 448.053002 240.422148
C 450.162545 241.732106 451.34784 243.50904 451.34784 245.3616
C 451.34784 247.21416 450.162545 248.991094 448.053002 250.301052
C 445.943459 251.61101 443.081904 252.34704 440.09856 252.34704
C 437.115216 252.34704 434.253661 251.61101 432.144118 250.301052
C 430.034575 248.991094 428.84928 247.21416 428.84928 245.3616
C 428.84928 243.50904 430.034575 241.732106 432.144118 240.422148
C 434.253661 239.11219 437.115216 238.37616 440.09856 238.37616
z
" clip-path="url(#p8c755e3773)" style="fill: #d5dde4; stroke: #ffffff; stroke-width: 0.7; stroke-linejoin: miter"/>
   </g>
   <g id="patch_20">
    <path d="M 483.48864 238.37616
C 486.471984 238.37616 489.333539 239.11219 491.443082 240.422148
C 493.552625 241.732106 494.73792 243.50904 494.73792 245.3616
C 494.73792 247.21416 493.552625 248.991094 491.443082 250.301052
C 489.333539 251.61101 486.471984 252.34704 483.48864 252.34704
C 480.505296 252.34704 477.643741 251.61101 475.534198 250.301052
C 473.424655 248.991094 472.23936 247.21416 472.23936 245.3616
C 472.23936 243.50904 473.424655 241.732106 475.534198 240.422148
C 477.643741 239.11219 480.505296 238.37616 483.48864 238.37616
z
" clip-path="url(#p8c755e3773)" style="fill: #d5dde4; stroke: #ffffff; stroke-width: 0.7; stroke-linejoin: miter"/>
   </g>
   <g id="patch_21">
    <path d="M 353.3184 273.30336
C 356.301744 273.30336 359.163299 274.03939 361.272842 275.349348
C 363.382385 276.659306 364.56768 278.43624 364.56768 280.2888
C 364.56768 282.14136 363.382385 283.918294 361.272842 285.228252
C 359.163299 286.53821 356.301744 287.27424 353.3184 287.27424
C 350.335056 287.27424 347.473501 286.53821 345.363958 285.228252
C 343.254415 283.918294 342.06912 282.14136 342.06912 280.2888
C 342.06912 278.43624 343.254415 276.659306 345.363958 275.349348
C 347.473501 274.03939 350.335056 273.30336 353.3184 273.30336
z
" clip-path="url(#p8c755e3773)" style="fill: #d5dde4; stroke: #ffffff; stroke-width: 0.7; stroke-linejoin: miter"/>
   </g>
   <g id="patch_22">
    <path d="M 396.70848 273.30336
C 399.691824 273.30336 402.553379 274.03939 404.662922 275.349348
C 406.772465 276.659306 407.95776 278.43624 407.95776 280.2888
C 407.95776 282.14136 406.772465 283.918294 404.662922 285.228252
C 402.553379 286.53821 399.691824 287.27424 396.70848 287.27424
C 393.725136 287.27424 390.863581 286.53821 388.754038 285.228252
C 386.644495 283.918294 385.4592 282.14136 385.4592 280.2888
C 385.4592 278.43624 386.644495 276.659306 388.754038 275.349348
C 390.863581 274.03939 393.725136 273.30336 396.70848 273.30336
z
" clip-path="url(#p8c755e3773)" style="fill: #d5dde4; stroke: #ffffff; stroke-width: 0.7; stroke-linejoin: miter"/>
   </g>
   <g id="patch_23">
    <path d="M 440.09856 273.30336
C 443.081904 273.30336 445.943459 274.03939 448.053002 275.349348
C 450.162545 276.659306 451.34784 278.43624 451.34784 280.2888
C 451.34784 282.14136 450.162545 283.918294 448.053002 285.228252
C 445.943459 286.53821 443.081904 287.27424 440.09856 287.27424
C 437.115216 287.27424 434.253661 286.53821 432.144118 285.228252
C 430.034575 283.918294 428.84928 282.14136 428.84928 280.2888
C 428.84928 278.43624 430.034575 276.659306 432.144118 275.349348
C 434.253661 274.03939 437.115216 273.30336 440.09856 273.30336
z
" clip-path="url(#p8c755e3773)" style="fill: #d5dde4; stroke: #ffffff; stroke-width: 0.7; stroke-linejoin: miter"/>
   </g>
   <g id="patch_24">
    <path d="M 483.48864 273.30336
C 486.471984 273.30336 489.333539 274.03939 491.443082 275.349348
C 493.552625 276.659306 494.73792 278.43624 494.73792 280.2888
C 494.73792 282.14136 493.552625 283.918294 491.443082 285.228252
C 489.333539 286.53821 486.471984 287.27424 483.48864 287.27424
C 480.505296 287.27424 477.643741 286.53821 475.534198 285.228252
C 473.424655 283.918294 472.23936 282.14136 472.23936 280.2888
C 472.23936 278.43624 473.424655 276.659306 475.534198 275.349348
C 477.643741 274.03939 480.505296 273.30336 483.48864 273.30336
z
" clip-path="url(#p8c755e3773)" style="fill: #d5dde4; stroke: #ffffff; stroke-width: 0.7; stroke-linejoin: miter"/>
   </g>
   <g id="patch_25">
    <path d="M 353.3184 308.23056
C 356.301744 308.23056 359.163299 308.96659 361.272842 310.276548
C 363.382385 311.586506 364.56768 313.36344 364.56768 315.216
C 364.56768 317.06856 363.382385 318.845494 361.272842 320.155452
C 359.163299 321.46541 356.301744 322.20144 353.3184 322.20144
C 350.335056 322.20144 347.473501 321.46541 345.363958 320.155452
C 343.254415 318.845494 342.06912 317.06856 342.06912 315.216
C 342.06912 313.36344 343.254415 311.586506 345.363958 310.276548
C 347.473501 308.96659 350.335056 308.23056 353.3184 308.23056
z
" clip-path="url(#p8c755e3773)" style="fill: #d5dde4; stroke: #ffffff; stroke-width: 0.7; stroke-linejoin: miter"/>
   </g>
   <g id="patch_26">
    <path d="M 396.70848 308.23056
C 399.691824 308.23056 402.553379 308.96659 404.662922 310.276548
C 406.772465 311.586506 407.95776 313.36344 407.95776 315.216
C 407.95776 317.06856 406.772465 318.845494 404.662922 320.155452
C 402.553379 321.46541 399.691824 322.20144 396.70848 322.20144
C 393.725136 322.20144 390.863581 321.46541 388.754038 320.155452
C 386.644495 318.845494 385.4592 317.06856 385.4592 315.216
C 385.4592 313.36344 386.644495 311.586506 388.754038 310.276548
C 390.863581 308.96659 393.725136 308.23056 396.70848 308.23056
z
" clip-path="url(#p8c755e3773)" style="fill: #d5dde4; stroke: #ffffff; stroke-width: 0.7; stroke-linejoin: miter"/>
   </g>
   <g id="patch_27">
    <path d="M 440.09856 308.23056
C 443.081904 308.23056 445.943459 308.96659 448.053002 310.276548
C 450.162545 311.586506 451.34784 313.36344 451.34784 315.216
C 451.34784 317.06856 450.162545 318.845494 448.053002 320.155452
C 445.943459 321.46541 443.081904 322.20144 440.09856 322.20144
C 437.115216 322.20144 434.253661 321.46541 432.144118 320.155452
C 430.034575 318.845494 428.84928 317.06856 428.84928 315.216
C 428.84928 313.36344 430.034575 311.586506 432.144118 310.276548
C 434.253661 308.96659 437.115216 308.23056 440.09856 308.23056
z
" clip-path="url(#p8c755e3773)" style="fill: #d5dde4; stroke: #ffffff; stroke-width: 0.7; stroke-linejoin: miter"/>
   </g>
   <g id="patch_28">
    <path d="M 483.48864 308.23056
C 486.471984 308.23056 489.333539 308.96659 491.443082 310.276548
C 493.552625 311.586506 494.73792 313.36344 494.73792 315.216
C 494.73792 317.06856 493.552625 318.845494 491.443082 320.155452
C 489.333539 321.46541 486.471984 322.20144 483.48864 322.20144
C 480.505296 322.20144 477.643741 321.46541 475.534198 320.155452
C 473.424655 318.845494 472.23936 317.06856 472.23936 315.216
C 472.23936 313.36344 473.424655 311.586506 475.534198 310.276548
C 477.643741 308.96659 480.505296 308.23056 483.48864 308.23056
z
" clip-path="url(#p8c755e3773)" style="fill: #d5dde4; stroke: #ffffff; stroke-width: 0.7; stroke-linejoin: miter"/>
   </g>
   <g id="patch_29">
    <path d="M 417.6 357.133634
Q 417.6 367.608601 417.6 376.071106
" clip-path="url(#p8c755e3773)" style="fill: none; stroke: #ce3b36; stroke-width: 1.8; stroke-linecap: round"/>
    <path d="M 420.4 370.471106
L 417.6 376.071106
L 414.8 370.471106
z
" clip-path="url(#p8c755e3773)" style="fill: #ce3b36; stroke: #ce3b36; stroke-width: 1.8; stroke-linecap: round"/>
   </g>
   <g id="patch_30">
    <path d="M 572.2776 123.86484
L 777.1752 123.86484
Q 790.03152 123.86484 790.03152 131.8482
L 790.03152 423.7398
Q 790.03152 431.72316 777.1752 431.72316
L 572.2776 431.72316
Q 559.42128 431.72316 559.42128 423.7398
L 559.42128 131.8482
Q 559.42128 123.86484 572.2776 123.86484
z
" clip-path="url(#p8c755e3773)" style="fill: #ffffff; stroke: #7657e8; stroke-width: 1.1; stroke-linejoin: miter"/>
   </g>
   <g id="patch_31">
    <path d="M 610.4448 238.37616
C 613.428144 238.37616 616.289699 239.11219 618.399242 240.422148
C 620.508785 241.732106 621.69408 243.50904 621.69408 245.3616
C 621.69408 247.21416 620.508785 248.991094 618.399242 250.301052
C 616.289699 251.61101 613.428144 252.34704 610.4448 252.34704
C 607.461456 252.34704 604.599901 251.61101 602.490358 250.301052
C 600.380815 248.991094 599.19552 247.21416 599.19552 245.3616
C 599.19552 243.50904 600.380815 241.732106 602.490358 240.422148
C 604.599901 239.11219 607.461456 238.37616 610.4448 238.37616
z
" clip-path="url(#p8c755e3773)" style="fill: #7657e8; stroke: #ffffff; stroke-width: 0.7; stroke-linejoin: miter"/>
   </g>
   <g id="patch_32">
    <path d="M 653.83488 238.37616
C 656.818224 238.37616 659.679779 239.11219 661.789322 240.422148
C 663.898865 241.732106 665.08416 243.50904 665.08416 245.3616
C 665.08416 247.21416 663.898865 248.991094 661.789322 250.301052
C 659.679779 251.61101 656.818224 252.34704 653.83488 252.34704
C 650.851536 252.34704 647.989981 251.61101 645.880438 250.301052
C 643.770895 248.991094 642.5856 247.21416 642.5856 245.3616
C 642.5856 243.50904 643.770895 241.732106 645.880438 240.422148
C 647.989981 239.11219 650.851536 238.37616 653.83488 238.37616
z
" clip-path="url(#p8c755e3773)" style="fill: #7657e8; stroke: #ffffff; stroke-width: 0.7; stroke-linejoin: miter"/>
   </g>
   <g id="patch_33">
    <path d="M 697.22496 238.37616
C 700.208304 238.37616 703.069859 239.11219 705.179402 240.422148
C 707.288945 241.732106 708.47424 243.50904 708.47424 245.3616
C 708.47424 247.21416 707.288945 248.991094 705.179402 250.301052
C 703.069859 251.61101 700.208304 252.34704 697.22496 252.34704
C 694.241616 252.34704 691.380061 251.61101 689.270518 250.301052
C 687.160975 248.991094 685.97568 247.21416 685.97568 245.3616
C 685.97568 243.50904 687.160975 241.732106 689.270518 240.422148
C 691.380061 239.11219 694.241616 238.37616 697.22496 238.37616
z
" clip-path="url(#p8c755e3773)" style="fill: #7657e8; stroke: #ffffff; stroke-width: 0.7; stroke-linejoin: miter"/>
   </g>
   <g id="patch_34">
    <path d="M 740.61504 238.37616
C 743.598384 238.37616 746.459939 239.11219 748.569482 240.422148
C 750.679025 241.732106 751.86432 243.50904 751.86432 245.3616
C 751.86432 247.21416 750.679025 248.991094 748.569482 250.301052
C 746.459939 251.61101 743.598384 252.34704 740.61504 252.34704
C 737.631696 252.34704 734.770141 251.61101 732.660598 250.301052
C 730.551055 248.991094 729.36576 247.21416 729.36576 245.3616
C 729.36576 243.50904 730.551055 241.732106 732.660598 240.422148
C 734.770141 239.11219 737.631696 238.37616 740.61504 238.37616
z
" clip-path="url(#p8c755e3773)" style="fill: #7657e8; stroke: #ffffff; stroke-width: 0.7; stroke-linejoin: miter"/>
   </g>
   <g id="patch_35">
    <path d="M 610.4448 273.30336
C 613.428144 273.30336 616.289699 274.03939 618.399242 275.349348
C 620.508785 276.659306 621.69408 278.43624 621.69408 280.2888
C 621.69408 282.14136 620.508785 283.918294 618.399242 285.228252
C 616.289699 286.53821 613.428144 287.27424 610.4448 287.27424
C 607.461456 287.27424 604.599901 286.53821 602.490358 285.228252
C 600.380815 283.918294 599.19552 282.14136 599.19552 280.2888
C 599.19552 278.43624 600.380815 276.659306 602.490358 275.349348
C 604.599901 274.03939 607.461456 273.30336 610.4448 273.30336
z
" clip-path="url(#p8c755e3773)" style="fill: #d5dde4; stroke: #ffffff; stroke-width: 0.7; stroke-linejoin: miter"/>
   </g>
   <g id="patch_36">
    <path d="M 653.83488 273.30336
C 656.818224 273.30336 659.679779 274.03939 661.789322 275.349348
C 663.898865 276.659306 665.08416 278.43624 665.08416 280.2888
C 665.08416 282.14136 663.898865 283.918294 661.789322 285.228252
C 659.679779 286.53821 656.818224 287.27424 653.83488 287.27424
C 650.851536 287.27424 647.989981 286.53821 645.880438 285.228252
C 643.770895 283.918294 642.5856 282.14136 642.5856 280.2888
C 642.5856 278.43624 643.770895 276.659306 645.880438 275.349348
C 647.989981 274.03939 650.851536 273.30336 653.83488 273.30336
z
" clip-path="url(#p8c755e3773)" style="fill: #d5dde4; stroke: #ffffff; stroke-width: 0.7; stroke-linejoin: miter"/>
   </g>
   <g id="patch_37">
    <path d="M 697.22496 273.30336
C 700.208304 273.30336 703.069859 274.03939 705.179402 275.349348
C 707.288945 276.659306 708.47424 278.43624 708.47424 280.2888
C 708.47424 282.14136 707.288945 283.918294 705.179402 285.228252
C 703.069859 286.53821 700.208304 287.27424 697.22496 287.27424
C 694.241616 287.27424 691.380061 286.53821 689.270518 285.228252
C 687.160975 283.918294 685.97568 282.14136 685.97568 280.2888
C 685.97568 278.43624 687.160975 276.659306 689.270518 275.349348
C 691.380061 274.03939 694.241616 273.30336 697.22496 273.30336
z
" clip-path="url(#p8c755e3773)" style="fill: #d5dde4; stroke: #ffffff; stroke-width: 0.7; stroke-linejoin: miter"/>
   </g>
   <g id="patch_38">
    <path d="M 740.61504 273.30336
C 743.598384 273.30336 746.459939 274.03939 748.569482 275.349348
C 750.679025 276.659306 751.86432 278.43624 751.86432 280.2888
C 751.86432 282.14136 750.679025 283.918294 748.569482 285.228252
C 746.459939 286.53821 743.598384 287.27424 740.61504 287.27424
C 737.631696 287.27424 734.770141 286.53821 732.660598 285.228252
C 730.551055 283.918294 729.36576 282.14136 729.36576 280.2888
C 729.36576 278.43624 730.551055 276.659306 732.660598 275.349348
C 734.770141 274.03939 737.631696 273.30336 740.61504 273.30336
z
" clip-path="url(#p8c755e3773)" style="fill: #d5dde4; stroke: #ffffff; stroke-width: 0.7; stroke-linejoin: miter"/>
   </g>
   <g id="patch_39">
    <path d="M 610.4448 308.23056
C 613.428144 308.23056 616.289699 308.96659 618.399242 310.276548
C 620.508785 311.586506 621.69408 313.36344 621.69408 315.216
C 621.69408 317.06856 620.508785 318.845494 618.399242 320.155452
C 616.289699 321.46541 613.428144 322.20144 610.4448 322.20144
C 607.461456 322.20144 604.599901 321.46541 602.490358 320.155452
C 600.380815 318.845494 599.19552 317.06856 599.19552 315.216
C 599.19552 313.36344 600.380815 311.586506 602.490358 310.276548
C 604.599901 308.96659 607.461456 308.23056 610.4448 308.23056
z
" clip-path="url(#p8c755e3773)" style="fill: #d5dde4; stroke: #ffffff; stroke-width: 0.7; stroke-linejoin: miter"/>
   </g>
   <g id="patch_40">
    <path d="M 653.83488 308.23056
C 656.818224 308.23056 659.679779 308.96659 661.789322 310.276548
C 663.898865 311.586506 665.08416 313.36344 665.08416 315.216
C 665.08416 317.06856 663.898865 318.845494 661.789322 320.155452
C 659.679779 321.46541 656.818224 322.20144 653.83488 322.20144
C 650.851536 322.20144 647.989981 321.46541 645.880438 320.155452
C 643.770895 318.845494 642.5856 317.06856 642.5856 315.216
C 642.5856 313.36344 643.770895 311.586506 645.880438 310.276548
C 647.989981 308.96659 650.851536 308.23056 653.83488 308.23056
z
" clip-path="url(#p8c755e3773)" style="fill: #d5dde4; stroke: #ffffff; stroke-width: 0.7; stroke-linejoin: miter"/>
   </g>
   <g id="patch_41">
    <path d="M 697.22496 308.23056
C 700.208304 308.23056 703.069859 308.96659 705.179402 310.276548
C 707.288945 311.586506 708.47424 313.36344 708.47424 315.216
C 708.47424 317.06856 707.288945 318.845494 705.179402 320.155452
C 703.069859 321.46541 700.208304 322.20144 697.22496 322.20144
C 694.241616 322.20144 691.380061 321.46541 689.270518 320.155452
C 687.160975 318.845494 685.97568 317.06856 685.97568 315.216
C 685.97568 313.36344 687.160975 311.586506 689.270518 310.276548
C 691.380061 308.96659 694.241616 308.23056 697.22496 308.23056
z
" clip-path="url(#p8c755e3773)" style="fill: #d5dde4; stroke: #ffffff; stroke-width: 0.7; stroke-linejoin: miter"/>
   </g>
   <g id="patch_42">
    <path d="M 740.61504 308.23056
C 743.598384 308.23056 746.459939 308.96659 748.569482 310.276548
C 750.679025 311.586506 751.86432 313.36344 751.86432 315.216
C 751.86432 317.06856 750.679025 318.845494 748.569482 320.155452
C 746.459939 321.46541 743.598384 322.20144 740.61504 322.20144
C 737.631696 322.20144 734.770141 321.46541 732.660598 320.155452
C 730.551055 318.845494 729.36576 317.06856 729.36576 315.216
C 729.36576 313.36344 730.551055 311.586506 732.660598 310.276548
C 734.770141 308.96659 737.631696 308.23056 740.61504 308.23056
z
" clip-path="url(#p8c755e3773)" style="fill: #d5dde4; stroke: #ffffff; stroke-width: 0.7; stroke-linejoin: miter"/>
   </g>
   <g id="patch_43">
    <path d="M 674.7264 357.133634
Q 674.7264 367.608601 674.7264 376.071106
" clip-path="url(#p8c755e3773)" style="fill: none; stroke: #7657e8; stroke-width: 1.8; stroke-linecap: round"/>
    <path d="M 677.5264 370.471106
L 674.7264 376.071106
L 671.9264 370.471106
z
" clip-path="url(#p8c755e3773)" style="fill: #7657e8; stroke: #7657e8; stroke-width: 1.8; stroke-linecap: round"/>
   </g>
   <g id="patch_44">
    <path d="M 146.412 453.17844
L 688.788 453.17844
Q 701.64432 453.17844 701.64432 461.1618
L 701.64432 483.615
Q 701.64432 491.59836 688.788 491.59836
L 146.412 491.59836
Q 133.55568 491.59836 133.55568 483.615
L 133.55568 461.1618
Q 133.55568 453.17844 146.412 453.17844
z
" clip-path="url(#p8c755e3773)" style="fill: #e8f7ef; stroke: #8bd0aa; stroke-width: 1.1; stroke-linejoin: miter"/>
   </g>
   <g id="line2d_1">
    <path d="M 47.9808 90.684
L 787.2192 90.684
" clip-path="url(#p8c755e3773)" style="fill: none; stroke: #d9e3ec; stroke-linecap: square"/>
   </g>
   <g id="text_1">
    <text style="font-weight: 700; font-size: 24px; font-family: 'DejaVu Sans'; text-anchor: start; fill: #182431" x="47.9808" y="54.03465" transform="rotate(-0 47.9808 54.03465)">Сколько объектов использовать для одного шага?</text>
   </g>
   <g id="text_2">
    <text style="font-size: 11px; font-family: 'DejaVu Sans'; text-anchor: start; fill: #5d6b78" x="47.9808" y="74.281625" transform="rotate(-0 47.9808 74.281625)">Определение ошибки не меняется — меняется объём данных для оценки направления.</text>
   </g>
   <g id="text_3">
    <text style="font-weight: 700; font-size: 9.8px; font-family: 'DejaVu Sans'; text-anchor: middle; fill: #0b70e0" x="160.4736" y="158.005669" transform="rotate(-0 160.4736 158.005669)">ПОЛНЫЙ ПАКЕТ</text>
   </g>
   <g id="text_4">
    <text style="font-size: 9.3px; font-family: 'DejaVu Sans'; text-anchor: middle; fill: #5d6b78" x="160.4736" y="192.552947" transform="rotate(-0 160.4736 192.552947)">все 12 объектов</text>
   </g>
   <g id="text_5">
    <text style="font-weight: 700; font-size: 9.5px; font-family: 'DejaVu Sans'; text-anchor: middle; fill: #0b70e0" x="160.4736" y="407.257716" transform="rotate(-0 160.4736 407.257716)">точнее, но дороже</text>
   </g>
   <g id="text_6">
    <text style="font-weight: 700; font-size: 9.8px; font-family: 'DejaVu Sans'; text-anchor: middle; fill: #ce3b36" x="417.6" y="158.005669" transform="rotate(-0 417.6 158.005669)">ОДИН ОБЪЕКТ (SGD)</text>
   </g>
   <g id="text_7">
    <text style="font-size: 9.3px; font-family: 'DejaVu Sans'; text-anchor: middle; fill: #5d6b78" x="417.6" y="192.552947" transform="rotate(-0 417.6 192.552947)">1 из 12 объектов</text>
   </g>
   <g id="text_8">
    <text style="font-weight: 700; font-size: 9.5px; font-family: 'DejaVu Sans'; text-anchor: middle; fill: #ce3b36" x="417.6" y="407.56795" transform="rotate(-0 417.6 407.56795)">быстро, но шумно</text>
   </g>
   <g id="text_9">
    <text style="font-weight: 700; font-size: 9.8px; font-family: 'DejaVu Sans'; text-anchor: middle; fill: #7657e8" x="674.7264" y="158.005669" transform="rotate(-0 674.7264 158.005669)">МИНИ-ПАКЕТ</text>
   </g>
   <g id="text_10">
    <text style="font-size: 9.3px; font-family: 'DejaVu Sans'; text-anchor: middle; fill: #5d6b78" x="674.7264" y="192.552947" transform="rotate(-0 674.7264 192.552947)">4 из 12 объектов</text>
   </g>
   <g id="text_11">
    <text style="font-weight: 700; font-size: 9.5px; font-family: 'DejaVu Sans'; text-anchor: middle; fill: #7657e8" x="674.7264" y="407.299278" transform="rotate(-0 674.7264 407.299278)">частый компромисс</text>
   </g>
   <g id="text_12">
    <text style="font-weight: 700; font-size: 10.5px; font-family: 'DejaVu Sans'; text-anchor: middle; fill: #138a57" x="417.6" y="475.416173" transform="rotate(-0 417.6 475.416173)">Мини-пакет меняет способ оптимизации, а не смысл функции потерь.</text>
   </g>
  </g>
 </g>
 <defs>
  <clipPath id="p8c755e3773">
   <rect x="15.84" y="15.84" width="803.52" height="498.96"/>
  </clipPath>
 </defs>
</svg>
