<?xml version="1.0" encoding="utf-8" standalone="no"?>
<!DOCTYPE svg PUBLIC "-//W3C//DTD SVG 1.1//EN"
  "http://www.w3.org/Graphics/SVG/1.1/DTD/svg11.dtd">
<svg xmlns:xlink="http://www.w3.org/1999/xlink" width="835.2pt" height="530.64pt" viewBox="0 0 835.2 530.64" xmlns="http://www.w3.org/2000/svg" version="1.1">
 <metadata>
  <rdf:RDF xmlns:dc="http://purl.org/dc/elements/1.1/" xmlns:cc="http://creativecommons.org/ns#" xmlns:rdf="http://www.w3.org/1999/02/22-rdf-syntax-ns#">
   <cc:Work>
    <dc:type rdf:resource="http://purl.org/dc/dcmitype/StillImage"/>
    <dc:format>image/svg+xml</dc:format>
    <dc:creator>
     <cc:Agent>
      <dc:title>Matplotlib v3.10.8, https://matplotlib.org/</dc:title>
     </cc:Agent>
    </dc:creator>
   </cc:Work>
  </rdf:RDF>
 </metadata>
 <defs>
  <style type="text/css">*{stroke-linejoin: round; stroke-linecap: butt}</style>
 </defs>
 <g id="figure_1">
  <g id="patch_1">
   <path d="M 0 530.64
L 835.2 530.64
L 835.2 0
L 0 0
z
" style="fill: #ffffff"/>
  </g>
  <g id="axes_1">
   <g id="patch_2">
    <path d="M 74.0952 123.86484
L 383.4504 123.86484
Q 396.30672 123.86484 396.30672 131.8482
L 396.30672 428.7294
Q 396.30672 436.71276 383.4504 436.71276
L 74.0952 436.71276
Q 61.23888 436.71276 61.23888 428.7294
L 61.23888 131.8482
Q 61.23888 123.86484 74.0952 123.86484
z
" clip-path="url(#p8c755e3773)" style="fill: #ffffff; stroke: #0b70e0; stroke-width: 1.1; stroke-linejoin: miter"/>
   </g>
   <g id="patch_3">
    <path d="M 104.2272 235.3824
C 106.35816 235.3824 108.402128 235.908136 109.908944 236.84382
C 111.415761 237.779504 112.2624 239.048743 112.2624 240.372
C 112.2624 241.695257 111.415761 242.964496 109.908944 243.90018
C 108.402128 244.835864 106.35816 245.3616 104.2272 245.3616
C 102.09624 245.3616 100.052272 244.835864 98.545456 243.90018
C 97.038639 242.964496 96.192 241.695257 96.192 240.372
C 96.192 239.048743 97.038639 237.779504 98.545456 236.84382
C 100.052272 235.908136 102.09624 235.3824 104.2272 235.3824
z
" clip-path="url(#p8c755e3773)" style="fill: #b9c6d0"/>
   </g>
   <g id="patch_4">
    <path d="M 129.93984 235.3824
C 132.0708 235.3824 134.114768 235.908136 135.621584 236.84382
C 137.128401 237.779504 137.97504 239.048743 137.97504 240.372
C 137.97504 241.695257 137.128401 242.964496 135.621584 243.90018
C 134.114768 244.835864 132.0708 245.3616 129.93984 245.3616
C 127.80888 245.3616 125.764912 244.835864 124.258096 243.90018
C 122.751279 242.964496 121.90464 241.695257 121.90464 240.372
C 121.90464 239.048743 122.751279 237.779504 124.258096 236.84382
C 125.764912 235.908136 127.80888 235.3824 129.93984 235.3824
z
" clip-path="url(#p8c755e3773)" style="fill: #b9c6d0"/>
   </g>
   <g id="patch_5">
    <path d="M 155.65248 235.3824
C 157.78344 235.3824 159.827408 235.908136 161.334224 236.84382
C 162.841041 237.779504 163.68768 239.048743 163.68768 240.372
C 163.68768 241.695257 162.841041 242.964496 161.334224 243.90018
C 159.827408 244.835864 157.78344 245.3616 155.65248 245.3616
C 153.52152 245.3616 151.477552 244.835864 149.970736 243.90018
C 148.463919 242.964496 147.61728 241.695257 147.61728 240.372
C 147.61728 239.048743 148.463919 237.779504 149.970736 236.84382
C 151.477552 235.908136 153.52152 235.3824 155.65248 235.3824
z
" clip-path="url(#p8c755e3773)" style="fill: #ce3b36"/>
   </g>
   <g id="patch_6">
    <path d="M 181.36512 235.3824
C 183.49608 235.3824 185.540048 235.908136 187.046864 236.84382
C 188.553681 237.779504 189.40032 239.048743 189.40032 240.372
C 189.40032 241.695257 188.553681 242.964496 187.046864 243.90018
C 185.540048 244.835864 183.49608 245.3616 181.36512 245.3616
C 179.23416 245.3616 177.190192 244.835864 175.683376 243.90018
C 174.176559 242.964496 173.32992 241.695257 173.32992 240.372
C 173.32992 239.048743 174.176559 237.779504 175.683376 236.84382
C 177.190192 235.908136 179.23416 235.3824 181.36512 235.3824
z
" clip-path="url(#p8c755e3773)" style="fill: #b9c6d0"/>
   </g>
   <g id="patch_7">
    <path d="M 207.07776 235.3824
C 209.20872 235.3824 211.252688 235.908136 212.759504 236.84382
C 214.266321 237.779504 215.11296 239.048743 215.11296 240.372
C 215.11296 241.695257 214.266321 242.964496 212.759504 243.90018
C 211.252688 244.835864 209.20872 245.3616 207.07776 245.3616
C 204.9468 245.3616 202.902832 244.835864 201.396016 243.90018
C 199.889199 242.964496 199.04256 241.695257 199.04256 240.372
C 199.04256 239.048743 199.889199 237.779504 201.396016 236.84382
C 202.902832 235.908136 204.9468 235.3824 207.07776 235.3824
z
" clip-path="url(#p8c755e3773)" style="fill: #b9c6d0"/>
   </g>
   <g id="patch_8">
    <path d="M 232.7904 235.3824
C 234.92136 235.3824 236.965328 235.908136 238.472144 236.84382
C 239.978961 237.779504 240.8256 239.048743 240.8256 240.372
C 240.8256 241.695257 239.978961 242.964496 238.472144 243.90018
C 236.965328 244.835864 234.92136 245.3616 232.7904 245.3616
C 230.65944 245.3616 228.615472 244.835864 227.108656 243.90018
C 225.601839 242.964496 224.7552 241.695257 224.7552 240.372
C 224.7552 239.048743 225.601839 237.779504 227.108656 236.84382
C 228.615472 235.908136 230.65944 235.3824 232.7904 235.3824
z
" clip-path="url(#p8c755e3773)" style="fill: #b9c6d0"/>
   </g>
   <g id="patch_9">
    <path d="M 258.50304 235.3824
C 260.634 235.3824 262.677968 235.908136 264.184784 236.84382
C 265.691601 237.779504 266.53824 239.048743 266.53824 240.372
C 266.53824 241.695257 265.691601 242.964496 264.184784 243.90018
C 262.677968 244.835864 260.634 245.3616 258.50304 245.3616
C 256.37208 245.3616 254.328112 244.835864 252.821296 243.90018
C 251.314479 242.964496 250.46784 241.695257 250.46784 240.372
C 250.46784 239.048743 251.314479 237.779504 252.821296 236.84382
C 254.328112 235.908136 256.37208 235.3824 258.50304 235.3824
z
" clip-path="url(#p8c755e3773)" style="fill: #b9c6d0"/>
   </g>
   <g id="patch_10">
    <path d="M 284.21568 235.3824
C 286.34664 235.3824 288.390608 235.908136 289.897424 236.84382
C 291.404241 237.779504 292.25088 239.048743 292.25088 240.372
C 292.25088 241.695257 291.404241 242.964496 289.897424 243.90018
C 288.390608 244.835864 286.34664 245.3616 284.21568 245.3616
C 282.08472 245.3616 280.040752 244.835864 278.533936 243.90018
C 277.027119 242.964496 276.18048 241.695257 276.18048 240.372
C 276.18048 239.048743 277.027119 237.779504 278.533936 236.84382
C 280.040752 235.908136 282.08472 235.3824 284.21568 235.3824
z
" clip-path="url(#p8c755e3773)" style="fill: #b9c6d0"/>
   </g>
   <g id="patch_11">
    <path d="M 309.92832 235.3824
C 312.05928 235.3824 314.103248 235.908136 315.610064 236.84382
C 317.116881 237.779504 317.96352 239.048743 317.96352 240.372
C 317.96352 241.695257 317.116881 242.964496 315.610064 243.90018
C 314.103248 244.835864 312.05928 245.3616 309.92832 245.3616
C 307.79736 245.3616 305.753392 244.835864 304.246576 243.90018
C 302.739759 242.964496 301.89312 241.695257 301.89312 240.372
C 301.89312 239.048743 302.739759 237.779504 304.246576 236.84382
C 305.753392 235.908136 307.79736 235.3824 309.92832 235.3824
z
" clip-path="url(#p8c755e3773)" style="fill: #b9c6d0"/>
   </g>
   <g id="patch_12">
    <path d="M 335.64096 235.3824
C 337.77192 235.3824 339.815888 235.908136 341.322704 236.84382
C 342.829521 237.779504 343.67616 239.048743 343.67616 240.372
C 343.67616 241.695257 342.829521 242.964496 341.322704 243.90018
C 339.815888 244.835864 337.77192 245.3616 335.64096 245.3616
C 333.51 245.3616 331.466032 244.835864 329.959216 243.90018
C 328.452399 242.964496 327.60576 241.695257 327.60576 240.372
C 327.60576 239.048743 328.452399 237.779504 329.959216 236.84382
C 331.466032 235.908136 333.51 235.3824 335.64096 235.3824
z
" clip-path="url(#p8c755e3773)" style="fill: #b9c6d0"/>
   </g>
   <g id="patch_13">
    <path d="M 104.2272 270.3096
C 106.35816 270.3096 108.402128 270.835336 109.908944 271.77102
C 111.415761 272.706704 112.2624 273.975943 112.2624 275.2992
C 112.2624 276.622457 111.415761 277.891696 109.908944 278.82738
C 108.402128 279.763064 106.35816 280.2888 104.2272 280.2888
C 102.09624 280.2888 100.052272 279.763064 98.545456 278.82738
C 97.038639 277.891696 96.192 276.622457 96.192 275.2992
C 96.192 273.975943 97.038639 272.706704 98.545456 271.77102
C 100.052272 270.835336 102.09624 270.3096 104.2272 270.3096
z
" clip-path="url(#p8c755e3773)" style="fill: #b9c6d0"/>
   </g>
   <g id="patch_14">
    <path d="M 129.93984 270.3096
C 132.0708 270.3096 134.114768 270.835336 135.621584 271.77102
C 137.128401 272.706704 137.97504 273.975943 137.97504 275.2992
C 137.97504 276.622457 137.128401 277.891696 135.621584 278.82738
C 134.114768 279.763064 132.0708 280.2888 129.93984 280.2888
C 127.80888 280.2888 125.764912 279.763064 124.258096 278.82738
C 122.751279 277.891696 121.90464 276.622457 121.90464 275.2992
C 121.90464 273.975943 122.751279 272.706704 124.258096 271.77102
C 125.764912 270.835336 127.80888 270.3096 129.93984 270.3096
z
" clip-path="url(#p8c755e3773)" style="fill: #b9c6d0"/>
   </g>
   <g id="patch_15">
    <path d="M 155.65248 270.3096
C 157.78344 270.3096 159.827408 270.835336 161.334224 271.77102
C 162.841041 272.706704 163.68768 273.975943 163.68768 275.2992
C 163.68768 276.622457 162.841041 277.891696 161.334224 278.82738
C 159.827408 279.763064 157.78344 280.2888 155.65248 280.2888
C 153.52152 280.2888 151.477552 279.763064 149.970736 278.82738
C 148.463919 277.891696 147.61728 276.622457 147.61728 275.2992
C 147.61728 273.975943 148.463919 272.706704 149.970736 271.77102
C 151.477552 270.835336 153.52152 270.3096 155.65248 270.3096
z
" clip-path="url(#p8c755e3773)" style="fill: #b9c6d0"/>
   </g>
   <g id="patch_16">
    <path d="M 181.36512 270.3096
C 183.49608 270.3096 185.540048 270.835336 187.046864 271.77102
C 188.553681 272.706704 189.40032 273.975943 189.40032 275.2992
C 189.40032 276.622457 188.553681 277.891696 187.046864 278.82738
C 185.540048 279.763064 183.49608 280.2888 181.36512 280.2888
C 179.23416 280.2888 177.190192 279.763064 175.683376 278.82738
C 174.176559 277.891696 173.32992 276.622457 173.32992 275.2992
C 173.32992 273.975943 174.176559 272.706704 175.683376 271.77102
C 177.190192 270.835336 179.23416 270.3096 181.36512 270.3096
z
" clip-path="url(#p8c755e3773)" style="fill: #b9c6d0"/>
   </g>
   <g id="patch_17">
    <path d="M 207.07776 270.3096
C 209.20872 270.3096 211.252688 270.835336 212.759504 271.77102
C 214.266321 272.706704 215.11296 273.975943 215.11296 275.2992
C 215.11296 276.622457 214.266321 277.891696 212.759504 278.82738
C 211.252688 279.763064 209.20872 280.2888 207.07776 280.2888
C 204.9468 280.2888 202.902832 279.763064 201.396016 278.82738
C 199.889199 277.891696 199.04256 276.622457 199.04256 275.2992
C 199.04256 273.975943 199.889199 272.706704 201.396016 271.77102
C 202.902832 270.835336 204.9468 270.3096 207.07776 270.3096
z
" clip-path="url(#p8c755e3773)" style="fill: #b9c6d0"/>
   </g>
   <g id="patch_18">
    <path d="M 232.7904 270.3096
C 234.92136 270.3096 236.965328 270.835336 238.472144 271.77102
C 239.978961 272.706704 240.8256 273.975943 240.8256 275.2992
C 240.8256 276.622457 239.978961 277.891696 238.472144 278.82738
C 236.965328 279.763064 234.92136 280.2888 232.7904 280.2888
C 230.65944 280.2888 228.615472 279.763064 227.108656 278.82738
C 225.601839 277.891696 224.7552 276.622457 224.7552 275.2992
C 224.7552 273.975943 225.601839 272.706704 227.108656 271.77102
C 228.615472 270.835336 230.65944 270.3096 232.7904 270.3096
z
" clip-path="url(#p8c755e3773)" style="fill: #b9c6d0"/>
   </g>
   <g id="patch_19">
    <path d="M 258.50304 270.3096
C 260.634 270.3096 262.677968 270.835336 264.184784 271.77102
C 265.691601 272.706704 266.53824 273.975943 266.53824 275.2992
C 266.53824 276.622457 265.691601 277.891696 264.184784 278.82738
C 262.677968 279.763064 260.634 280.2888 258.50304 280.2888
C 256.37208 280.2888 254.328112 279.763064 252.821296 278.82738
C 251.314479 277.891696 250.46784 276.622457 250.46784 275.2992
C 250.46784 273.975943 251.314479 272.706704 252.821296 271.77102
C 254.328112 270.835336 256.37208 270.3096 258.50304 270.3096
z
" clip-path="url(#p8c755e3773)" style="fill: #b9c6d0"/>
   </g>
   <g id="patch_20">
    <path d="M 284.21568 270.3096
C 286.34664 270.3096 288.390608 270.835336 289.897424 271.77102
C 291.404241 272.706704 292.25088 273.975943 292.25088 275.2992
C 292.25088 276.622457 291.404241 277.891696 289.897424 278.82738
C 288.390608 279.763064 286.34664 280.2888 284.21568 280.2888
C 282.08472 280.2888 280.040752 279.763064 278.533936 278.82738
C 277.027119 277.891696 276.18048 276.622457 276.18048 275.2992
C 276.18048 273.975943 277.027119 272.706704 278.533936 271.77102
C 280.040752 270.835336 282.08472 270.3096 284.21568 270.3096
z
" clip-path="url(#p8c755e3773)" style="fill: #ce3b36"/>
   </g>
   <g id="patch_21">
    <path d="M 309.92832 270.3096
C 312.05928 270.3096 314.103248 270.835336 315.610064 271.77102
C 317.116881 272.706704 317.96352 273.975943 317.96352 275.2992
C 317.96352 276.622457 317.116881 277.891696 315.610064 278.82738
C 314.103248 279.763064 312.05928 280.2888 309.92832 280.2888
C 307.79736 280.2888 305.753392 279.763064 304.246576 278.82738
C 302.739759 277.891696 301.89312 276.622457 301.89312 275.2992
C 301.89312 273.975943 302.739759 272.706704 304.246576 271.77102
C 305.753392 270.835336 307.79736 270.3096 309.92832 270.3096
z
" clip-path="url(#p8c755e3773)" style="fill: #b9c6d0"/>
   </g>
   <g id="patch_22">
    <path d="M 335.64096 270.3096
C 337.77192 270.3096 339.815888 270.835336 341.322704 271.77102
C 342.829521 272.706704 343.67616 273.975943 343.67616 275.2992
C 343.67616 276.622457 342.829521 277.891696 341.322704 278.82738
C 339.815888 279.763064 337.77192 280.2888 335.64096 280.2888
C 333.51 280.2888 331.466032 279.763064 329.959216 278.82738
C 328.452399 277.891696 327.60576 276.622457 327.60576 275.2992
C 327.60576 273.975943 328.452399 272.706704 329.959216 271.77102
C 331.466032 270.835336 333.51 270.3096 335.64096 270.3096
z
" clip-path="url(#p8c755e3773)" style="fill: #b9c6d0"/>
   </g>
   <g id="patch_23">
    <path d="M 104.2272 305.2368
C 106.35816 305.2368 108.402128 305.762536 109.908944 306.69822
C 111.415761 307.633904 112.2624 308.903143 112.2624 310.2264
C 112.2624 311.549657 111.415761 312.818896 109.908944 313.75458
C 108.402128 314.690264 106.35816 315.216 104.2272 315.216
C 102.09624 315.216 100.052272 314.690264 98.545456 313.75458
C 97.038639 312.818896 96.192 311.549657 96.192 310.2264
C 96.192 308.903143 97.038639 307.633904 98.545456 306.69822
C 100.052272 305.762536 102.09624 305.2368 104.2272 305.2368
z
" clip-path="url(#p8c755e3773)" style="fill: #b9c6d0"/>
   </g>
   <g id="patch_24">
    <path d="M 129.93984 305.2368
C 132.0708 305.2368 134.114768 305.762536 135.621584 306.69822
C 137.128401 307.633904 137.97504 308.903143 137.97504 310.2264
C 137.97504 311.549657 137.128401 312.818896 135.621584 313.75458
C 134.114768 314.690264 132.0708 315.216 129.93984 315.216
C 127.80888 315.216 125.764912 314.690264 124.258096 313.75458
C 122.751279 312.818896 121.90464 311.549657 121.90464 310.2264
C 121.90464 308.903143 122.751279 307.633904 124.258096 306.69822
C 125.764912 305.762536 127.80888 305.2368 129.93984 305.2368
z
" clip-path="url(#p8c755e3773)" style="fill: #b9c6d0"/>
   </g>
   <g id="patch_25">
    <path d="M 155.65248 305.2368
C 157.78344 305.2368 159.827408 305.762536 161.334224 306.69822
C 162.841041 307.633904 163.68768 308.903143 163.68768 310.2264
C 163.68768 311.549657 162.841041 312.818896 161.334224 313.75458
C 159.827408 314.690264 157.78344 315.216 155.65248 315.216
C 153.52152 315.216 151.477552 314.690264 149.970736 313.75458
C 148.463919 312.818896 147.61728 311.549657 147.61728 310.2264
C 147.61728 308.903143 148.463919 307.633904 149.970736 306.69822
C 151.477552 305.762536 153.52152 305.2368 155.65248 305.2368
z
" clip-path="url(#p8c755e3773)" style="fill: #b9c6d0"/>
   </g>
   <g id="patch_26">
    <path d="M 181.36512 305.2368
C 183.49608 305.2368 185.540048 305.762536 187.046864 306.69822
C 188.553681 307.633904 189.40032 308.903143 189.40032 310.2264
C 189.40032 311.549657 188.553681 312.818896 187.046864 313.75458
C 185.540048 314.690264 183.49608 315.216 181.36512 315.216
C 179.23416 315.216 177.190192 314.690264 175.683376 313.75458
C 174.176559 312.818896 173.32992 311.549657 173.32992 310.2264
C 173.32992 308.903143 174.176559 307.633904 175.683376 306.69822
C 177.190192 305.762536 179.23416 305.2368 181.36512 305.2368
z
" clip-path="url(#p8c755e3773)" style="fill: #b9c6d0"/>
   </g>
   <g id="patch_27">
    <path d="M 207.07776 305.2368
C 209.20872 305.2368 211.252688 305.762536 212.759504 306.69822
C 214.266321 307.633904 215.11296 308.903143 215.11296 310.2264
C 215.11296 311.549657 214.266321 312.818896 212.759504 313.75458
C 211.252688 314.690264 209.20872 315.216 207.07776 315.216
C 204.9468 315.216 202.902832 314.690264 201.396016 313.75458
C 199.889199 312.818896 199.04256 311.549657 199.04256 310.2264
C 199.04256 308.903143 199.889199 307.633904 201.396016 306.69822
C 202.902832 305.762536 204.9468 305.2368 207.07776 305.2368
z
" clip-path="url(#p8c755e3773)" style="fill: #ce3b36"/>
   </g>
   <g id="patch_28">
    <path d="M 232.7904 305.2368
C 234.92136 305.2368 236.965328 305.762536 238.472144 306.69822
C 239.978961 307.633904 240.8256 308.903143 240.8256 310.2264
C 240.8256 311.549657 239.978961 312.818896 238.472144 313.75458
C 236.965328 314.690264 234.92136 315.216 232.7904 315.216
C 230.65944 315.216 228.615472 314.690264 227.108656 313.75458
C 225.601839 312.818896 224.7552 311.549657 224.7552 310.2264
C 224.7552 308.903143 225.601839 307.633904 227.108656 306.69822
C 228.615472 305.762536 230.65944 305.2368 232.7904 305.2368
z
" clip-path="url(#p8c755e3773)" style="fill: #b9c6d0"/>
   </g>
   <g id="patch_29">
    <path d="M 258.50304 305.2368
C 260.634 305.2368 262.677968 305.762536 264.184784 306.69822
C 265.691601 307.633904 266.53824 308.903143 266.53824 310.2264
C 266.53824 311.549657 265.691601 312.818896 264.184784 313.75458
C 262.677968 314.690264 260.634 315.216 258.50304 315.216
C 256.37208 315.216 254.328112 314.690264 252.821296 313.75458
C 251.314479 312.818896 250.46784 311.549657 250.46784 310.2264
C 250.46784 308.903143 251.314479 307.633904 252.821296 306.69822
C 254.328112 305.762536 256.37208 305.2368 258.50304 305.2368
z
" clip-path="url(#p8c755e3773)" style="fill: #b9c6d0"/>
   </g>
   <g id="patch_30">
    <path d="M 284.21568 305.2368
C 286.34664 305.2368 288.390608 305.762536 289.897424 306.69822
C 291.404241 307.633904 292.25088 308.903143 292.25088 310.2264
C 292.25088 311.549657 291.404241 312.818896 289.897424 313.75458
C 288.390608 314.690264 286.34664 315.216 284.21568 315.216
C 282.08472 315.216 280.040752 314.690264 278.533936 313.75458
C 277.027119 312.818896 276.18048 311.549657 276.18048 310.2264
C 276.18048 308.903143 277.027119 307.633904 278.533936 306.69822
C 280.040752 305.762536 282.08472 305.2368 284.21568 305.2368
z
" clip-path="url(#p8c755e3773)" style="fill: #b9c6d0"/>
   </g>
   <g id="patch_31">
    <path d="M 309.92832 305.2368
C 312.05928 305.2368 314.103248 305.762536 315.610064 306.69822
C 317.116881 307.633904 317.96352 308.903143 317.96352 310.2264
C 317.96352 311.549657 317.116881 312.818896 315.610064 313.75458
C 314.103248 314.690264 312.05928 315.216 309.92832 315.216
C 307.79736 315.216 305.753392 314.690264 304.246576 313.75458
C 302.739759 312.818896 301.89312 311.549657 301.89312 310.2264
C 301.89312 308.903143 302.739759 307.633904 304.246576 306.69822
C 305.753392 305.762536 307.79736 305.2368 309.92832 305.2368
z
" clip-path="url(#p8c755e3773)" style="fill: #b9c6d0"/>
   </g>
   <g id="patch_32">
    <path d="M 335.64096 305.2368
C 337.77192 305.2368 339.815888 305.762536 341.322704 306.69822
C 342.829521 307.633904 343.67616 308.903143 343.67616 310.2264
C 343.67616 311.549657 342.829521 312.818896 341.322704 313.75458
C 339.815888 314.690264 337.77192 315.216 335.64096 315.216
C 333.51 315.216 331.466032 314.690264 329.959216 313.75458
C 328.452399 312.818896 327.60576 311.549657 327.60576 310.2264
C 327.60576 308.903143 328.452399 307.633904 329.959216 306.69822
C 331.466032 305.762536 333.51 305.2368 335.64096 305.2368
z
" clip-path="url(#p8c755e3773)" style="fill: #b9c6d0"/>
   </g>
   <g id="patch_33">
    <path d="M 451.7496 123.86484
L 761.1048 123.86484
Q 773.96112 123.86484 773.96112 131.8482
L 773.96112 428.7294
Q 773.96112 436.71276 761.1048 436.71276
L 451.7496 436.71276
Q 438.89328 436.71276 438.89328 428.7294
L 438.89328 131.8482
Q 438.89328 123.86484 451.7496 123.86484
z
" clip-path="url(#p8c755e3773)" style="fill: #ffffff; stroke: #7657e8; stroke-width: 1.1; stroke-linejoin: miter"/>
   </g>
   <g id="patch_34">
    <path d="M 481.8816 235.3824
C 484.01256 235.3824 486.056528 235.908136 487.563344 236.84382
C 489.070161 237.779504 489.9168 239.048743 489.9168 240.372
C 489.9168 241.695257 489.070161 242.964496 487.563344 243.90018
C 486.056528 244.835864 484.01256 245.3616 481.8816 245.3616
C 479.75064 245.3616 477.706672 244.835864 476.199856 243.90018
C 474.693039 242.964496 473.8464 241.695257 473.8464 240.372
C 473.8464 239.048743 474.693039 237.779504 476.199856 236.84382
C 477.706672 235.908136 479.75064 235.3824 481.8816 235.3824
z
" clip-path="url(#p8c755e3773)" style="fill: #b9c6d0"/>
   </g>
   <g id="patch_35">
    <path d="M 505.9872 235.3824
C 508.11816 235.3824 510.162128 235.908136 511.668944 236.84382
C 513.175761 237.779504 514.0224 239.048743 514.0224 240.372
C 514.0224 241.695257 513.175761 242.964496 511.668944 243.90018
C 510.162128 244.835864 508.11816 245.3616 505.9872 245.3616
C 503.85624 245.3616 501.812272 244.835864 500.305456 243.90018
C 498.798639 242.964496 497.952 241.695257 497.952 240.372
C 497.952 239.048743 498.798639 237.779504 500.305456 236.84382
C 501.812272 235.908136 503.85624 235.3824 505.9872 235.3824
z
" clip-path="url(#p8c755e3773)" style="fill: #b9c6d0"/>
   </g>
   <g id="patch_36">
    <path d="M 530.0928 235.3824
C 532.22376 235.3824 534.267728 235.908136 535.774544 236.84382
C 537.281361 237.779504 538.128 239.048743 538.128 240.372
C 538.128 241.695257 537.281361 242.964496 535.774544 243.90018
C 534.267728 244.835864 532.22376 245.3616 530.0928 245.3616
C 527.96184 245.3616 525.917872 244.835864 524.411056 243.90018
C 522.904239 242.964496 522.0576 241.695257 522.0576 240.372
C 522.0576 239.048743 522.904239 237.779504 524.411056 236.84382
C 525.917872 235.908136 527.96184 235.3824 530.0928 235.3824
z
" clip-path="url(#p8c755e3773)" style="fill: #b9c6d0"/>
   </g>
   <g id="patch_37">
    <path d="M 554.1984 235.3824
C 556.32936 235.3824 558.373328 235.908136 559.880144 236.84382
C 561.386961 237.779504 562.2336 239.048743 562.2336 240.372
C 562.2336 241.695257 561.386961 242.964496 559.880144 243.90018
C 558.373328 244.835864 556.32936 245.3616 554.1984 245.3616
C 552.06744 245.3616 550.023472 244.835864 548.516656 243.90018
C 547.009839 242.964496 546.1632 241.695257 546.1632 240.372
C 546.1632 239.048743 547.009839 237.779504 548.516656 236.84382
C 550.023472 235.908136 552.06744 235.3824 554.1984 235.3824
z
" clip-path="url(#p8c755e3773)" style="fill: #b9c6d0"/>
   </g>
   <g id="patch_38">
    <path d="M 578.304 235.3824
C 580.43496 235.3824 582.478928 235.908136 583.985744 236.84382
C 585.492561 237.779504 586.3392 239.048743 586.3392 240.372
C 586.3392 241.695257 585.492561 242.964496 583.985744 243.90018
C 582.478928 244.835864 580.43496 245.3616 578.304 245.3616
C 576.17304 245.3616 574.129072 244.835864 572.622256 243.90018
C 571.115439 242.964496 570.2688 241.695257 570.2688 240.372
C 570.2688 239.048743 571.115439 237.779504 572.622256 236.84382
C 574.129072 235.908136 576.17304 235.3824 578.304 235.3824
z
" clip-path="url(#p8c755e3773)" style="fill: #ce3b36"/>
   </g>
   <g id="patch_39">
    <path d="M 481.8816 270.3096
C 484.01256 270.3096 486.056528 270.835336 487.563344 271.77102
C 489.070161 272.706704 489.9168 273.975943 489.9168 275.2992
C 489.9168 276.622457 489.070161 277.891696 487.563344 278.82738
C 486.056528 279.763064 484.01256 280.2888 481.8816 280.2888
C 479.75064 280.2888 477.706672 279.763064 476.199856 278.82738
C 474.693039 277.891696 473.8464 276.622457 473.8464 275.2992
C 473.8464 273.975943 474.693039 272.706704 476.199856 271.77102
C 477.706672 270.835336 479.75064 270.3096 481.8816 270.3096
z
" clip-path="url(#p8c755e3773)" style="fill: #b9c6d0"/>
   </g>
   <g id="patch_40">
    <path d="M 505.9872 270.3096
C 508.11816 270.3096 510.162128 270.835336 511.668944 271.77102
C 513.175761 272.706704 514.0224 273.975943 514.0224 275.2992
C 514.0224 276.622457 513.175761 277.891696 511.668944 278.82738
C 510.162128 279.763064 508.11816 280.2888 505.9872 280.2888
C 503.85624 280.2888 501.812272 279.763064 500.305456 278.82738
C 498.798639 277.891696 497.952 276.622457 497.952 275.2992
C 497.952 273.975943 498.798639 272.706704 500.305456 271.77102
C 501.812272 270.835336 503.85624 270.3096 505.9872 270.3096
z
" clip-path="url(#p8c755e3773)" style="fill: #b9c6d0"/>
   </g>
   <g id="patch_41">
    <path d="M 530.0928 270.3096
C 532.22376 270.3096 534.267728 270.835336 535.774544 271.77102
C 537.281361 272.706704 538.128 273.975943 538.128 275.2992
C 538.128 276.622457 537.281361 277.891696 535.774544 278.82738
C 534.267728 279.763064 532.22376 280.2888 530.0928 280.2888
C 527.96184 280.2888 525.917872 279.763064 524.411056 278.82738
C 522.904239 277.891696 522.0576 276.622457 522.0576 275.2992
C 522.0576 273.975943 522.904239 272.706704 524.411056 271.77102
C 525.917872 270.835336 527.96184 270.3096 530.0928 270.3096
z
" clip-path="url(#p8c755e3773)" style="fill: #b9c6d0"/>
   </g>
   <g id="patch_42">
    <path d="M 554.1984 270.3096
C 556.32936 270.3096 558.373328 270.835336 559.880144 271.77102
C 561.386961 272.706704 562.2336 273.975943 562.2336 275.2992
C 562.2336 276.622457 561.386961 277.891696 559.880144 278.82738
C 558.373328 279.763064 556.32936 280.2888 554.1984 280.2888
C 552.06744 280.2888 550.023472 279.763064 548.516656 278.82738
C 547.009839 277.891696 546.1632 276.622457 546.1632 275.2992
C 546.1632 273.975943 547.009839 272.706704 548.516656 271.77102
C 550.023472 270.835336 552.06744 270.3096 554.1984 270.3096
z
" clip-path="url(#p8c755e3773)" style="fill: #b9c6d0"/>
   </g>
   <g id="patch_43">
    <path d="M 578.304 270.3096
C 580.43496 270.3096 582.478928 270.835336 583.985744 271.77102
C 585.492561 272.706704 586.3392 273.975943 586.3392 275.2992
C 586.3392 276.622457 585.492561 277.891696 583.985744 278.82738
C 582.478928 279.763064 580.43496 280.2888 578.304 280.2888
C 576.17304 280.2888 574.129072 279.763064 572.622256 278.82738
C 571.115439 277.891696 570.2688 276.622457 570.2688 275.2992
C 570.2688 273.975943 571.115439 272.706704 572.622256 271.77102
C 574.129072 270.835336 576.17304 270.3096 578.304 270.3096
z
" clip-path="url(#p8c755e3773)" style="fill: #ce3b36"/>
   </g>
   <g id="patch_44">
    <path d="M 481.8816 305.2368
C 484.01256 305.2368 486.056528 305.762536 487.563344 306.69822
C 489.070161 307.633904 489.9168 308.903143 489.9168 310.2264
C 489.9168 311.549657 489.070161 312.818896 487.563344 313.75458
C 486.056528 314.690264 484.01256 315.216 481.8816 315.216
C 479.75064 315.216 477.706672 314.690264 476.199856 313.75458
C 474.693039 312.818896 473.8464 311.549657 473.8464 310.2264
C 473.8464 308.903143 474.693039 307.633904 476.199856 306.69822
C 477.706672 305.762536 479.75064 305.2368 481.8816 305.2368
z
" clip-path="url(#p8c755e3773)" style="fill: #b9c6d0"/>
   </g>
   <g id="patch_45">
    <path d="M 505.9872 305.2368
C 508.11816 305.2368 510.162128 305.762536 511.668944 306.69822
C 513.175761 307.633904 514.0224 308.903143 514.0224 310.2264
C 514.0224 311.549657 513.175761 312.818896 511.668944 313.75458
C 510.162128 314.690264 508.11816 315.216 505.9872 315.216
C 503.85624 315.216 501.812272 314.690264 500.305456 313.75458
C 498.798639 312.818896 497.952 311.549657 497.952 310.2264
C 497.952 308.903143 498.798639 307.633904 500.305456 306.69822
C 501.812272 305.762536 503.85624 305.2368 505.9872 305.2368
z
" clip-path="url(#p8c755e3773)" style="fill: #b9c6d0"/>
   </g>
   <g id="patch_46">
    <path d="M 530.0928 305.2368
C 532.22376 305.2368 534.267728 305.762536 535.774544 306.69822
C 537.281361 307.633904 538.128 308.903143 538.128 310.2264
C 538.128 311.549657 537.281361 312.818896 535.774544 313.75458
C 534.267728 314.690264 532.22376 315.216 530.0928 315.216
C 527.96184 315.216 525.917872 314.690264 524.411056 313.75458
C 522.904239 312.818896 522.0576 311.549657 522.0576 310.2264
C 522.0576 308.903143 522.904239 307.633904 524.411056 306.69822
C 525.917872 305.762536 527.96184 305.2368 530.0928 305.2368
z
" clip-path="url(#p8c755e3773)" style="fill: #b9c6d0"/>
   </g>
   <g id="patch_47">
    <path d="M 554.1984 305.2368
C 556.32936 305.2368 558.373328 305.762536 559.880144 306.69822
C 561.386961 307.633904 562.2336 308.903143 562.2336 310.2264
C 562.2336 311.549657 561.386961 312.818896 559.880144 313.75458
C 558.373328 314.690264 556.32936 315.216 554.1984 315.216
C 552.06744 315.216 550.023472 314.690264 548.516656 313.75458
C 547.009839 312.818896 546.1632 311.549657 546.1632 310.2264
C 546.1632 308.903143 547.009839 307.633904 548.516656 306.69822
C 550.023472 305.762536 552.06744 305.2368 554.1984 305.2368
z
" clip-path="url(#p8c755e3773)" style="fill: #b9c6d0"/>
   </g>
   <g id="patch_48">
    <path d="M 578.304 305.2368
C 580.43496 305.2368 582.478928 305.762536 583.985744 306.69822
C 585.492561 307.633904 586.3392 308.903143 586.3392 310.2264
C 586.3392 311.549657 585.492561 312.818896 583.985744 313.75458
C 582.478928 314.690264 580.43496 315.216 578.304 315.216
C 576.17304 315.216 574.129072 314.690264 572.622256 313.75458
C 571.115439 312.818896 570.2688 311.549657 570.2688 310.2264
C 570.2688 308.903143 571.115439 307.633904 572.622256 306.69822
C 574.129072 305.762536 576.17304 305.2368 578.304 305.2368
z
" clip-path="url(#p8c755e3773)" style="fill: #ce3b36"/>
   </g>
   <g id="patch_49">
    <path d="M 642.5856 235.3824
C 644.71656 235.3824 646.760528 235.908136 648.267344 236.84382
C 649.774161 237.779504 650.6208 239.048743 650.6208 240.372
C 650.6208 241.695257 649.774161 242.964496 648.267344 243.90018
C 646.760528 244.835864 644.71656 245.3616 642.5856 245.3616
C 640.45464 245.3616 638.410672 244.835864 636.903856 243.90018
C 635.397039 242.964496 634.5504 241.695257 634.5504 240.372
C 634.5504 239.048743 635.397039 237.779504 636.903856 236.84382
C 638.410672 235.908136 640.45464 235.3824 642.5856 235.3824
z
" clip-path="url(#p8c755e3773)" style="fill: #b9c6d0"/>
   </g>
   <g id="patch_50">
    <path d="M 666.6912 235.3824
C 668.82216 235.3824 670.866128 235.908136 672.372944 236.84382
C 673.879761 237.779504 674.7264 239.048743 674.7264 240.372
C 674.7264 241.695257 673.879761 242.964496 672.372944 243.90018
C 670.866128 244.835864 668.82216 245.3616 666.6912 245.3616
C 664.56024 245.3616 662.516272 244.835864 661.009456 243.90018
C 659.502639 242.964496 658.656 241.695257 658.656 240.372
C 658.656 239.048743 659.502639 237.779504 661.009456 236.84382
C 662.516272 235.908136 664.56024 235.3824 666.6912 235.3824
z
" clip-path="url(#p8c755e3773)" style="fill: #b9c6d0"/>
   </g>
   <g id="patch_51">
    <path d="M 690.7968 235.3824
C 692.92776 235.3824 694.971728 235.908136 696.478544 236.84382
C 697.985361 237.779504 698.832 239.048743 698.832 240.372
C 698.832 241.695257 697.985361 242.964496 696.478544 243.90018
C 694.971728 244.835864 692.92776 245.3616 690.7968 245.3616
C 688.66584 245.3616 686.621872 244.835864 685.115056 243.90018
C 683.608239 242.964496 682.7616 241.695257 682.7616 240.372
C 682.7616 239.048743 683.608239 237.779504 685.115056 236.84382
C 686.621872 235.908136 688.66584 235.3824 690.7968 235.3824
z
" clip-path="url(#p8c755e3773)" style="fill: #b9c6d0"/>
   </g>
   <g id="patch_52">
    <path d="M 714.9024 235.3824
C 717.03336 235.3824 719.077328 235.908136 720.584144 236.84382
C 722.090961 237.779504 722.9376 239.048743 722.9376 240.372
C 722.9376 241.695257 722.090961 242.964496 720.584144 243.90018
C 719.077328 244.835864 717.03336 245.3616 714.9024 245.3616
C 712.77144 245.3616 710.727472 244.835864 709.220656 243.90018
C 707.713839 242.964496 706.8672 241.695257 706.8672 240.372
C 706.8672 239.048743 707.713839 237.779504 709.220656 236.84382
C 710.727472 235.908136 712.77144 235.3824 714.9024 235.3824
z
" clip-path="url(#p8c755e3773)" style="fill: #b9c6d0"/>
   </g>
   <g id="patch_53">
    <path d="M 739.008 235.3824
C 741.13896 235.3824 743.182928 235.908136 744.689744 236.84382
C 746.196561 237.779504 747.0432 239.048743 747.0432 240.372
C 747.0432 241.695257 746.196561 242.964496 744.689744 243.90018
C 743.182928 244.835864 741.13896 245.3616 739.008 245.3616
C 736.87704 245.3616 734.833072 244.835864 733.326256 243.90018
C 731.819439 242.964496 730.9728 241.695257 730.9728 240.372
C 730.9728 239.048743 731.819439 237.779504 733.326256 236.84382
C 734.833072 235.908136 736.87704 235.3824 739.008 235.3824
z
" clip-path="url(#p8c755e3773)" style="fill: #ce3b36"/>
   </g>
   <g id="patch_54">
    <path d="M 642.5856 270.3096
C 644.71656 270.3096 646.760528 270.835336 648.267344 271.77102
C 649.774161 272.706704 650.6208 273.975943 650.6208 275.2992
C 650.6208 276.622457 649.774161 277.891696 648.267344 278.82738
C 646.760528 279.763064 644.71656 280.2888 642.5856 280.2888
C 640.45464 280.2888 638.410672 279.763064 636.903856 278.82738
C 635.397039 277.891696 634.5504 276.622457 634.5504 275.2992
C 634.5504 273.975943 635.397039 272.706704 636.903856 271.77102
C 638.410672 270.835336 640.45464 270.3096 642.5856 270.3096
z
" clip-path="url(#p8c755e3773)" style="fill: #b9c6d0"/>
   </g>
   <g id="patch_55">
    <path d="M 666.6912 270.3096
C 668.82216 270.3096 670.866128 270.835336 672.372944 271.77102
C 673.879761 272.706704 674.7264 273.975943 674.7264 275.2992
C 674.7264 276.622457 673.879761 277.891696 672.372944 278.82738
C 670.866128 279.763064 668.82216 280.2888 666.6912 280.2888
C 664.56024 280.2888 662.516272 279.763064 661.009456 278.82738
C 659.502639 277.891696 658.656 276.622457 658.656 275.2992
C 658.656 273.975943 659.502639 272.706704 661.009456 271.77102
C 662.516272 270.835336 664.56024 270.3096 666.6912 270.3096
z
" clip-path="url(#p8c755e3773)" style="fill: #b9c6d0"/>
   </g>
   <g id="patch_56">
    <path d="M 690.7968 270.3096
C 692.92776 270.3096 694.971728 270.835336 696.478544 271.77102
C 697.985361 272.706704 698.832 273.975943 698.832 275.2992
C 698.832 276.622457 697.985361 277.891696 696.478544 278.82738
C 694.971728 279.763064 692.92776 280.2888 690.7968 280.2888
C 688.66584 280.2888 686.621872 279.763064 685.115056 278.82738
C 683.608239 277.891696 682.7616 276.622457 682.7616 275.2992
C 682.7616 273.975943 683.608239 272.706704 685.115056 271.77102
C 686.621872 270.835336 688.66584 270.3096 690.7968 270.3096
z
" clip-path="url(#p8c755e3773)" style="fill: #b9c6d0"/>
   </g>
   <g id="patch_57">
    <path d="M 714.9024 270.3096
C 717.03336 270.3096 719.077328 270.835336 720.584144 271.77102
C 722.090961 272.706704 722.9376 273.975943 722.9376 275.2992
C 722.9376 276.622457 722.090961 277.891696 720.584144 278.82738
C 719.077328 279.763064 717.03336 280.2888 714.9024 280.2888
C 712.77144 280.2888 710.727472 279.763064 709.220656 278.82738
C 707.713839 277.891696 706.8672 276.622457 706.8672 275.2992
C 706.8672 273.975943 707.713839 272.706704 709.220656 271.77102
C 710.727472 270.835336 712.77144 270.3096 714.9024 270.3096
z
" clip-path="url(#p8c755e3773)" style="fill: #b9c6d0"/>
   </g>
   <g id="patch_58">
    <path d="M 739.008 270.3096
C 741.13896 270.3096 743.182928 270.835336 744.689744 271.77102
C 746.196561 272.706704 747.0432 273.975943 747.0432 275.2992
C 747.0432 276.622457 746.196561 277.891696 744.689744 278.82738
C 743.182928 279.763064 741.13896 280.2888 739.008 280.2888
C 736.87704 280.2888 734.833072 279.763064 733.326256 278.82738
C 731.819439 277.891696 730.9728 276.622457 730.9728 275.2992
C 730.9728 273.975943 731.819439 272.706704 733.326256 271.77102
C 734.833072 270.835336 736.87704 270.3096 739.008 270.3096
z
" clip-path="url(#p8c755e3773)" style="fill: #ce3b36"/>
   </g>
   <g id="patch_59">
    <path d="M 642.5856 305.2368
C 644.71656 305.2368 646.760528 305.762536 648.267344 306.69822
C 649.774161 307.633904 650.6208 308.903143 650.6208 310.2264
C 650.6208 311.549657 649.774161 312.818896 648.267344 313.75458
C 646.760528 314.690264 644.71656 315.216 642.5856 315.216
C 640.45464 315.216 638.410672 314.690264 636.903856 313.75458
C 635.397039 312.818896 634.5504 311.549657 634.5504 310.2264
C 634.5504 308.903143 635.397039 307.633904 636.903856 306.69822
C 638.410672 305.762536 640.45464 305.2368 642.5856 305.2368
z
" clip-path="url(#p8c755e3773)" style="fill: #b9c6d0"/>
   </g>
   <g id="patch_60">
    <path d="M 666.6912 305.2368
C 668.82216 305.2368 670.866128 305.762536 672.372944 306.69822
C 673.879761 307.633904 674.7264 308.903143 674.7264 310.2264
C 674.7264 311.549657 673.879761 312.818896 672.372944 313.75458
C 670.866128 314.690264 668.82216 315.216 666.6912 315.216
C 664.56024 315.216 662.516272 314.690264 661.009456 313.75458
C 659.502639 312.818896 658.656 311.549657 658.656 310.2264
C 658.656 308.903143 659.502639 307.633904 661.009456 306.69822
C 662.516272 305.762536 664.56024 305.2368 666.6912 305.2368
z
" clip-path="url(#p8c755e3773)" style="fill: #b9c6d0"/>
   </g>
   <g id="patch_61">
    <path d="M 690.7968 305.2368
C 692.92776 305.2368 694.971728 305.762536 696.478544 306.69822
C 697.985361 307.633904 698.832 308.903143 698.832 310.2264
C 698.832 311.549657 697.985361 312.818896 696.478544 313.75458
C 694.971728 314.690264 692.92776 315.216 690.7968 315.216
C 688.66584 315.216 686.621872 314.690264 685.115056 313.75458
C 683.608239 312.818896 682.7616 311.549657 682.7616 310.2264
C 682.7616 308.903143 683.608239 307.633904 685.115056 306.69822
C 686.621872 305.762536 688.66584 305.2368 690.7968 305.2368
z
" clip-path="url(#p8c755e3773)" style="fill: #b9c6d0"/>
   </g>
   <g id="patch_62">
    <path d="M 714.9024 305.2368
C 717.03336 305.2368 719.077328 305.762536 720.584144 306.69822
C 722.090961 307.633904 722.9376 308.903143 722.9376 310.2264
C 722.9376 311.549657 722.090961 312.818896 720.584144 313.75458
C 719.077328 314.690264 717.03336 315.216 714.9024 315.216
C 712.77144 315.216 710.727472 314.690264 709.220656 313.75458
C 707.713839 312.818896 706.8672 311.549657 706.8672 310.2264
C 706.8672 308.903143 707.713839 307.633904 709.220656 306.69822
C 710.727472 305.762536 712.77144 305.2368 714.9024 305.2368
z
" clip-path="url(#p8c755e3773)" style="fill: #b9c6d0"/>
   </g>
   <g id="patch_63">
    <path d="M 739.008 305.2368
C 741.13896 305.2368 743.182928 305.762536 744.689744 306.69822
C 746.196561 307.633904 747.0432 308.903143 747.0432 310.2264
C 747.0432 311.549657 746.196561 312.818896 744.689744 313.75458
C 743.182928 314.690264 741.13896 315.216 739.008 315.216
C 736.87704 315.216 734.833072 314.690264 733.326256 313.75458
C 731.819439 312.818896 730.9728 311.549657 730.9728 310.2264
C 730.9728 308.903143 731.819439 307.633904 733.326256 306.69822
C 734.833072 305.762536 736.87704 305.2368 739.008 305.2368
z
" clip-path="url(#p8c755e3773)" style="fill: #ce3b36"/>
   </g>
   <g id="patch_64">
    <path d="M 122.3064 453.17844
L 712.8936 453.17844
Q 725.74992 453.17844 725.74992 461.1618
L 725.74992 483.615
Q 725.74992 491.59836 712.8936 491.59836
L 122.3064 491.59836
Q 109.45008 491.59836 109.45008 483.615
L 109.45008 461.1618
Q 109.45008 453.17844 122.3064 453.17844
z
" clip-path="url(#p8c755e3773)" style="fill: #fff0ef; stroke: #efa19d; stroke-width: 1.1; stroke-linejoin: miter"/>
   </g>
   <g id="line2d_1">
    <path d="M 47.9808 90.684
L 787.2192 90.684
" clip-path="url(#p8c755e3773)" style="fill: none; stroke: #d9e3ec; stroke-linecap: square"/>
   </g>
   <g id="line2d_2">
    <path d="M 297.072 215.424
L 297.072 340.164
" clip-path="url(#p8c755e3773)" style="fill: none; stroke-dasharray: 6.66,2.88; stroke-dashoffset: 0; stroke: #0b70e0; stroke-width: 1.8"/>
   </g>
   <g id="line2d_3">
    <path d="M 606.4272 215.424
L 606.4272 340.164
" clip-path="url(#p8c755e3773)" style="fill: none; stroke-dasharray: 6.66,2.88; stroke-dashoffset: 0; stroke: #7657e8; stroke-width: 1.8"/>
   </g>
   <g id="text_1">
    <text style="font-weight: 700; font-size: 24px; font-family: 'DejaVu Sans'; text-anchor: start; fill: #182431" x="47.9808" y="54.13965" transform="rotate(-0 47.9808 54.13965)">Случайное или стратифицированное разделение</text>
   </g>
   <g id="text_2">
    <text style="font-size: 11px; font-family: 'DejaVu Sans'; text-anchor: start; fill: #5d6b78" x="47.9808" y="74.281625" transform="rotate(-0 47.9808 74.281625)">Оба варианта подходят только для независимых строк из одного источника.</text>
   </g>
   <g id="text_3">
    <text style="font-weight: 700; font-size: 11.5px; font-family: 'DejaVu Sans'; text-anchor: middle; fill: #0b70e0" x="228.7728" y="159.297403" transform="rotate(-0 228.7728 159.297403)">СЛУЧАЙНОЕ</text>
   </g>
   <g id="text_4">
    <text style="font-size: 10px; font-family: 'DejaVu Sans'; text-anchor: middle; fill: #5d6b78" x="228.7728" y="188.26555" transform="rotate(-0 228.7728 188.26555)">объекты перемешиваются</text>
   </g>
   <g id="text_5">
    <text style="font-weight: 700; font-size: 9.5px; font-family: 'DejaVu Sans'; text-anchor: middle; fill: #0b70e0" x="168.5088" y="372.64075" transform="rotate(-0 168.5088 372.64075)">обучение</text>
   </g>
   <g id="text_6">
    <text style="font-weight: 700; font-size: 9.5px; font-family: 'DejaVu Sans'; text-anchor: middle; fill: #7657e8" x="337.248" y="372.330516" transform="rotate(-0 337.248 372.330516)">проверка</text>
   </g>
   <g id="text_7">
    <text style="font-weight: 700; font-size: 9.5px; font-family: 'DejaVu Sans'; text-anchor: middle; fill: #ce3b36" x="228.7728" y="407.299278" transform="rotate(-0 228.7728 407.299278)">Доли могут случайно отличаться</text>
   </g>
   <g id="text_8">
    <text style="font-weight: 700; font-size: 11.5px; font-family: 'DejaVu Sans'; text-anchor: middle; fill: #7657e8" x="606.4272" y="159.297403" transform="rotate(-0 606.4272 159.297403)">СТРАТИФИЦИРОВАННОЕ</text>
   </g>
   <g id="text_9">
    <text style="font-size: 10px; font-family: 'DejaVu Sans'; text-anchor: middle; fill: #5d6b78" x="606.4272" y="188.095237" transform="rotate(-0 606.4272 188.095237)">доли классов сохраняются</text>
   </g>
   <g id="text_10">
    <text style="font-weight: 700; font-size: 9.5px; font-family: 'DejaVu Sans'; text-anchor: middle; fill: #0b70e0" x="522.0576" y="372.64075" transform="rotate(-0 522.0576 372.64075)">обучение</text>
   </g>
   <g id="text_11">
    <text style="font-weight: 700; font-size: 9.5px; font-family: 'DejaVu Sans'; text-anchor: middle; fill: #7657e8" x="690.7968" y="372.330516" transform="rotate(-0 690.7968 372.330516)">проверка</text>
   </g>
   <g id="text_12">
    <text style="font-weight: 700; font-size: 9.5px; font-family: 'DejaVu Sans'; text-anchor: middle; fill: #7657e8" x="606.4272" y="407.56795" transform="rotate(-0 606.4272 407.56795)">В обеих частях: 20% красных</text>
   </g>
   <g id="text_13">
    <text style="font-weight: 700; font-size: 10.5px; font-family: 'DejaVu Sans'; text-anchor: middle; fill: #ce3b36" x="417.6" y="475.203713" transform="rotate(-0 417.6 475.203713)">Если строки связаны пациентом, источником или временем — нужна другая граница.</text>
   </g>
  </g>
 </g>
 <defs>
  <clipPath id="p8c755e3773">
   <rect x="15.84" y="15.84" width="803.52" height="498.96"/>
  </clipPath>
 </defs>
</svg>
