<?xml version="1.0" encoding="utf-8" standalone="no"?>
<!DOCTYPE svg PUBLIC "-//W3C//DTD SVG 1.1//EN"
  "http://www.w3.org/Graphics/SVG/1.1/DTD/svg11.dtd">
<svg xmlns:xlink="http://www.w3.org/1999/xlink" width="835.2pt" height="530.64pt" viewBox="0 0 835.2 530.64" xmlns="http://www.w3.org/2000/svg" version="1.1">
 <metadata>
  <rdf:RDF xmlns:dc="http://purl.org/dc/elements/1.1/" xmlns:cc="http://creativecommons.org/ns#" xmlns:rdf="http://www.w3.org/1999/02/22-rdf-syntax-ns#">
   <cc:Work>
    <dc:type rdf:resource="http://purl.org/dc/dcmitype/StillImage"/>
    <dc:format>image/svg+xml</dc:format>
    <dc:creator>
     <cc:Agent>
      <dc:title>Matplotlib v3.10.8, https://matplotlib.org/</dc:title>
     </cc:Agent>
    </dc:creator>
   </cc:Work>
  </rdf:RDF>
 </metadata>
 <defs>
  <style type="text/css">*{stroke-linejoin: round; stroke-linecap: butt}</style>
 </defs>
 <g id="figure_1">
  <g id="patch_1">
   <path d="M 0 530.64
L 835.2 530.64
L 835.2 0
L 0 0
z
" style="fill: #ffffff"/>
  </g>
  <g id="axes_1">
   <g id="patch_2">
    <path d="M 58.0248 123.86484
L 391.4856 123.86484
Q 404.34192 123.86484 404.34192 131.8482
L 404.34192 423.7398
Q 404.34192 431.72316 391.4856 431.72316
L 58.0248 431.72316
Q 45.16848 431.72316 45.16848 423.7398
L 45.16848 131.8482
Q 45.16848 123.86484 58.0248 123.86484
z
" clip-path="url(#p8c755e3773)" style="fill: #eaf4ff; stroke: #0b70e0; stroke-width: 1.1; stroke-linejoin: miter"/>
   </g>
   <g id="patch_3">
    <path d="M 84.54096 138.83364
L 172.12464 138.83364
Q 179.35632 138.83364 179.35632 143.32428
L 179.35632 164.2806
Q 179.35632 168.77124 172.12464 168.77124
L 84.54096 168.77124
Q 77.30928 168.77124 77.30928 164.2806
L 77.30928 143.32428
Q 77.30928 138.83364 84.54096 138.83364
z
" clip-path="url(#p8c755e3773)" style="fill: #0b70e0; stroke: #0b70e0; stroke-width: 1.1; stroke-linejoin: miter"/>
   </g>
   <g id="PathCollection_1">
    <defs>
     <path id="m87cb5b7caf" d="M 0 4.472136
C 1.186024 4.472136 2.323632 4.000923 3.162278 3.162278
C 4.000923 2.323632 4.472136 1.186024 4.472136 0
C 4.472136 -1.186024 4.000923 -2.323632 3.162278 -3.162278
C 2.323632 -4.000923 1.186024 -4.472136 0 -4.472136
C -1.186024 -4.472136 -2.323632 -4.000923 -3.162278 -3.162278
C -4.000923 -2.323632 -4.472136 -1.186024 -4.472136 0
C -4.472136 1.186024 -4.000923 2.323632 -3.162278 3.162278
C -2.323632 4.000923 -1.186024 4.472136 0 4.472136
z
" style="stroke: #ffffff; stroke-width: 1.2"/>
    </defs>
    <g clip-path="url(#p8c755e3773)">
     <use xlink:href="#m87cb5b7caf" x="119.976192" y="250.3512" style="fill: #0b70e0; stroke: #ffffff; stroke-width: 1.2"/>
    </g>
   </g>
   <g id="PathCollection_2">
    <g clip-path="url(#p8c755e3773)">
     <use xlink:href="#m87cb5b7caf" x="178.311744" y="250.3512" style="fill: #0b70e0; stroke: #ffffff; stroke-width: 1.2"/>
    </g>
   </g>
   <g id="PathCollection_3">
    <g clip-path="url(#p8c755e3773)">
     <use xlink:href="#m87cb5b7caf" x="236.647296" y="250.3512" style="fill: #0b70e0; stroke: #ffffff; stroke-width: 1.2"/>
    </g>
   </g>
   <g id="PathCollection_4">
    <g clip-path="url(#p8c755e3773)">
     <use xlink:href="#m87cb5b7caf" x="279.073152" y="250.3512" style="fill: #0b70e0; stroke: #ffffff; stroke-width: 1.2"/>
    </g>
   </g>
   <g id="PathCollection_5">
    <g clip-path="url(#p8c755e3773)">
     <use xlink:href="#m87cb5b7caf" x="318.847392" y="250.3512" style="fill: #0b70e0; stroke: #ffffff; stroke-width: 1.2"/>
    </g>
   </g>
   <g id="patch_4">
    <path d="M 443.7144 123.86484
L 777.1752 123.86484
Q 790.03152 123.86484 790.03152 131.8482
L 790.03152 423.7398
Q 790.03152 431.72316 777.1752 431.72316
L 443.7144 431.72316
Q 430.85808 431.72316 430.85808 423.7398
L 430.85808 131.8482
Q 430.85808 123.86484 443.7144 123.86484
z
" clip-path="url(#p8c755e3773)" style="fill: #f0ecff; stroke: #7657e8; stroke-width: 1.1; stroke-linejoin: miter"/>
   </g>
   <g id="patch_5">
    <path d="M 470.23056 138.83364
L 597.99024 138.83364
Q 605.22192 138.83364 605.22192 143.32428
L 605.22192 164.2806
Q 605.22192 168.77124 597.99024 168.77124
L 470.23056 168.77124
Q 462.99888 168.77124 462.99888 164.2806
L 462.99888 143.32428
Q 462.99888 138.83364 470.23056 138.83364
z
" clip-path="url(#p8c755e3773)" style="fill: #7657e8; stroke: #7657e8; stroke-width: 1.1; stroke-linejoin: miter"/>
   </g>
   <g id="PathCollection_6">
    <defs>
     <path id="m78f30f60fd" d="M 0 3.708099
C 0.983399 3.708099 1.926654 3.317391 2.622022 2.622022
C 3.317391 1.926654 3.708099 0.983399 3.708099 0
C 3.708099 -0.983399 3.317391 -1.926654 2.622022 -2.622022
C 1.926654 -3.317391 0.983399 -3.708099 0 -3.708099
C -0.983399 -3.708099 -1.926654 -3.317391 -2.622022 -2.622022
C -3.317391 -1.926654 -3.708099 -0.983399 -3.708099 0
C -3.708099 0.983399 -3.317391 1.926654 -2.622022 2.622022
C -1.926654 3.317391 -0.983399 3.708099 0 3.708099
z
" style="stroke: #138a57"/>
    </defs>
    <g clip-path="url(#p8c755e3773)">
     <use xlink:href="#m78f30f60fd" x="522.86112" y="351.540288" style="fill: #138a57; stroke: #138a57"/>
    </g>
   </g>
   <g id="PathCollection_7">
    <g clip-path="url(#p8c755e3773)">
     <use xlink:href="#m78f30f60fd" x="572.67936" y="326.791872" style="fill: #138a57; stroke: #138a57"/>
    </g>
   </g>
   <g id="PathCollection_8">
    <g clip-path="url(#p8c755e3773)">
     <use xlink:href="#m78f30f60fd" x="622.4976" y="289.669248" style="fill: #138a57; stroke: #138a57"/>
    </g>
   </g>
   <g id="PathCollection_9">
    <g clip-path="url(#p8c755e3773)">
     <use xlink:href="#m78f30f60fd" x="672.31584" y="263.374056" style="fill: #138a57; stroke: #138a57"/>
    </g>
   </g>
   <g id="PathCollection_10">
    <g clip-path="url(#p8c755e3773)">
     <use xlink:href="#m78f30f60fd" x="722.13408" y="233.985312" style="fill: #138a57; stroke: #138a57"/>
    </g>
   </g>
   <g id="PathCollection_11">
    <defs>
     <path id="mfeecf15a59" d="M -3.708099 3.708099
L 3.708099 -3.708099
M -3.708099 -3.708099
L 3.708099 3.708099
" style="stroke: #ce3b36; stroke-width: 2"/>
    </defs>
    <g clip-path="url(#p8c755e3773)">
     <use xlink:href="#mfeecf15a59" x="522.86112" y="360.820944" style="fill: #ce3b36; stroke: #ce3b36; stroke-width: 2"/>
    </g>
   </g>
   <g id="PathCollection_12">
    <g clip-path="url(#p8c755e3773)">
     <use xlink:href="#mfeecf15a59" x="572.67936" y="348.446736" style="fill: #ce3b36; stroke: #ce3b36; stroke-width: 2"/>
    </g>
   </g>
   <g id="PathCollection_13">
    <g clip-path="url(#p8c755e3773)">
     <use xlink:href="#mfeecf15a59" x="622.4976" y="320.604768" style="fill: #ce3b36; stroke: #ce3b36; stroke-width: 2"/>
    </g>
   </g>
   <g id="PathCollection_14">
    <g clip-path="url(#p8c755e3773)">
     <use xlink:href="#mfeecf15a59" x="672.31584" y="298.949904" style="fill: #ce3b36; stroke: #ce3b36; stroke-width: 2"/>
    </g>
   </g>
   <g id="PathCollection_15">
    <g clip-path="url(#p8c755e3773)">
     <use xlink:href="#mfeecf15a59" x="722.13408" y="274.201488" style="fill: #ce3b36; stroke: #ce3b36; stroke-width: 2"/>
    </g>
   </g>
   <g id="patch_6">
    <path d="M 146.412 448.18884
L 688.788 448.18884
Q 701.64432 448.18884 701.64432 456.1722
L 701.64432 483.615
Q 701.64432 491.59836 688.788 491.59836
L 146.412 491.59836
Q 133.55568 491.59836 133.55568 483.615
L 133.55568 456.1722
Q 133.55568 448.18884 146.412 448.18884
z
" clip-path="url(#p8c755e3773)" style="fill: #e8f7ef; stroke: #8bd0aa; stroke-width: 1.1; stroke-linejoin: miter"/>
   </g>
   <g id="line2d_1">
    <path d="M 47.9808 90.684
L 787.2192 90.684
" clip-path="url(#p8c755e3773)" style="fill: none; stroke: #d9e3ec; stroke-linecap: square"/>
   </g>
   <g id="line2d_2">
    <path d="M 88.1568 250.3512
L 353.3184 250.3512
" clip-path="url(#p8c755e3773)" style="fill: none; stroke: #182431; stroke-width: 2; stroke-linecap: square"/>
   </g>
   <g id="line2d_3">
    <path d="M 220.7376 210.4344
L 220.7376 305.2368
" clip-path="url(#p8c755e3773)" style="fill: none; stroke-dasharray: 7.4,3.2; stroke-dashoffset: 0; stroke: #7657e8; stroke-width: 2"/>
   </g>
   <g id="line2d_4">
    <path d="M 300.28608 210.4344
L 300.28608 360.1224
" clip-path="url(#p8c755e3773)" style="fill: none; stroke-dasharray: 7.4,3.2; stroke-dashoffset: 0; stroke: #ce3b36; stroke-width: 2"/>
   </g>
   <g id="line2d_5">
    <path d="M 497.952 205.4448
L 497.952 370.1016
" clip-path="url(#p8c755e3773)" style="fill: none; stroke: #182431; stroke-width: 1.2; stroke-linecap: square"/>
   </g>
   <g id="line2d_6">
    <path d="M 497.952 370.1016
L 747.0432 370.1016
" clip-path="url(#p8c755e3773)" style="fill: none; stroke: #182431; stroke-width: 1.2; stroke-linecap: square"/>
   </g>
   <g id="line2d_7">
    <path d="M 497.952 370.1016
L 747.0432 215.424
" clip-path="url(#p8c755e3773)" style="fill: none; stroke-dasharray: 5.55,2.4; stroke-dashoffset: 0; stroke: #5d6b78; stroke-width: 1.5"/>
   </g>
   <g id="text_1">
    <text style="font-weight: 700; font-size: 24px; font-family: 'DejaVu Sans'; text-anchor: start; fill: #182431" x="47.9808" y="54.8184" transform="rotate(-0 47.9808 54.8184)">Порог и калибровка вероятностей</text>
   </g>
   <g id="text_2">
    <text style="font-size: 11px; font-family: 'DejaVu Sans'; text-anchor: start; fill: #5d6b78" x="47.9808" y="74.281625" transform="rotate(-0 47.9808 74.281625)">Порог меняет решение; калибровка сравнивает вероятность с частотой.</text>
   </g>
   <g id="text_3">
    <text style="font-weight: 700; font-size: 10.2px; font-family: 'DejaVu Sans'; text-anchor: middle; fill: #ffffff" x="128.3328" y="156.617003" transform="rotate(-0 128.3328 156.617003)">ПОРОГ</text>
   </g>
   <g id="text_4">
    <text style="font-size: 8.5px; font-family: 'DejaVu Sans'; text-anchor: middle; fill: #182431" x="119.976192" y="276.768272" transform="rotate(-0 119.976192 276.768272)">0,12</text>
   </g>
   <g id="text_5">
    <text style="font-size: 8.5px; font-family: 'DejaVu Sans'; text-anchor: middle; fill: #182431" x="178.311744" y="276.768272" transform="rotate(-0 178.311744 276.768272)">0,34</text>
   </g>
   <g id="text_6">
    <text style="font-size: 8.5px; font-family: 'DejaVu Sans'; text-anchor: middle; fill: #182431" x="236.647296" y="276.768272" transform="rotate(-0 236.647296 276.768272)">0,56</text>
   </g>
   <g id="text_7">
    <text style="font-size: 8.5px; font-family: 'DejaVu Sans'; text-anchor: middle; fill: #182431" x="279.073152" y="276.768272" transform="rotate(-0 279.073152 276.768272)">0,72</text>
   </g>
   <g id="text_8">
    <text style="font-size: 8.5px; font-family: 'DejaVu Sans'; text-anchor: middle; fill: #182431" x="318.847392" y="276.768272" transform="rotate(-0 318.847392 276.768272)">0,87</text>
   </g>
   <g id="text_9">
    <text style="font-weight: 700; font-size: 10px; font-family: 'DejaVu Sans'; text-anchor: middle; fill: #7657e8" x="220.7376" y="327.804038" transform="rotate(-0 220.7376 327.804038)">порог 0,5</text>
   </g>
   <g id="text_10">
    <text style="font-weight: 700; font-size: 10px; font-family: 'DejaVu Sans'; text-anchor: middle; fill: #ce3b36" x="300.28608" y="382.689638" transform="rotate(-0 300.28608 382.689638)">порог 0,8</text>
   </g>
   <g id="text_11">
    <text style="font-size: 9.5px; font-family: 'DejaVu Sans'; fill: #5d6b78" transform="translate(148.391528 407.320845)">выше порог → меньше тревог,</text>
    <text style="font-size: 9.5px; font-family: 'DejaVu Sans'; fill: #5d6b78" transform="translate(160.320708 417.958767)">но больше возможных FN</text>
   </g>
   <g id="text_12">
    <text style="font-weight: 700; font-size: 10.2px; font-family: 'DejaVu Sans'; text-anchor: middle; fill: #ffffff" x="534.1104" y="156.617003" transform="rotate(-0 534.1104 156.617003)">КАЛИБРОВКА</text>
   </g>
   <g id="text_13">
    <text style="font-size: 9px; font-family: 'DejaVu Sans'; text-anchor: middle; fill: #182431" x="622.4976" y="396.898594" transform="rotate(-0 622.4976 396.898594)">предсказанная вероятность</text>
   </g>
   <g id="text_14">
    <text style="font-size: 8.5px; font-family: 'DejaVu Sans'; fill: #182431" transform="translate(426.952211 287.854398)">наблюдаемая</text>
    <text style="font-size: 8.5px; font-family: 'DejaVu Sans'; fill: #182431" transform="translate(440.167719 297.372539)">частота</text>
   </g>
   <g id="text_15">
    <text style="font-size: 9.5px; font-family: 'DejaVu Sans'; text-anchor: middle; fill: #182431" x="610.4448" y="192.704916" transform="rotate(-0 610.4448 192.704916)">● хорошо   × плохо</text>
   </g>
   <g id="text_16">
    <text style="font-weight: 700; font-size: 10.5px; font-family: 'DejaVu Sans'; text-anchor: middle; fill: #138a57" x="417.6" y="472.962389" transform="rotate(-0 417.6 472.962389)">Прогноз около 0,8 → примерно 80% исходов среди сопоставимых объектов.</text>
   </g>
  </g>
 </g>
 <defs>
  <clipPath id="p8c755e3773">
   <rect x="15.84" y="15.84" width="803.52" height="498.96"/>
  </clipPath>
 </defs>
</svg>
