<?xml version="1.0" encoding="utf-8" standalone="no"?>
<!DOCTYPE svg PUBLIC "-//W3C//DTD SVG 1.1//EN"
  "http://www.w3.org/Graphics/SVG/1.1/DTD/svg11.dtd">
<svg xmlns:xlink="http://www.w3.org/1999/xlink" width="835.2pt" height="530.64pt" viewBox="0 0 835.2 530.64" xmlns="http://www.w3.org/2000/svg" version="1.1">
 <metadata>
  <rdf:RDF xmlns:dc="http://purl.org/dc/elements/1.1/" xmlns:cc="http://creativecommons.org/ns#" xmlns:rdf="http://www.w3.org/1999/02/22-rdf-syntax-ns#">
   <cc:Work>
    <dc:type rdf:resource="http://purl.org/dc/dcmitype/StillImage"/>
    <dc:format>image/svg+xml</dc:format>
    <dc:creator>
     <cc:Agent>
      <dc:title>Matplotlib v3.10.8, https://matplotlib.org/</dc:title>
     </cc:Agent>
    </dc:creator>
   </cc:Work>
  </rdf:RDF>
 </metadata>
 <defs>
  <style type="text/css">*{stroke-linejoin: round; stroke-linecap: butt}</style>
 </defs>
 <g id="figure_1">
  <g id="patch_1">
   <path d="M 0 530.64
L 835.2 530.64
L 835.2 0
L 0 0
z
" style="fill: #ffffff"/>
  </g>
  <g id="axes_1">
   <g id="patch_2">
    <path d="M 66.06 123.86484
L 391.4856 123.86484
Q 404.34192 123.86484 404.34192 131.8482
L 404.34192 423.7398
Q 404.34192 431.72316 391.4856 431.72316
L 66.06 431.72316
Q 53.20368 431.72316 53.20368 423.7398
L 53.20368 131.8482
Q 53.20368 123.86484 66.06 123.86484
z
" clip-path="url(#p8c755e3773)" style="fill: #ffffff; stroke: #0b70e0; stroke-width: 1.1; stroke-linejoin: miter"/>
   </g>
   <g id="patch_3">
    <path d="M 443.7144 123.86484
L 769.14 123.86484
Q 781.99632 123.86484 781.99632 131.8482
L 781.99632 423.7398
Q 781.99632 431.72316 769.14 431.72316
L 443.7144 431.72316
Q 430.85808 431.72316 430.85808 423.7398
L 430.85808 131.8482
Q 430.85808 123.86484 443.7144 123.86484
z
" clip-path="url(#p8c755e3773)" style="fill: #ffffff; stroke: #ce3b36; stroke-width: 1.1; stroke-linejoin: miter"/>
   </g>
   <g id="patch_4">
    <path d="M 146.412 453.17844
L 688.788 453.17844
Q 701.64432 453.17844 701.64432 461.1618
L 701.64432 483.615
Q 701.64432 491.59836 688.788 491.59836
L 146.412 491.59836
Q 133.55568 491.59836 133.55568 483.615
L 133.55568 461.1618
Q 133.55568 453.17844 146.412 453.17844
z
" clip-path="url(#p8c755e3773)" style="fill: #e8f7ef; stroke: #8bd0aa; stroke-width: 1.1; stroke-linejoin: miter"/>
   </g>
   <g id="line2d_1">
    <path d="M 47.9808 90.684
L 787.2192 90.684
" clip-path="url(#p8c755e3773)" style="fill: none; stroke: #d9e3ec; stroke-linecap: square"/>
   </g>
   <g id="line2d_2">
    <path d="M 112.2624 195.4656
L 112.2624 365.112
" clip-path="url(#p8c755e3773)" style="fill: none; stroke: #182431; stroke-width: 1.1; stroke-linecap: square"/>
   </g>
   <g id="line2d_3">
    <path d="M 112.2624 365.112
L 353.3184 365.112
" clip-path="url(#p8c755e3773)" style="fill: none; stroke: #182431; stroke-width: 1.1; stroke-linecap: square"/>
   </g>
   <g id="line2d_4">
    <path d="M 128.3328 250.3512
L 176.544 245.3616
L 232.7904 240.372
L 289.0368 235.3824
L 345.2832 235.3824
" clip-path="url(#p8c755e3773)" style="fill: none; stroke: #0b70e0; stroke-width: 2.2; stroke-linecap: square"/>
    <defs>
     <path id="md1881c84a1" d="M 0 3
C 0.795609 3 1.55874 2.683901 2.12132 2.12132
C 2.683901 1.55874 3 0.795609 3 0
C 3 -0.795609 2.683901 -1.55874 2.12132 -2.12132
C 1.55874 -2.683901 0.795609 -3 0 -3
C -0.795609 -3 -1.55874 -2.683901 -2.12132 -2.12132
C -2.683901 -1.55874 -3 -0.795609 -3 0
C -3 0.795609 -2.683901 1.55874 -2.12132 2.12132
C -1.55874 2.683901 -0.795609 3 0 3
z
" style="stroke: #0b70e0"/>
    </defs>
    <g clip-path="url(#p8c755e3773)">
     <use xlink:href="#md1881c84a1" x="128.3328" y="250.3512" style="fill: #0b70e0; stroke: #0b70e0"/>
     <use xlink:href="#md1881c84a1" x="176.544" y="245.3616" style="fill: #0b70e0; stroke: #0b70e0"/>
     <use xlink:href="#md1881c84a1" x="232.7904" y="240.372" style="fill: #0b70e0; stroke: #0b70e0"/>
     <use xlink:href="#md1881c84a1" x="289.0368" y="235.3824" style="fill: #0b70e0; stroke: #0b70e0"/>
     <use xlink:href="#md1881c84a1" x="345.2832" y="235.3824" style="fill: #0b70e0; stroke: #0b70e0"/>
    </g>
   </g>
   <g id="line2d_5">
    <path d="M 128.3328 295.2576
L 176.544 270.3096
L 232.7904 255.3408
L 289.0368 245.3616
L 345.2832 240.372
" clip-path="url(#p8c755e3773)" style="fill: none; stroke: #ce3b36; stroke-width: 2.2; stroke-linecap: square"/>
    <defs>
     <path id="m281140b234" d="M -3 3
L 3 3
L 3 -3
L -3 -3
z
" style="stroke: #ce3b36; stroke-linejoin: miter"/>
    </defs>
    <g clip-path="url(#p8c755e3773)">
     <use xlink:href="#m281140b234" x="128.3328" y="295.2576" style="fill: #ce3b36; stroke: #ce3b36; stroke-linejoin: miter"/>
     <use xlink:href="#m281140b234" x="176.544" y="270.3096" style="fill: #ce3b36; stroke: #ce3b36; stroke-linejoin: miter"/>
     <use xlink:href="#m281140b234" x="232.7904" y="255.3408" style="fill: #ce3b36; stroke: #ce3b36; stroke-linejoin: miter"/>
     <use xlink:href="#m281140b234" x="289.0368" y="245.3616" style="fill: #ce3b36; stroke: #ce3b36; stroke-linejoin: miter"/>
     <use xlink:href="#m281140b234" x="345.2832" y="240.372" style="fill: #ce3b36; stroke: #ce3b36; stroke-linejoin: miter"/>
    </g>
   </g>
   <g id="line2d_6">
    <path d="M 489.9168 195.4656
L 489.9168 365.112
" clip-path="url(#p8c755e3773)" style="fill: none; stroke: #182431; stroke-width: 1.1; stroke-linecap: square"/>
   </g>
   <g id="line2d_7">
    <path d="M 489.9168 365.112
L 730.9728 365.112
" clip-path="url(#p8c755e3773)" style="fill: none; stroke: #182431; stroke-width: 1.1; stroke-linecap: square"/>
   </g>
   <g id="line2d_8">
    <path d="M 505.9872 165.528
L 554.1984 175.5072
L 610.4448 185.4864
L 666.6912 190.476
L 722.9376 195.4656
" clip-path="url(#p8c755e3773)" style="fill: none; stroke: #0b70e0; stroke-width: 2.2; stroke-linecap: square"/>
    <g clip-path="url(#p8c755e3773)">
     <use xlink:href="#md1881c84a1" x="505.9872" y="165.528" style="fill: #0b70e0; stroke: #0b70e0"/>
     <use xlink:href="#md1881c84a1" x="554.1984" y="175.5072" style="fill: #0b70e0; stroke: #0b70e0"/>
     <use xlink:href="#md1881c84a1" x="610.4448" y="185.4864" style="fill: #0b70e0; stroke: #0b70e0"/>
     <use xlink:href="#md1881c84a1" x="666.6912" y="190.476" style="fill: #0b70e0; stroke: #0b70e0"/>
     <use xlink:href="#md1881c84a1" x="722.9376" y="195.4656" style="fill: #0b70e0; stroke: #0b70e0"/>
    </g>
   </g>
   <g id="line2d_9">
    <path d="M 505.9872 365.112
L 554.1984 325.1952
L 610.4448 295.2576
L 666.6912 270.3096
L 722.9376 255.3408
" clip-path="url(#p8c755e3773)" style="fill: none; stroke: #ce3b36; stroke-width: 2.2; stroke-linecap: square"/>
    <g clip-path="url(#p8c755e3773)">
     <use xlink:href="#m281140b234" x="505.9872" y="365.112" style="fill: #ce3b36; stroke: #ce3b36; stroke-linejoin: miter"/>
     <use xlink:href="#m281140b234" x="554.1984" y="325.1952" style="fill: #ce3b36; stroke: #ce3b36; stroke-linejoin: miter"/>
     <use xlink:href="#m281140b234" x="610.4448" y="295.2576" style="fill: #ce3b36; stroke: #ce3b36; stroke-linejoin: miter"/>
     <use xlink:href="#m281140b234" x="666.6912" y="270.3096" style="fill: #ce3b36; stroke: #ce3b36; stroke-linejoin: miter"/>
     <use xlink:href="#m281140b234" x="722.9376" y="255.3408" style="fill: #ce3b36; stroke: #ce3b36; stroke-linejoin: miter"/>
    </g>
   </g>
   <g id="text_1">
    <text style="font-weight: 700; font-size: 24px; font-family: 'DejaVu Sans'; text-anchor: start; fill: #182431" x="47.9808" y="54.8184" transform="rotate(-0 47.9808 54.8184)">Кривые обучения: помогает ли больше данных?</text>
   </g>
   <g id="text_2">
    <text style="font-size: 11px; font-family: 'DejaVu Sans'; text-anchor: start; fill: #5d6b78" x="47.9808" y="74.281625" transform="rotate(-0 47.9808 74.281625)">По горизонтали растёт число обучающих объектов.</text>
   </g>
   <g id="text_3">
    <text style="font-weight: 700; font-size: 11px; font-family: 'DejaVu Sans'; text-anchor: middle; fill: #0b70e0" x="228.7728" y="158.917481" transform="rotate(-0 228.7728 158.917481)">НЕДООБУЧЕНИЕ</text>
   </g>
   <g id="text_4">
    <text style="font-weight: 700; font-size: 8.7px; font-family: 'DejaVu Sans'; text-anchor: start; fill: #0b70e0" x="152.4384" y="222.31875" transform="rotate(-0 152.4384 222.31875)">обучение</text>
   </g>
   <g id="text_5">
    <text style="font-weight: 700; font-size: 8.7px; font-family: 'DejaVu Sans'; text-anchor: start; fill: #ce3b36" x="272.9664" y="336.795441" transform="rotate(-0 272.9664 336.795441)">проверка</text>
   </g>
   <g id="text_6">
    <text style="font-weight: 700; font-size: 8.8px; font-family: 'DejaVu Sans'; text-anchor: middle; fill: #0b70e0" x="228.7728" y="402.0236" transform="rotate(-0 228.7728 402.0236)">обе метрики остаются плохими</text>
   </g>
   <g id="text_7">
    <text style="font-weight: 700; font-size: 11px; font-family: 'DejaVu Sans'; text-anchor: middle; fill: #ce3b36" x="606.4272" y="158.917481" transform="rotate(-0 606.4272 158.917481)">ПЕРЕОБУЧЕНИЕ</text>
   </g>
   <g id="text_8">
    <text style="font-weight: 700; font-size: 8.7px; font-family: 'DejaVu Sans'; text-anchor: start; fill: #0b70e0" x="530.0928" y="222.31875" transform="rotate(-0 530.0928 222.31875)">обучение</text>
   </g>
   <g id="text_9">
    <text style="font-weight: 700; font-size: 8.7px; font-family: 'DejaVu Sans'; text-anchor: start; fill: #ce3b36" x="650.6208" y="336.795441" transform="rotate(-0 650.6208 336.795441)">проверка</text>
   </g>
   <g id="text_10">
    <text style="font-weight: 700; font-size: 8.8px; font-family: 'DejaVu Sans'; text-anchor: middle; fill: #ce3b36" x="606.4272" y="401.859975" transform="rotate(-0 606.4272 401.859975)">разрыв уменьшается, но остаётся</text>
   </g>
   <g id="text_11">
    <text style="font-weight: 700; font-size: 9.7px; font-family: 'DejaVu Sans'; text-anchor: middle; fill: #138a57" x="417.6" y="475.185486" transform="rotate(-0 417.6 475.185486)">Большой разрыв часто уменьшается с данными; две плохие близкие кривые требуют другой модели или признаков.</text>
   </g>
  </g>
 </g>
 <defs>
  <clipPath id="p8c755e3773">
   <rect x="15.84" y="15.84" width="803.52" height="498.96"/>
  </clipPath>
 </defs>
</svg>
