<?xml version="1.0" encoding="utf-8" standalone="no"?>
<!DOCTYPE svg PUBLIC "-//W3C//DTD SVG 1.1//EN"
  "http://www.w3.org/Graphics/SVG/1.1/DTD/svg11.dtd">
<svg xmlns:xlink="http://www.w3.org/1999/xlink" width="835.2pt" height="530.64pt" viewBox="0 0 835.2 530.64" xmlns="http://www.w3.org/2000/svg" version="1.1">
 <metadata>
  <rdf:RDF xmlns:dc="http://purl.org/dc/elements/1.1/" xmlns:cc="http://creativecommons.org/ns#" xmlns:rdf="http://www.w3.org/1999/02/22-rdf-syntax-ns#">
   <cc:Work>
    <dc:type rdf:resource="http://purl.org/dc/dcmitype/StillImage"/>
    <dc:format>image/svg+xml</dc:format>
    <dc:creator>
     <cc:Agent>
      <dc:title>Matplotlib v3.10.8, https://matplotlib.org/</dc:title>
     </cc:Agent>
    </dc:creator>
   </cc:Work>
  </rdf:RDF>
 </metadata>
 <defs>
  <style type="text/css">*{stroke-linejoin: round; stroke-linecap: butt}</style>
 </defs>
 <g id="figure_1">
  <g id="patch_1">
   <path d="M 0 530.64
L 835.2 530.64
L 835.2 0
L 0 0
z
" style="fill: #ffffff"/>
  </g>
  <g id="axes_1">
   <g id="patch_2">
    <path d="M 98.2008 113.88564
L 736.9992 113.88564
Q 749.85552 113.88564 749.85552 121.869
L 749.85552 433.719
Q 749.85552 441.70236 736.9992 441.70236
L 98.2008 441.70236
Q 85.34448 441.70236 85.34448 433.719
L 85.34448 121.869
Q 85.34448 113.88564 98.2008 113.88564
z
" clip-path="url(#p8c755e3773)" style="fill: #f0ecff; stroke: #7657e8; stroke-width: 1.1; stroke-linejoin: miter"/>
   </g>
   <g id="PathCollection_1">
    <defs>
     <path id="m0a72bb3d47" d="M 0 4.1833
C 1.109424 4.1833 2.173559 3.742521 2.95804 2.95804
C 3.742521 2.173559 4.1833 1.109424 4.1833 0
C 4.1833 -1.109424 3.742521 -2.173559 2.95804 -2.95804
C 2.173559 -3.742521 1.109424 -4.1833 0 -4.1833
C -1.109424 -4.1833 -2.173559 -3.742521 -2.95804 -2.95804
C -3.742521 -2.173559 -4.1833 -1.109424 -4.1833 0
C -4.1833 1.109424 -3.742521 2.173559 -2.95804 2.95804
C -2.173559 3.742521 -1.109424 4.1833 0 4.1833
z
" style="stroke: #138a57"/>
    </defs>
    <g clip-path="url(#p8c755e3773)">
     <use xlink:href="#m0a72bb3d47" x="244.8432" y="355.531968" style="fill: #138a57; stroke: #138a57"/>
    </g>
   </g>
   <g id="PathCollection_2">
    <g clip-path="url(#p8c755e3773)">
     <use xlink:href="#m0a72bb3d47" x="333.2304" y="322.800192" style="fill: #138a57; stroke: #138a57"/>
    </g>
   </g>
   <g id="PathCollection_3">
    <g clip-path="url(#p8c755e3773)">
     <use xlink:href="#m0a72bb3d47" x="421.6176" y="273.702528" style="fill: #138a57; stroke: #138a57"/>
    </g>
   </g>
   <g id="PathCollection_4">
    <g clip-path="url(#p8c755e3773)">
     <use xlink:href="#m0a72bb3d47" x="510.0048" y="238.925016" style="fill: #138a57; stroke: #138a57"/>
    </g>
   </g>
   <g id="PathCollection_5">
    <g clip-path="url(#p8c755e3773)">
     <use xlink:href="#m0a72bb3d47" x="598.392" y="200.056032" style="fill: #138a57; stroke: #138a57"/>
    </g>
   </g>
   <g id="PathCollection_6">
    <defs>
     <path id="m47d84a2b17" d="M -4.1833 4.1833
L 4.1833 -4.1833
M -4.1833 -4.1833
L 4.1833 4.1833
" style="stroke: #ce3b36; stroke-width: 2"/>
    </defs>
    <g clip-path="url(#p8c755e3773)">
     <use xlink:href="#m47d84a2b17" x="244.8432" y="367.806384" style="fill: #ce3b36; stroke: #ce3b36; stroke-width: 2"/>
    </g>
   </g>
   <g id="PathCollection_7">
    <g clip-path="url(#p8c755e3773)">
     <use xlink:href="#m47d84a2b17" x="333.2304" y="351.440496" style="fill: #ce3b36; stroke: #ce3b36; stroke-width: 2"/>
    </g>
   </g>
   <g id="PathCollection_8">
    <g clip-path="url(#p8c755e3773)">
     <use xlink:href="#m47d84a2b17" x="421.6176" y="314.617248" style="fill: #ce3b36; stroke: #ce3b36; stroke-width: 2"/>
    </g>
   </g>
   <g id="PathCollection_9">
    <g clip-path="url(#p8c755e3773)">
     <use xlink:href="#m47d84a2b17" x="510.0048" y="285.976944" style="fill: #ce3b36; stroke: #ce3b36; stroke-width: 2"/>
    </g>
   </g>
   <g id="PathCollection_10">
    <g clip-path="url(#p8c755e3773)">
     <use xlink:href="#m47d84a2b17" x="598.392" y="253.245168" style="fill: #ce3b36; stroke: #ce3b36; stroke-width: 2"/>
    </g>
   </g>
   <g id="patch_3">
    <path d="M 668.7 188.72964
L 720.9288 188.72964
Q 733.78512 188.72964 733.78512 196.713
L 733.78512 358.875
Q 733.78512 366.85836 720.9288 366.85836
L 668.7 366.85836
Q 655.84368 366.85836 655.84368 358.875
L 655.84368 196.713
Q 655.84368 188.72964 668.7 188.72964
z
" clip-path="url(#p8c755e3773)" style="fill: #ffffff; stroke: #d9e3ec; stroke-width: 1.1; stroke-linejoin: miter"/>
   </g>
   <g id="patch_4">
    <path d="M 146.412 448.18884
L 688.788 448.18884
Q 701.64432 448.18884 701.64432 456.1722
L 701.64432 483.615
Q 701.64432 491.59836 688.788 491.59836
L 146.412 491.59836
Q 133.55568 491.59836 133.55568 483.615
L 133.55568 456.1722
Q 133.55568 448.18884 146.412 448.18884
z
" clip-path="url(#p8c755e3773)" style="fill: #e8f7ef; stroke: #8bd0aa; stroke-width: 1.1; stroke-linejoin: miter"/>
   </g>
   <g id="line2d_1">
    <path d="M 47.9808 90.684
L 787.2192 90.684
" clip-path="url(#p8c755e3773)" style="fill: none; stroke: #d9e3ec; stroke-linecap: square"/>
   </g>
   <g id="line2d_2">
    <path d="M 200.6496 175.5072
L 200.6496 380.0808
" clip-path="url(#p8c755e3773)" style="fill: none; stroke: #182431; stroke-width: 1.2; stroke-linecap: square"/>
   </g>
   <g id="line2d_3">
    <path d="M 200.6496 380.0808
L 642.5856 380.0808
" clip-path="url(#p8c755e3773)" style="fill: none; stroke: #182431; stroke-width: 1.2; stroke-linecap: square"/>
   </g>
   <g id="line2d_4">
    <path d="M 200.6496 380.0808
L 642.5856 185.4864
" clip-path="url(#p8c755e3773)" style="fill: none; stroke-dasharray: 6.66,2.88; stroke-dashoffset: 0; stroke: #5d6b78; stroke-width: 1.8"/>
   </g>
   <g id="text_1">
    <text style="font-weight: 700; font-size: 24px; font-family: 'DejaVu Sans'; text-anchor: start; fill: #182431" x="47.9808" y="54.8184" transform="rotate(-0 47.9808 54.8184)">Калибровка: вероятность сравнивается с частотой</text>
   </g>
   <g id="text_2">
    <text style="font-size: 11px; font-family: 'DejaVu Sans'; text-anchor: start; fill: #5d6b78" x="47.9808" y="74.281625" transform="rotate(-0 47.9808 74.281625)">В группе с прогнозом 0,8 событие должно происходить примерно в 80% случаев.</text>
   </g>
   <g id="text_3">
    <text style="font-size: 10px; font-family: 'DejaVu Sans'; text-anchor: middle; fill: #182431" x="417.6" y="412.627238" transform="rotate(-0 417.6 412.627238)">предсказанная вероятность</text>
   </g>
   <g id="text_4">
    <text style="font-size: 9.5px; font-family: 'DejaVu Sans'; fill: #182431" transform="translate(109.953083 272.601645)">наблюдаемая</text>
    <text style="font-size: 9.5px; font-family: 'DejaVu Sans'; fill: #182431" transform="translate(124.723356 283.239567)">частота</text>
   </g>
   <g id="text_5">
    <text style="font-size: 10px; font-family: 'DejaVu Sans'; text-anchor: middle; fill: #5d6b78" x="417.6" y="158.157638" transform="rotate(-0 417.6 158.157638)">пунктир: вероятность = частота</text>
   </g>
   <g id="text_6">
    <text style="font-size: 15px; font-family: 'DejaVu Sans'; text-anchor: middle; fill: #138a57" x="694.8144" y="231.811256" transform="rotate(-0 694.8144 231.811256)">●</text>
   </g>
   <g id="text_7">
    <text style="font-weight: 700; font-size: 8.8px; font-family: 'DejaVu Sans'; text-anchor: middle; fill: #138a57" x="694.8144" y="257.037825" transform="rotate(-0 694.8144 257.037825)">хорошо</text>
   </g>
   <g id="text_8">
    <text style="font-size: 15px; font-family: 'DejaVu Sans'; text-anchor: middle; fill: #ce3b36" x="694.8144" y="306.655256" transform="rotate(-0 694.8144 306.655256)">×</text>
   </g>
   <g id="text_9">
    <text style="font-weight: 700; font-size: 8.8px; font-family: 'DejaVu Sans'; text-anchor: middle; fill: #ce3b36" x="694.8144" y="331.881825" transform="rotate(-0 694.8144 331.881825)">плохо</text>
   </g>
   <g id="text_10">
    <text style="font-weight: 700; font-size: 10.5px; font-family: 'DejaVu Sans'; text-anchor: middle; fill: #138a57" x="417.6" y="472.962389" transform="rotate(-0 417.6 472.962389)">Прогноз около 0,8 → примерно 80% исходов среди сопоставимых объектов.</text>
   </g>
  </g>
 </g>
 <defs>
  <clipPath id="p8c755e3773">
   <rect x="15.84" y="15.84" width="803.52" height="498.96"/>
  </clipPath>
 </defs>
</svg>
