<?xml version="1.0" encoding="utf-8" standalone="no"?>
<!DOCTYPE svg PUBLIC "-//W3C//DTD SVG 1.1//EN"
  "http://www.w3.org/Graphics/SVG/1.1/DTD/svg11.dtd">
<svg xmlns:xlink="http://www.w3.org/1999/xlink" width="835.2pt" height="530.64pt" viewBox="0 0 835.2 530.64" xmlns="http://www.w3.org/2000/svg" version="1.1">
 <metadata>
  <rdf:RDF xmlns:dc="http://purl.org/dc/elements/1.1/" xmlns:cc="http://creativecommons.org/ns#" xmlns:rdf="http://www.w3.org/1999/02/22-rdf-syntax-ns#">
   <cc:Work>
    <dc:type rdf:resource="http://purl.org/dc/dcmitype/StillImage"/>
    <dc:format>image/svg+xml</dc:format>
    <dc:creator>
     <cc:Agent>
      <dc:title>Matplotlib v3.10.8, https://matplotlib.org/</dc:title>
     </cc:Agent>
    </dc:creator>
   </cc:Work>
  </rdf:RDF>
 </metadata>
 <defs>
  <style type="text/css">*{stroke-linejoin: round; stroke-linecap: butt}</style>
 </defs>
 <g id="figure_1">
  <g id="patch_1">
   <path d="M 0 530.64
L 835.2 530.64
L 835.2 0
L 0 0
z
" style="fill: #ffffff"/>
  </g>
  <g id="axes_1">
   <g id="patch_2">
    <path d="M 58.0248 123.86484
L 198.6408 123.86484
Q 211.49712 123.86484 211.49712 131.8482
L 211.49712 428.7294
Q 211.49712 436.71276 198.6408 436.71276
L 58.0248 436.71276
Q 45.16848 436.71276 45.16848 428.7294
L 45.16848 131.8482
Q 45.16848 123.86484 58.0248 123.86484
z
" clip-path="url(#p8c755e3773)" style="fill: #ffffff; stroke: #0b70e0; stroke-width: 1.1; stroke-linejoin: miter"/>
   </g>
   <g id="patch_3">
    <path d="M 72.0864 225.90216
C 74.004264 225.90216 75.843835 226.375322 77.19997 227.217438
C 78.556105 228.059554 79.31808 229.201868 79.31808 230.3928
C 79.31808 231.583732 78.556105 232.726046 77.19997 233.568162
C 75.843835 234.410278 74.004264 234.88344 72.0864 234.88344
C 70.168536 234.88344 68.328965 234.410278 66.97283 233.568162
C 65.616695 232.726046 64.85472 231.583732 64.85472 230.3928
C 64.85472 229.201868 65.616695 228.059554 66.97283 227.217438
C 68.328965 226.375322 70.168536 225.90216 72.0864 225.90216
z
" clip-path="url(#p8c755e3773)" style="fill: #b9c6d0"/>
   </g>
   <g id="patch_4">
    <path d="M 94.58496 225.90216
C 96.502824 225.90216 98.342395 226.375322 99.69853 227.217438
C 101.054665 228.059554 101.81664 229.201868 101.81664 230.3928
C 101.81664 231.583732 101.054665 232.726046 99.69853 233.568162
C 98.342395 234.410278 96.502824 234.88344 94.58496 234.88344
C 92.667096 234.88344 90.827525 234.410278 89.47139 233.568162
C 88.115255 232.726046 87.35328 231.583732 87.35328 230.3928
C 87.35328 229.201868 88.115255 228.059554 89.47139 227.217438
C 90.827525 226.375322 92.667096 225.90216 94.58496 225.90216
z
" clip-path="url(#p8c755e3773)" style="fill: #0b70e0"/>
   </g>
   <g id="patch_5">
    <path d="M 117.08352 225.90216
C 119.001384 225.90216 120.840955 226.375322 122.19709 227.217438
C 123.553225 228.059554 124.3152 229.201868 124.3152 230.3928
C 124.3152 231.583732 123.553225 232.726046 122.19709 233.568162
C 120.840955 234.410278 119.001384 234.88344 117.08352 234.88344
C 115.165656 234.88344 113.326085 234.410278 111.96995 233.568162
C 110.613815 232.726046 109.85184 231.583732 109.85184 230.3928
C 109.85184 229.201868 110.613815 228.059554 111.96995 227.217438
C 113.326085 226.375322 115.165656 225.90216 117.08352 225.90216
z
" clip-path="url(#p8c755e3773)" style="fill: #b9c6d0"/>
   </g>
   <g id="patch_6">
    <path d="M 139.58208 225.90216
C 141.499944 225.90216 143.339515 226.375322 144.69565 227.217438
C 146.051785 228.059554 146.81376 229.201868 146.81376 230.3928
C 146.81376 231.583732 146.051785 232.726046 144.69565 233.568162
C 143.339515 234.410278 141.499944 234.88344 139.58208 234.88344
C 137.664216 234.88344 135.824645 234.410278 134.46851 233.568162
C 133.112375 232.726046 132.3504 231.583732 132.3504 230.3928
C 132.3504 229.201868 133.112375 228.059554 134.46851 227.217438
C 135.824645 226.375322 137.664216 225.90216 139.58208 225.90216
z
" clip-path="url(#p8c755e3773)" style="fill: #b9c6d0"/>
   </g>
   <g id="patch_7">
    <path d="M 162.08064 225.90216
C 163.998504 225.90216 165.838075 226.375322 167.19421 227.217438
C 168.550345 228.059554 169.31232 229.201868 169.31232 230.3928
C 169.31232 231.583732 168.550345 232.726046 167.19421 233.568162
C 165.838075 234.410278 163.998504 234.88344 162.08064 234.88344
C 160.162776 234.88344 158.323205 234.410278 156.96707 233.568162
C 155.610935 232.726046 154.84896 231.583732 154.84896 230.3928
C 154.84896 229.201868 155.610935 228.059554 156.96707 227.217438
C 158.323205 226.375322 160.162776 225.90216 162.08064 225.90216
z
" clip-path="url(#p8c755e3773)" style="fill: #0b70e0"/>
   </g>
   <g id="patch_8">
    <path d="M 184.5792 225.90216
C 186.497064 225.90216 188.336635 226.375322 189.69277 227.217438
C 191.048905 228.059554 191.81088 229.201868 191.81088 230.3928
C 191.81088 231.583732 191.048905 232.726046 189.69277 233.568162
C 188.336635 234.410278 186.497064 234.88344 184.5792 234.88344
C 182.661336 234.88344 180.821765 234.410278 179.46563 233.568162
C 178.109495 232.726046 177.34752 231.583732 177.34752 230.3928
C 177.34752 229.201868 178.109495 228.059554 179.46563 227.217438
C 180.821765 226.375322 182.661336 225.90216 184.5792 225.90216
z
" clip-path="url(#p8c755e3773)" style="fill: #b9c6d0"/>
   </g>
   <g id="patch_9">
    <path d="M 72.0864 255.83976
C 74.004264 255.83976 75.843835 256.312922 77.19997 257.155038
C 78.556105 257.997154 79.31808 259.139468 79.31808 260.3304
C 79.31808 261.521332 78.556105 262.663646 77.19997 263.505762
C 75.843835 264.347878 74.004264 264.82104 72.0864 264.82104
C 70.168536 264.82104 68.328965 264.347878 66.97283 263.505762
C 65.616695 262.663646 64.85472 261.521332 64.85472 260.3304
C 64.85472 259.139468 65.616695 257.997154 66.97283 257.155038
C 68.328965 256.312922 70.168536 255.83976 72.0864 255.83976
z
" clip-path="url(#p8c755e3773)" style="fill: #b9c6d0"/>
   </g>
   <g id="patch_10">
    <path d="M 94.58496 255.83976
C 96.502824 255.83976 98.342395 256.312922 99.69853 257.155038
C 101.054665 257.997154 101.81664 259.139468 101.81664 260.3304
C 101.81664 261.521332 101.054665 262.663646 99.69853 263.505762
C 98.342395 264.347878 96.502824 264.82104 94.58496 264.82104
C 92.667096 264.82104 90.827525 264.347878 89.47139 263.505762
C 88.115255 262.663646 87.35328 261.521332 87.35328 260.3304
C 87.35328 259.139468 88.115255 257.997154 89.47139 257.155038
C 90.827525 256.312922 92.667096 255.83976 94.58496 255.83976
z
" clip-path="url(#p8c755e3773)" style="fill: #b9c6d0"/>
   </g>
   <g id="patch_11">
    <path d="M 117.08352 255.83976
C 119.001384 255.83976 120.840955 256.312922 122.19709 257.155038
C 123.553225 257.997154 124.3152 259.139468 124.3152 260.3304
C 124.3152 261.521332 123.553225 262.663646 122.19709 263.505762
C 120.840955 264.347878 119.001384 264.82104 117.08352 264.82104
C 115.165656 264.82104 113.326085 264.347878 111.96995 263.505762
C 110.613815 262.663646 109.85184 261.521332 109.85184 260.3304
C 109.85184 259.139468 110.613815 257.997154 111.96995 257.155038
C 113.326085 256.312922 115.165656 255.83976 117.08352 255.83976
z
" clip-path="url(#p8c755e3773)" style="fill: #0b70e0"/>
   </g>
   <g id="patch_12">
    <path d="M 139.58208 255.83976
C 141.499944 255.83976 143.339515 256.312922 144.69565 257.155038
C 146.051785 257.997154 146.81376 259.139468 146.81376 260.3304
C 146.81376 261.521332 146.051785 262.663646 144.69565 263.505762
C 143.339515 264.347878 141.499944 264.82104 139.58208 264.82104
C 137.664216 264.82104 135.824645 264.347878 134.46851 263.505762
C 133.112375 262.663646 132.3504 261.521332 132.3504 260.3304
C 132.3504 259.139468 133.112375 257.997154 134.46851 257.155038
C 135.824645 256.312922 137.664216 255.83976 139.58208 255.83976
z
" clip-path="url(#p8c755e3773)" style="fill: #b9c6d0"/>
   </g>
   <g id="patch_13">
    <path d="M 162.08064 255.83976
C 163.998504 255.83976 165.838075 256.312922 167.19421 257.155038
C 168.550345 257.997154 169.31232 259.139468 169.31232 260.3304
C 169.31232 261.521332 168.550345 262.663646 167.19421 263.505762
C 165.838075 264.347878 163.998504 264.82104 162.08064 264.82104
C 160.162776 264.82104 158.323205 264.347878 156.96707 263.505762
C 155.610935 262.663646 154.84896 261.521332 154.84896 260.3304
C 154.84896 259.139468 155.610935 257.997154 156.96707 257.155038
C 158.323205 256.312922 160.162776 255.83976 162.08064 255.83976
z
" clip-path="url(#p8c755e3773)" style="fill: #b9c6d0"/>
   </g>
   <g id="patch_14">
    <path d="M 184.5792 255.83976
C 186.497064 255.83976 188.336635 256.312922 189.69277 257.155038
C 191.048905 257.997154 191.81088 259.139468 191.81088 260.3304
C 191.81088 261.521332 191.048905 262.663646 189.69277 263.505762
C 188.336635 264.347878 186.497064 264.82104 184.5792 264.82104
C 182.661336 264.82104 180.821765 264.347878 179.46563 263.505762
C 178.109495 262.663646 177.34752 261.521332 177.34752 260.3304
C 177.34752 259.139468 178.109495 257.997154 179.46563 257.155038
C 180.821765 256.312922 182.661336 255.83976 184.5792 255.83976
z
" clip-path="url(#p8c755e3773)" style="fill: #b9c6d0"/>
   </g>
   <g id="patch_15">
    <path d="M 72.0864 285.77736
C 74.004264 285.77736 75.843835 286.250522 77.19997 287.092638
C 78.556105 287.934754 79.31808 289.077068 79.31808 290.268
C 79.31808 291.458932 78.556105 292.601246 77.19997 293.443362
C 75.843835 294.285478 74.004264 294.75864 72.0864 294.75864
C 70.168536 294.75864 68.328965 294.285478 66.97283 293.443362
C 65.616695 292.601246 64.85472 291.458932 64.85472 290.268
C 64.85472 289.077068 65.616695 287.934754 66.97283 287.092638
C 68.328965 286.250522 70.168536 285.77736 72.0864 285.77736
z
" clip-path="url(#p8c755e3773)" style="fill: #b9c6d0"/>
   </g>
   <g id="patch_16">
    <path d="M 94.58496 285.77736
C 96.502824 285.77736 98.342395 286.250522 99.69853 287.092638
C 101.054665 287.934754 101.81664 289.077068 101.81664 290.268
C 101.81664 291.458932 101.054665 292.601246 99.69853 293.443362
C 98.342395 294.285478 96.502824 294.75864 94.58496 294.75864
C 92.667096 294.75864 90.827525 294.285478 89.47139 293.443362
C 88.115255 292.601246 87.35328 291.458932 87.35328 290.268
C 87.35328 289.077068 88.115255 287.934754 89.47139 287.092638
C 90.827525 286.250522 92.667096 285.77736 94.58496 285.77736
z
" clip-path="url(#p8c755e3773)" style="fill: #0b70e0"/>
   </g>
   <g id="patch_17">
    <path d="M 117.08352 285.77736
C 119.001384 285.77736 120.840955 286.250522 122.19709 287.092638
C 123.553225 287.934754 124.3152 289.077068 124.3152 290.268
C 124.3152 291.458932 123.553225 292.601246 122.19709 293.443362
C 120.840955 294.285478 119.001384 294.75864 117.08352 294.75864
C 115.165656 294.75864 113.326085 294.285478 111.96995 293.443362
C 110.613815 292.601246 109.85184 291.458932 109.85184 290.268
C 109.85184 289.077068 110.613815 287.934754 111.96995 287.092638
C 113.326085 286.250522 115.165656 285.77736 117.08352 285.77736
z
" clip-path="url(#p8c755e3773)" style="fill: #b9c6d0"/>
   </g>
   <g id="patch_18">
    <path d="M 139.58208 285.77736
C 141.499944 285.77736 143.339515 286.250522 144.69565 287.092638
C 146.051785 287.934754 146.81376 289.077068 146.81376 290.268
C 146.81376 291.458932 146.051785 292.601246 144.69565 293.443362
C 143.339515 294.285478 141.499944 294.75864 139.58208 294.75864
C 137.664216 294.75864 135.824645 294.285478 134.46851 293.443362
C 133.112375 292.601246 132.3504 291.458932 132.3504 290.268
C 132.3504 289.077068 133.112375 287.934754 134.46851 287.092638
C 135.824645 286.250522 137.664216 285.77736 139.58208 285.77736
z
" clip-path="url(#p8c755e3773)" style="fill: #b9c6d0"/>
   </g>
   <g id="patch_19">
    <path d="M 162.08064 285.77736
C 163.998504 285.77736 165.838075 286.250522 167.19421 287.092638
C 168.550345 287.934754 169.31232 289.077068 169.31232 290.268
C 169.31232 291.458932 168.550345 292.601246 167.19421 293.443362
C 165.838075 294.285478 163.998504 294.75864 162.08064 294.75864
C 160.162776 294.75864 158.323205 294.285478 156.96707 293.443362
C 155.610935 292.601246 154.84896 291.458932 154.84896 290.268
C 154.84896 289.077068 155.610935 287.934754 156.96707 287.092638
C 158.323205 286.250522 160.162776 285.77736 162.08064 285.77736
z
" clip-path="url(#p8c755e3773)" style="fill: #b9c6d0"/>
   </g>
   <g id="patch_20">
    <path d="M 184.5792 285.77736
C 186.497064 285.77736 188.336635 286.250522 189.69277 287.092638
C 191.048905 287.934754 191.81088 289.077068 191.81088 290.268
C 191.81088 291.458932 191.048905 292.601246 189.69277 293.443362
C 188.336635 294.285478 186.497064 294.75864 184.5792 294.75864
C 182.661336 294.75864 180.821765 294.285478 179.46563 293.443362
C 178.109495 292.601246 177.34752 291.458932 177.34752 290.268
C 177.34752 289.077068 178.109495 287.934754 179.46563 287.092638
C 180.821765 286.250522 182.661336 285.77736 184.5792 285.77736
z
" clip-path="url(#p8c755e3773)" style="fill: #b9c6d0"/>
   </g>
   <g id="patch_21">
    <path d="M 250.8696 123.86484
L 391.4856 123.86484
Q 404.34192 123.86484 404.34192 131.8482
L 404.34192 428.7294
Q 404.34192 436.71276 391.4856 436.71276
L 250.8696 436.71276
Q 238.01328 436.71276 238.01328 428.7294
L 238.01328 131.8482
Q 238.01328 123.86484 250.8696 123.86484
z
" clip-path="url(#p8c755e3773)" style="fill: #ffffff; stroke: #7657e8; stroke-width: 1.1; stroke-linejoin: miter"/>
   </g>
   <g id="patch_22">
    <path d="M 264.9312 225.90216
C 266.849064 225.90216 268.688635 226.375322 270.04477 227.217438
C 271.400905 228.059554 272.16288 229.201868 272.16288 230.3928
C 272.16288 231.583732 271.400905 232.726046 270.04477 233.568162
C 268.688635 234.410278 266.849064 234.88344 264.9312 234.88344
C 263.013336 234.88344 261.173765 234.410278 259.81763 233.568162
C 258.461495 232.726046 257.69952 231.583732 257.69952 230.3928
C 257.69952 229.201868 258.461495 228.059554 259.81763 227.217438
C 261.173765 226.375322 263.013336 225.90216 264.9312 225.90216
z
" clip-path="url(#p8c755e3773)" style="fill: #b9c6d0"/>
   </g>
   <g id="patch_23">
    <path d="M 289.0368 225.90216
C 290.954664 225.90216 292.794235 226.375322 294.15037 227.217438
C 295.506505 228.059554 296.26848 229.201868 296.26848 230.3928
C 296.26848 231.583732 295.506505 232.726046 294.15037 233.568162
C 292.794235 234.410278 290.954664 234.88344 289.0368 234.88344
C 287.118936 234.88344 285.279365 234.410278 283.92323 233.568162
C 282.567095 232.726046 281.80512 231.583732 281.80512 230.3928
C 281.80512 229.201868 282.567095 228.059554 283.92323 227.217438
C 285.279365 226.375322 287.118936 225.90216 289.0368 225.90216
z
" clip-path="url(#p8c755e3773)" style="fill: #b9c6d0"/>
   </g>
   <g id="patch_24">
    <path d="M 313.1424 225.90216
C 315.060264 225.90216 316.899835 226.375322 318.25597 227.217438
C 319.612105 228.059554 320.37408 229.201868 320.37408 230.3928
C 320.37408 231.583732 319.612105 232.726046 318.25597 233.568162
C 316.899835 234.410278 315.060264 234.88344 313.1424 234.88344
C 311.224536 234.88344 309.384965 234.410278 308.02883 233.568162
C 306.672695 232.726046 305.91072 231.583732 305.91072 230.3928
C 305.91072 229.201868 306.672695 228.059554 308.02883 227.217438
C 309.384965 226.375322 311.224536 225.90216 313.1424 225.90216
z
" clip-path="url(#p8c755e3773)" style="fill: #b9c6d0"/>
   </g>
   <g id="patch_25">
    <path d="M 337.248 225.90216
C 339.165864 225.90216 341.005435 226.375322 342.36157 227.217438
C 343.717705 228.059554 344.47968 229.201868 344.47968 230.3928
C 344.47968 231.583732 343.717705 232.726046 342.36157 233.568162
C 341.005435 234.410278 339.165864 234.88344 337.248 234.88344
C 335.330136 234.88344 333.490565 234.410278 332.13443 233.568162
C 330.778295 232.726046 330.01632 231.583732 330.01632 230.3928
C 330.01632 229.201868 330.778295 228.059554 332.13443 227.217438
C 333.490565 226.375322 335.330136 225.90216 337.248 225.90216
z
" clip-path="url(#p8c755e3773)" style="fill: #b9c6d0"/>
   </g>
   <g id="patch_26">
    <path d="M 361.3536 225.90216
C 363.271464 225.90216 365.111035 226.375322 366.46717 227.217438
C 367.823305 228.059554 368.58528 229.201868 368.58528 230.3928
C 368.58528 231.583732 367.823305 232.726046 366.46717 233.568162
C 365.111035 234.410278 363.271464 234.88344 361.3536 234.88344
C 359.435736 234.88344 357.596165 234.410278 356.24003 233.568162
C 354.883895 232.726046 354.12192 231.583732 354.12192 230.3928
C 354.12192 229.201868 354.883895 228.059554 356.24003 227.217438
C 357.596165 226.375322 359.435736 225.90216 361.3536 225.90216
z
" clip-path="url(#p8c755e3773)" style="fill: #7657e8"/>
   </g>
   <g id="patch_27">
    <path d="M 264.9312 260.82936
C 266.849064 260.82936 268.688635 261.302522 270.04477 262.144638
C 271.400905 262.986754 272.16288 264.129068 272.16288 265.32
C 272.16288 266.510932 271.400905 267.653246 270.04477 268.495362
C 268.688635 269.337478 266.849064 269.81064 264.9312 269.81064
C 263.013336 269.81064 261.173765 269.337478 259.81763 268.495362
C 258.461495 267.653246 257.69952 266.510932 257.69952 265.32
C 257.69952 264.129068 258.461495 262.986754 259.81763 262.144638
C 261.173765 261.302522 263.013336 260.82936 264.9312 260.82936
z
" clip-path="url(#p8c755e3773)" style="fill: #b9c6d0"/>
   </g>
   <g id="patch_28">
    <path d="M 289.0368 260.82936
C 290.954664 260.82936 292.794235 261.302522 294.15037 262.144638
C 295.506505 262.986754 296.26848 264.129068 296.26848 265.32
C 296.26848 266.510932 295.506505 267.653246 294.15037 268.495362
C 292.794235 269.337478 290.954664 269.81064 289.0368 269.81064
C 287.118936 269.81064 285.279365 269.337478 283.92323 268.495362
C 282.567095 267.653246 281.80512 266.510932 281.80512 265.32
C 281.80512 264.129068 282.567095 262.986754 283.92323 262.144638
C 285.279365 261.302522 287.118936 260.82936 289.0368 260.82936
z
" clip-path="url(#p8c755e3773)" style="fill: #b9c6d0"/>
   </g>
   <g id="patch_29">
    <path d="M 313.1424 260.82936
C 315.060264 260.82936 316.899835 261.302522 318.25597 262.144638
C 319.612105 262.986754 320.37408 264.129068 320.37408 265.32
C 320.37408 266.510932 319.612105 267.653246 318.25597 268.495362
C 316.899835 269.337478 315.060264 269.81064 313.1424 269.81064
C 311.224536 269.81064 309.384965 269.337478 308.02883 268.495362
C 306.672695 267.653246 305.91072 266.510932 305.91072 265.32
C 305.91072 264.129068 306.672695 262.986754 308.02883 262.144638
C 309.384965 261.302522 311.224536 260.82936 313.1424 260.82936
z
" clip-path="url(#p8c755e3773)" style="fill: #b9c6d0"/>
   </g>
   <g id="patch_30">
    <path d="M 337.248 260.82936
C 339.165864 260.82936 341.005435 261.302522 342.36157 262.144638
C 343.717705 262.986754 344.47968 264.129068 344.47968 265.32
C 344.47968 266.510932 343.717705 267.653246 342.36157 268.495362
C 341.005435 269.337478 339.165864 269.81064 337.248 269.81064
C 335.330136 269.81064 333.490565 269.337478 332.13443 268.495362
C 330.778295 267.653246 330.01632 266.510932 330.01632 265.32
C 330.01632 264.129068 330.778295 262.986754 332.13443 262.144638
C 333.490565 261.302522 335.330136 260.82936 337.248 260.82936
z
" clip-path="url(#p8c755e3773)" style="fill: #b9c6d0"/>
   </g>
   <g id="patch_31">
    <path d="M 361.3536 260.82936
C 363.271464 260.82936 365.111035 261.302522 366.46717 262.144638
C 367.823305 262.986754 368.58528 264.129068 368.58528 265.32
C 368.58528 266.510932 367.823305 267.653246 366.46717 268.495362
C 365.111035 269.337478 363.271464 269.81064 361.3536 269.81064
C 359.435736 269.81064 357.596165 269.337478 356.24003 268.495362
C 354.883895 267.653246 354.12192 266.510932 354.12192 265.32
C 354.12192 264.129068 354.883895 262.986754 356.24003 262.144638
C 357.596165 261.302522 359.435736 260.82936 361.3536 260.82936
z
" clip-path="url(#p8c755e3773)" style="fill: #7657e8"/>
   </g>
   <g id="patch_32">
    <path d="M 264.9312 295.75656
C 266.849064 295.75656 268.688635 296.229722 270.04477 297.071838
C 271.400905 297.913954 272.16288 299.056268 272.16288 300.2472
C 272.16288 301.438132 271.400905 302.580446 270.04477 303.422562
C 268.688635 304.264678 266.849064 304.73784 264.9312 304.73784
C 263.013336 304.73784 261.173765 304.264678 259.81763 303.422562
C 258.461495 302.580446 257.69952 301.438132 257.69952 300.2472
C 257.69952 299.056268 258.461495 297.913954 259.81763 297.071838
C 261.173765 296.229722 263.013336 295.75656 264.9312 295.75656
z
" clip-path="url(#p8c755e3773)" style="fill: #b9c6d0"/>
   </g>
   <g id="patch_33">
    <path d="M 289.0368 295.75656
C 290.954664 295.75656 292.794235 296.229722 294.15037 297.071838
C 295.506505 297.913954 296.26848 299.056268 296.26848 300.2472
C 296.26848 301.438132 295.506505 302.580446 294.15037 303.422562
C 292.794235 304.264678 290.954664 304.73784 289.0368 304.73784
C 287.118936 304.73784 285.279365 304.264678 283.92323 303.422562
C 282.567095 302.580446 281.80512 301.438132 281.80512 300.2472
C 281.80512 299.056268 282.567095 297.913954 283.92323 297.071838
C 285.279365 296.229722 287.118936 295.75656 289.0368 295.75656
z
" clip-path="url(#p8c755e3773)" style="fill: #b9c6d0"/>
   </g>
   <g id="patch_34">
    <path d="M 313.1424 295.75656
C 315.060264 295.75656 316.899835 296.229722 318.25597 297.071838
C 319.612105 297.913954 320.37408 299.056268 320.37408 300.2472
C 320.37408 301.438132 319.612105 302.580446 318.25597 303.422562
C 316.899835 304.264678 315.060264 304.73784 313.1424 304.73784
C 311.224536 304.73784 309.384965 304.264678 308.02883 303.422562
C 306.672695 302.580446 305.91072 301.438132 305.91072 300.2472
C 305.91072 299.056268 306.672695 297.913954 308.02883 297.071838
C 309.384965 296.229722 311.224536 295.75656 313.1424 295.75656
z
" clip-path="url(#p8c755e3773)" style="fill: #b9c6d0"/>
   </g>
   <g id="patch_35">
    <path d="M 337.248 295.75656
C 339.165864 295.75656 341.005435 296.229722 342.36157 297.071838
C 343.717705 297.913954 344.47968 299.056268 344.47968 300.2472
C 344.47968 301.438132 343.717705 302.580446 342.36157 303.422562
C 341.005435 304.264678 339.165864 304.73784 337.248 304.73784
C 335.330136 304.73784 333.490565 304.264678 332.13443 303.422562
C 330.778295 302.580446 330.01632 301.438132 330.01632 300.2472
C 330.01632 299.056268 330.778295 297.913954 332.13443 297.071838
C 333.490565 296.229722 335.330136 295.75656 337.248 295.75656
z
" clip-path="url(#p8c755e3773)" style="fill: #b9c6d0"/>
   </g>
   <g id="patch_36">
    <path d="M 361.3536 295.75656
C 363.271464 295.75656 365.111035 296.229722 366.46717 297.071838
C 367.823305 297.913954 368.58528 299.056268 368.58528 300.2472
C 368.58528 301.438132 367.823305 302.580446 366.46717 303.422562
C 365.111035 304.264678 363.271464 304.73784 361.3536 304.73784
C 359.435736 304.73784 357.596165 304.264678 356.24003 303.422562
C 354.883895 302.580446 354.12192 301.438132 354.12192 300.2472
C 354.12192 299.056268 354.883895 297.913954 356.24003 297.071838
C 357.596165 296.229722 359.435736 295.75656 361.3536 295.75656
z
" clip-path="url(#p8c755e3773)" style="fill: #7657e8"/>
   </g>
   <g id="patch_37">
    <path d="M 443.7144 123.86484
L 584.3304 123.86484
Q 597.18672 123.86484 597.18672 131.8482
L 597.18672 428.7294
Q 597.18672 436.71276 584.3304 436.71276
L 443.7144 436.71276
Q 430.85808 436.71276 430.85808 428.7294
L 430.85808 131.8482
Q 430.85808 123.86484 443.7144 123.86484
z
" clip-path="url(#p8c755e3773)" style="fill: #ffffff; stroke: #138a57; stroke-width: 1.1; stroke-linejoin: miter"/>
   </g>
   <g id="patch_38">
    <path d="M 489.9168 215.424
L 505.9872 215.424
L 505.9872 240.372
L 489.9168 240.372
z
" clip-path="url(#p8c755e3773)" style="fill: #0b70e0; opacity: 0.75"/>
   </g>
   <g id="patch_39">
    <path d="M 512.41536 215.424
L 528.48576 215.424
L 528.48576 240.372
L 512.41536 240.372
z
" clip-path="url(#p8c755e3773)" style="fill: #0b70e0; opacity: 0.75"/>
   </g>
   <g id="patch_40">
    <path d="M 534.91392 215.424
L 550.98432 215.424
L 550.98432 240.372
L 534.91392 240.372
z
" clip-path="url(#p8c755e3773)" style="fill: #0b70e0; opacity: 0.75"/>
   </g>
   <g id="patch_41">
    <path d="M 557.41248 215.424
L 573.48288 215.424
L 573.48288 240.372
L 557.41248 240.372
z
" clip-path="url(#p8c755e3773)" style="fill: #0b70e0; opacity: 0.75"/>
   </g>
   <g id="patch_42">
    <path d="M 489.9168 265.32
L 505.9872 265.32
L 505.9872 290.268
L 489.9168 290.268
z
" clip-path="url(#p8c755e3773)" style="fill: #138a57; opacity: 0.75"/>
   </g>
   <g id="patch_43">
    <path d="M 512.41536 265.32
L 528.48576 265.32
L 528.48576 290.268
L 512.41536 290.268
z
" clip-path="url(#p8c755e3773)" style="fill: #138a57; opacity: 0.75"/>
   </g>
   <g id="patch_44">
    <path d="M 534.91392 265.32
L 550.98432 265.32
L 550.98432 290.268
L 534.91392 290.268
z
" clip-path="url(#p8c755e3773)" style="fill: #138a57; opacity: 0.75"/>
   </g>
   <g id="patch_45">
    <path d="M 557.41248 265.32
L 573.48288 265.32
L 573.48288 290.268
L 557.41248 290.268
z
" clip-path="url(#p8c755e3773)" style="fill: #138a57; opacity: 0.75"/>
   </g>
   <g id="patch_46">
    <path d="M 489.9168 315.216
L 505.9872 315.216
L 505.9872 340.164
L 489.9168 340.164
z
" clip-path="url(#p8c755e3773)" style="fill: #7657e8; opacity: 0.75"/>
   </g>
   <g id="patch_47">
    <path d="M 512.41536 315.216
L 528.48576 315.216
L 528.48576 340.164
L 512.41536 340.164
z
" clip-path="url(#p8c755e3773)" style="fill: #7657e8; opacity: 0.75"/>
   </g>
   <g id="patch_48">
    <path d="M 534.91392 315.216
L 550.98432 315.216
L 550.98432 340.164
L 534.91392 340.164
z
" clip-path="url(#p8c755e3773)" style="fill: #7657e8; opacity: 0.75"/>
   </g>
   <g id="patch_49">
    <path d="M 557.41248 315.216
L 573.48288 315.216
L 573.48288 340.164
L 557.41248 340.164
z
" clip-path="url(#p8c755e3773)" style="fill: #7657e8; opacity: 0.75"/>
   </g>
   <g id="patch_50">
    <path d="M 636.5592 123.86484
L 777.1752 123.86484
Q 790.03152 123.86484 790.03152 131.8482
L 790.03152 428.7294
Q 790.03152 436.71276 777.1752 436.71276
L 636.5592 436.71276
Q 623.70288 436.71276 623.70288 428.7294
L 623.70288 131.8482
Q 623.70288 123.86484 636.5592 123.86484
z
" clip-path="url(#p8c755e3773)" style="fill: #ffffff; stroke: #b96a00; stroke-width: 1.1; stroke-linejoin: miter"/>
   </g>
   <g id="patch_51">
    <path d="M 642.5856 225.4032
L 663.47712 225.4032
L 663.47712 310.2264
L 642.5856 310.2264
z
" clip-path="url(#p8c755e3773)" style="fill: #0b70e0; opacity: 0.8"/>
   </g>
   <g id="patch_52">
    <path d="M 670.7088 225.4032
L 691.60032 225.4032
L 691.60032 310.2264
L 670.7088 310.2264
z
" clip-path="url(#p8c755e3773)" style="fill: #0b70e0; opacity: 0.8"/>
   </g>
   <g id="patch_53">
    <path d="M 698.832 225.4032
L 719.72352 225.4032
L 719.72352 310.2264
L 698.832 310.2264
z
" clip-path="url(#p8c755e3773)" style="fill: #0b70e0; opacity: 0.8"/>
   </g>
   <g id="patch_54">
    <path d="M 726.9552 225.4032
L 747.84672 225.4032
L 747.84672 310.2264
L 726.9552 310.2264
z
" clip-path="url(#p8c755e3773)" style="fill: #0b70e0; opacity: 0.8"/>
   </g>
   <g id="patch_55">
    <path d="M 755.0784 225.4032
L 775.96992 225.4032
L 775.96992 310.2264
L 755.0784 310.2264
z
" clip-path="url(#p8c755e3773)" style="fill: #b96a00; opacity: 0.8"/>
   </g>
   <g id="patch_56">
    <path d="M 122.3064 453.17844
L 712.8936 453.17844
Q 725.74992 453.17844 725.74992 461.1618
L 725.74992 483.615
Q 725.74992 491.59836 712.8936 491.59836
L 122.3064 491.59836
Q 109.45008 491.59836 109.45008 483.615
L 109.45008 461.1618
Q 109.45008 453.17844 122.3064 453.17844
z
" clip-path="url(#p8c755e3773)" style="fill: #fff0ef; stroke: #efa19d; stroke-width: 1.1; stroke-linejoin: miter"/>
   </g>
   <g id="line2d_1">
    <path d="M 47.9808 90.684
L 787.2192 90.684
" clip-path="url(#p8c755e3773)" style="fill: none; stroke: #d9e3ec; stroke-linecap: square"/>
   </g>
   <g id="line2d_2">
    <path d="M 156.456 210.4344
L 156.456 330.1848
" clip-path="url(#p8c755e3773)" style="fill: none; stroke-dasharray: 6.29,2.72; stroke-dashoffset: 0; stroke: #ce3b36; stroke-width: 1.7"/>
   </g>
   <g id="line2d_3">
    <path d="M 542.1456 205.4448
L 542.1456 350.1432
" clip-path="url(#p8c755e3773)" style="fill: none; stroke-dasharray: 6.29,2.72; stroke-dashoffset: 0; stroke: #ce3b36; stroke-width: 1.7"/>
   </g>
   <g id="text_1">
    <text style="font-weight: 700; font-size: 24px; font-family: 'DejaVu Sans'; text-anchor: start; fill: #182431" x="47.9808" y="54.03465" transform="rotate(-0 47.9808 54.03465)">Четыре стратегии разделения</text>
   </g>
   <g id="text_2">
    <text style="font-size: 11px; font-family: 'DejaVu Sans'; text-anchor: start; fill: #5d6b78" x="47.9808" y="74.094281" transform="rotate(-0 47.9808 74.094281)">Граница должна учитывать классы, группы, источники и время.</text>
   </g>
   <g id="text_3">
    <text style="font-weight: 700; font-size: 9.5px; font-family: 'DejaVu Sans'; text-anchor: middle; fill: #0b70e0" x="128.3328" y="157.777716" transform="rotate(-0 128.3328 157.777716)">СЛУЧАЙНОЕ</text>
   </g>
   <g id="text_4">
    <text style="font-size: 8.8px; font-family: 'DejaVu Sans'; text-anchor: middle; fill: #5d6b78" x="128.3328" y="182.193825" transform="rotate(-0 128.3328 182.193825)">независимые объекты</text>
   </g>
   <g id="text_5">
    <text style="font-weight: 700; font-size: 9.5px; font-family: 'DejaVu Sans'; text-anchor: middle; fill: #7657e8" x="321.1776" y="157.777716" transform="rotate(-0 321.1776 157.777716)">СТРАТИФИЦИРОВАННОЕ</text>
   </g>
   <g id="text_6">
    <text style="font-size: 8.8px; font-family: 'DejaVu Sans'; text-anchor: middle; fill: #5d6b78" x="321.1776" y="182.193825" transform="rotate(-0 321.1776 182.193825)">сохраняет доли классов</text>
   </g>
   <g id="text_7">
    <text style="font-weight: 700; font-size: 8.8px; font-family: 'DejaVu Sans'; fill: #7657e8" transform="translate(269.198475 352.634013)">20% редкого класса</text>
    <text style="font-weight: 700; font-size: 8.8px; font-family: 'DejaVu Sans'; fill: #7657e8" transform="translate(281.1046 362.488088)">в каждой части</text>
   </g>
   <g id="text_8">
    <text style="font-weight: 700; font-size: 9.5px; font-family: 'DejaVu Sans'; text-anchor: middle; fill: #138a57" x="514.0224" y="157.777716" transform="rotate(-0 514.0224 157.777716)">ГРУППОВОЕ</text>
   </g>
   <g id="text_9">
    <text style="font-size: 8.8px; font-family: 'DejaVu Sans'; text-anchor: middle; fill: #5d6b78" x="514.0224" y="182.193825" transform="rotate(-0 514.0224 182.193825)">пациент целиком</text>
   </g>
   <g id="text_10">
    <text style="font-weight: 700; font-size: 9px; font-family: 'DejaVu Sans'; text-anchor: start; fill: #0b70e0" x="457.776" y="237.231394" transform="rotate(-0 457.776 237.231394)">P1</text>
   </g>
   <g id="text_11">
    <text style="font-weight: 700; font-size: 9px; font-family: 'DejaVu Sans'; text-anchor: start; fill: #138a57" x="457.776" y="287.127394" transform="rotate(-0 457.776 287.127394)">P2</text>
   </g>
   <g id="text_12">
    <text style="font-weight: 700; font-size: 9px; font-family: 'DejaVu Sans'; text-anchor: start; fill: #7657e8" x="457.776" y="337.023394" transform="rotate(-0 457.776 337.023394)">P3</text>
   </g>
   <g id="text_13">
    <text style="font-weight: 700; font-size: 8.5px; font-family: 'DejaVu Sans'; text-anchor: middle; fill: #138a57" x="514.0224" y="381.483466" transform="rotate(-0 514.0224 381.483466)">группа не пересекает границу</text>
   </g>
   <g id="text_14">
    <text style="font-weight: 700; font-size: 9.5px; font-family: 'DejaVu Sans'; text-anchor: middle; fill: #b96a00" x="706.8672" y="157.777716" transform="rotate(-0 706.8672 157.777716)">ВРЕМЕННОЕ</text>
   </g>
   <g id="text_15">
    <text style="font-size: 8.8px; font-family: 'DejaVu Sans'; text-anchor: middle; fill: #5d6b78" x="706.8672" y="182.3437" transform="rotate(-0 706.8672 182.3437)">прошлое → будущее</text>
   </g>
   <g id="text_16">
    <text style="font-size: 8px; font-family: 'DejaVu Sans'; text-anchor: middle; fill: #182431" x="653.03136" y="331.27395" transform="rotate(-0 653.03136 331.27395)">19</text>
   </g>
   <g id="text_17">
    <text style="font-size: 8px; font-family: 'DejaVu Sans'; text-anchor: middle; fill: #182431" x="681.15456" y="331.27395" transform="rotate(-0 681.15456 331.27395)">20</text>
   </g>
   <g id="text_18">
    <text style="font-size: 8px; font-family: 'DejaVu Sans'; text-anchor: middle; fill: #182431" x="709.27776" y="331.27395" transform="rotate(-0 709.27776 331.27395)">21</text>
   </g>
   <g id="text_19">
    <text style="font-size: 8px; font-family: 'DejaVu Sans'; text-anchor: middle; fill: #182431" x="737.40096" y="331.27395" transform="rotate(-0 737.40096 331.27395)">22</text>
   </g>
   <g id="text_20">
    <text style="font-size: 8px; font-family: 'DejaVu Sans'; text-anchor: middle; fill: #182431" x="765.52416" y="331.27395" transform="rotate(-0 765.52416 331.27395)">23</text>
   </g>
   <g id="text_21">
    <text style="font-weight: 700; font-size: 9px; font-family: 'DejaVu Sans'; text-anchor: middle; fill: #0b70e0" x="674.7264" y="366.960994" transform="rotate(-0 674.7264 366.960994)">train</text>
   </g>
   <g id="text_22">
    <text style="font-weight: 700; font-size: 9px; font-family: 'DejaVu Sans'; text-anchor: middle; fill: #b96a00" x="763.1136" y="366.960994" transform="rotate(-0 763.1136 366.960994)">test</text>
   </g>
   <g id="text_23">
    <text style="font-weight: 700; font-size: 10.5px; font-family: 'DejaVu Sans'; text-anchor: middle; fill: #ce3b36" x="417.6" y="475.457189" transform="rotate(-0 417.6 475.457189)">ОШИБКА: визиты одного пациента оказались по обе стороны разделения.</text>
   </g>
  </g>
 </g>
 <defs>
  <clipPath id="p8c755e3773">
   <rect x="15.84" y="15.84" width="803.52" height="498.96"/>
  </clipPath>
 </defs>
</svg>
