<?xml version="1.0" encoding="utf-8" standalone="no"?>
<!DOCTYPE svg PUBLIC "-//W3C//DTD SVG 1.1//EN"
  "http://www.w3.org/Graphics/SVG/1.1/DTD/svg11.dtd">
<svg xmlns:xlink="http://www.w3.org/1999/xlink" width="835.2pt" height="530.64pt" viewBox="0 0 835.2 530.64" xmlns="http://www.w3.org/2000/svg" version="1.1">
 <metadata>
  <rdf:RDF xmlns:dc="http://purl.org/dc/elements/1.1/" xmlns:cc="http://creativecommons.org/ns#" xmlns:rdf="http://www.w3.org/1999/02/22-rdf-syntax-ns#">
   <cc:Work>
    <dc:type rdf:resource="http://purl.org/dc/dcmitype/StillImage"/>
    <dc:format>image/svg+xml</dc:format>
    <dc:creator>
     <cc:Agent>
      <dc:title>Matplotlib v3.10.8, https://matplotlib.org/</dc:title>
     </cc:Agent>
    </dc:creator>
   </cc:Work>
  </rdf:RDF>
 </metadata>
 <defs>
  <style type="text/css">*{stroke-linejoin: round; stroke-linecap: butt}</style>
 </defs>
 <g id="figure_1">
  <g id="patch_1">
   <path d="M 0 530.64
L 835.2 530.64
L 835.2 0
L 0 0
z
" style="fill: #ffffff"/>
  </g>
  <g id="axes_1">
   <g id="patch_2">
    <path d="M 74.0952 123.86484
L 262.9224 123.86484
Q 275.77872 123.86484 275.77872 131.8482
L 275.77872 398.7918
Q 275.77872 406.77516 262.9224 406.77516
L 74.0952 406.77516
Q 61.23888 406.77516 61.23888 398.7918
L 61.23888 131.8482
Q 61.23888 123.86484 74.0952 123.86484
z
" clip-path="url(#p8c755e3773)" style="fill: #ffffff; stroke: #0b70e0; stroke-width: 1.1; stroke-linejoin: miter"/>
   </g>
   <g id="patch_3">
    <path d="M 96.192 187.48224
L 116.28 187.48224
L 116.28 275.2992
L 96.192 275.2992
z
" clip-path="url(#p8c755e3773)" style="fill: #0b70e0; opacity: 0.8"/>
   </g>
   <g id="patch_4">
    <path d="M 128.3328 275.2992
L 148.4208 275.2992
L 148.4208 341.16192
L 128.3328 341.16192
z
" clip-path="url(#p8c755e3773)" style="fill: #0b70e0; opacity: 0.8"/>
   </g>
   <g id="patch_5">
    <path d="M 160.4736 220.4136
L 180.5616 220.4136
L 180.5616 275.2992
L 160.4736 275.2992
z
" clip-path="url(#p8c755e3773)" style="fill: #0b70e0; opacity: 0.8"/>
   </g>
   <g id="patch_6">
    <path d="M 192.6144 275.2992
L 212.7024 275.2992
L 212.7024 319.20768
L 192.6144 319.20768
z
" clip-path="url(#p8c755e3773)" style="fill: #0b70e0; opacity: 0.8"/>
   </g>
   <g id="patch_7">
    <path d="M 224.7552 242.36784
L 244.8432 242.36784
L 244.8432 275.2992
L 224.7552 275.2992
z
" clip-path="url(#p8c755e3773)" style="fill: #0b70e0; opacity: 0.8"/>
   </g>
   <g id="patch_8">
    <path d="M 323.1864 123.86484
L 512.0136 123.86484
Q 524.86992 123.86484 524.86992 131.8482
L 524.86992 398.7918
Q 524.86992 406.77516 512.0136 406.77516
L 323.1864 406.77516
Q 310.33008 406.77516 310.33008 398.7918
L 310.33008 131.8482
Q 310.33008 123.86484 323.1864 123.86484
z
" clip-path="url(#p8c755e3773)" style="fill: #ffffff; stroke: #138a57; stroke-width: 1.1; stroke-linejoin: miter"/>
   </g>
   <g id="patch_9">
    <path d="M 345.2832 220.4136
L 365.3712 220.4136
L 365.3712 275.2992
L 345.2832 275.2992
z
" clip-path="url(#p8c755e3773)" style="fill: #138a57; opacity: 0.8"/>
   </g>
   <g id="patch_10">
    <path d="M 377.424 275.2992
L 397.512 275.2992
L 397.512 319.20768
L 377.424 319.20768
z
" clip-path="url(#p8c755e3773)" style="fill: #138a57; opacity: 0.8"/>
   </g>
   <g id="patch_11">
    <path d="M 409.5648 242.36784
L 429.6528 242.36784
L 429.6528 275.2992
L 409.5648 275.2992
z
" clip-path="url(#p8c755e3773)" style="fill: #138a57; opacity: 0.8"/>
   </g>
   <g id="patch_12">
    <path d="M 441.7056 275.2992
L 461.7936 275.2992
L 461.7936 302.742
L 441.7056 302.742
z
" clip-path="url(#p8c755e3773)" style="fill: #138a57; opacity: 0.8"/>
   </g>
   <g id="patch_13">
    <path d="M 473.8464 253.34496
L 493.9344 253.34496
L 493.9344 275.2992
L 473.8464 275.2992
z
" clip-path="url(#p8c755e3773)" style="fill: #138a57; opacity: 0.8"/>
   </g>
   <g id="patch_14">
    <path d="M 572.2776 123.86484
L 761.1048 123.86484
Q 773.96112 123.86484 773.96112 131.8482
L 773.96112 398.7918
Q 773.96112 406.77516 761.1048 406.77516
L 572.2776 406.77516
Q 559.42128 406.77516 559.42128 398.7918
L 559.42128 131.8482
Q 559.42128 123.86484 572.2776 123.86484
z
" clip-path="url(#p8c755e3773)" style="fill: #ffffff; stroke: #7657e8; stroke-width: 1.1; stroke-linejoin: miter"/>
   </g>
   <g id="patch_15">
    <path d="M 594.3744 209.43648
L 614.4624 209.43648
L 614.4624 275.2992
L 594.3744 275.2992
z
" clip-path="url(#p8c755e3773)" style="fill: #7657e8; opacity: 0.8"/>
   </g>
   <g id="patch_16">
    <path d="M 626.5152 275.2992
L 646.6032 275.2992
L 646.6032 279.29088
L 626.5152 279.29088
z
" clip-path="url(#p8c755e3773)" style="fill: #d9e3ec; opacity: 0.8"/>
   </g>
   <g id="patch_17">
    <path d="M 658.656 242.36784
L 678.744 242.36784
L 678.744 275.2992
L 658.656 275.2992
z
" clip-path="url(#p8c755e3773)" style="fill: #7657e8; opacity: 0.8"/>
   </g>
   <g id="patch_18">
    <path d="M 690.7968 275.2992
L 710.8848 275.2992
L 710.8848 279.29088
L 690.7968 279.29088
z
" clip-path="url(#p8c755e3773)" style="fill: #d9e3ec; opacity: 0.8"/>
   </g>
   <g id="patch_19">
    <path d="M 722.9376 258.83352
L 743.0256 258.83352
L 743.0256 275.2992
L 722.9376 275.2992
z
" clip-path="url(#p8c755e3773)" style="fill: #7657e8; opacity: 0.8"/>
   </g>
   <g id="patch_20">
    <path d="M 122.3064 433.22004
L 712.8936 433.22004
Q 725.74992 433.22004 725.74992 441.2034
L 725.74992 478.6254
Q 725.74992 486.60876 712.8936 486.60876
L 122.3064 486.60876
Q 109.45008 486.60876 109.45008 478.6254
L 109.45008 441.2034
Q 109.45008 433.22004 122.3064 433.22004
z
" clip-path="url(#p8c755e3773)" style="fill: #fff4dd; stroke: #f2c36f; stroke-width: 1.1; stroke-linejoin: miter"/>
   </g>
   <g id="line2d_1">
    <path d="M 47.9808 90.684
L 787.2192 90.684
" clip-path="url(#p8c755e3773)" style="fill: none; stroke: #d9e3ec; stroke-linecap: square"/>
   </g>
   <g id="line2d_2">
    <path d="M 96.192 275.2992
L 240.8256 275.2992
" clip-path="url(#p8c755e3773)" style="fill: none; stroke: #182431; stroke-linecap: square"/>
   </g>
   <g id="line2d_3">
    <path d="M 345.2832 275.2992
L 489.9168 275.2992
" clip-path="url(#p8c755e3773)" style="fill: none; stroke: #182431; stroke-linecap: square"/>
   </g>
   <g id="line2d_4">
    <path d="M 594.3744 275.2992
L 739.008 275.2992
" clip-path="url(#p8c755e3773)" style="fill: none; stroke: #182431; stroke-linecap: square"/>
   </g>
   <g id="text_1">
    <text style="font-weight: 700; font-size: 24px; font-family: 'DejaVu Sans'; text-anchor: start; fill: #182431" x="47.9808" y="54.8184" transform="rotate(-0 47.9808 54.8184)">Коэффициенты без регуляризации, с L2 и с L1</text>
   </g>
   <g id="text_2">
    <text style="font-size: 11px; font-family: 'DejaVu Sans'; text-anchor: start; fill: #5d6b78" x="47.9808" y="74.281625" transform="rotate(-0 47.9808 74.281625)">Штраф ограничивает величину весов; L1 может обнулить часть коэффициентов.</text>
   </g>
   <g id="text_3">
    <text style="font-weight: 700; font-size: 11px; font-family: 'DejaVu Sans'; text-anchor: middle; fill: #0b70e0" x="168.5088" y="158.917481" transform="rotate(-0 168.5088 158.917481)">БЕЗ ШТРАФА</text>
   </g>
   <g id="text_4">
    <text style="font-size: 8.2px; font-family: 'DejaVu Sans'; text-anchor: middle; fill: #5d6b78" x="106.236" y="361.363519" transform="rotate(-0 106.236 361.363519)">w1</text>
   </g>
   <g id="text_5">
    <text style="font-size: 8.2px; font-family: 'DejaVu Sans'; text-anchor: middle; fill: #5d6b78" x="138.3768" y="361.363519" transform="rotate(-0 138.3768 361.363519)">w2</text>
   </g>
   <g id="text_6">
    <text style="font-size: 8.2px; font-family: 'DejaVu Sans'; text-anchor: middle; fill: #5d6b78" x="170.5176" y="361.363519" transform="rotate(-0 170.5176 361.363519)">w3</text>
   </g>
   <g id="text_7">
    <text style="font-size: 8.2px; font-family: 'DejaVu Sans'; text-anchor: middle; fill: #5d6b78" x="202.6584" y="361.363519" transform="rotate(-0 202.6584 361.363519)">w4</text>
   </g>
   <g id="text_8">
    <text style="font-size: 8.2px; font-family: 'DejaVu Sans'; text-anchor: middle; fill: #5d6b78" x="234.7992" y="361.363519" transform="rotate(-0 234.7992 361.363519)">w5</text>
   </g>
   <g id="text_9">
    <text style="font-weight: 700; font-size: 9px; font-family: 'DejaVu Sans'; text-anchor: middle; fill: #0b70e0" x="168.5088" y="386.849081" transform="rotate(-0 168.5088 386.849081)">крупные веса</text>
   </g>
   <g id="text_10">
    <text style="font-weight: 700; font-size: 11px; font-family: 'DejaVu Sans'; text-anchor: middle; fill: #138a57" x="417.6" y="158.917481" transform="rotate(-0 417.6 158.917481)">L2</text>
   </g>
   <g id="text_11">
    <text style="font-size: 8.2px; font-family: 'DejaVu Sans'; text-anchor: middle; fill: #5d6b78" x="355.3272" y="361.363519" transform="rotate(-0 355.3272 361.363519)">w1</text>
   </g>
   <g id="text_12">
    <text style="font-size: 8.2px; font-family: 'DejaVu Sans'; text-anchor: middle; fill: #5d6b78" x="387.468" y="361.363519" transform="rotate(-0 387.468 361.363519)">w2</text>
   </g>
   <g id="text_13">
    <text style="font-size: 8.2px; font-family: 'DejaVu Sans'; text-anchor: middle; fill: #5d6b78" x="419.6088" y="361.363519" transform="rotate(-0 419.6088 361.363519)">w3</text>
   </g>
   <g id="text_14">
    <text style="font-size: 8.2px; font-family: 'DejaVu Sans'; text-anchor: middle; fill: #5d6b78" x="451.7496" y="361.363519" transform="rotate(-0 451.7496 361.363519)">w4</text>
   </g>
   <g id="text_15">
    <text style="font-size: 8.2px; font-family: 'DejaVu Sans'; text-anchor: middle; fill: #5d6b78" x="483.8904" y="361.363519" transform="rotate(-0 483.8904 361.363519)">w5</text>
   </g>
   <g id="text_16">
    <text style="font-weight: 700; font-size: 9px; font-family: 'DejaVu Sans'; text-anchor: middle; fill: #138a57" x="417.6" y="386.849081" transform="rotate(-0 417.6 386.849081)">сжаты к нулю</text>
   </g>
   <g id="text_17">
    <text style="font-weight: 700; font-size: 11px; font-family: 'DejaVu Sans'; text-anchor: middle; fill: #7657e8" x="666.6912" y="158.917481" transform="rotate(-0 666.6912 158.917481)">L1</text>
   </g>
   <g id="text_18">
    <text style="font-size: 8.2px; font-family: 'DejaVu Sans'; text-anchor: middle; fill: #5d6b78" x="604.4184" y="361.363519" transform="rotate(-0 604.4184 361.363519)">w1</text>
   </g>
   <g id="text_19">
    <text style="font-size: 8.2px; font-family: 'DejaVu Sans'; text-anchor: middle; fill: #5d6b78" x="636.5592" y="361.363519" transform="rotate(-0 636.5592 361.363519)">w2</text>
   </g>
   <g id="text_20">
    <text style="font-size: 8.2px; font-family: 'DejaVu Sans'; text-anchor: middle; fill: #5d6b78" x="668.7" y="361.363519" transform="rotate(-0 668.7 361.363519)">w3</text>
   </g>
   <g id="text_21">
    <text style="font-size: 8.2px; font-family: 'DejaVu Sans'; text-anchor: middle; fill: #5d6b78" x="700.8408" y="361.363519" transform="rotate(-0 700.8408 361.363519)">w4</text>
   </g>
   <g id="text_22">
    <text style="font-size: 8.2px; font-family: 'DejaVu Sans'; text-anchor: middle; fill: #5d6b78" x="732.9816" y="361.363519" transform="rotate(-0 732.9816 361.363519)">w5</text>
   </g>
   <g id="text_23">
    <text style="font-weight: 700; font-size: 9px; font-family: 'DejaVu Sans'; text-anchor: middle; fill: #7657e8" x="666.6912" y="386.849081" transform="rotate(-0 666.6912 386.849081)">часть равна нулю</text>
   </g>
   <g id="text_24">
    <text style="font-weight: 700; font-size: 11px; font-family: 'DejaVu Sans'; text-anchor: middle; fill: #b96a00" x="417.6" y="458.6527" transform="rotate(-0 417.6 458.6527)">Слишком большая λ → недообучение.</text>
   </g>
   <g id="text_25">
    <text style="font-size: 9.5px; font-family: 'DejaVu Sans'; text-anchor: middle; fill: #b96a00" x="417.6" y="477.273913" transform="rotate(-0 417.6 477.273913)">Без сопоставимого масштаба штраф действует на признаки неравномерно.</text>
   </g>
  </g>
 </g>
 <defs>
  <clipPath id="p8c755e3773">
   <rect x="15.84" y="15.84" width="803.52" height="498.96"/>
  </clipPath>
 </defs>
</svg>
