<?xml version="1.0" encoding="utf-8" standalone="no"?>
<!DOCTYPE svg PUBLIC "-//W3C//DTD SVG 1.1//EN"
  "http://www.w3.org/Graphics/SVG/1.1/DTD/svg11.dtd">
<svg xmlns:xlink="http://www.w3.org/1999/xlink" width="835.2pt" height="530.64pt" viewBox="0 0 835.2 530.64" xmlns="http://www.w3.org/2000/svg" version="1.1">
 <metadata>
  <rdf:RDF xmlns:dc="http://purl.org/dc/elements/1.1/" xmlns:cc="http://creativecommons.org/ns#" xmlns:rdf="http://www.w3.org/1999/02/22-rdf-syntax-ns#">
   <cc:Work>
    <dc:type rdf:resource="http://purl.org/dc/dcmitype/StillImage"/>
    <dc:format>image/svg+xml</dc:format>
    <dc:creator>
     <cc:Agent>
      <dc:title>Matplotlib v3.10.8, https://matplotlib.org/</dc:title>
     </cc:Agent>
    </dc:creator>
   </cc:Work>
  </rdf:RDF>
 </metadata>
 <defs>
  <style type="text/css">*{stroke-linejoin: round; stroke-linecap: butt}</style>
 </defs>
 <g id="figure_1">
  <g id="patch_1">
   <path d="M 0 530.64
L 835.2 530.64
L 835.2 0
L 0 0
z
" style="fill: #ffffff"/>
  </g>
  <g id="axes_1">
   <g id="patch_2">
    <path d="M 58.0248 118.87524
L 262.9224 118.87524
Q 275.77872 118.87524 275.77872 126.8586
L 275.77872 333.927
Q 275.77872 341.91036 262.9224 341.91036
L 58.0248 341.91036
Q 45.16848 341.91036 45.16848 333.927
L 45.16848 126.8586
Q 45.16848 118.87524 58.0248 118.87524
z
" clip-path="url(#p8c755e3773)" style="fill: #ffffff; stroke: #0b70e0; stroke-width: 1.1; stroke-linejoin: miter"/>
   </g>
   <g id="PathCollection_1">
    <defs>
     <path id="m0dea82364e" d="M 0 3
C 0.795609 3 1.55874 2.683901 2.12132 2.12132
C 2.683901 1.55874 3 0.795609 3 0
C 3 -0.795609 2.683901 -1.55874 2.12132 -2.12132
C 1.55874 -2.683901 0.795609 -3 0 -3
C -0.795609 -3 -1.55874 -2.683901 -2.12132 -2.12132
C -2.683901 -1.55874 -3 -0.795609 -3 0
C -3 0.795609 -2.683901 1.55874 -2.12132 2.12132
C -1.55874 2.683901 -0.795609 3 0 3
z
" style="stroke: #aebbc5"/>
    </defs>
    <g clip-path="url(#p8c755e3773)">
     <use xlink:href="#m0dea82364e" x="72.0864" y="255.3408" style="fill: #aebbc5; stroke: #aebbc5"/>
     <use xlink:href="#m0dea82364e" x="96.192" y="230.3928" style="fill: #aebbc5; stroke: #aebbc5"/>
     <use xlink:href="#m0dea82364e" x="120.2976" y="250.3512" style="fill: #aebbc5; stroke: #aebbc5"/>
     <use xlink:href="#m0dea82364e" x="144.4032" y="195.4656" style="fill: #aebbc5; stroke: #aebbc5"/>
     <use xlink:href="#m0dea82364e" x="168.5088" y="220.4136" style="fill: #aebbc5; stroke: #aebbc5"/>
     <use xlink:href="#m0dea82364e" x="192.6144" y="170.5176" style="fill: #aebbc5; stroke: #aebbc5"/>
     <use xlink:href="#m0dea82364e" x="216.72" y="200.4552" style="fill: #aebbc5; stroke: #aebbc5"/>
     <use xlink:href="#m0dea82364e" x="240.8256" y="160.5384" style="fill: #aebbc5; stroke: #aebbc5"/>
    </g>
   </g>
   <g id="patch_3">
    <path d="M 315.1512 118.87524
L 520.0488 118.87524
Q 532.90512 118.87524 532.90512 126.8586
L 532.90512 333.927
Q 532.90512 341.91036 520.0488 341.91036
L 315.1512 341.91036
Q 302.29488 341.91036 302.29488 333.927
L 302.29488 126.8586
Q 302.29488 118.87524 315.1512 118.87524
z
" clip-path="url(#p8c755e3773)" style="fill: #ffffff; stroke: #138a57; stroke-width: 1.1; stroke-linejoin: miter"/>
   </g>
   <g id="PathCollection_2">
    <g clip-path="url(#p8c755e3773)">
     <use xlink:href="#m0dea82364e" x="329.2128" y="255.3408" style="fill: #aebbc5; stroke: #aebbc5"/>
     <use xlink:href="#m0dea82364e" x="353.3184" y="230.3928" style="fill: #aebbc5; stroke: #aebbc5"/>
     <use xlink:href="#m0dea82364e" x="377.424" y="250.3512" style="fill: #aebbc5; stroke: #aebbc5"/>
     <use xlink:href="#m0dea82364e" x="401.5296" y="195.4656" style="fill: #aebbc5; stroke: #aebbc5"/>
     <use xlink:href="#m0dea82364e" x="425.6352" y="220.4136" style="fill: #aebbc5; stroke: #aebbc5"/>
     <use xlink:href="#m0dea82364e" x="449.7408" y="170.5176" style="fill: #aebbc5; stroke: #aebbc5"/>
     <use xlink:href="#m0dea82364e" x="473.8464" y="200.4552" style="fill: #aebbc5; stroke: #aebbc5"/>
     <use xlink:href="#m0dea82364e" x="497.952" y="160.5384" style="fill: #aebbc5; stroke: #aebbc5"/>
    </g>
   </g>
   <g id="patch_4">
    <path d="M 572.2776 118.87524
L 777.1752 118.87524
Q 790.03152 118.87524 790.03152 126.8586
L 790.03152 333.927
Q 790.03152 341.91036 777.1752 341.91036
L 572.2776 341.91036
Q 559.42128 341.91036 559.42128 333.927
L 559.42128 126.8586
Q 559.42128 118.87524 572.2776 118.87524
z
" clip-path="url(#p8c755e3773)" style="fill: #ffffff; stroke: #ce3b36; stroke-width: 1.1; stroke-linejoin: miter"/>
   </g>
   <g id="PathCollection_3">
    <g clip-path="url(#p8c755e3773)">
     <use xlink:href="#m0dea82364e" x="586.3392" y="255.3408" style="fill: #aebbc5; stroke: #aebbc5"/>
     <use xlink:href="#m0dea82364e" x="610.4448" y="230.3928" style="fill: #aebbc5; stroke: #aebbc5"/>
     <use xlink:href="#m0dea82364e" x="634.5504" y="250.3512" style="fill: #aebbc5; stroke: #aebbc5"/>
     <use xlink:href="#m0dea82364e" x="658.656" y="195.4656" style="fill: #aebbc5; stroke: #aebbc5"/>
     <use xlink:href="#m0dea82364e" x="682.7616" y="220.4136" style="fill: #aebbc5; stroke: #aebbc5"/>
     <use xlink:href="#m0dea82364e" x="706.8672" y="170.5176" style="fill: #aebbc5; stroke: #aebbc5"/>
     <use xlink:href="#m0dea82364e" x="730.9728" y="200.4552" style="fill: #aebbc5; stroke: #aebbc5"/>
     <use xlink:href="#m0dea82364e" x="755.0784" y="160.5384" style="fill: #aebbc5; stroke: #aebbc5"/>
    </g>
   </g>
   <g id="patch_5">
    <path d="M 106.236 373.34484
L 728.964 373.34484
Q 741.82032 373.34484 741.82032 381.3282
L 741.82032 463.6566
Q 741.82032 471.63996 728.964 471.63996
L 106.236 471.63996
Q 93.37968 471.63996 93.37968 463.6566
L 93.37968 381.3282
Q 93.37968 373.34484 106.236 373.34484
z
" clip-path="url(#p8c755e3773)" style="fill: #eaf4ff; stroke: #9bcbfa; stroke-width: 1.1; stroke-linejoin: miter"/>
   </g>
   <g id="line2d_1">
    <path d="M 47.9808 90.684
L 787.2192 90.684
" clip-path="url(#p8c755e3773)" style="fill: none; stroke: #d9e3ec; stroke-linecap: square"/>
   </g>
   <g id="line2d_2">
    <path d="M 72.0864 230.3928
L 240.8256 200.4552
" clip-path="url(#p8c755e3773)" style="fill: none; stroke: #0b70e0; stroke-width: 2; stroke-linecap: square"/>
   </g>
   <g id="line2d_3">
    <path d="M 329.2128 255.3408
L 361.3536 235.3824
L 393.4944 230.3928
L 425.6352 205.4448
L 457.776 190.476
L 497.952 165.528
" clip-path="url(#p8c755e3773)" style="fill: none; stroke: #138a57; stroke-width: 2; stroke-linecap: square"/>
   </g>
   <g id="line2d_4">
    <path d="M 586.3392 260.3304
L 610.4448 225.4032
L 634.5504 255.3408
L 658.656 190.476
L 682.7616 225.4032
L 706.8672 165.528
L 730.9728 205.4448
L 755.0784 155.5488
" clip-path="url(#p8c755e3773)" style="fill: none; stroke: #ce3b36; stroke-width: 2.2; stroke-linecap: square"/>
   </g>
   <g id="line2d_5">
    <path d="M 152.4384 424.9872
L 240.8256 365.112
L 329.2128 315.216
L 417.6 270.3096
L 505.9872 240.372
L 594.3744 215.424
L 682.7616 200.4552
" clip-path="url(#p8c755e3773)" style="fill: none; stroke: #0b70e0; stroke-width: 2.3; stroke-linecap: square"/>
    <defs>
     <path id="md1881c84a1" d="M 0 3
C 0.795609 3 1.55874 2.683901 2.12132 2.12132
C 2.683901 1.55874 3 0.795609 3 0
C 3 -0.795609 2.683901 -1.55874 2.12132 -2.12132
C 1.55874 -2.683901 0.795609 -3 0 -3
C -0.795609 -3 -1.55874 -2.683901 -2.12132 -2.12132
C -2.683901 -1.55874 -3 -0.795609 -3 0
C -3 0.795609 -2.683901 1.55874 -2.12132 2.12132
C -1.55874 2.683901 -0.795609 3 0 3
z
" style="stroke: #0b70e0"/>
    </defs>
    <g clip-path="url(#p8c755e3773)">
     <use xlink:href="#md1881c84a1" x="152.4384" y="424.9872" style="fill: #0b70e0; stroke: #0b70e0"/>
     <use xlink:href="#md1881c84a1" x="240.8256" y="365.112" style="fill: #0b70e0; stroke: #0b70e0"/>
     <use xlink:href="#md1881c84a1" x="329.2128" y="315.216" style="fill: #0b70e0; stroke: #0b70e0"/>
     <use xlink:href="#md1881c84a1" x="417.6" y="270.3096" style="fill: #0b70e0; stroke: #0b70e0"/>
     <use xlink:href="#md1881c84a1" x="505.9872" y="240.372" style="fill: #0b70e0; stroke: #0b70e0"/>
     <use xlink:href="#md1881c84a1" x="594.3744" y="215.424" style="fill: #0b70e0; stroke: #0b70e0"/>
     <use xlink:href="#md1881c84a1" x="682.7616" y="200.4552" style="fill: #0b70e0; stroke: #0b70e0"/>
    </g>
   </g>
   <g id="line2d_6">
    <path d="M 152.4384 454.9248
L 240.8256 390.06
L 329.2128 325.1952
L 417.6 280.2888
L 505.9872 265.32
L 594.3744 300.2472
L 682.7616 360.1224
" clip-path="url(#p8c755e3773)" style="fill: none; stroke: #ce3b36; stroke-width: 2.3; stroke-linecap: square"/>
    <defs>
     <path id="m281140b234" d="M -3 3
L 3 3
L 3 -3
L -3 -3
z
" style="stroke: #ce3b36; stroke-linejoin: miter"/>
    </defs>
    <g clip-path="url(#p8c755e3773)">
     <use xlink:href="#m281140b234" x="152.4384" y="454.9248" style="fill: #ce3b36; stroke: #ce3b36; stroke-linejoin: miter"/>
     <use xlink:href="#m281140b234" x="240.8256" y="390.06" style="fill: #ce3b36; stroke: #ce3b36; stroke-linejoin: miter"/>
     <use xlink:href="#m281140b234" x="329.2128" y="325.1952" style="fill: #ce3b36; stroke: #ce3b36; stroke-linejoin: miter"/>
     <use xlink:href="#m281140b234" x="417.6" y="280.2888" style="fill: #ce3b36; stroke: #ce3b36; stroke-linejoin: miter"/>
     <use xlink:href="#m281140b234" x="505.9872" y="265.32" style="fill: #ce3b36; stroke: #ce3b36; stroke-linejoin: miter"/>
     <use xlink:href="#m281140b234" x="594.3744" y="300.2472" style="fill: #ce3b36; stroke: #ce3b36; stroke-linejoin: miter"/>
     <use xlink:href="#m281140b234" x="682.7616" y="360.1224" style="fill: #ce3b36; stroke: #ce3b36; stroke-linejoin: miter"/>
    </g>
   </g>
   <g id="text_1">
    <text style="font-weight: 700; font-size: 24px; font-family: 'DejaVu Sans'; text-anchor: start; fill: #182431" x="47.9808" y="54.03465" transform="rotate(-0 47.9808 54.03465)">Сложность модели: underfit → баланс → overfit</text>
   </g>
   <g id="text_2">
    <text style="font-size: 11px; font-family: 'DejaVu Sans'; text-anchor: start; fill: #5d6b78" x="47.9808" y="74.094281" transform="rotate(-0 47.9808 74.094281)">Train и validation отвечают на разные вопросы.</text>
   </g>
   <g id="text_3">
    <text style="font-weight: 700; font-size: 10px; font-family: 'DejaVu Sans'; text-anchor: middle; fill: #0b70e0" x="160.4736" y="153.168038" transform="rotate(-0 160.4736 153.168038)">НЕДООБУЧЕНИЕ</text>
   </g>
   <g id="text_4">
    <text style="font-weight: 700; font-size: 8.8px; font-family: 'DejaVu Sans'; text-anchor: middle; fill: #0b70e0" x="160.4736" y="316.913025" transform="rotate(-0 160.4736 316.913025)">обе ошибки высоки</text>
   </g>
   <g id="text_5">
    <text style="font-weight: 700; font-size: 10px; font-family: 'DejaVu Sans'; text-anchor: middle; fill: #138a57" x="417.6" y="153.168038" transform="rotate(-0 417.6 153.168038)">ПОДХОДЯЩАЯ</text>
   </g>
   <g id="text_6">
    <text style="font-weight: 700; font-size: 8.8px; font-family: 'DejaVu Sans'; text-anchor: middle; fill: #138a57" x="417.6" y="316.913025" transform="rotate(-0 417.6 316.913025)">ошибки низки и близки</text>
   </g>
   <g id="text_7">
    <text style="font-weight: 700; font-size: 10px; font-family: 'DejaVu Sans'; text-anchor: middle; fill: #ce3b36" x="674.7264" y="153.168038" transform="rotate(-0 674.7264 153.168038)">ПЕРЕОБУЧЕНИЕ</text>
   </g>
   <g id="text_8">
    <text style="font-weight: 700; font-size: 8.8px; font-family: 'DejaVu Sans'; text-anchor: middle; fill: #ce3b36" x="674.7264" y="316.913025" transform="rotate(-0 674.7264 316.913025)">train хорошо, validation хуже</text>
   </g>
   <g id="text_9">
    <text style="font-size: 8.5px; font-family: 'DejaVu Sans'; text-anchor: start; fill: #5d6b78" x="144.4032" y="396.518672" transform="rotate(-0 144.4032 396.518672)">ошибка</text>
   </g>
   <g id="text_10">
    <text style="font-size: 9px; font-family: 'DejaVu Sans'; text-anchor: middle; fill: #5d6b78" x="417.6" y="481.721794" transform="rotate(-0 417.6 481.721794)">сложность модели</text>
   </g>
   <g id="text_11">
    <text style="font-weight: 700; font-size: 9px; font-family: 'DejaVu Sans'; text-anchor: start; fill: #0b70e0" x="642.5856" y="401.888194" transform="rotate(-0 642.5856 401.888194)">train</text>
   </g>
   <g id="text_12">
    <text style="font-weight: 700; font-size: 9px; font-family: 'DejaVu Sans'; text-anchor: start; fill: #ce3b36" x="642.5856" y="426.836194" transform="rotate(-0 642.5856 426.836194)">validation</text>
   </g>
  </g>
 </g>
 <defs>
  <clipPath id="p8c755e3773">
   <rect x="15.84" y="15.84" width="803.52" height="498.96"/>
  </clipPath>
 </defs>
</svg>
