<?xml version="1.0" encoding="utf-8" standalone="no"?>
<!DOCTYPE svg PUBLIC "-//W3C//DTD SVG 1.1//EN"
  "http://www.w3.org/Graphics/SVG/1.1/DTD/svg11.dtd">
<svg xmlns:xlink="http://www.w3.org/1999/xlink" width="841.605398pt" height="530.64pt" viewBox="0 0 841.605398 530.64" xmlns="http://www.w3.org/2000/svg" version="1.1">
 <metadata>
  <rdf:RDF xmlns:dc="http://purl.org/dc/elements/1.1/" xmlns:cc="http://creativecommons.org/ns#" xmlns:rdf="http://www.w3.org/1999/02/22-rdf-syntax-ns#">
   <cc:Work>
    <dc:type rdf:resource="http://purl.org/dc/dcmitype/StillImage"/>
    <dc:format>image/svg+xml</dc:format>
    <dc:creator>
     <cc:Agent>
      <dc:title>Matplotlib v3.10.8, https://matplotlib.org/</dc:title>
     </cc:Agent>
    </dc:creator>
   </cc:Work>
  </rdf:RDF>
 </metadata>
 <defs>
  <style type="text/css">*{stroke-linejoin: round; stroke-linecap: butt}</style>
 </defs>
 <g id="figure_1">
  <g id="patch_1">
   <path d="M 0 530.64
L 841.605398 530.64
L 841.605398 0
L 0 0
z
" style="fill: #ffffff"/>
  </g>
  <g id="axes_1">
   <g id="patch_2">
    <path d="M 58.0248 123.86484
L 359.3448 123.86484
Q 372.20112 123.86484 372.20112 131.8482
L 372.20112 428.7294
Q 372.20112 436.71276 359.3448 436.71276
L 58.0248 436.71276
Q 45.16848 436.71276 45.16848 428.7294
L 45.16848 131.8482
Q 45.16848 123.86484 58.0248 123.86484
z
" clip-path="url(#p8c755e3773)" style="fill: #eaf4ff; stroke: #0b70e0; stroke-width: 1.1; stroke-linejoin: miter"/>
   </g>
   <g id="patch_3">
    <path d="M 84.54096 138.83364
L 180.15984 138.83364
Q 187.39152 138.83364 187.39152 143.32428
L 187.39152 164.2806
Q 187.39152 168.77124 180.15984 168.77124
L 84.54096 168.77124
Q 77.30928 168.77124 77.30928 164.2806
L 77.30928 143.32428
Q 77.30928 138.83364 84.54096 138.83364
z
" clip-path="url(#p8c755e3773)" style="fill: #0b70e0; stroke: #0b70e0; stroke-width: 1.1; stroke-linejoin: miter"/>
   </g>
   <g id="patch_4">
    <path d="M 427.644 123.86484
L 769.14 123.86484
Q 781.99632 123.86484 781.99632 131.8482
L 781.99632 199.2078
Q 781.99632 207.19116 769.14 207.19116
L 427.644 207.19116
Q 414.78768 207.19116 414.78768 199.2078
L 414.78768 131.8482
Q 414.78768 123.86484 427.644 123.86484
z
" clip-path="url(#p8c755e3773)" style="fill: #ffffff; stroke: #0b70e0; stroke-width: 1.1; stroke-linejoin: miter"/>
   </g>
   <g id="patch_5">
    <path d="M 602.4096 146.56752
C 604.114368 146.56752 605.749543 146.988109 606.954996 147.736656
C 608.160449 148.485203 608.83776 149.500594 608.83776 150.5592
C 608.83776 151.617806 608.160449 152.633197 606.954996 153.381744
C 605.749543 154.130291 604.114368 154.55088 602.4096 154.55088
C 600.704832 154.55088 599.069657 154.130291 597.864204 153.381744
C 596.658751 152.633197 595.98144 151.617806 595.98144 150.5592
C 595.98144 149.500594 596.658751 148.485203 597.864204 147.736656
C 599.069657 146.988109 600.704832 146.56752 602.4096 146.56752
z
" clip-path="url(#p8c755e3773)" style="fill: #0b70e0"/>
   </g>
   <g id="patch_6">
    <path d="M 628.12224 146.56752
C 629.827008 146.56752 631.462183 146.988109 632.667636 147.736656
C 633.873089 148.485203 634.5504 149.500594 634.5504 150.5592
C 634.5504 151.617806 633.873089 152.633197 632.667636 153.381744
C 631.462183 154.130291 629.827008 154.55088 628.12224 154.55088
C 626.417472 154.55088 624.782297 154.130291 623.576844 153.381744
C 622.371391 152.633197 621.69408 151.617806 621.69408 150.5592
C 621.69408 149.500594 622.371391 148.485203 623.576844 147.736656
C 624.782297 146.988109 626.417472 146.56752 628.12224 146.56752
z
" clip-path="url(#p8c755e3773)" style="fill: #0b70e0"/>
   </g>
   <g id="patch_7">
    <path d="M 653.83488 146.56752
C 655.539648 146.56752 657.174823 146.988109 658.380276 147.736656
C 659.585729 148.485203 660.26304 149.500594 660.26304 150.5592
C 660.26304 151.617806 659.585729 152.633197 658.380276 153.381744
C 657.174823 154.130291 655.539648 154.55088 653.83488 154.55088
C 652.130112 154.55088 650.494937 154.130291 649.289484 153.381744
C 648.084031 152.633197 647.40672 151.617806 647.40672 150.5592
C 647.40672 149.500594 648.084031 148.485203 649.289484 147.736656
C 650.494937 146.988109 652.130112 146.56752 653.83488 146.56752
z
" clip-path="url(#p8c755e3773)" style="fill: #0b70e0"/>
   </g>
   <g id="patch_8">
    <path d="M 679.54752 146.56752
C 681.252288 146.56752 682.887463 146.988109 684.092916 147.736656
C 685.298369 148.485203 685.97568 149.500594 685.97568 150.5592
C 685.97568 151.617806 685.298369 152.633197 684.092916 153.381744
C 682.887463 154.130291 681.252288 154.55088 679.54752 154.55088
C 677.842752 154.55088 676.207577 154.130291 675.002124 153.381744
C 673.796671 152.633197 673.11936 151.617806 673.11936 150.5592
C 673.11936 149.500594 673.796671 148.485203 675.002124 147.736656
C 676.207577 146.988109 677.842752 146.56752 679.54752 146.56752
z
" clip-path="url(#p8c755e3773)" style="fill: #0b70e0"/>
   </g>
   <g id="patch_9">
    <path d="M 705.26016 146.56752
C 706.964928 146.56752 708.600103 146.988109 709.805556 147.736656
C 711.011009 148.485203 711.68832 149.500594 711.68832 150.5592
C 711.68832 151.617806 711.011009 152.633197 709.805556 153.381744
C 708.600103 154.130291 706.964928 154.55088 705.26016 154.55088
C 703.555392 154.55088 701.920217 154.130291 700.714764 153.381744
C 699.509311 152.633197 698.832 151.617806 698.832 150.5592
C 698.832 149.500594 699.509311 148.485203 700.714764 147.736656
C 701.920217 146.988109 703.555392 146.56752 705.26016 146.56752
z
" clip-path="url(#p8c755e3773)" style="fill: #0b70e0"/>
   </g>
   <g id="patch_10">
    <path d="M 730.9728 146.56752
C 732.677568 146.56752 734.312743 146.988109 735.518196 147.736656
C 736.723649 148.485203 737.40096 149.500594 737.40096 150.5592
C 737.40096 151.617806 736.723649 152.633197 735.518196 153.381744
C 734.312743 154.130291 732.677568 154.55088 730.9728 154.55088
C 729.268032 154.55088 727.632857 154.130291 726.427404 153.381744
C 725.221951 152.633197 724.54464 151.617806 724.54464 150.5592
C 724.54464 149.500594 725.221951 148.485203 726.427404 147.736656
C 727.632857 146.988109 729.268032 146.56752 730.9728 146.56752
z
" clip-path="url(#p8c755e3773)" style="fill: #0b70e0"/>
   </g>
   <g id="patch_11">
    <path d="M 602.4096 174.01032
C 604.114368 174.01032 605.749543 174.430909 606.954996 175.179456
C 608.160449 175.928003 608.83776 176.943394 608.83776 178.002
C 608.83776 179.060606 608.160449 180.075997 606.954996 180.824544
C 605.749543 181.573091 604.114368 181.99368 602.4096 181.99368
C 600.704832 181.99368 599.069657 181.573091 597.864204 180.824544
C 596.658751 180.075997 595.98144 179.060606 595.98144 178.002
C 595.98144 176.943394 596.658751 175.928003 597.864204 175.179456
C 599.069657 174.430909 600.704832 174.01032 602.4096 174.01032
z
" clip-path="url(#p8c755e3773)" style="fill: #0b70e0"/>
   </g>
   <g id="patch_12">
    <path d="M 628.12224 174.01032
C 629.827008 174.01032 631.462183 174.430909 632.667636 175.179456
C 633.873089 175.928003 634.5504 176.943394 634.5504 178.002
C 634.5504 179.060606 633.873089 180.075997 632.667636 180.824544
C 631.462183 181.573091 629.827008 181.99368 628.12224 181.99368
C 626.417472 181.99368 624.782297 181.573091 623.576844 180.824544
C 622.371391 180.075997 621.69408 179.060606 621.69408 178.002
C 621.69408 176.943394 622.371391 175.928003 623.576844 175.179456
C 624.782297 174.430909 626.417472 174.01032 628.12224 174.01032
z
" clip-path="url(#p8c755e3773)" style="fill: #0b70e0"/>
   </g>
   <g id="patch_13">
    <path d="M 653.83488 174.01032
C 655.539648 174.01032 657.174823 174.430909 658.380276 175.179456
C 659.585729 175.928003 660.26304 176.943394 660.26304 178.002
C 660.26304 179.060606 659.585729 180.075997 658.380276 180.824544
C 657.174823 181.573091 655.539648 181.99368 653.83488 181.99368
C 652.130112 181.99368 650.494937 181.573091 649.289484 180.824544
C 648.084031 180.075997 647.40672 179.060606 647.40672 178.002
C 647.40672 176.943394 648.084031 175.928003 649.289484 175.179456
C 650.494937 174.430909 652.130112 174.01032 653.83488 174.01032
z
" clip-path="url(#p8c755e3773)" style="fill: #0b70e0"/>
   </g>
   <g id="patch_14">
    <path d="M 679.54752 174.01032
C 681.252288 174.01032 682.887463 174.430909 684.092916 175.179456
C 685.298369 175.928003 685.97568 176.943394 685.97568 178.002
C 685.97568 179.060606 685.298369 180.075997 684.092916 180.824544
C 682.887463 181.573091 681.252288 181.99368 679.54752 181.99368
C 677.842752 181.99368 676.207577 181.573091 675.002124 180.824544
C 673.796671 180.075997 673.11936 179.060606 673.11936 178.002
C 673.11936 176.943394 673.796671 175.928003 675.002124 175.179456
C 676.207577 174.430909 677.842752 174.01032 679.54752 174.01032
z
" clip-path="url(#p8c755e3773)" style="fill: #0b70e0"/>
   </g>
   <g id="patch_15">
    <path d="M 705.26016 174.01032
C 706.964928 174.01032 708.600103 174.430909 709.805556 175.179456
C 711.011009 175.928003 711.68832 176.943394 711.68832 178.002
C 711.68832 179.060606 711.011009 180.075997 709.805556 180.824544
C 708.600103 181.573091 706.964928 181.99368 705.26016 181.99368
C 703.555392 181.99368 701.920217 181.573091 700.714764 180.824544
C 699.509311 180.075997 698.832 179.060606 698.832 178.002
C 698.832 176.943394 699.509311 175.928003 700.714764 175.179456
C 701.920217 174.430909 703.555392 174.01032 705.26016 174.01032
z
" clip-path="url(#p8c755e3773)" style="fill: #0b70e0"/>
   </g>
   <g id="patch_16">
    <path d="M 730.9728 174.01032
C 732.677568 174.01032 734.312743 174.430909 735.518196 175.179456
C 736.723649 175.928003 737.40096 176.943394 737.40096 178.002
C 737.40096 179.060606 736.723649 180.075997 735.518196 180.824544
C 734.312743 181.573091 732.677568 181.99368 730.9728 181.99368
C 729.268032 181.99368 727.632857 181.573091 726.427404 180.824544
C 725.221951 180.075997 724.54464 179.060606 724.54464 178.002
C 724.54464 176.943394 725.221951 175.928003 726.427404 175.179456
C 727.632857 174.430909 729.268032 174.01032 730.9728 174.01032
z
" clip-path="url(#p8c755e3773)" style="fill: #0b70e0"/>
   </g>
   <g id="patch_17">
    <path d="M 427.644 233.63604
L 769.14 233.63604
Q 781.99632 233.63604 781.99632 241.6194
L 781.99632 308.979
Q 781.99632 316.96236 769.14 316.96236
L 427.644 316.96236
Q 414.78768 316.96236 414.78768 308.979
L 414.78768 241.6194
Q 414.78768 233.63604 427.644 233.63604
z
" clip-path="url(#p8c755e3773)" style="fill: #ffffff; stroke: #ce3b36; stroke-width: 1.1; stroke-linejoin: miter"/>
   </g>
   <g id="patch_18">
    <path d="M 602.4096 256.33872
C 604.114368 256.33872 605.749543 256.759309 606.954996 257.507856
C 608.160449 258.256403 608.83776 259.271794 608.83776 260.3304
C 608.83776 261.389006 608.160449 262.404397 606.954996 263.152944
C 605.749543 263.901491 604.114368 264.32208 602.4096 264.32208
C 600.704832 264.32208 599.069657 263.901491 597.864204 263.152944
C 596.658751 262.404397 595.98144 261.389006 595.98144 260.3304
C 595.98144 259.271794 596.658751 258.256403 597.864204 257.507856
C 599.069657 256.759309 600.704832 256.33872 602.4096 256.33872
z
" clip-path="url(#p8c755e3773)" style="fill: #ce3b36"/>
   </g>
   <g id="patch_19">
    <path d="M 628.12224 256.33872
C 629.827008 256.33872 631.462183 256.759309 632.667636 257.507856
C 633.873089 258.256403 634.5504 259.271794 634.5504 260.3304
C 634.5504 261.389006 633.873089 262.404397 632.667636 263.152944
C 631.462183 263.901491 629.827008 264.32208 628.12224 264.32208
C 626.417472 264.32208 624.782297 263.901491 623.576844 263.152944
C 622.371391 262.404397 621.69408 261.389006 621.69408 260.3304
C 621.69408 259.271794 622.371391 258.256403 623.576844 257.507856
C 624.782297 256.759309 626.417472 256.33872 628.12224 256.33872
z
" clip-path="url(#p8c755e3773)" style="fill: #d5dde4"/>
   </g>
   <g id="patch_20">
    <path d="M 653.83488 256.33872
C 655.539648 256.33872 657.174823 256.759309 658.380276 257.507856
C 659.585729 258.256403 660.26304 259.271794 660.26304 260.3304
C 660.26304 261.389006 659.585729 262.404397 658.380276 263.152944
C 657.174823 263.901491 655.539648 264.32208 653.83488 264.32208
C 652.130112 264.32208 650.494937 263.901491 649.289484 263.152944
C 648.084031 262.404397 647.40672 261.389006 647.40672 260.3304
C 647.40672 259.271794 648.084031 258.256403 649.289484 257.507856
C 650.494937 256.759309 652.130112 256.33872 653.83488 256.33872
z
" clip-path="url(#p8c755e3773)" style="fill: #d5dde4"/>
   </g>
   <g id="patch_21">
    <path d="M 679.54752 256.33872
C 681.252288 256.33872 682.887463 256.759309 684.092916 257.507856
C 685.298369 258.256403 685.97568 259.271794 685.97568 260.3304
C 685.97568 261.389006 685.298369 262.404397 684.092916 263.152944
C 682.887463 263.901491 681.252288 264.32208 679.54752 264.32208
C 677.842752 264.32208 676.207577 263.901491 675.002124 263.152944
C 673.796671 262.404397 673.11936 261.389006 673.11936 260.3304
C 673.11936 259.271794 673.796671 258.256403 675.002124 257.507856
C 676.207577 256.759309 677.842752 256.33872 679.54752 256.33872
z
" clip-path="url(#p8c755e3773)" style="fill: #d5dde4"/>
   </g>
   <g id="patch_22">
    <path d="M 705.26016 256.33872
C 706.964928 256.33872 708.600103 256.759309 709.805556 257.507856
C 711.011009 258.256403 711.68832 259.271794 711.68832 260.3304
C 711.68832 261.389006 711.011009 262.404397 709.805556 263.152944
C 708.600103 263.901491 706.964928 264.32208 705.26016 264.32208
C 703.555392 264.32208 701.920217 263.901491 700.714764 263.152944
C 699.509311 262.404397 698.832 261.389006 698.832 260.3304
C 698.832 259.271794 699.509311 258.256403 700.714764 257.507856
C 701.920217 256.759309 703.555392 256.33872 705.26016 256.33872
z
" clip-path="url(#p8c755e3773)" style="fill: #d5dde4"/>
   </g>
   <g id="patch_23">
    <path d="M 730.9728 256.33872
C 732.677568 256.33872 734.312743 256.759309 735.518196 257.507856
C 736.723649 258.256403 737.40096 259.271794 737.40096 260.3304
C 737.40096 261.389006 736.723649 262.404397 735.518196 263.152944
C 734.312743 263.901491 732.677568 264.32208 730.9728 264.32208
C 729.268032 264.32208 727.632857 263.901491 726.427404 263.152944
C 725.221951 262.404397 724.54464 261.389006 724.54464 260.3304
C 724.54464 259.271794 725.221951 258.256403 726.427404 257.507856
C 727.632857 256.759309 729.268032 256.33872 730.9728 256.33872
z
" clip-path="url(#p8c755e3773)" style="fill: #d5dde4"/>
   </g>
   <g id="patch_24">
    <path d="M 602.4096 283.78152
C 604.114368 283.78152 605.749543 284.202109 606.954996 284.950656
C 608.160449 285.699203 608.83776 286.714594 608.83776 287.7732
C 608.83776 288.831806 608.160449 289.847197 606.954996 290.595744
C 605.749543 291.344291 604.114368 291.76488 602.4096 291.76488
C 600.704832 291.76488 599.069657 291.344291 597.864204 290.595744
C 596.658751 289.847197 595.98144 288.831806 595.98144 287.7732
C 595.98144 286.714594 596.658751 285.699203 597.864204 284.950656
C 599.069657 284.202109 600.704832 283.78152 602.4096 283.78152
z
" clip-path="url(#p8c755e3773)" style="fill: #d5dde4"/>
   </g>
   <g id="patch_25">
    <path d="M 628.12224 283.78152
C 629.827008 283.78152 631.462183 284.202109 632.667636 284.950656
C 633.873089 285.699203 634.5504 286.714594 634.5504 287.7732
C 634.5504 288.831806 633.873089 289.847197 632.667636 290.595744
C 631.462183 291.344291 629.827008 291.76488 628.12224 291.76488
C 626.417472 291.76488 624.782297 291.344291 623.576844 290.595744
C 622.371391 289.847197 621.69408 288.831806 621.69408 287.7732
C 621.69408 286.714594 622.371391 285.699203 623.576844 284.950656
C 624.782297 284.202109 626.417472 283.78152 628.12224 283.78152
z
" clip-path="url(#p8c755e3773)" style="fill: #d5dde4"/>
   </g>
   <g id="patch_26">
    <path d="M 653.83488 283.78152
C 655.539648 283.78152 657.174823 284.202109 658.380276 284.950656
C 659.585729 285.699203 660.26304 286.714594 660.26304 287.7732
C 660.26304 288.831806 659.585729 289.847197 658.380276 290.595744
C 657.174823 291.344291 655.539648 291.76488 653.83488 291.76488
C 652.130112 291.76488 650.494937 291.344291 649.289484 290.595744
C 648.084031 289.847197 647.40672 288.831806 647.40672 287.7732
C 647.40672 286.714594 648.084031 285.699203 649.289484 284.950656
C 650.494937 284.202109 652.130112 283.78152 653.83488 283.78152
z
" clip-path="url(#p8c755e3773)" style="fill: #d5dde4"/>
   </g>
   <g id="patch_27">
    <path d="M 679.54752 283.78152
C 681.252288 283.78152 682.887463 284.202109 684.092916 284.950656
C 685.298369 285.699203 685.97568 286.714594 685.97568 287.7732
C 685.97568 288.831806 685.298369 289.847197 684.092916 290.595744
C 682.887463 291.344291 681.252288 291.76488 679.54752 291.76488
C 677.842752 291.76488 676.207577 291.344291 675.002124 290.595744
C 673.796671 289.847197 673.11936 288.831806 673.11936 287.7732
C 673.11936 286.714594 673.796671 285.699203 675.002124 284.950656
C 676.207577 284.202109 677.842752 283.78152 679.54752 283.78152
z
" clip-path="url(#p8c755e3773)" style="fill: #d5dde4"/>
   </g>
   <g id="patch_28">
    <path d="M 705.26016 283.78152
C 706.964928 283.78152 708.600103 284.202109 709.805556 284.950656
C 711.011009 285.699203 711.68832 286.714594 711.68832 287.7732
C 711.68832 288.831806 711.011009 289.847197 709.805556 290.595744
C 708.600103 291.344291 706.964928 291.76488 705.26016 291.76488
C 703.555392 291.76488 701.920217 291.344291 700.714764 290.595744
C 699.509311 289.847197 698.832 288.831806 698.832 287.7732
C 698.832 286.714594 699.509311 285.699203 700.714764 284.950656
C 701.920217 284.202109 703.555392 283.78152 705.26016 283.78152
z
" clip-path="url(#p8c755e3773)" style="fill: #d5dde4"/>
   </g>
   <g id="patch_29">
    <path d="M 730.9728 283.78152
C 732.677568 283.78152 734.312743 284.202109 735.518196 284.950656
C 736.723649 285.699203 737.40096 286.714594 737.40096 287.7732
C 737.40096 288.831806 736.723649 289.847197 735.518196 290.595744
C 734.312743 291.344291 732.677568 291.76488 730.9728 291.76488
C 729.268032 291.76488 727.632857 291.344291 726.427404 290.595744
C 725.221951 289.847197 724.54464 288.831806 724.54464 287.7732
C 724.54464 286.714594 725.221951 285.699203 726.427404 284.950656
C 727.632857 284.202109 729.268032 283.78152 730.9728 283.78152
z
" clip-path="url(#p8c755e3773)" style="fill: #d5dde4"/>
   </g>
   <g id="patch_30">
    <path d="M 427.644 343.40724
L 769.14 343.40724
Q 781.99632 343.40724 781.99632 351.3906
L 781.99632 418.7502
Q 781.99632 426.73356 769.14 426.73356
L 427.644 426.73356
Q 414.78768 426.73356 414.78768 418.7502
L 414.78768 351.3906
Q 414.78768 343.40724 427.644 343.40724
z
" clip-path="url(#p8c755e3773)" style="fill: #ffffff; stroke: #7657e8; stroke-width: 1.1; stroke-linejoin: miter"/>
   </g>
   <g id="patch_31">
    <path d="M 602.4096 366.10992
C 604.114368 366.10992 605.749543 366.530509 606.954996 367.279056
C 608.160449 368.027603 608.83776 369.042994 608.83776 370.1016
C 608.83776 371.160206 608.160449 372.175597 606.954996 372.924144
C 605.749543 373.672691 604.114368 374.09328 602.4096 374.09328
C 600.704832 374.09328 599.069657 373.672691 597.864204 372.924144
C 596.658751 372.175597 595.98144 371.160206 595.98144 370.1016
C 595.98144 369.042994 596.658751 368.027603 597.864204 367.279056
C 599.069657 366.530509 600.704832 366.10992 602.4096 366.10992
z
" clip-path="url(#p8c755e3773)" style="fill: #7657e8"/>
   </g>
   <g id="patch_32">
    <path d="M 628.12224 366.10992
C 629.827008 366.10992 631.462183 366.530509 632.667636 367.279056
C 633.873089 368.027603 634.5504 369.042994 634.5504 370.1016
C 634.5504 371.160206 633.873089 372.175597 632.667636 372.924144
C 631.462183 373.672691 629.827008 374.09328 628.12224 374.09328
C 626.417472 374.09328 624.782297 373.672691 623.576844 372.924144
C 622.371391 372.175597 621.69408 371.160206 621.69408 370.1016
C 621.69408 369.042994 622.371391 368.027603 623.576844 367.279056
C 624.782297 366.530509 626.417472 366.10992 628.12224 366.10992
z
" clip-path="url(#p8c755e3773)" style="fill: #7657e8"/>
   </g>
   <g id="patch_33">
    <path d="M 653.83488 366.10992
C 655.539648 366.10992 657.174823 366.530509 658.380276 367.279056
C 659.585729 368.027603 660.26304 369.042994 660.26304 370.1016
C 660.26304 371.160206 659.585729 372.175597 658.380276 372.924144
C 657.174823 373.672691 655.539648 374.09328 653.83488 374.09328
C 652.130112 374.09328 650.494937 373.672691 649.289484 372.924144
C 648.084031 372.175597 647.40672 371.160206 647.40672 370.1016
C 647.40672 369.042994 648.084031 368.027603 649.289484 367.279056
C 650.494937 366.530509 652.130112 366.10992 653.83488 366.10992
z
" clip-path="url(#p8c755e3773)" style="fill: #7657e8"/>
   </g>
   <g id="patch_34">
    <path d="M 679.54752 366.10992
C 681.252288 366.10992 682.887463 366.530509 684.092916 367.279056
C 685.298369 368.027603 685.97568 369.042994 685.97568 370.1016
C 685.97568 371.160206 685.298369 372.175597 684.092916 372.924144
C 682.887463 373.672691 681.252288 374.09328 679.54752 374.09328
C 677.842752 374.09328 676.207577 373.672691 675.002124 372.924144
C 673.796671 372.175597 673.11936 371.160206 673.11936 370.1016
C 673.11936 369.042994 673.796671 368.027603 675.002124 367.279056
C 676.207577 366.530509 677.842752 366.10992 679.54752 366.10992
z
" clip-path="url(#p8c755e3773)" style="fill: #7657e8"/>
   </g>
   <g id="patch_35">
    <path d="M 705.26016 366.10992
C 706.964928 366.10992 708.600103 366.530509 709.805556 367.279056
C 711.011009 368.027603 711.68832 369.042994 711.68832 370.1016
C 711.68832 371.160206 711.011009 372.175597 709.805556 372.924144
C 708.600103 373.672691 706.964928 374.09328 705.26016 374.09328
C 703.555392 374.09328 701.920217 373.672691 700.714764 372.924144
C 699.509311 372.175597 698.832 371.160206 698.832 370.1016
C 698.832 369.042994 699.509311 368.027603 700.714764 367.279056
C 701.920217 366.530509 703.555392 366.10992 705.26016 366.10992
z
" clip-path="url(#p8c755e3773)" style="fill: #d5dde4"/>
   </g>
   <g id="patch_36">
    <path d="M 730.9728 366.10992
C 732.677568 366.10992 734.312743 366.530509 735.518196 367.279056
C 736.723649 368.027603 737.40096 369.042994 737.40096 370.1016
C 737.40096 371.160206 736.723649 372.175597 735.518196 372.924144
C 734.312743 373.672691 732.677568 374.09328 730.9728 374.09328
C 729.268032 374.09328 727.632857 373.672691 726.427404 372.924144
C 725.221951 372.175597 724.54464 371.160206 724.54464 370.1016
C 724.54464 369.042994 725.221951 368.027603 726.427404 367.279056
C 727.632857 366.530509 729.268032 366.10992 730.9728 366.10992
z
" clip-path="url(#p8c755e3773)" style="fill: #d5dde4"/>
   </g>
   <g id="patch_37">
    <path d="M 602.4096 393.55272
C 604.114368 393.55272 605.749543 393.973309 606.954996 394.721856
C 608.160449 395.470403 608.83776 396.485794 608.83776 397.5444
C 608.83776 398.603006 608.160449 399.618397 606.954996 400.366944
C 605.749543 401.115491 604.114368 401.53608 602.4096 401.53608
C 600.704832 401.53608 599.069657 401.115491 597.864204 400.366944
C 596.658751 399.618397 595.98144 398.603006 595.98144 397.5444
C 595.98144 396.485794 596.658751 395.470403 597.864204 394.721856
C 599.069657 393.973309 600.704832 393.55272 602.4096 393.55272
z
" clip-path="url(#p8c755e3773)" style="fill: #d5dde4"/>
   </g>
   <g id="patch_38">
    <path d="M 628.12224 393.55272
C 629.827008 393.55272 631.462183 393.973309 632.667636 394.721856
C 633.873089 395.470403 634.5504 396.485794 634.5504 397.5444
C 634.5504 398.603006 633.873089 399.618397 632.667636 400.366944
C 631.462183 401.115491 629.827008 401.53608 628.12224 401.53608
C 626.417472 401.53608 624.782297 401.115491 623.576844 400.366944
C 622.371391 399.618397 621.69408 398.603006 621.69408 397.5444
C 621.69408 396.485794 622.371391 395.470403 623.576844 394.721856
C 624.782297 393.973309 626.417472 393.55272 628.12224 393.55272
z
" clip-path="url(#p8c755e3773)" style="fill: #d5dde4"/>
   </g>
   <g id="patch_39">
    <path d="M 653.83488 393.55272
C 655.539648 393.55272 657.174823 393.973309 658.380276 394.721856
C 659.585729 395.470403 660.26304 396.485794 660.26304 397.5444
C 660.26304 398.603006 659.585729 399.618397 658.380276 400.366944
C 657.174823 401.115491 655.539648 401.53608 653.83488 401.53608
C 652.130112 401.53608 650.494937 401.115491 649.289484 400.366944
C 648.084031 399.618397 647.40672 398.603006 647.40672 397.5444
C 647.40672 396.485794 648.084031 395.470403 649.289484 394.721856
C 650.494937 393.973309 652.130112 393.55272 653.83488 393.55272
z
" clip-path="url(#p8c755e3773)" style="fill: #d5dde4"/>
   </g>
   <g id="patch_40">
    <path d="M 679.54752 393.55272
C 681.252288 393.55272 682.887463 393.973309 684.092916 394.721856
C 685.298369 395.470403 685.97568 396.485794 685.97568 397.5444
C 685.97568 398.603006 685.298369 399.618397 684.092916 400.366944
C 682.887463 401.115491 681.252288 401.53608 679.54752 401.53608
C 677.842752 401.53608 676.207577 401.115491 675.002124 400.366944
C 673.796671 399.618397 673.11936 398.603006 673.11936 397.5444
C 673.11936 396.485794 673.796671 395.470403 675.002124 394.721856
C 676.207577 393.973309 677.842752 393.55272 679.54752 393.55272
z
" clip-path="url(#p8c755e3773)" style="fill: #d5dde4"/>
   </g>
   <g id="patch_41">
    <path d="M 705.26016 393.55272
C 706.964928 393.55272 708.600103 393.973309 709.805556 394.721856
C 711.011009 395.470403 711.68832 396.485794 711.68832 397.5444
C 711.68832 398.603006 711.011009 399.618397 709.805556 400.366944
C 708.600103 401.115491 706.964928 401.53608 705.26016 401.53608
C 703.555392 401.53608 701.920217 401.115491 700.714764 400.366944
C 699.509311 399.618397 698.832 398.603006 698.832 397.5444
C 698.832 396.485794 699.509311 395.470403 700.714764 394.721856
C 701.920217 393.973309 703.555392 393.55272 705.26016 393.55272
z
" clip-path="url(#p8c755e3773)" style="fill: #d5dde4"/>
   </g>
   <g id="patch_42">
    <path d="M 730.9728 393.55272
C 732.677568 393.55272 734.312743 393.973309 735.518196 394.721856
C 736.723649 395.470403 737.40096 396.485794 737.40096 397.5444
C 737.40096 398.603006 736.723649 399.618397 735.518196 400.366944
C 734.312743 401.115491 732.677568 401.53608 730.9728 401.53608
C 729.268032 401.53608 727.632857 401.115491 726.427404 400.366944
C 725.221951 399.618397 724.54464 398.603006 724.54464 397.5444
C 724.54464 396.485794 725.221951 395.470403 726.427404 394.721856
C 727.632857 393.973309 729.268032 393.55272 730.9728 393.55272
z
" clip-path="url(#p8c755e3773)" style="fill: #d5dde4"/>
   </g>
   <g id="line2d_1">
    <path d="M 47.9808 90.684
L 787.2192 90.684
" clip-path="url(#p8c755e3773)" style="fill: none; stroke: #d9e3ec; stroke-linecap: square"/>
   </g>
   <g id="text_1">
    <text style="font-weight: 700; font-size: 24px; font-family: 'DejaVu Sans'; text-anchor: start; fill: #182431" x="47.9808" y="54.03465" transform="rotate(-0 47.9808 54.03465)">Скалярное произведение и три режима шага</text>
   </g>
   <g id="text_2">
    <text style="font-size: 11px; font-family: 'DejaVu Sans'; text-anchor: start; fill: #5d6b78" x="47.9808" y="74.281625" transform="rotate(-0 47.9808 74.281625)">Математика прогноза слева, размер выборки для одного шага справа.</text>
   </g>
   <g id="text_3">
    <text style="font-weight: 700; font-size: 10.2px; font-family: 'DejaVu Sans'; text-anchor: middle; fill: #ffffff" x="132.3504" y="156.617003" transform="rotate(-0 132.3504 156.617003)">ПРОГНОЗ</text>
   </g>
   <g id="text_4">
    <text style="font-weight: 700; font-size: 13px; font-family: 'DejaVu Sans'; text-anchor: start; fill: #182431" x="80.1216" y="205.343569" transform="rotate(-0 80.1216 205.343569)">x = [2, 3]</text>
   </g>
   <g id="text_5">
    <text style="font-weight: 700; font-size: 13px; font-family: 'DejaVu Sans'; text-anchor: start; fill: #182431" x="80.1216" y="240.270769" transform="rotate(-0 80.1216 240.270769)">w = [0,8; −0,4]</text>
   </g>
   <g id="text_6">
    <text style="font-size: 11.5px; font-family: 'DejaVu Sans'; text-anchor: start; fill: #5d6b78" x="80.1216" y="289.027003" transform="rotate(-0 80.1216 289.027003)">xᵀw = 2·0,8 + 3·(−0,4)</text>
   </g>
   <g id="text_7">
    <text style="font-weight: 700; font-size: 16px; font-family: 'DejaVu Sans'; text-anchor: start; fill: #0758b4" x="80.1216" y="332.3631" transform="rotate(-0 80.1216 332.3631)">= 1,6 − 1,2 = 0,4</text>
   </g>
   <g id="text_8">
    <text style="font-weight: 700; font-size: 10.5px; font-family: 'DejaVu Sans'; text-anchor: start; fill: #0758b4" x="80.1216" y="383.069559" transform="rotate(-0 80.1216 383.069559)">одна строка X × веса → одно число</text>
   </g>
   <g id="text_9">
    <text style="font-weight: 700; font-size: 10.5px; font-family: 'DejaVu Sans'; text-anchor: start; fill: #0b70e0" x="449.7408" y="153.547959" transform="rotate(-0 449.7408 153.547959)">BATCH</text>
   </g>
   <g id="text_10">
    <text style="font-size: 9.5px; font-family: 'DejaVu Sans'; text-anchor: start; fill: #5d6b78" x="449.7408" y="182.887513" transform="rotate(-0 449.7408 182.887513)">вся выборка</text>
   </g>
   <g id="text_11">
    <text style="font-weight: 700; font-size: 10.5px; font-family: 'DejaVu Sans'; text-anchor: start; fill: #ce3b36" x="449.7408" y="263.319159" transform="rotate(-0 449.7408 263.319159)">SGD</text>
   </g>
   <g id="text_12">
    <text style="font-size: 9.5px; font-family: 'DejaVu Sans'; text-anchor: start; fill: #5d6b78" x="449.7408" y="292.496916" transform="rotate(-0 449.7408 292.496916)">один объект</text>
   </g>
   <g id="text_13">
    <text style="font-weight: 700; font-size: 10.5px; font-family: 'DejaVu Sans'; text-anchor: start; fill: #7657e8" x="449.7408" y="373.090359" transform="rotate(-0 449.7408 373.090359)">MINI-BATCH</text>
   </g>
   <g id="text_14">
    <text style="font-size: 9.5px; font-family: 'DejaVu Sans'; text-anchor: start; fill: #5d6b78" x="449.7408" y="402.429913" transform="rotate(-0 449.7408 402.429913)">небольшая группа</text>
   </g>
   <g id="text_15">
    <text style="font-weight: 700; font-size: 10.5px; font-family: 'DejaVu Sans'; text-anchor: middle; fill: #b96a00" x="598.392" y="468.23565" transform="rotate(-0 598.392 468.23565)">Разные масштабы признаков меняют геометрию и скорость оптимизации.</text>
   </g>
  </g>
 </g>
 <defs>
  <clipPath id="p8c755e3773">
   <rect x="15.84" y="15.84" width="803.52" height="498.96"/>
  </clipPath>
 </defs>
</svg>
