<?xml version="1.0" encoding="utf-8" standalone="no"?>
<!DOCTYPE svg PUBLIC "-//W3C//DTD SVG 1.1//EN"
  "http://www.w3.org/Graphics/SVG/1.1/DTD/svg11.dtd">
<svg xmlns:xlink="http://www.w3.org/1999/xlink" width="835.2pt" height="530.64pt" viewBox="0 0 835.2 530.64" xmlns="http://www.w3.org/2000/svg" version="1.1">
 <metadata>
  <rdf:RDF xmlns:dc="http://purl.org/dc/elements/1.1/" xmlns:cc="http://creativecommons.org/ns#" xmlns:rdf="http://www.w3.org/1999/02/22-rdf-syntax-ns#">
   <cc:Work>
    <dc:type rdf:resource="http://purl.org/dc/dcmitype/StillImage"/>
    <dc:format>image/svg+xml</dc:format>
    <dc:creator>
     <cc:Agent>
      <dc:title>Matplotlib v3.10.8, https://matplotlib.org/</dc:title>
     </cc:Agent>
    </dc:creator>
   </cc:Work>
  </rdf:RDF>
 </metadata>
 <defs>
  <style type="text/css">*{stroke-linejoin: round; stroke-linecap: butt}</style>
 </defs>
 <g id="figure_1">
  <g id="patch_1">
   <path d="M 0 530.64
L 835.2 530.64
L 835.2 0
L 0 0
z
" style="fill: #ffffff"/>
  </g>
  <g id="axes_1">
   <g id="patch_2">
    <path d="M 74.0952 123.86484
L 761.1048 123.86484
Q 773.96112 123.86484 773.96112 131.8482
L 773.96112 423.7398
Q 773.96112 431.72316 761.1048 431.72316
L 74.0952 431.72316
Q 61.23888 431.72316 61.23888 423.7398
L 61.23888 131.8482
Q 61.23888 123.86484 74.0952 123.86484
z
" clip-path="url(#p8c755e3773)" style="fill: #eaf4ff; stroke: #0b70e0; stroke-width: 1.1; stroke-linejoin: miter"/>
   </g>
   <g id="patch_3">
    <path d="M 100.61136 143.82324
L 292.65264 143.82324
Q 299.88432 143.82324 299.88432 148.31388
L 299.88432 169.2702
Q 299.88432 173.76084 292.65264 173.76084
L 100.61136 173.76084
Q 93.37968 173.76084 93.37968 169.2702
L 93.37968 148.31388
Q 93.37968 143.82324 100.61136 143.82324
z
" clip-path="url(#p8c755e3773)" style="fill: #0b70e0; stroke: #0b70e0; stroke-width: 1.1; stroke-linejoin: miter"/>
   </g>
   <g id="PathCollection_1">
    <defs>
     <path id="m3b3a1281f0" d="M 0 5.123475
C 1.358762 5.123475 2.662055 4.583634 3.622844 3.622844
C 4.583634 2.662055 5.123475 1.358762 5.123475 0
C 5.123475 -1.358762 4.583634 -2.662055 3.622844 -3.622844
C 2.662055 -4.583634 1.358762 -5.123475 0 -5.123475
C -1.358762 -5.123475 -2.662055 -4.583634 -3.622844 -3.622844
C -4.583634 -2.662055 -5.123475 -1.358762 -5.123475 0
C -5.123475 1.358762 -4.583634 2.662055 -3.622844 3.622844
C -2.662055 4.583634 -1.358762 5.123475 0 5.123475
z
" style="stroke: #ffffff; stroke-width: 1.3"/>
    </defs>
    <g clip-path="url(#p8c755e3773)">
     <use xlink:href="#m3b3a1281f0" x="185.543424" y="255.3408" style="fill: #0b70e0; stroke: #ffffff; stroke-width: 1.3"/>
    </g>
   </g>
   <g id="PathCollection_2">
    <g clip-path="url(#p8c755e3773)">
     <use xlink:href="#m3b3a1281f0" x="319.891968" y="255.3408" style="fill: #0b70e0; stroke: #ffffff; stroke-width: 1.3"/>
    </g>
   </g>
   <g id="PathCollection_3">
    <g clip-path="url(#p8c755e3773)">
     <use xlink:href="#m3b3a1281f0" x="454.240512" y="255.3408" style="fill: #0b70e0; stroke: #ffffff; stroke-width: 1.3"/>
    </g>
   </g>
   <g id="PathCollection_4">
    <g clip-path="url(#p8c755e3773)">
     <use xlink:href="#m3b3a1281f0" x="551.948544" y="255.3408" style="fill: #0b70e0; stroke: #ffffff; stroke-width: 1.3"/>
    </g>
   </g>
   <g id="PathCollection_5">
    <g clip-path="url(#p8c755e3773)">
     <use xlink:href="#m3b3a1281f0" x="643.549824" y="255.3408" style="fill: #0b70e0; stroke: #ffffff; stroke-width: 1.3"/>
    </g>
   </g>
   <g id="patch_4">
    <path d="M 146.412 448.18884
L 688.788 448.18884
Q 701.64432 448.18884 701.64432 456.1722
L 701.64432 483.615
Q 701.64432 491.59836 688.788 491.59836
L 146.412 491.59836
Q 133.55568 491.59836 133.55568 483.615
L 133.55568 456.1722
Q 133.55568 448.18884 146.412 448.18884
z
" clip-path="url(#p8c755e3773)" style="fill: #fff0ef; stroke: #efa19d; stroke-width: 1.1; stroke-linejoin: miter"/>
   </g>
   <g id="line2d_1">
    <path d="M 47.9808 90.684
L 787.2192 90.684
" clip-path="url(#p8c755e3773)" style="fill: none; stroke: #d9e3ec; stroke-linecap: square"/>
   </g>
   <g id="line2d_2">
    <path d="M 112.2624 255.3408
L 722.9376 255.3408
" clip-path="url(#p8c755e3773)" style="fill: none; stroke: #182431; stroke-width: 2; stroke-linecap: square"/>
   </g>
   <g id="line2d_3">
    <path d="M 417.6 205.4448
L 417.6 320.2056
" clip-path="url(#p8c755e3773)" style="fill: none; stroke-dasharray: 8.14,3.52; stroke-dashoffset: 0; stroke: #7657e8; stroke-width: 2.2"/>
   </g>
   <g id="line2d_4">
    <path d="M 600.80256 205.4448
L 600.80256 380.0808
" clip-path="url(#p8c755e3773)" style="fill: none; stroke-dasharray: 8.14,3.52; stroke-dashoffset: 0; stroke: #ce3b36; stroke-width: 2.2"/>
   </g>
   <g id="text_1">
    <text style="font-weight: 700; font-size: 24px; font-family: 'DejaVu Sans'; text-anchor: start; fill: #182431" x="47.9808" y="54.03465" transform="rotate(-0 47.9808 54.03465)">Порог превращает вероятность в решение</text>
   </g>
   <g id="text_2">
    <text style="font-size: 11px; font-family: 'DejaVu Sans'; text-anchor: start; fill: #5d6b78" x="47.9808" y="74.281625" transform="rotate(-0 47.9808 74.281625)">Один и тот же набор вероятностей даёт разные классы при разных порогах.</text>
   </g>
   <g id="text_3">
    <text style="font-weight: 700; font-size: 10.2px; font-family: 'DejaVu Sans'; text-anchor: middle; fill: #ffffff" x="196.632" y="161.606603" transform="rotate(-0 196.632 161.606603)">ВЕРОЯТНОСТИ МОДЕЛИ</text>
   </g>
   <g id="text_4">
    <text style="font-size: 9px; font-family: 'DejaVu Sans'; text-anchor: middle; fill: #182431" x="185.543424" y="287.127394" transform="rotate(-0 185.543424 287.127394)">0,12</text>
   </g>
   <g id="text_5">
    <text style="font-size: 9px; font-family: 'DejaVu Sans'; text-anchor: middle; fill: #182431" x="319.891968" y="287.127394" transform="rotate(-0 319.891968 287.127394)">0,34</text>
   </g>
   <g id="text_6">
    <text style="font-size: 9px; font-family: 'DejaVu Sans'; text-anchor: middle; fill: #182431" x="454.240512" y="287.127394" transform="rotate(-0 454.240512 287.127394)">0,56</text>
   </g>
   <g id="text_7">
    <text style="font-size: 9px; font-family: 'DejaVu Sans'; text-anchor: middle; fill: #182431" x="551.948544" y="287.127394" transform="rotate(-0 551.948544 287.127394)">0,72</text>
   </g>
   <g id="text_8">
    <text style="font-size: 9px; font-family: 'DejaVu Sans'; text-anchor: middle; fill: #182431" x="643.549824" y="287.127394" transform="rotate(-0 643.549824 287.127394)">0,87</text>
   </g>
   <g id="text_9">
    <text style="font-weight: 700; font-size: 10.5px; font-family: 'DejaVu Sans'; text-anchor: middle; fill: #7657e8" x="417.6" y="343.152759" transform="rotate(-0 417.6 343.152759)">порог 0,5</text>
   </g>
   <g id="text_10">
    <text style="font-weight: 700; font-size: 10.5px; font-family: 'DejaVu Sans'; text-anchor: middle; fill: #ce3b36" x="600.80256" y="403.027959" transform="rotate(-0 600.80256 403.027959)">порог 0,8</text>
   </g>
   <g id="text_11">
    <text style="font-weight: 700; font-size: 11px; font-family: 'DejaVu Sans'; text-anchor: middle; fill: #5d6b78" x="216.72" y="368.480681" transform="rotate(-0 216.72 368.480681)">класс 0</text>
   </g>
   <g id="text_12">
    <text style="font-weight: 700; font-size: 11px; font-family: 'DejaVu Sans'; text-anchor: middle; fill: #7657e8" x="610.4448" y="368.480681" transform="rotate(-0 610.4448 368.480681)">класс 1</text>
   </g>
   <g id="text_13">
    <text style="font-weight: 700; font-size: 10.5px; font-family: 'DejaVu Sans'; text-anchor: middle; fill: #ce3b36" x="417.6" y="472.921373" transform="rotate(-0 417.6 472.921373)">Выше порог → меньше ложных тревог, но больше возможных пропусков.</text>
   </g>
  </g>
 </g>
 <defs>
  <clipPath id="p8c755e3773">
   <rect x="15.84" y="15.84" width="803.52" height="498.96"/>
  </clipPath>
 </defs>
</svg>
