<?xml version="1.0" encoding="utf-8" standalone="no"?>
<!DOCTYPE svg PUBLIC "-//W3C//DTD SVG 1.1//EN"
  "http://www.w3.org/Graphics/SVG/1.1/DTD/svg11.dtd">
<svg xmlns:xlink="http://www.w3.org/1999/xlink" width="835.2pt" height="530.64pt" viewBox="0 0 835.2 530.64" xmlns="http://www.w3.org/2000/svg" version="1.1">
 <metadata>
  <rdf:RDF xmlns:dc="http://purl.org/dc/elements/1.1/" xmlns:cc="http://creativecommons.org/ns#" xmlns:rdf="http://www.w3.org/1999/02/22-rdf-syntax-ns#">
   <cc:Work>
    <dc:type rdf:resource="http://purl.org/dc/dcmitype/StillImage"/>
    <dc:format>image/svg+xml</dc:format>
    <dc:creator>
     <cc:Agent>
      <dc:title>Matplotlib v3.10.8, https://matplotlib.org/</dc:title>
     </cc:Agent>
    </dc:creator>
   </cc:Work>
  </rdf:RDF>
 </metadata>
 <defs>
  <style type="text/css">*{stroke-linejoin: round; stroke-linecap: butt}</style>
 </defs>
 <g id="figure_1">
  <g id="patch_1">
   <path d="M 0 530.64
L 835.2 530.64
L 835.2 0
L 0 0
z
" style="fill: #ffffff"/>
  </g>
  <g id="axes_1">
   <g id="patch_2">
    <path d="M 323.1864 108.89604
L 512.0136 108.89604
Q 524.86992 108.89604 524.86992 116.8794
L 524.86992 144.3222
Q 524.86992 152.30556 512.0136 152.30556
L 323.1864 152.30556
Q 310.33008 152.30556 310.33008 144.3222
L 310.33008 116.8794
Q 310.33008 108.89604 323.1864 108.89604
z
" clip-path="url(#p8c755e3773)" style="fill: #0b70e0; stroke: #0b70e0; stroke-width: 1.1; stroke-linejoin: miter"/>
   </g>
   <g id="patch_3">
    <path d="M 375.502251 151.120774
Q 309.123612 170.517947 244.676648 189.350646
" clip-path="url(#p8c755e3773)" style="fill: none; stroke: #0b70e0; stroke-width: 1.8; stroke-linecap: round"/>
    <path d="M 250.837218 190.467505
L 244.676648 189.350646
L 249.266476 185.092305
z
" clip-path="url(#p8c755e3773)" style="fill: #0b70e0; stroke: #0b70e0; stroke-width: 1.8; stroke-linecap: round"/>
   </g>
   <g id="patch_4">
    <path d="M 459.697749 151.120774
Q 526.076388 170.517947 590.523352 189.350646
" clip-path="url(#p8c755e3773)" style="fill: none; stroke: #0b70e0; stroke-width: 1.8; stroke-linecap: round"/>
    <path d="M 585.933524 185.092305
L 590.523352 189.350646
L 584.362782 190.467505
z
" clip-path="url(#p8c755e3773)" style="fill: #0b70e0; stroke: #0b70e0; stroke-width: 1.8; stroke-linecap: round"/>
   </g>
   <g id="patch_5">
    <path d="M 138.3768 188.72964
L 343.2744 188.72964
Q 356.13072 188.72964 356.13072 196.713
L 356.13072 224.1558
Q 356.13072 232.13916 343.2744 232.13916
L 138.3768 232.13916
Q 125.52048 232.13916 125.52048 224.1558
L 125.52048 196.713
Q 125.52048 188.72964 138.3768 188.72964
z
" clip-path="url(#p8c755e3773)" style="fill: #eaf4ff; stroke: #9bcbfa; stroke-width: 1.1; stroke-linejoin: miter"/>
   </g>
   <g id="patch_6">
    <path d="M 491.9256 188.72964
L 696.8232 188.72964
Q 709.67952 188.72964 709.67952 196.713
L 709.67952 224.1558
Q 709.67952 232.13916 696.8232 232.13916
L 491.9256 232.13916
Q 479.06928 232.13916 479.06928 224.1558
L 479.06928 196.713
Q 479.06928 188.72964 491.9256 188.72964
z
" clip-path="url(#p8c755e3773)" style="fill: #f0ecff; stroke: #c4b8fa; stroke-width: 1.1; stroke-linejoin: miter"/>
   </g>
   <g id="patch_7">
    <path d="M 58.0248 268.56324
L 262.9224 268.56324
Q 275.77872 268.56324 275.77872 276.5466
L 275.77872 448.6878
Q 275.77872 456.67116 262.9224 456.67116
L 58.0248 456.67116
Q 45.16848 456.67116 45.16848 448.6878
L 45.16848 276.5466
Q 45.16848 268.56324 58.0248 268.56324
z
" clip-path="url(#p8c755e3773)" style="fill: #eaf4ff; stroke: #0b70e0; stroke-width: 1.1; stroke-linejoin: miter"/>
   </g>
   <g id="patch_8">
    <path d="M 116.68176 318.45924
L 204.26544 318.45924
Q 211.49712 318.45924 211.49712 322.94988
L 211.49712 343.9062
Q 211.49712 348.39684 204.26544 348.39684
L 116.68176 348.39684
Q 109.45008 348.39684 109.45008 343.9062
L 109.45008 322.94988
Q 109.45008 318.45924 116.68176 318.45924
z
" clip-path="url(#p8c755e3773)" style="fill: #0b70e0; stroke: #0b70e0; stroke-width: 1.1; stroke-linejoin: miter"/>
   </g>
   <g id="PathCollection_1">
    <defs>
     <path id="m0f1ecfb825" d="M 0 4.330127
C 1.148363 4.330127 2.249847 3.873878 3.061862 3.061862
C 3.873878 2.249847 4.330127 1.148363 4.330127 0
C 4.330127 -1.148363 3.873878 -2.249847 3.061862 -3.061862
C 2.249847 -3.873878 1.148363 -4.330127 0 -4.330127
C -1.148363 -4.330127 -2.249847 -3.873878 -3.061862 -3.061862
C -3.873878 -2.249847 -4.330127 -1.148363 -4.330127 0
C -4.330127 1.148363 -3.873878 2.249847 -3.061862 3.061862
C -2.249847 3.873878 -1.148363 4.330127 0 4.330127
z
" style="stroke: #0b70e0; stroke-width: 2"/>
    </defs>
    <g clip-path="url(#p8c755e3773)">
     <use xlink:href="#m0f1ecfb825" x="112.2624" y="370.1016" style="fill: #ffffff; stroke: #0b70e0; stroke-width: 2"/>
    </g>
   </g>
   <g id="PathCollection_2">
    <g clip-path="url(#p8c755e3773)">
     <use xlink:href="#m0f1ecfb825" x="136.368" y="405.0288" style="fill: #ffffff; stroke: #0b70e0; stroke-width: 2"/>
    </g>
   </g>
   <g id="PathCollection_3">
    <defs>
     <path id="mda2088f03b" d="M -4.330127 4.330127
L 4.330127 4.330127
L 4.330127 -4.330127
L -4.330127 -4.330127
z
" style="stroke: #0b70e0; stroke-width: 2"/>
    </defs>
    <g clip-path="url(#p8c755e3773)">
     <use xlink:href="#mda2088f03b" x="192.6144" y="365.112" style="fill: #ffffff; stroke: #0b70e0; stroke-width: 2"/>
    </g>
   </g>
   <g id="PathCollection_4">
    <g clip-path="url(#p8c755e3773)">
     <use xlink:href="#mda2088f03b" x="224.7552" y="390.06" style="fill: #ffffff; stroke: #0b70e0; stroke-width: 2"/>
    </g>
   </g>
   <g id="PathCollection_5">
    <defs>
     <path id="m610ce2e8b3" d="M -5.361903 5.361903
L 5.361903 5.361903
L 5.361903 -5.361903
L -5.361903 -5.361903
z
" style="stroke: #182431; stroke-width: 1.5"/>
    </defs>
    <g clip-path="url(#p8c755e3773)">
     <use xlink:href="#m610ce2e8b3" x="208.6848" y="370.1016" style="fill: #0b70e0; stroke: #182431; stroke-width: 1.5"/>
    </g>
   </g>
   <g id="patch_9">
    <path d="M 315.1512 268.56324
L 520.0488 268.56324
Q 532.90512 268.56324 532.90512 276.5466
L 532.90512 448.6878
Q 532.90512 456.67116 520.0488 456.67116
L 315.1512 456.67116
Q 302.29488 456.67116 302.29488 448.6878
L 302.29488 276.5466
Q 302.29488 268.56324 315.1512 268.56324
z
" clip-path="url(#p8c755e3773)" style="fill: #e8fafb; stroke: #138a57; stroke-width: 1.1; stroke-linejoin: miter"/>
   </g>
   <g id="patch_10">
    <path d="M 373.80816 318.45924
L 461.39184 318.45924
Q 468.62352 318.45924 468.62352 322.94988
L 468.62352 343.9062
Q 468.62352 348.39684 461.39184 348.39684
L 373.80816 348.39684
Q 366.57648 348.39684 366.57648 343.9062
L 366.57648 322.94988
Q 366.57648 318.45924 373.80816 318.45924
z
" clip-path="url(#p8c755e3773)" style="fill: #138a57; stroke: #138a57; stroke-width: 1.1; stroke-linejoin: miter"/>
   </g>
   <g id="PathCollection_6">
    <defs>
     <path id="m3c000c0835" d="M 0 3.708099
C 0.983399 3.708099 1.926654 3.317391 2.622022 2.622022
C 3.317391 1.926654 3.708099 0.983399 3.708099 0
C 3.708099 -0.983399 3.317391 -1.926654 2.622022 -2.622022
C 1.926654 -3.317391 0.983399 -3.708099 0 -3.708099
C -0.983399 -3.708099 -1.926654 -3.317391 -2.622022 -2.622022
C -3.317391 -1.926654 -3.708099 -0.983399 -3.708099 0
C -3.708099 0.983399 -3.317391 1.926654 -2.622022 2.622022
C -1.926654 3.317391 -0.983399 3.708099 0 3.708099
z
" style="stroke: #138a57; stroke-width: 1.7"/>
    </defs>
    <g clip-path="url(#p8c755e3773)">
     <use xlink:href="#m3c000c0835" x="353.3184" y="405.0288" style="fill: #ffffff; stroke: #138a57; stroke-width: 1.7"/>
    </g>
   </g>
   <g id="PathCollection_7">
    <g clip-path="url(#p8c755e3773)">
     <use xlink:href="#m3c000c0835" x="385.4592" y="395.0496" style="fill: #ffffff; stroke: #138a57; stroke-width: 1.7"/>
    </g>
   </g>
   <g id="PathCollection_8">
    <g clip-path="url(#p8c755e3773)">
     <use xlink:href="#m3c000c0835" x="417.6" y="380.0808" style="fill: #ffffff; stroke: #138a57; stroke-width: 1.7"/>
    </g>
   </g>
   <g id="PathCollection_9">
    <g clip-path="url(#p8c755e3773)">
     <use xlink:href="#m3c000c0835" x="449.7408" y="370.1016" style="fill: #ffffff; stroke: #138a57; stroke-width: 1.7"/>
    </g>
   </g>
   <g id="PathCollection_10">
    <g clip-path="url(#p8c755e3773)">
     <use xlink:href="#m3c000c0835" x="481.8816" y="360.1224" style="fill: #ffffff; stroke: #138a57; stroke-width: 1.7"/>
    </g>
   </g>
   <g id="PathCollection_11">
    <defs>
     <path id="m1f61eb294d" d="M 0 5
C 1.326016 5 2.597899 4.473168 3.535534 3.535534
C 4.473168 2.597899 5 1.326016 5 0
C 5 -1.326016 4.473168 -2.597899 3.535534 -3.535534
C 2.597899 -4.473168 1.326016 -5 0 -5
C -1.326016 -5 -2.597899 -4.473168 -3.535534 -3.535534
C -4.473168 -2.597899 -5 -1.326016 -5 0
C -5 1.326016 -4.473168 2.597899 -3.535534 3.535534
C -2.597899 4.473168 -1.326016 5 0 5
z
" style="stroke: #182431; stroke-width: 2"/>
    </defs>
    <g clip-path="url(#p8c755e3773)">
     <use xlink:href="#m1f61eb294d" x="465.8112" y="366.60888" style="fill: #ffffff; stroke: #182431; stroke-width: 2"/>
    </g>
   </g>
   <g id="patch_11">
    <path d="M 572.2776 268.56324
L 777.1752 268.56324
Q 790.03152 268.56324 790.03152 276.5466
L 790.03152 448.6878
Q 790.03152 456.67116 777.1752 456.67116
L 572.2776 456.67116
Q 559.42128 456.67116 559.42128 448.6878
L 559.42128 276.5466
Q 559.42128 268.56324 572.2776 268.56324
z
" clip-path="url(#p8c755e3773)" style="fill: #f0ecff; stroke: #7657e8; stroke-width: 1.1; stroke-linejoin: miter"/>
   </g>
   <g id="patch_12">
    <path d="M 630.93456 318.45924
L 718.51824 318.45924
Q 725.74992 318.45924 725.74992 322.94988
L 725.74992 343.9062
Q 725.74992 348.39684 718.51824 348.39684
L 630.93456 348.39684
Q 623.70288 348.39684 623.70288 343.9062
L 623.70288 322.94988
Q 623.70288 318.45924 630.93456 318.45924
z
" clip-path="url(#p8c755e3773)" style="fill: #7657e8; stroke: #7657e8; stroke-width: 1.1; stroke-linejoin: miter"/>
   </g>
   <g id="PathCollection_12">
    <defs>
     <path id="m221ccf88a9" d="M 0 3.535534
C 0.937635 3.535534 1.836992 3.163008 2.5 2.5
C 3.163008 1.836992 3.535534 0.937635 3.535534 0
C 3.535534 -0.937635 3.163008 -1.836992 2.5 -2.5
C 1.836992 -3.163008 0.937635 -3.535534 0 -3.535534
C -0.937635 -3.535534 -1.836992 -3.163008 -2.5 -2.5
C -3.163008 -1.836992 -3.535534 -0.937635 -3.535534 0
C -3.535534 0.937635 -3.163008 1.836992 -2.5 2.5
C -1.836992 3.163008 -0.937635 3.535534 0 3.535534
z
" style="stroke: #0b70e0; stroke-opacity: 0.85"/>
    </defs>
    <g clip-path="url(#p8c755e3773)">
     <use xlink:href="#m221ccf88a9" x="618.48" y="370.1016" style="fill: #0b70e0; fill-opacity: 0.85; stroke: #0b70e0; stroke-opacity: 0.85"/>
    </g>
   </g>
   <g id="PathCollection_13">
    <g clip-path="url(#p8c755e3773)">
     <use xlink:href="#m221ccf88a9" x="634.5504" y="390.06" style="fill: #0b70e0; fill-opacity: 0.85; stroke: #0b70e0; stroke-opacity: 0.85"/>
    </g>
   </g>
   <g id="PathCollection_14">
    <g clip-path="url(#p8c755e3773)">
     <use xlink:href="#m221ccf88a9" x="658.656" y="375.0912" style="fill: #0b70e0; fill-opacity: 0.85; stroke: #0b70e0; stroke-opacity: 0.85"/>
    </g>
   </g>
   <g id="PathCollection_15">
    <g clip-path="url(#p8c755e3773)">
     <use xlink:href="#m221ccf88a9" x="666.6912" y="390.06" style="fill: #0b70e0; fill-opacity: 0.85; stroke: #0b70e0; stroke-opacity: 0.85"/>
    </g>
   </g>
   <g id="PathCollection_16">
    <g clip-path="url(#p8c755e3773)">
     <use xlink:href="#m221ccf88a9" x="642.5856" y="380.0808" style="fill: #0b70e0; fill-opacity: 0.85; stroke: #0b70e0; stroke-opacity: 0.85"/>
    </g>
   </g>
   <g id="patch_13">
    <path d="M 642.5856 352.638
C 654.30588 352.638 665.547705 355.529547 673.835194 360.67581
C 682.122684 365.822074 686.7792 372.802884 686.7792 380.0808
C 686.7792 387.358716 682.122684 394.339526 673.835194 399.48579
C 665.547705 404.632053 654.30588 407.5236 642.5856 407.5236
C 630.86532 407.5236 619.623495 404.632053 611.336006 399.48579
C 603.048516 394.339526 598.392 387.358716 598.392 380.0808
C 598.392 372.802884 603.048516 365.822074 611.336006 360.67581
C 619.623495 355.529547 630.86532 352.638 642.5856 352.638
L 642.5856 352.638
z
" clip-path="url(#p8c755e3773)" style="fill: none; stroke-dasharray: 5.92,2.56; stroke-dashoffset: 0; stroke: #0b70e0; stroke-width: 1.6; stroke-linejoin: miter"/>
   </g>
   <g id="PathCollection_17">
    <defs>
     <path id="mb2df2beb5b" d="M 0 3.535534
C 0.937635 3.535534 1.836992 3.163008 2.5 2.5
C 3.163008 1.836992 3.535534 0.937635 3.535534 0
C 3.535534 -0.937635 3.163008 -1.836992 2.5 -2.5
C 1.836992 -3.163008 0.937635 -3.535534 0 -3.535534
C -0.937635 -3.535534 -1.836992 -3.163008 -2.5 -2.5
C -3.163008 -1.836992 -3.535534 -0.937635 -3.535534 0
C -3.535534 0.937635 -3.163008 1.836992 -2.5 2.5
C -1.836992 3.163008 -0.937635 3.535534 0 3.535534
z
" style="stroke: #7657e8; stroke-opacity: 0.85"/>
    </defs>
    <g clip-path="url(#p8c755e3773)">
     <use xlink:href="#mb2df2beb5b" x="698.832" y="385.0704" style="fill: #7657e8; fill-opacity: 0.85; stroke: #7657e8; stroke-opacity: 0.85"/>
    </g>
   </g>
   <g id="PathCollection_18">
    <g clip-path="url(#p8c755e3773)">
     <use xlink:href="#mb2df2beb5b" x="714.9024" y="405.0288" style="fill: #7657e8; fill-opacity: 0.85; stroke: #7657e8; stroke-opacity: 0.85"/>
    </g>
   </g>
   <g id="PathCollection_19">
    <g clip-path="url(#p8c755e3773)">
     <use xlink:href="#mb2df2beb5b" x="739.008" y="390.06" style="fill: #7657e8; fill-opacity: 0.85; stroke: #7657e8; stroke-opacity: 0.85"/>
    </g>
   </g>
   <g id="PathCollection_20">
    <g clip-path="url(#p8c755e3773)">
     <use xlink:href="#mb2df2beb5b" x="747.0432" y="405.0288" style="fill: #7657e8; fill-opacity: 0.85; stroke: #7657e8; stroke-opacity: 0.85"/>
    </g>
   </g>
   <g id="PathCollection_21">
    <g clip-path="url(#p8c755e3773)">
     <use xlink:href="#mb2df2beb5b" x="722.9376" y="395.0496" style="fill: #7657e8; fill-opacity: 0.85; stroke: #7657e8; stroke-opacity: 0.85"/>
    </g>
   </g>
   <g id="patch_14">
    <path d="M 722.9376 367.6068
C 734.65788 367.6068 745.899705 370.498347 754.187194 375.64461
C 762.474684 380.790874 767.1312 387.771684 767.1312 395.0496
C 767.1312 402.327516 762.474684 409.308326 754.187194 414.45459
C 745.899705 419.600853 734.65788 422.4924 722.9376 422.4924
C 711.21732 422.4924 699.975495 419.600853 691.688006 414.45459
C 683.400516 409.308326 678.744 402.327516 678.744 395.0496
C 678.744 387.771684 683.400516 380.790874 691.688006 375.64461
C 699.975495 370.498347 711.21732 367.6068 722.9376 367.6068
L 722.9376 367.6068
z
" clip-path="url(#p8c755e3773)" style="fill: none; stroke-dasharray: 5.92,2.56; stroke-dashoffset: 0; stroke: #7657e8; stroke-width: 1.6; stroke-linejoin: miter"/>
   </g>
   <g id="line2d_1">
    <path d="M 47.9808 90.684
L 787.2192 90.684
" clip-path="url(#p8c755e3773)" style="fill: none; stroke: #d9e3ec; stroke-linecap: square"/>
   </g>
   <g id="line2d_2">
    <path d="M 80.1216 395.0496
L 240.8256 360.1224
" clip-path="url(#p8c755e3773)" style="fill: none; stroke: #0b70e0; stroke-width: 2; stroke-linecap: square"/>
   </g>
   <g id="line2d_3">
    <path d="M 345.2832 410.0184
L 497.952 355.1328
" clip-path="url(#p8c755e3773)" style="fill: none; stroke: #138a57; stroke-width: 2.2; stroke-linecap: square"/>
   </g>
   <g id="line2d_4">
    <path d="M 465.8112 366.60888
L 465.8112 424.9872
" clip-path="url(#p8c755e3773)" style="fill: none; stroke-dasharray: 3.7,1.6; stroke-dashoffset: 0; stroke: #5d6b78"/>
   </g>
   <g id="text_1">
    <text style="font-weight: 700; font-size: 24px; font-family: 'DejaVu Sans'; text-anchor: start; fill: #182431" x="47.9808" y="54.8184" transform="rotate(-0 47.9808 54.8184)">Виды задач машинного обучения</text>
   </g>
   <g id="text_2">
    <text style="font-size: 11px; font-family: 'DejaVu Sans'; text-anchor: start; fill: #5d6b78" x="47.9808" y="74.094281" transform="rotate(-0 47.9808 74.094281)">Сначала наличие правильных ответов, затем формат результата.</text>
   </g>
   <g id="text_3">
    <text style="font-weight: 700; font-size: 14px; font-family: 'DejaVu Sans'; text-anchor: middle; fill: #ffffff" x="417.6" y="134.463925" transform="rotate(-0 417.6 134.463925)">МАШИННОЕ ОБУЧЕНИЕ</text>
   </g>
   <g id="text_4">
    <text style="font-weight: 700; font-size: 13px; font-family: 'DejaVu Sans'; text-anchor: middle; fill: #0758b4" x="240.8256" y="214.021588" transform="rotate(-0 240.8256 214.021588)">С УЧИТЕЛЕМ</text>
   </g>
   <g id="text_5">
    <text style="font-weight: 700; font-size: 13px; font-family: 'DejaVu Sans'; text-anchor: middle; fill: #7657e8" x="594.3744" y="214.021588" transform="rotate(-0 594.3744 214.021588)">БЕЗ УЧИТЕЛЯ</text>
   </g>
   <g id="text_6">
    <text style="font-size: 10px; font-family: 'DejaVu Sans'; text-anchor: middle; fill: #5d6b78" x="240.8256" y="247.970438" transform="rotate(-0 240.8256 247.970438)">для примеров известны ответы</text>
   </g>
   <g id="text_7">
    <text style="font-size: 10px; font-family: 'DejaVu Sans'; text-anchor: middle; fill: #5d6b78" x="594.3744" y="247.970438" transform="rotate(-0 594.3744 247.970438)">готовых ответов нет</text>
   </g>
   <g id="text_8">
    <text style="font-weight: 700; font-size: 12.5px; font-family: 'DejaVu Sans'; text-anchor: middle; fill: #0b70e0" x="160.4736" y="304.755647" transform="rotate(-0 160.4736 304.755647)">КЛАССИФИКАЦИЯ</text>
   </g>
   <g id="text_9">
    <text style="font-weight: 700; font-size: 10.2px; font-family: 'DejaVu Sans'; text-anchor: middle; fill: #ffffff" x="160.4736" y="336.242603" transform="rotate(-0 160.4736 336.242603)">КАТЕГОРИЯ</text>
   </g>
   <g id="text_10">
    <text style="font-size: 8.5px; font-family: 'DejaVu Sans'; text-anchor: middle; fill: #182431" x="200.6496" y="356.601872" transform="rotate(-0 200.6496 356.601872)">новый клиент</text>
   </g>
   <g id="text_11">
    <text style="font-size: 10.5px; font-family: 'DejaVu Sans'; text-anchor: middle; fill: #182431" x="160.4736" y="442.944759" transform="rotate(-0 160.4736 442.944759)">уйдёт / останется</text>
   </g>
   <g id="text_12">
    <text style="font-weight: 700; font-size: 12.5px; font-family: 'DejaVu Sans'; text-anchor: middle; fill: #138a57" x="417.6" y="304.755647" transform="rotate(-0 417.6 304.755647)">РЕГРЕССИЯ</text>
   </g>
   <g id="text_13">
    <text style="font-weight: 700; font-size: 10.2px; font-family: 'DejaVu Sans'; text-anchor: middle; fill: #ffffff" x="417.6" y="336.242603" transform="rotate(-0 417.6 336.242603)">ЧИСЛО</text>
   </g>
   <g id="text_14">
    <text style="font-size: 10.5px; font-family: 'DejaVu Sans'; text-anchor: middle; fill: #182431" x="417.6" y="442.944759" transform="rotate(-0 417.6 442.944759)">цена квартиры</text>
   </g>
   <g id="text_15">
    <text style="font-weight: 700; font-size: 12.5px; font-family: 'DejaVu Sans'; text-anchor: middle; fill: #7657e8" x="674.7264" y="304.755647" transform="rotate(-0 674.7264 304.755647)">КЛАСТЕРИЗАЦИЯ</text>
   </g>
   <g id="text_16">
    <text style="font-weight: 700; font-size: 10.2px; font-family: 'DejaVu Sans'; text-anchor: middle; fill: #ffffff" x="674.7264" y="336.242603" transform="rotate(-0 674.7264 336.242603)">ГРУППЫ</text>
   </g>
   <g id="text_17">
    <text style="font-size: 10.5px; font-family: 'DejaVu Sans'; text-anchor: middle; fill: #182431" x="674.7264" y="442.944759" transform="rotate(-0 674.7264 442.944759)">похожие клиенты</text>
   </g>
   <g id="text_18">
    <text style="font-weight: 700; font-size: 11px; font-family: 'DejaVu Sans'; text-anchor: middle; fill: #ce3b36" x="417.6" y="493.268806" transform="rotate(-0 417.6 493.268806)">Числовой код класса не превращает классификацию в регрессию.</text>
   </g>
  </g>
 </g>
 <defs>
  <clipPath id="p8c755e3773">
   <rect x="15.84" y="15.84" width="803.52" height="498.96"/>
  </clipPath>
 </defs>
</svg>
