<?xml version="1.0" encoding="utf-8" standalone="no"?>
<!DOCTYPE svg PUBLIC "-//W3C//DTD SVG 1.1//EN"
  "http://www.w3.org/Graphics/SVG/1.1/DTD/svg11.dtd">
<svg xmlns:xlink="http://www.w3.org/1999/xlink" width="994.9383pt" height="530.64pt" viewBox="0 0 994.9383 530.64" xmlns="http://www.w3.org/2000/svg" version="1.1">
 <metadata>
  <rdf:RDF xmlns:dc="http://purl.org/dc/elements/1.1/" xmlns:cc="http://creativecommons.org/ns#" xmlns:rdf="http://www.w3.org/1999/02/22-rdf-syntax-ns#">
   <cc:Work>
    <dc:type rdf:resource="http://purl.org/dc/dcmitype/StillImage"/>
    <dc:format>image/svg+xml</dc:format>
    <dc:creator>
     <cc:Agent>
      <dc:title>Matplotlib v3.10.8, https://matplotlib.org/</dc:title>
     </cc:Agent>
    </dc:creator>
   </cc:Work>
  </rdf:RDF>
 </metadata>
 <defs>
  <style type="text/css">*{stroke-linejoin: round; stroke-linecap: butt}</style>
 </defs>
 <g id="figure_1">
  <g id="patch_1">
   <path d="M 0 530.64
L 994.9383 530.64
L 994.9383 0
L 0 0
z
" style="fill: #ffffff"/>
  </g>
  <g id="axes_1">
   <g id="patch_2">
    <path d="M 90.1656 123.86484
L 745.0344 123.86484
Q 757.89072 123.86484 757.89072 131.8482
L 757.89072 408.771
Q 757.89072 416.75436 745.0344 416.75436
L 90.1656 416.75436
Q 77.30928 416.75436 77.30928 408.771
L 77.30928 131.8482
Q 77.30928 123.86484 90.1656 123.86484
z
" clip-path="url(#p8c755e3773)" style="fill: #eaf4ff; stroke: #0b70e0; stroke-width: 1.1; stroke-linejoin: miter"/>
   </g>
   <g id="patch_3">
    <path d="M 202.601755 240.818609
Q 276.987282 257.836351 349.411032 274.405282
" clip-path="url(#p8c755e3773)" style="fill: none; stroke: #0b70e0; stroke-width: 1.8; stroke-linecap: round"/>
    <path d="M 344.576513 270.426912
L 349.411032 274.405282
L 343.327624 275.885875
z
" clip-path="url(#p8c755e3773)" style="fill: #0b70e0; stroke: #0b70e0; stroke-width: 1.8; stroke-linecap: round"/>
   </g>
   <g id="patch_4">
    <path d="M 632.598245 240.818609
Q 558.212718 257.836351 485.788968 274.405282
" clip-path="url(#p8c755e3773)" style="fill: none; stroke: #138a57; stroke-width: 1.8; stroke-linecap: round"/>
    <path d="M 491.872376 275.885875
L 485.788968 274.405282
L 490.623487 270.426912
z
" clip-path="url(#p8c755e3773)" style="fill: #138a57; stroke: #138a57; stroke-width: 1.8; stroke-linecap: round"/>
   </g>
   <g id="patch_5">
    <path d="M 250.8696 278.54244
L 584.3304 278.54244
Q 597.18672 278.54244 597.18672 286.5258
L 597.18672 353.8854
Q 597.18672 361.86876 584.3304 361.86876
L 250.8696 361.86876
Q 238.01328 361.86876 238.01328 353.8854
L 238.01328 286.5258
Q 238.01328 278.54244 250.8696 278.54244
z
" clip-path="url(#p8c755e3773)" style="fill: #ffffff; stroke: #7657e8; stroke-width: 1.1; stroke-linejoin: miter"/>
   </g>
   <g id="patch_6">
    <path d="M 138.3768 438.20964
L 696.8232 438.20964
Q 709.67952 438.20964 709.67952 446.193
L 709.67952 478.6254
Q 709.67952 486.60876 696.8232 486.60876
L 138.3768 486.60876
Q 125.52048 486.60876 125.52048 478.6254
L 125.52048 446.193
Q 125.52048 438.20964 138.3768 438.20964
z
" clip-path="url(#p8c755e3773)" style="fill: #fff4dd; stroke: #f2c36f; stroke-width: 1.1; stroke-linejoin: miter"/>
   </g>
   <g id="line2d_1">
    <path d="M 47.9808 90.684
L 787.2192 90.684
" clip-path="url(#p8c755e3773)" style="fill: none; stroke: #d9e3ec; stroke-linecap: square"/>
   </g>
   <g id="text_1">
    <text style="font-weight: 700; font-size: 24px; font-family: 'DejaVu Sans'; text-anchor: start; fill: #182431" x="47.9808" y="53.84715" transform="rotate(-0 47.9808 53.84715)">Скалярное произведение: из двух списков получается одно число</text>
   </g>
   <g id="text_2">
    <text style="font-size: 11px; font-family: 'DejaVu Sans'; text-anchor: start; fill: #5d6b78" x="47.9808" y="74.094281" transform="rotate(-0 47.9808 74.094281)">Умножаем значения попарно и складываем — это основа линейного прогноза.</text>
   </g>
   <g id="text_3">
    <text style="font-weight: 700; font-size: 10.5px; font-family: 'DejaVu Sans'; text-anchor: middle; fill: #0758b4" x="200.6496" y="178.495959" transform="rotate(-0 200.6496 178.495959)">ПРИЗНАКИ</text>
   </g>
   <g id="text_4">
    <text style="font-weight: 700; font-size: 18px; font-family: 'DejaVu Sans'; text-anchor: middle; fill: #182431" x="200.6496" y="224.111588" transform="rotate(-0 200.6496 224.111588)">x = [ 2 , 3 ]</text>
   </g>
   <g id="text_5">
    <text style="font-weight: 700; font-size: 10.5px; font-family: 'DejaVu Sans'; text-anchor: middle; fill: #7657e8" x="417.6" y="178.495959" transform="rotate(-0 417.6 178.495959)">ПОПАРНО УМНОЖИТЬ</text>
   </g>
   <g id="text_6">
    <text style="font-weight: 700; font-size: 14px; font-family: 'DejaVu Sans'; text-anchor: middle; fill: #182431" x="417.6" y="221.072213" transform="rotate(-0 417.6 221.072213)">2 × 0,8     3 × (−0,4)</text>
   </g>
   <g id="text_7">
    <text style="font-weight: 700; font-size: 10.5px; font-family: 'DejaVu Sans'; text-anchor: middle; fill: #138a57" x="634.5504" y="178.495959" transform="rotate(-0 634.5504 178.495959)">ВЕСА</text>
   </g>
   <g id="text_8">
    <text style="font-weight: 700; font-size: 16px; font-family: 'DejaVu Sans'; text-anchor: middle; fill: #182431" x="634.5504" y="222.5919" transform="rotate(-0 634.5504 222.5919)">w = [ 0,8 , −0,4 ]</text>
   </g>
   <g id="text_9">
    <text style="font-weight: 700; font-size: 18px; font-family: 'DejaVu Sans'; text-anchor: middle; fill: #7657e8" x="417.6" y="318.913988" transform="rotate(-0 417.6 318.913988)">1,6 + (−1,2) = 0,4</text>
   </g>
   <g id="text_10">
    <text style="font-size: 10px; font-family: 'DejaVu Sans'; text-anchor: middle; fill: #5d6b78" x="417.6" y="347.762438" transform="rotate(-0 417.6 347.762438)">одно число — сырой результат модели</text>
   </g>
   <g id="text_11">
    <text style="font-weight: 700; font-size: 11px; font-family: 'DejaVu Sans'; text-anchor: middle; fill: #b96a00" x="417.6" y="465.444513" transform="rotate(-0 417.6 465.444513)">Важно: число признаков и число весов должны совпадать.</text>
   </g>
  </g>
 </g>
 <defs>
  <clipPath id="p8c755e3773">
   <rect x="15.84" y="15.84" width="803.52" height="498.96"/>
  </clipPath>
 </defs>
</svg>
