<?xml version="1.0" encoding="utf-8" standalone="no"?>
<!DOCTYPE svg PUBLIC "-//W3C//DTD SVG 1.1//EN"
  "http://www.w3.org/Graphics/SVG/1.1/DTD/svg11.dtd">
<svg xmlns:xlink="http://www.w3.org/1999/xlink" width="835.2pt" height="530.64pt" viewBox="0 0 835.2 530.64" xmlns="http://www.w3.org/2000/svg" version="1.1">
 <metadata>
  <rdf:RDF xmlns:dc="http://purl.org/dc/elements/1.1/" xmlns:cc="http://creativecommons.org/ns#" xmlns:rdf="http://www.w3.org/1999/02/22-rdf-syntax-ns#">
   <cc:Work>
    <dc:type rdf:resource="http://purl.org/dc/dcmitype/StillImage"/>
    <dc:format>image/svg+xml</dc:format>
    <dc:creator>
     <cc:Agent>
      <dc:title>Matplotlib v3.10.8, https://matplotlib.org/</dc:title>
     </cc:Agent>
    </dc:creator>
   </cc:Work>
  </rdf:RDF>
 </metadata>
 <defs>
  <style type="text/css">*{stroke-linejoin: round; stroke-linecap: butt}</style>
 </defs>
 <g id="figure_1">
  <g id="patch_1">
   <path d="M 0 530.64
L 835.2 530.64
L 835.2 0
L 0 0
z
" style="fill: #ffffff"/>
  </g>
  <g id="axes_1">
   <g id="patch_2">
    <path d="M 66.06 123.86484
L 383.4504 123.86484
Q 396.30672 123.86484 396.30672 131.8482
L 396.30672 418.7502
Q 396.30672 426.73356 383.4504 426.73356
L 66.06 426.73356
Q 53.20368 426.73356 53.20368 418.7502
L 53.20368 131.8482
Q 53.20368 123.86484 66.06 123.86484
z
" clip-path="url(#p8c755e3773)" style="fill: #eaf4ff; stroke: #0b70e0; stroke-width: 1.1; stroke-linejoin: miter"/>
   </g>
   <g id="patch_3">
    <path d="M 92.57616 143.82324
L 268.54704 143.82324
Q 275.77872 143.82324 275.77872 148.31388
L 275.77872 169.2702
Q 275.77872 173.76084 268.54704 173.76084
L 92.57616 173.76084
Q 85.34448 173.76084 85.34448 169.2702
L 85.34448 148.31388
Q 85.34448 143.82324 92.57616 143.82324
z
" clip-path="url(#p8c755e3773)" style="fill: #0b70e0; stroke: #0b70e0; stroke-width: 1.1; stroke-linejoin: miter"/>
   </g>
   <g id="patch_4">
    <path d="M 88.1568 247.457232
C 89.392757 247.457232 90.578258 247.762159 91.452212 248.304856
C 92.326165 248.847552 92.817216 249.583711 92.817216 250.3512
C 92.817216 251.118689 92.326165 251.854848 91.452212 252.397544
C 90.578258 252.940241 89.392757 253.245168 88.1568 253.245168
C 86.920843 253.245168 85.735342 252.940241 84.861388 252.397544
C 83.987435 251.854848 83.496384 251.118689 83.496384 250.3512
C 83.496384 249.583711 83.987435 248.847552 84.861388 248.304856
C 85.735342 247.762159 86.920843 247.457232 88.1568 247.457232
z
" clip-path="url(#p8c755e3773)" style="fill: #b9c6d0"/>
   </g>
   <g id="patch_5">
    <path d="M 101.81664 247.457232
C 103.052597 247.457232 104.238098 247.762159 105.112052 248.304856
C 105.986005 248.847552 106.477056 249.583711 106.477056 250.3512
C 106.477056 251.118689 105.986005 251.854848 105.112052 252.397544
C 104.238098 252.940241 103.052597 253.245168 101.81664 253.245168
C 100.580683 253.245168 99.395182 252.940241 98.521228 252.397544
C 97.647275 251.854848 97.156224 251.118689 97.156224 250.3512
C 97.156224 249.583711 97.647275 248.847552 98.521228 248.304856
C 99.395182 247.762159 100.580683 247.457232 101.81664 247.457232
z
" clip-path="url(#p8c755e3773)" style="fill: #b9c6d0"/>
   </g>
   <g id="patch_6">
    <path d="M 115.47648 247.457232
C 116.712437 247.457232 117.897938 247.762159 118.771892 248.304856
C 119.645845 248.847552 120.136896 249.583711 120.136896 250.3512
C 120.136896 251.118689 119.645845 251.854848 118.771892 252.397544
C 117.897938 252.940241 116.712437 253.245168 115.47648 253.245168
C 114.240523 253.245168 113.055022 252.940241 112.181068 252.397544
C 111.307115 251.854848 110.816064 251.118689 110.816064 250.3512
C 110.816064 249.583711 111.307115 248.847552 112.181068 248.304856
C 113.055022 247.762159 114.240523 247.457232 115.47648 247.457232
z
" clip-path="url(#p8c755e3773)" style="fill: #b9c6d0"/>
   </g>
   <g id="patch_7">
    <path d="M 129.13632 247.457232
C 130.372277 247.457232 131.557778 247.762159 132.431732 248.304856
C 133.305685 248.847552 133.796736 249.583711 133.796736 250.3512
C 133.796736 251.118689 133.305685 251.854848 132.431732 252.397544
C 131.557778 252.940241 130.372277 253.245168 129.13632 253.245168
C 127.900363 253.245168 126.714862 252.940241 125.840908 252.397544
C 124.966955 251.854848 124.475904 251.118689 124.475904 250.3512
C 124.475904 249.583711 124.966955 248.847552 125.840908 248.304856
C 126.714862 247.762159 127.900363 247.457232 129.13632 247.457232
z
" clip-path="url(#p8c755e3773)" style="fill: #b9c6d0"/>
   </g>
   <g id="patch_8">
    <path d="M 142.79616 247.457232
C 144.032117 247.457232 145.217618 247.762159 146.091572 248.304856
C 146.965525 248.847552 147.456576 249.583711 147.456576 250.3512
C 147.456576 251.118689 146.965525 251.854848 146.091572 252.397544
C 145.217618 252.940241 144.032117 253.245168 142.79616 253.245168
C 141.560203 253.245168 140.374702 252.940241 139.500748 252.397544
C 138.626795 251.854848 138.135744 251.118689 138.135744 250.3512
C 138.135744 249.583711 138.626795 248.847552 139.500748 248.304856
C 140.374702 247.762159 141.560203 247.457232 142.79616 247.457232
z
" clip-path="url(#p8c755e3773)" style="fill: #b9c6d0"/>
   </g>
   <g id="patch_9">
    <path d="M 156.456 247.457232
C 157.691957 247.457232 158.877458 247.762159 159.751412 248.304856
C 160.625365 248.847552 161.116416 249.583711 161.116416 250.3512
C 161.116416 251.118689 160.625365 251.854848 159.751412 252.397544
C 158.877458 252.940241 157.691957 253.245168 156.456 253.245168
C 155.220043 253.245168 154.034542 252.940241 153.160588 252.397544
C 152.286635 251.854848 151.795584 251.118689 151.795584 250.3512
C 151.795584 249.583711 152.286635 248.847552 153.160588 248.304856
C 154.034542 247.762159 155.220043 247.457232 156.456 247.457232
z
" clip-path="url(#p8c755e3773)" style="fill: #b9c6d0"/>
   </g>
   <g id="patch_10">
    <path d="M 170.11584 247.457232
C 171.351797 247.457232 172.537298 247.762159 173.411252 248.304856
C 174.285205 248.847552 174.776256 249.583711 174.776256 250.3512
C 174.776256 251.118689 174.285205 251.854848 173.411252 252.397544
C 172.537298 252.940241 171.351797 253.245168 170.11584 253.245168
C 168.879883 253.245168 167.694382 252.940241 166.820428 252.397544
C 165.946475 251.854848 165.455424 251.118689 165.455424 250.3512
C 165.455424 249.583711 165.946475 248.847552 166.820428 248.304856
C 167.694382 247.762159 168.879883 247.457232 170.11584 247.457232
z
" clip-path="url(#p8c755e3773)" style="fill: #b9c6d0"/>
   </g>
   <g id="patch_11">
    <path d="M 183.77568 247.457232
C 185.011637 247.457232 186.197138 247.762159 187.071092 248.304856
C 187.945045 248.847552 188.436096 249.583711 188.436096 250.3512
C 188.436096 251.118689 187.945045 251.854848 187.071092 252.397544
C 186.197138 252.940241 185.011637 253.245168 183.77568 253.245168
C 182.539723 253.245168 181.354222 252.940241 180.480268 252.397544
C 179.606315 251.854848 179.115264 251.118689 179.115264 250.3512
C 179.115264 249.583711 179.606315 248.847552 180.480268 248.304856
C 181.354222 247.762159 182.539723 247.457232 183.77568 247.457232
z
" clip-path="url(#p8c755e3773)" style="fill: #b9c6d0"/>
   </g>
   <g id="patch_12">
    <path d="M 197.43552 247.457232
C 198.671477 247.457232 199.856978 247.762159 200.730932 248.304856
C 201.604885 248.847552 202.095936 249.583711 202.095936 250.3512
C 202.095936 251.118689 201.604885 251.854848 200.730932 252.397544
C 199.856978 252.940241 198.671477 253.245168 197.43552 253.245168
C 196.199563 253.245168 195.014062 252.940241 194.140108 252.397544
C 193.266155 251.854848 192.775104 251.118689 192.775104 250.3512
C 192.775104 249.583711 193.266155 248.847552 194.140108 248.304856
C 195.014062 247.762159 196.199563 247.457232 197.43552 247.457232
z
" clip-path="url(#p8c755e3773)" style="fill: #b9c6d0"/>
   </g>
   <g id="patch_13">
    <path d="M 211.09536 247.457232
C 212.331317 247.457232 213.516818 247.762159 214.390772 248.304856
C 215.264725 248.847552 215.755776 249.583711 215.755776 250.3512
C 215.755776 251.118689 215.264725 251.854848 214.390772 252.397544
C 213.516818 252.940241 212.331317 253.245168 211.09536 253.245168
C 209.859403 253.245168 208.673902 252.940241 207.799948 252.397544
C 206.925995 251.854848 206.434944 251.118689 206.434944 250.3512
C 206.434944 249.583711 206.925995 248.847552 207.799948 248.304856
C 208.673902 247.762159 209.859403 247.457232 211.09536 247.457232
z
" clip-path="url(#p8c755e3773)" style="fill: #b9c6d0"/>
   </g>
   <g id="patch_14">
    <path d="M 224.7552 247.457232
C 225.991157 247.457232 227.176658 247.762159 228.050612 248.304856
C 228.924565 248.847552 229.415616 249.583711 229.415616 250.3512
C 229.415616 251.118689 228.924565 251.854848 228.050612 252.397544
C 227.176658 252.940241 225.991157 253.245168 224.7552 253.245168
C 223.519243 253.245168 222.333742 252.940241 221.459788 252.397544
C 220.585835 251.854848 220.094784 251.118689 220.094784 250.3512
C 220.094784 249.583711 220.585835 248.847552 221.459788 248.304856
C 222.333742 247.762159 223.519243 247.457232 224.7552 247.457232
z
" clip-path="url(#p8c755e3773)" style="fill: #b9c6d0"/>
   </g>
   <g id="patch_15">
    <path d="M 238.41504 247.457232
C 239.650997 247.457232 240.836498 247.762159 241.710452 248.304856
C 242.584405 248.847552 243.075456 249.583711 243.075456 250.3512
C 243.075456 251.118689 242.584405 251.854848 241.710452 252.397544
C 240.836498 252.940241 239.650997 253.245168 238.41504 253.245168
C 237.179083 253.245168 235.993582 252.940241 235.119628 252.397544
C 234.245675 251.854848 233.754624 251.118689 233.754624 250.3512
C 233.754624 249.583711 234.245675 248.847552 235.119628 248.304856
C 235.993582 247.762159 237.179083 247.457232 238.41504 247.457232
z
" clip-path="url(#p8c755e3773)" style="fill: #b9c6d0"/>
   </g>
   <g id="patch_16">
    <path d="M 252.07488 247.457232
C 253.310837 247.457232 254.496338 247.762159 255.370292 248.304856
C 256.244245 248.847552 256.735296 249.583711 256.735296 250.3512
C 256.735296 251.118689 256.244245 251.854848 255.370292 252.397544
C 254.496338 252.940241 253.310837 253.245168 252.07488 253.245168
C 250.838923 253.245168 249.653422 252.940241 248.779468 252.397544
C 247.905515 251.854848 247.414464 251.118689 247.414464 250.3512
C 247.414464 249.583711 247.905515 248.847552 248.779468 248.304856
C 249.653422 247.762159 250.838923 247.457232 252.07488 247.457232
z
" clip-path="url(#p8c755e3773)" style="fill: #b9c6d0"/>
   </g>
   <g id="patch_17">
    <path d="M 265.73472 247.457232
C 266.970677 247.457232 268.156178 247.762159 269.030132 248.304856
C 269.904085 248.847552 270.395136 249.583711 270.395136 250.3512
C 270.395136 251.118689 269.904085 251.854848 269.030132 252.397544
C 268.156178 252.940241 266.970677 253.245168 265.73472 253.245168
C 264.498763 253.245168 263.313262 252.940241 262.439308 252.397544
C 261.565355 251.854848 261.074304 251.118689 261.074304 250.3512
C 261.074304 249.583711 261.565355 248.847552 262.439308 248.304856
C 263.313262 247.762159 264.498763 247.457232 265.73472 247.457232
z
" clip-path="url(#p8c755e3773)" style="fill: #b9c6d0"/>
   </g>
   <g id="patch_18">
    <path d="M 279.39456 247.457232
C 280.630517 247.457232 281.816018 247.762159 282.689972 248.304856
C 283.563925 248.847552 284.054976 249.583711 284.054976 250.3512
C 284.054976 251.118689 283.563925 251.854848 282.689972 252.397544
C 281.816018 252.940241 280.630517 253.245168 279.39456 253.245168
C 278.158603 253.245168 276.973102 252.940241 276.099148 252.397544
C 275.225195 251.854848 274.734144 251.118689 274.734144 250.3512
C 274.734144 249.583711 275.225195 248.847552 276.099148 248.304856
C 276.973102 247.762159 278.158603 247.457232 279.39456 247.457232
z
" clip-path="url(#p8c755e3773)" style="fill: #b9c6d0"/>
   </g>
   <g id="patch_19">
    <path d="M 293.0544 247.457232
C 294.290357 247.457232 295.475858 247.762159 296.349812 248.304856
C 297.223765 248.847552 297.714816 249.583711 297.714816 250.3512
C 297.714816 251.118689 297.223765 251.854848 296.349812 252.397544
C 295.475858 252.940241 294.290357 253.245168 293.0544 253.245168
C 291.818443 253.245168 290.632942 252.940241 289.758988 252.397544
C 288.885035 251.854848 288.393984 251.118689 288.393984 250.3512
C 288.393984 249.583711 288.885035 248.847552 289.758988 248.304856
C 290.632942 247.762159 291.818443 247.457232 293.0544 247.457232
z
" clip-path="url(#p8c755e3773)" style="fill: #b9c6d0"/>
   </g>
   <g id="patch_20">
    <path d="M 306.71424 247.457232
C 307.950197 247.457232 309.135698 247.762159 310.009652 248.304856
C 310.883605 248.847552 311.374656 249.583711 311.374656 250.3512
C 311.374656 251.118689 310.883605 251.854848 310.009652 252.397544
C 309.135698 252.940241 307.950197 253.245168 306.71424 253.245168
C 305.478283 253.245168 304.292782 252.940241 303.418828 252.397544
C 302.544875 251.854848 302.053824 251.118689 302.053824 250.3512
C 302.053824 249.583711 302.544875 248.847552 303.418828 248.304856
C 304.292782 247.762159 305.478283 247.457232 306.71424 247.457232
z
" clip-path="url(#p8c755e3773)" style="fill: #b9c6d0"/>
   </g>
   <g id="patch_21">
    <path d="M 320.37408 247.457232
C 321.610037 247.457232 322.795538 247.762159 323.669492 248.304856
C 324.543445 248.847552 325.034496 249.583711 325.034496 250.3512
C 325.034496 251.118689 324.543445 251.854848 323.669492 252.397544
C 322.795538 252.940241 321.610037 253.245168 320.37408 253.245168
C 319.138123 253.245168 317.952622 252.940241 317.078668 252.397544
C 316.204715 251.854848 315.713664 251.118689 315.713664 250.3512
C 315.713664 249.583711 316.204715 248.847552 317.078668 248.304856
C 317.952622 247.762159 319.138123 247.457232 320.37408 247.457232
z
" clip-path="url(#p8c755e3773)" style="fill: #b9c6d0"/>
   </g>
   <g id="patch_22">
    <path d="M 334.03392 247.457232
C 335.269877 247.457232 336.455378 247.762159 337.329332 248.304856
C 338.203285 248.847552 338.694336 249.583711 338.694336 250.3512
C 338.694336 251.118689 338.203285 251.854848 337.329332 252.397544
C 336.455378 252.940241 335.269877 253.245168 334.03392 253.245168
C 332.797963 253.245168 331.612462 252.940241 330.738508 252.397544
C 329.864555 251.854848 329.373504 251.118689 329.373504 250.3512
C 329.373504 249.583711 329.864555 248.847552 330.738508 248.304856
C 331.612462 247.762159 332.797963 247.457232 334.03392 247.457232
z
" clip-path="url(#p8c755e3773)" style="fill: #b9c6d0"/>
   </g>
   <g id="patch_23">
    <path d="M 347.69376 247.457232
C 348.929717 247.457232 350.115218 247.762159 350.989172 248.304856
C 351.863125 248.847552 352.354176 249.583711 352.354176 250.3512
C 352.354176 251.118689 351.863125 251.854848 350.989172 252.397544
C 350.115218 252.940241 348.929717 253.245168 347.69376 253.245168
C 346.457803 253.245168 345.272302 252.940241 344.398348 252.397544
C 343.524395 251.854848 343.033344 251.118689 343.033344 250.3512
C 343.033344 249.583711 343.524395 248.847552 344.398348 248.304856
C 345.272302 247.762159 346.457803 247.457232 347.69376 247.457232
z
" clip-path="url(#p8c755e3773)" style="fill: #b9c6d0"/>
   </g>
   <g id="patch_24">
    <path d="M 88.1568 272.405232
C 89.392757 272.405232 90.578258 272.710159 91.452212 273.252856
C 92.326165 273.795552 92.817216 274.531711 92.817216 275.2992
C 92.817216 276.066689 92.326165 276.802848 91.452212 277.345544
C 90.578258 277.888241 89.392757 278.193168 88.1568 278.193168
C 86.920843 278.193168 85.735342 277.888241 84.861388 277.345544
C 83.987435 276.802848 83.496384 276.066689 83.496384 275.2992
C 83.496384 274.531711 83.987435 273.795552 84.861388 273.252856
C 85.735342 272.710159 86.920843 272.405232 88.1568 272.405232
z
" clip-path="url(#p8c755e3773)" style="fill: #b9c6d0"/>
   </g>
   <g id="patch_25">
    <path d="M 101.81664 272.405232
C 103.052597 272.405232 104.238098 272.710159 105.112052 273.252856
C 105.986005 273.795552 106.477056 274.531711 106.477056 275.2992
C 106.477056 276.066689 105.986005 276.802848 105.112052 277.345544
C 104.238098 277.888241 103.052597 278.193168 101.81664 278.193168
C 100.580683 278.193168 99.395182 277.888241 98.521228 277.345544
C 97.647275 276.802848 97.156224 276.066689 97.156224 275.2992
C 97.156224 274.531711 97.647275 273.795552 98.521228 273.252856
C 99.395182 272.710159 100.580683 272.405232 101.81664 272.405232
z
" clip-path="url(#p8c755e3773)" style="fill: #b9c6d0"/>
   </g>
   <g id="patch_26">
    <path d="M 115.47648 272.405232
C 116.712437 272.405232 117.897938 272.710159 118.771892 273.252856
C 119.645845 273.795552 120.136896 274.531711 120.136896 275.2992
C 120.136896 276.066689 119.645845 276.802848 118.771892 277.345544
C 117.897938 277.888241 116.712437 278.193168 115.47648 278.193168
C 114.240523 278.193168 113.055022 277.888241 112.181068 277.345544
C 111.307115 276.802848 110.816064 276.066689 110.816064 275.2992
C 110.816064 274.531711 111.307115 273.795552 112.181068 273.252856
C 113.055022 272.710159 114.240523 272.405232 115.47648 272.405232
z
" clip-path="url(#p8c755e3773)" style="fill: #b9c6d0"/>
   </g>
   <g id="patch_27">
    <path d="M 129.13632 272.405232
C 130.372277 272.405232 131.557778 272.710159 132.431732 273.252856
C 133.305685 273.795552 133.796736 274.531711 133.796736 275.2992
C 133.796736 276.066689 133.305685 276.802848 132.431732 277.345544
C 131.557778 277.888241 130.372277 278.193168 129.13632 278.193168
C 127.900363 278.193168 126.714862 277.888241 125.840908 277.345544
C 124.966955 276.802848 124.475904 276.066689 124.475904 275.2992
C 124.475904 274.531711 124.966955 273.795552 125.840908 273.252856
C 126.714862 272.710159 127.900363 272.405232 129.13632 272.405232
z
" clip-path="url(#p8c755e3773)" style="fill: #b9c6d0"/>
   </g>
   <g id="patch_28">
    <path d="M 142.79616 272.405232
C 144.032117 272.405232 145.217618 272.710159 146.091572 273.252856
C 146.965525 273.795552 147.456576 274.531711 147.456576 275.2992
C 147.456576 276.066689 146.965525 276.802848 146.091572 277.345544
C 145.217618 277.888241 144.032117 278.193168 142.79616 278.193168
C 141.560203 278.193168 140.374702 277.888241 139.500748 277.345544
C 138.626795 276.802848 138.135744 276.066689 138.135744 275.2992
C 138.135744 274.531711 138.626795 273.795552 139.500748 273.252856
C 140.374702 272.710159 141.560203 272.405232 142.79616 272.405232
z
" clip-path="url(#p8c755e3773)" style="fill: #b9c6d0"/>
   </g>
   <g id="patch_29">
    <path d="M 156.456 272.405232
C 157.691957 272.405232 158.877458 272.710159 159.751412 273.252856
C 160.625365 273.795552 161.116416 274.531711 161.116416 275.2992
C 161.116416 276.066689 160.625365 276.802848 159.751412 277.345544
C 158.877458 277.888241 157.691957 278.193168 156.456 278.193168
C 155.220043 278.193168 154.034542 277.888241 153.160588 277.345544
C 152.286635 276.802848 151.795584 276.066689 151.795584 275.2992
C 151.795584 274.531711 152.286635 273.795552 153.160588 273.252856
C 154.034542 272.710159 155.220043 272.405232 156.456 272.405232
z
" clip-path="url(#p8c755e3773)" style="fill: #b9c6d0"/>
   </g>
   <g id="patch_30">
    <path d="M 170.11584 272.405232
C 171.351797 272.405232 172.537298 272.710159 173.411252 273.252856
C 174.285205 273.795552 174.776256 274.531711 174.776256 275.2992
C 174.776256 276.066689 174.285205 276.802848 173.411252 277.345544
C 172.537298 277.888241 171.351797 278.193168 170.11584 278.193168
C 168.879883 278.193168 167.694382 277.888241 166.820428 277.345544
C 165.946475 276.802848 165.455424 276.066689 165.455424 275.2992
C 165.455424 274.531711 165.946475 273.795552 166.820428 273.252856
C 167.694382 272.710159 168.879883 272.405232 170.11584 272.405232
z
" clip-path="url(#p8c755e3773)" style="fill: #b9c6d0"/>
   </g>
   <g id="patch_31">
    <path d="M 183.77568 272.405232
C 185.011637 272.405232 186.197138 272.710159 187.071092 273.252856
C 187.945045 273.795552 188.436096 274.531711 188.436096 275.2992
C 188.436096 276.066689 187.945045 276.802848 187.071092 277.345544
C 186.197138 277.888241 185.011637 278.193168 183.77568 278.193168
C 182.539723 278.193168 181.354222 277.888241 180.480268 277.345544
C 179.606315 276.802848 179.115264 276.066689 179.115264 275.2992
C 179.115264 274.531711 179.606315 273.795552 180.480268 273.252856
C 181.354222 272.710159 182.539723 272.405232 183.77568 272.405232
z
" clip-path="url(#p8c755e3773)" style="fill: #b9c6d0"/>
   </g>
   <g id="patch_32">
    <path d="M 197.43552 272.405232
C 198.671477 272.405232 199.856978 272.710159 200.730932 273.252856
C 201.604885 273.795552 202.095936 274.531711 202.095936 275.2992
C 202.095936 276.066689 201.604885 276.802848 200.730932 277.345544
C 199.856978 277.888241 198.671477 278.193168 197.43552 278.193168
C 196.199563 278.193168 195.014062 277.888241 194.140108 277.345544
C 193.266155 276.802848 192.775104 276.066689 192.775104 275.2992
C 192.775104 274.531711 193.266155 273.795552 194.140108 273.252856
C 195.014062 272.710159 196.199563 272.405232 197.43552 272.405232
z
" clip-path="url(#p8c755e3773)" style="fill: #b9c6d0"/>
   </g>
   <g id="patch_33">
    <path d="M 211.09536 272.405232
C 212.331317 272.405232 213.516818 272.710159 214.390772 273.252856
C 215.264725 273.795552 215.755776 274.531711 215.755776 275.2992
C 215.755776 276.066689 215.264725 276.802848 214.390772 277.345544
C 213.516818 277.888241 212.331317 278.193168 211.09536 278.193168
C 209.859403 278.193168 208.673902 277.888241 207.799948 277.345544
C 206.925995 276.802848 206.434944 276.066689 206.434944 275.2992
C 206.434944 274.531711 206.925995 273.795552 207.799948 273.252856
C 208.673902 272.710159 209.859403 272.405232 211.09536 272.405232
z
" clip-path="url(#p8c755e3773)" style="fill: #b9c6d0"/>
   </g>
   <g id="patch_34">
    <path d="M 224.7552 272.405232
C 225.991157 272.405232 227.176658 272.710159 228.050612 273.252856
C 228.924565 273.795552 229.415616 274.531711 229.415616 275.2992
C 229.415616 276.066689 228.924565 276.802848 228.050612 277.345544
C 227.176658 277.888241 225.991157 278.193168 224.7552 278.193168
C 223.519243 278.193168 222.333742 277.888241 221.459788 277.345544
C 220.585835 276.802848 220.094784 276.066689 220.094784 275.2992
C 220.094784 274.531711 220.585835 273.795552 221.459788 273.252856
C 222.333742 272.710159 223.519243 272.405232 224.7552 272.405232
z
" clip-path="url(#p8c755e3773)" style="fill: #b9c6d0"/>
   </g>
   <g id="patch_35">
    <path d="M 238.41504 272.405232
C 239.650997 272.405232 240.836498 272.710159 241.710452 273.252856
C 242.584405 273.795552 243.075456 274.531711 243.075456 275.2992
C 243.075456 276.066689 242.584405 276.802848 241.710452 277.345544
C 240.836498 277.888241 239.650997 278.193168 238.41504 278.193168
C 237.179083 278.193168 235.993582 277.888241 235.119628 277.345544
C 234.245675 276.802848 233.754624 276.066689 233.754624 275.2992
C 233.754624 274.531711 234.245675 273.795552 235.119628 273.252856
C 235.993582 272.710159 237.179083 272.405232 238.41504 272.405232
z
" clip-path="url(#p8c755e3773)" style="fill: #b9c6d0"/>
   </g>
   <g id="patch_36">
    <path d="M 252.07488 272.405232
C 253.310837 272.405232 254.496338 272.710159 255.370292 273.252856
C 256.244245 273.795552 256.735296 274.531711 256.735296 275.2992
C 256.735296 276.066689 256.244245 276.802848 255.370292 277.345544
C 254.496338 277.888241 253.310837 278.193168 252.07488 278.193168
C 250.838923 278.193168 249.653422 277.888241 248.779468 277.345544
C 247.905515 276.802848 247.414464 276.066689 247.414464 275.2992
C 247.414464 274.531711 247.905515 273.795552 248.779468 273.252856
C 249.653422 272.710159 250.838923 272.405232 252.07488 272.405232
z
" clip-path="url(#p8c755e3773)" style="fill: #b9c6d0"/>
   </g>
   <g id="patch_37">
    <path d="M 265.73472 272.405232
C 266.970677 272.405232 268.156178 272.710159 269.030132 273.252856
C 269.904085 273.795552 270.395136 274.531711 270.395136 275.2992
C 270.395136 276.066689 269.904085 276.802848 269.030132 277.345544
C 268.156178 277.888241 266.970677 278.193168 265.73472 278.193168
C 264.498763 278.193168 263.313262 277.888241 262.439308 277.345544
C 261.565355 276.802848 261.074304 276.066689 261.074304 275.2992
C 261.074304 274.531711 261.565355 273.795552 262.439308 273.252856
C 263.313262 272.710159 264.498763 272.405232 265.73472 272.405232
z
" clip-path="url(#p8c755e3773)" style="fill: #b9c6d0"/>
   </g>
   <g id="patch_38">
    <path d="M 279.39456 272.405232
C 280.630517 272.405232 281.816018 272.710159 282.689972 273.252856
C 283.563925 273.795552 284.054976 274.531711 284.054976 275.2992
C 284.054976 276.066689 283.563925 276.802848 282.689972 277.345544
C 281.816018 277.888241 280.630517 278.193168 279.39456 278.193168
C 278.158603 278.193168 276.973102 277.888241 276.099148 277.345544
C 275.225195 276.802848 274.734144 276.066689 274.734144 275.2992
C 274.734144 274.531711 275.225195 273.795552 276.099148 273.252856
C 276.973102 272.710159 278.158603 272.405232 279.39456 272.405232
z
" clip-path="url(#p8c755e3773)" style="fill: #b9c6d0"/>
   </g>
   <g id="patch_39">
    <path d="M 293.0544 272.405232
C 294.290357 272.405232 295.475858 272.710159 296.349812 273.252856
C 297.223765 273.795552 297.714816 274.531711 297.714816 275.2992
C 297.714816 276.066689 297.223765 276.802848 296.349812 277.345544
C 295.475858 277.888241 294.290357 278.193168 293.0544 278.193168
C 291.818443 278.193168 290.632942 277.888241 289.758988 277.345544
C 288.885035 276.802848 288.393984 276.066689 288.393984 275.2992
C 288.393984 274.531711 288.885035 273.795552 289.758988 273.252856
C 290.632942 272.710159 291.818443 272.405232 293.0544 272.405232
z
" clip-path="url(#p8c755e3773)" style="fill: #b9c6d0"/>
   </g>
   <g id="patch_40">
    <path d="M 306.71424 272.405232
C 307.950197 272.405232 309.135698 272.710159 310.009652 273.252856
C 310.883605 273.795552 311.374656 274.531711 311.374656 275.2992
C 311.374656 276.066689 310.883605 276.802848 310.009652 277.345544
C 309.135698 277.888241 307.950197 278.193168 306.71424 278.193168
C 305.478283 278.193168 304.292782 277.888241 303.418828 277.345544
C 302.544875 276.802848 302.053824 276.066689 302.053824 275.2992
C 302.053824 274.531711 302.544875 273.795552 303.418828 273.252856
C 304.292782 272.710159 305.478283 272.405232 306.71424 272.405232
z
" clip-path="url(#p8c755e3773)" style="fill: #b9c6d0"/>
   </g>
   <g id="patch_41">
    <path d="M 320.37408 272.405232
C 321.610037 272.405232 322.795538 272.710159 323.669492 273.252856
C 324.543445 273.795552 325.034496 274.531711 325.034496 275.2992
C 325.034496 276.066689 324.543445 276.802848 323.669492 277.345544
C 322.795538 277.888241 321.610037 278.193168 320.37408 278.193168
C 319.138123 278.193168 317.952622 277.888241 317.078668 277.345544
C 316.204715 276.802848 315.713664 276.066689 315.713664 275.2992
C 315.713664 274.531711 316.204715 273.795552 317.078668 273.252856
C 317.952622 272.710159 319.138123 272.405232 320.37408 272.405232
z
" clip-path="url(#p8c755e3773)" style="fill: #b9c6d0"/>
   </g>
   <g id="patch_42">
    <path d="M 334.03392 272.405232
C 335.269877 272.405232 336.455378 272.710159 337.329332 273.252856
C 338.203285 273.795552 338.694336 274.531711 338.694336 275.2992
C 338.694336 276.066689 338.203285 276.802848 337.329332 277.345544
C 336.455378 277.888241 335.269877 278.193168 334.03392 278.193168
C 332.797963 278.193168 331.612462 277.888241 330.738508 277.345544
C 329.864555 276.802848 329.373504 276.066689 329.373504 275.2992
C 329.373504 274.531711 329.864555 273.795552 330.738508 273.252856
C 331.612462 272.710159 332.797963 272.405232 334.03392 272.405232
z
" clip-path="url(#p8c755e3773)" style="fill: #b9c6d0"/>
   </g>
   <g id="patch_43">
    <path d="M 347.69376 272.405232
C 348.929717 272.405232 350.115218 272.710159 350.989172 273.252856
C 351.863125 273.795552 352.354176 274.531711 352.354176 275.2992
C 352.354176 276.066689 351.863125 276.802848 350.989172 277.345544
C 350.115218 277.888241 348.929717 278.193168 347.69376 278.193168
C 346.457803 278.193168 345.272302 277.888241 344.398348 277.345544
C 343.524395 276.802848 343.033344 276.066689 343.033344 275.2992
C 343.033344 274.531711 343.524395 273.795552 344.398348 273.252856
C 345.272302 272.710159 346.457803 272.405232 347.69376 272.405232
z
" clip-path="url(#p8c755e3773)" style="fill: #b9c6d0"/>
   </g>
   <g id="patch_44">
    <path d="M 88.1568 297.353232
C 89.392757 297.353232 90.578258 297.658159 91.452212 298.200856
C 92.326165 298.743552 92.817216 299.479711 92.817216 300.2472
C 92.817216 301.014689 92.326165 301.750848 91.452212 302.293544
C 90.578258 302.836241 89.392757 303.141168 88.1568 303.141168
C 86.920843 303.141168 85.735342 302.836241 84.861388 302.293544
C 83.987435 301.750848 83.496384 301.014689 83.496384 300.2472
C 83.496384 299.479711 83.987435 298.743552 84.861388 298.200856
C 85.735342 297.658159 86.920843 297.353232 88.1568 297.353232
z
" clip-path="url(#p8c755e3773)" style="fill: #b9c6d0"/>
   </g>
   <g id="patch_45">
    <path d="M 101.81664 297.353232
C 103.052597 297.353232 104.238098 297.658159 105.112052 298.200856
C 105.986005 298.743552 106.477056 299.479711 106.477056 300.2472
C 106.477056 301.014689 105.986005 301.750848 105.112052 302.293544
C 104.238098 302.836241 103.052597 303.141168 101.81664 303.141168
C 100.580683 303.141168 99.395182 302.836241 98.521228 302.293544
C 97.647275 301.750848 97.156224 301.014689 97.156224 300.2472
C 97.156224 299.479711 97.647275 298.743552 98.521228 298.200856
C 99.395182 297.658159 100.580683 297.353232 101.81664 297.353232
z
" clip-path="url(#p8c755e3773)" style="fill: #b9c6d0"/>
   </g>
   <g id="patch_46">
    <path d="M 115.47648 297.353232
C 116.712437 297.353232 117.897938 297.658159 118.771892 298.200856
C 119.645845 298.743552 120.136896 299.479711 120.136896 300.2472
C 120.136896 301.014689 119.645845 301.750848 118.771892 302.293544
C 117.897938 302.836241 116.712437 303.141168 115.47648 303.141168
C 114.240523 303.141168 113.055022 302.836241 112.181068 302.293544
C 111.307115 301.750848 110.816064 301.014689 110.816064 300.2472
C 110.816064 299.479711 111.307115 298.743552 112.181068 298.200856
C 113.055022 297.658159 114.240523 297.353232 115.47648 297.353232
z
" clip-path="url(#p8c755e3773)" style="fill: #b9c6d0"/>
   </g>
   <g id="patch_47">
    <path d="M 129.13632 297.353232
C 130.372277 297.353232 131.557778 297.658159 132.431732 298.200856
C 133.305685 298.743552 133.796736 299.479711 133.796736 300.2472
C 133.796736 301.014689 133.305685 301.750848 132.431732 302.293544
C 131.557778 302.836241 130.372277 303.141168 129.13632 303.141168
C 127.900363 303.141168 126.714862 302.836241 125.840908 302.293544
C 124.966955 301.750848 124.475904 301.014689 124.475904 300.2472
C 124.475904 299.479711 124.966955 298.743552 125.840908 298.200856
C 126.714862 297.658159 127.900363 297.353232 129.13632 297.353232
z
" clip-path="url(#p8c755e3773)" style="fill: #b9c6d0"/>
   </g>
   <g id="patch_48">
    <path d="M 142.79616 297.353232
C 144.032117 297.353232 145.217618 297.658159 146.091572 298.200856
C 146.965525 298.743552 147.456576 299.479711 147.456576 300.2472
C 147.456576 301.014689 146.965525 301.750848 146.091572 302.293544
C 145.217618 302.836241 144.032117 303.141168 142.79616 303.141168
C 141.560203 303.141168 140.374702 302.836241 139.500748 302.293544
C 138.626795 301.750848 138.135744 301.014689 138.135744 300.2472
C 138.135744 299.479711 138.626795 298.743552 139.500748 298.200856
C 140.374702 297.658159 141.560203 297.353232 142.79616 297.353232
z
" clip-path="url(#p8c755e3773)" style="fill: #b9c6d0"/>
   </g>
   <g id="patch_49">
    <path d="M 156.456 297.353232
C 157.691957 297.353232 158.877458 297.658159 159.751412 298.200856
C 160.625365 298.743552 161.116416 299.479711 161.116416 300.2472
C 161.116416 301.014689 160.625365 301.750848 159.751412 302.293544
C 158.877458 302.836241 157.691957 303.141168 156.456 303.141168
C 155.220043 303.141168 154.034542 302.836241 153.160588 302.293544
C 152.286635 301.750848 151.795584 301.014689 151.795584 300.2472
C 151.795584 299.479711 152.286635 298.743552 153.160588 298.200856
C 154.034542 297.658159 155.220043 297.353232 156.456 297.353232
z
" clip-path="url(#p8c755e3773)" style="fill: #b9c6d0"/>
   </g>
   <g id="patch_50">
    <path d="M 170.11584 297.353232
C 171.351797 297.353232 172.537298 297.658159 173.411252 298.200856
C 174.285205 298.743552 174.776256 299.479711 174.776256 300.2472
C 174.776256 301.014689 174.285205 301.750848 173.411252 302.293544
C 172.537298 302.836241 171.351797 303.141168 170.11584 303.141168
C 168.879883 303.141168 167.694382 302.836241 166.820428 302.293544
C 165.946475 301.750848 165.455424 301.014689 165.455424 300.2472
C 165.455424 299.479711 165.946475 298.743552 166.820428 298.200856
C 167.694382 297.658159 168.879883 297.353232 170.11584 297.353232
z
" clip-path="url(#p8c755e3773)" style="fill: #b9c6d0"/>
   </g>
   <g id="patch_51">
    <path d="M 183.77568 297.353232
C 185.011637 297.353232 186.197138 297.658159 187.071092 298.200856
C 187.945045 298.743552 188.436096 299.479711 188.436096 300.2472
C 188.436096 301.014689 187.945045 301.750848 187.071092 302.293544
C 186.197138 302.836241 185.011637 303.141168 183.77568 303.141168
C 182.539723 303.141168 181.354222 302.836241 180.480268 302.293544
C 179.606315 301.750848 179.115264 301.014689 179.115264 300.2472
C 179.115264 299.479711 179.606315 298.743552 180.480268 298.200856
C 181.354222 297.658159 182.539723 297.353232 183.77568 297.353232
z
" clip-path="url(#p8c755e3773)" style="fill: #b9c6d0"/>
   </g>
   <g id="patch_52">
    <path d="M 197.43552 297.353232
C 198.671477 297.353232 199.856978 297.658159 200.730932 298.200856
C 201.604885 298.743552 202.095936 299.479711 202.095936 300.2472
C 202.095936 301.014689 201.604885 301.750848 200.730932 302.293544
C 199.856978 302.836241 198.671477 303.141168 197.43552 303.141168
C 196.199563 303.141168 195.014062 302.836241 194.140108 302.293544
C 193.266155 301.750848 192.775104 301.014689 192.775104 300.2472
C 192.775104 299.479711 193.266155 298.743552 194.140108 298.200856
C 195.014062 297.658159 196.199563 297.353232 197.43552 297.353232
z
" clip-path="url(#p8c755e3773)" style="fill: #b9c6d0"/>
   </g>
   <g id="patch_53">
    <path d="M 211.09536 297.353232
C 212.331317 297.353232 213.516818 297.658159 214.390772 298.200856
C 215.264725 298.743552 215.755776 299.479711 215.755776 300.2472
C 215.755776 301.014689 215.264725 301.750848 214.390772 302.293544
C 213.516818 302.836241 212.331317 303.141168 211.09536 303.141168
C 209.859403 303.141168 208.673902 302.836241 207.799948 302.293544
C 206.925995 301.750848 206.434944 301.014689 206.434944 300.2472
C 206.434944 299.479711 206.925995 298.743552 207.799948 298.200856
C 208.673902 297.658159 209.859403 297.353232 211.09536 297.353232
z
" clip-path="url(#p8c755e3773)" style="fill: #b9c6d0"/>
   </g>
   <g id="patch_54">
    <path d="M 224.7552 297.353232
C 225.991157 297.353232 227.176658 297.658159 228.050612 298.200856
C 228.924565 298.743552 229.415616 299.479711 229.415616 300.2472
C 229.415616 301.014689 228.924565 301.750848 228.050612 302.293544
C 227.176658 302.836241 225.991157 303.141168 224.7552 303.141168
C 223.519243 303.141168 222.333742 302.836241 221.459788 302.293544
C 220.585835 301.750848 220.094784 301.014689 220.094784 300.2472
C 220.094784 299.479711 220.585835 298.743552 221.459788 298.200856
C 222.333742 297.658159 223.519243 297.353232 224.7552 297.353232
z
" clip-path="url(#p8c755e3773)" style="fill: #b9c6d0"/>
   </g>
   <g id="patch_55">
    <path d="M 238.41504 297.353232
C 239.650997 297.353232 240.836498 297.658159 241.710452 298.200856
C 242.584405 298.743552 243.075456 299.479711 243.075456 300.2472
C 243.075456 301.014689 242.584405 301.750848 241.710452 302.293544
C 240.836498 302.836241 239.650997 303.141168 238.41504 303.141168
C 237.179083 303.141168 235.993582 302.836241 235.119628 302.293544
C 234.245675 301.750848 233.754624 301.014689 233.754624 300.2472
C 233.754624 299.479711 234.245675 298.743552 235.119628 298.200856
C 235.993582 297.658159 237.179083 297.353232 238.41504 297.353232
z
" clip-path="url(#p8c755e3773)" style="fill: #b9c6d0"/>
   </g>
   <g id="patch_56">
    <path d="M 252.07488 297.353232
C 253.310837 297.353232 254.496338 297.658159 255.370292 298.200856
C 256.244245 298.743552 256.735296 299.479711 256.735296 300.2472
C 256.735296 301.014689 256.244245 301.750848 255.370292 302.293544
C 254.496338 302.836241 253.310837 303.141168 252.07488 303.141168
C 250.838923 303.141168 249.653422 302.836241 248.779468 302.293544
C 247.905515 301.750848 247.414464 301.014689 247.414464 300.2472
C 247.414464 299.479711 247.905515 298.743552 248.779468 298.200856
C 249.653422 297.658159 250.838923 297.353232 252.07488 297.353232
z
" clip-path="url(#p8c755e3773)" style="fill: #b9c6d0"/>
   </g>
   <g id="patch_57">
    <path d="M 265.73472 297.353232
C 266.970677 297.353232 268.156178 297.658159 269.030132 298.200856
C 269.904085 298.743552 270.395136 299.479711 270.395136 300.2472
C 270.395136 301.014689 269.904085 301.750848 269.030132 302.293544
C 268.156178 302.836241 266.970677 303.141168 265.73472 303.141168
C 264.498763 303.141168 263.313262 302.836241 262.439308 302.293544
C 261.565355 301.750848 261.074304 301.014689 261.074304 300.2472
C 261.074304 299.479711 261.565355 298.743552 262.439308 298.200856
C 263.313262 297.658159 264.498763 297.353232 265.73472 297.353232
z
" clip-path="url(#p8c755e3773)" style="fill: #b9c6d0"/>
   </g>
   <g id="patch_58">
    <path d="M 279.39456 297.353232
C 280.630517 297.353232 281.816018 297.658159 282.689972 298.200856
C 283.563925 298.743552 284.054976 299.479711 284.054976 300.2472
C 284.054976 301.014689 283.563925 301.750848 282.689972 302.293544
C 281.816018 302.836241 280.630517 303.141168 279.39456 303.141168
C 278.158603 303.141168 276.973102 302.836241 276.099148 302.293544
C 275.225195 301.750848 274.734144 301.014689 274.734144 300.2472
C 274.734144 299.479711 275.225195 298.743552 276.099148 298.200856
C 276.973102 297.658159 278.158603 297.353232 279.39456 297.353232
z
" clip-path="url(#p8c755e3773)" style="fill: #b9c6d0"/>
   </g>
   <g id="patch_59">
    <path d="M 293.0544 297.353232
C 294.290357 297.353232 295.475858 297.658159 296.349812 298.200856
C 297.223765 298.743552 297.714816 299.479711 297.714816 300.2472
C 297.714816 301.014689 297.223765 301.750848 296.349812 302.293544
C 295.475858 302.836241 294.290357 303.141168 293.0544 303.141168
C 291.818443 303.141168 290.632942 302.836241 289.758988 302.293544
C 288.885035 301.750848 288.393984 301.014689 288.393984 300.2472
C 288.393984 299.479711 288.885035 298.743552 289.758988 298.200856
C 290.632942 297.658159 291.818443 297.353232 293.0544 297.353232
z
" clip-path="url(#p8c755e3773)" style="fill: #b9c6d0"/>
   </g>
   <g id="patch_60">
    <path d="M 306.71424 297.353232
C 307.950197 297.353232 309.135698 297.658159 310.009652 298.200856
C 310.883605 298.743552 311.374656 299.479711 311.374656 300.2472
C 311.374656 301.014689 310.883605 301.750848 310.009652 302.293544
C 309.135698 302.836241 307.950197 303.141168 306.71424 303.141168
C 305.478283 303.141168 304.292782 302.836241 303.418828 302.293544
C 302.544875 301.750848 302.053824 301.014689 302.053824 300.2472
C 302.053824 299.479711 302.544875 298.743552 303.418828 298.200856
C 304.292782 297.658159 305.478283 297.353232 306.71424 297.353232
z
" clip-path="url(#p8c755e3773)" style="fill: #b9c6d0"/>
   </g>
   <g id="patch_61">
    <path d="M 320.37408 297.353232
C 321.610037 297.353232 322.795538 297.658159 323.669492 298.200856
C 324.543445 298.743552 325.034496 299.479711 325.034496 300.2472
C 325.034496 301.014689 324.543445 301.750848 323.669492 302.293544
C 322.795538 302.836241 321.610037 303.141168 320.37408 303.141168
C 319.138123 303.141168 317.952622 302.836241 317.078668 302.293544
C 316.204715 301.750848 315.713664 301.014689 315.713664 300.2472
C 315.713664 299.479711 316.204715 298.743552 317.078668 298.200856
C 317.952622 297.658159 319.138123 297.353232 320.37408 297.353232
z
" clip-path="url(#p8c755e3773)" style="fill: #b9c6d0"/>
   </g>
   <g id="patch_62">
    <path d="M 334.03392 297.353232
C 335.269877 297.353232 336.455378 297.658159 337.329332 298.200856
C 338.203285 298.743552 338.694336 299.479711 338.694336 300.2472
C 338.694336 301.014689 338.203285 301.750848 337.329332 302.293544
C 336.455378 302.836241 335.269877 303.141168 334.03392 303.141168
C 332.797963 303.141168 331.612462 302.836241 330.738508 302.293544
C 329.864555 301.750848 329.373504 301.014689 329.373504 300.2472
C 329.373504 299.479711 329.864555 298.743552 330.738508 298.200856
C 331.612462 297.658159 332.797963 297.353232 334.03392 297.353232
z
" clip-path="url(#p8c755e3773)" style="fill: #b9c6d0"/>
   </g>
   <g id="patch_63">
    <path d="M 347.69376 297.353232
C 348.929717 297.353232 350.115218 297.658159 350.989172 298.200856
C 351.863125 298.743552 352.354176 299.479711 352.354176 300.2472
C 352.354176 301.014689 351.863125 301.750848 350.989172 302.293544
C 350.115218 302.836241 348.929717 303.141168 347.69376 303.141168
C 346.457803 303.141168 345.272302 302.836241 344.398348 302.293544
C 343.524395 301.750848 343.033344 301.014689 343.033344 300.2472
C 343.033344 299.479711 343.524395 298.743552 344.398348 298.200856
C 345.272302 297.658159 346.457803 297.353232 347.69376 297.353232
z
" clip-path="url(#p8c755e3773)" style="fill: #b9c6d0"/>
   </g>
   <g id="patch_64">
    <path d="M 88.1568 322.301232
C 89.392757 322.301232 90.578258 322.606159 91.452212 323.148856
C 92.326165 323.691552 92.817216 324.427711 92.817216 325.1952
C 92.817216 325.962689 92.326165 326.698848 91.452212 327.241544
C 90.578258 327.784241 89.392757 328.089168 88.1568 328.089168
C 86.920843 328.089168 85.735342 327.784241 84.861388 327.241544
C 83.987435 326.698848 83.496384 325.962689 83.496384 325.1952
C 83.496384 324.427711 83.987435 323.691552 84.861388 323.148856
C 85.735342 322.606159 86.920843 322.301232 88.1568 322.301232
z
" clip-path="url(#p8c755e3773)" style="fill: #b9c6d0"/>
   </g>
   <g id="patch_65">
    <path d="M 101.81664 322.301232
C 103.052597 322.301232 104.238098 322.606159 105.112052 323.148856
C 105.986005 323.691552 106.477056 324.427711 106.477056 325.1952
C 106.477056 325.962689 105.986005 326.698848 105.112052 327.241544
C 104.238098 327.784241 103.052597 328.089168 101.81664 328.089168
C 100.580683 328.089168 99.395182 327.784241 98.521228 327.241544
C 97.647275 326.698848 97.156224 325.962689 97.156224 325.1952
C 97.156224 324.427711 97.647275 323.691552 98.521228 323.148856
C 99.395182 322.606159 100.580683 322.301232 101.81664 322.301232
z
" clip-path="url(#p8c755e3773)" style="fill: #b9c6d0"/>
   </g>
   <g id="patch_66">
    <path d="M 115.47648 322.301232
C 116.712437 322.301232 117.897938 322.606159 118.771892 323.148856
C 119.645845 323.691552 120.136896 324.427711 120.136896 325.1952
C 120.136896 325.962689 119.645845 326.698848 118.771892 327.241544
C 117.897938 327.784241 116.712437 328.089168 115.47648 328.089168
C 114.240523 328.089168 113.055022 327.784241 112.181068 327.241544
C 111.307115 326.698848 110.816064 325.962689 110.816064 325.1952
C 110.816064 324.427711 111.307115 323.691552 112.181068 323.148856
C 113.055022 322.606159 114.240523 322.301232 115.47648 322.301232
z
" clip-path="url(#p8c755e3773)" style="fill: #b9c6d0"/>
   </g>
   <g id="patch_67">
    <path d="M 129.13632 322.301232
C 130.372277 322.301232 131.557778 322.606159 132.431732 323.148856
C 133.305685 323.691552 133.796736 324.427711 133.796736 325.1952
C 133.796736 325.962689 133.305685 326.698848 132.431732 327.241544
C 131.557778 327.784241 130.372277 328.089168 129.13632 328.089168
C 127.900363 328.089168 126.714862 327.784241 125.840908 327.241544
C 124.966955 326.698848 124.475904 325.962689 124.475904 325.1952
C 124.475904 324.427711 124.966955 323.691552 125.840908 323.148856
C 126.714862 322.606159 127.900363 322.301232 129.13632 322.301232
z
" clip-path="url(#p8c755e3773)" style="fill: #b9c6d0"/>
   </g>
   <g id="patch_68">
    <path d="M 142.79616 322.301232
C 144.032117 322.301232 145.217618 322.606159 146.091572 323.148856
C 146.965525 323.691552 147.456576 324.427711 147.456576 325.1952
C 147.456576 325.962689 146.965525 326.698848 146.091572 327.241544
C 145.217618 327.784241 144.032117 328.089168 142.79616 328.089168
C 141.560203 328.089168 140.374702 327.784241 139.500748 327.241544
C 138.626795 326.698848 138.135744 325.962689 138.135744 325.1952
C 138.135744 324.427711 138.626795 323.691552 139.500748 323.148856
C 140.374702 322.606159 141.560203 322.301232 142.79616 322.301232
z
" clip-path="url(#p8c755e3773)" style="fill: #b9c6d0"/>
   </g>
   <g id="patch_69">
    <path d="M 156.456 322.301232
C 157.691957 322.301232 158.877458 322.606159 159.751412 323.148856
C 160.625365 323.691552 161.116416 324.427711 161.116416 325.1952
C 161.116416 325.962689 160.625365 326.698848 159.751412 327.241544
C 158.877458 327.784241 157.691957 328.089168 156.456 328.089168
C 155.220043 328.089168 154.034542 327.784241 153.160588 327.241544
C 152.286635 326.698848 151.795584 325.962689 151.795584 325.1952
C 151.795584 324.427711 152.286635 323.691552 153.160588 323.148856
C 154.034542 322.606159 155.220043 322.301232 156.456 322.301232
z
" clip-path="url(#p8c755e3773)" style="fill: #b9c6d0"/>
   </g>
   <g id="patch_70">
    <path d="M 170.11584 322.301232
C 171.351797 322.301232 172.537298 322.606159 173.411252 323.148856
C 174.285205 323.691552 174.776256 324.427711 174.776256 325.1952
C 174.776256 325.962689 174.285205 326.698848 173.411252 327.241544
C 172.537298 327.784241 171.351797 328.089168 170.11584 328.089168
C 168.879883 328.089168 167.694382 327.784241 166.820428 327.241544
C 165.946475 326.698848 165.455424 325.962689 165.455424 325.1952
C 165.455424 324.427711 165.946475 323.691552 166.820428 323.148856
C 167.694382 322.606159 168.879883 322.301232 170.11584 322.301232
z
" clip-path="url(#p8c755e3773)" style="fill: #b9c6d0"/>
   </g>
   <g id="patch_71">
    <path d="M 183.77568 322.301232
C 185.011637 322.301232 186.197138 322.606159 187.071092 323.148856
C 187.945045 323.691552 188.436096 324.427711 188.436096 325.1952
C 188.436096 325.962689 187.945045 326.698848 187.071092 327.241544
C 186.197138 327.784241 185.011637 328.089168 183.77568 328.089168
C 182.539723 328.089168 181.354222 327.784241 180.480268 327.241544
C 179.606315 326.698848 179.115264 325.962689 179.115264 325.1952
C 179.115264 324.427711 179.606315 323.691552 180.480268 323.148856
C 181.354222 322.606159 182.539723 322.301232 183.77568 322.301232
z
" clip-path="url(#p8c755e3773)" style="fill: #b9c6d0"/>
   </g>
   <g id="patch_72">
    <path d="M 197.43552 322.301232
C 198.671477 322.301232 199.856978 322.606159 200.730932 323.148856
C 201.604885 323.691552 202.095936 324.427711 202.095936 325.1952
C 202.095936 325.962689 201.604885 326.698848 200.730932 327.241544
C 199.856978 327.784241 198.671477 328.089168 197.43552 328.089168
C 196.199563 328.089168 195.014062 327.784241 194.140108 327.241544
C 193.266155 326.698848 192.775104 325.962689 192.775104 325.1952
C 192.775104 324.427711 193.266155 323.691552 194.140108 323.148856
C 195.014062 322.606159 196.199563 322.301232 197.43552 322.301232
z
" clip-path="url(#p8c755e3773)" style="fill: #b9c6d0"/>
   </g>
   <g id="patch_73">
    <path d="M 211.09536 322.301232
C 212.331317 322.301232 213.516818 322.606159 214.390772 323.148856
C 215.264725 323.691552 215.755776 324.427711 215.755776 325.1952
C 215.755776 325.962689 215.264725 326.698848 214.390772 327.241544
C 213.516818 327.784241 212.331317 328.089168 211.09536 328.089168
C 209.859403 328.089168 208.673902 327.784241 207.799948 327.241544
C 206.925995 326.698848 206.434944 325.962689 206.434944 325.1952
C 206.434944 324.427711 206.925995 323.691552 207.799948 323.148856
C 208.673902 322.606159 209.859403 322.301232 211.09536 322.301232
z
" clip-path="url(#p8c755e3773)" style="fill: #b9c6d0"/>
   </g>
   <g id="patch_74">
    <path d="M 224.7552 322.301232
C 225.991157 322.301232 227.176658 322.606159 228.050612 323.148856
C 228.924565 323.691552 229.415616 324.427711 229.415616 325.1952
C 229.415616 325.962689 228.924565 326.698848 228.050612 327.241544
C 227.176658 327.784241 225.991157 328.089168 224.7552 328.089168
C 223.519243 328.089168 222.333742 327.784241 221.459788 327.241544
C 220.585835 326.698848 220.094784 325.962689 220.094784 325.1952
C 220.094784 324.427711 220.585835 323.691552 221.459788 323.148856
C 222.333742 322.606159 223.519243 322.301232 224.7552 322.301232
z
" clip-path="url(#p8c755e3773)" style="fill: #b9c6d0"/>
   </g>
   <g id="patch_75">
    <path d="M 238.41504 322.301232
C 239.650997 322.301232 240.836498 322.606159 241.710452 323.148856
C 242.584405 323.691552 243.075456 324.427711 243.075456 325.1952
C 243.075456 325.962689 242.584405 326.698848 241.710452 327.241544
C 240.836498 327.784241 239.650997 328.089168 238.41504 328.089168
C 237.179083 328.089168 235.993582 327.784241 235.119628 327.241544
C 234.245675 326.698848 233.754624 325.962689 233.754624 325.1952
C 233.754624 324.427711 234.245675 323.691552 235.119628 323.148856
C 235.993582 322.606159 237.179083 322.301232 238.41504 322.301232
z
" clip-path="url(#p8c755e3773)" style="fill: #b9c6d0"/>
   </g>
   <g id="patch_76">
    <path d="M 252.07488 322.301232
C 253.310837 322.301232 254.496338 322.606159 255.370292 323.148856
C 256.244245 323.691552 256.735296 324.427711 256.735296 325.1952
C 256.735296 325.962689 256.244245 326.698848 255.370292 327.241544
C 254.496338 327.784241 253.310837 328.089168 252.07488 328.089168
C 250.838923 328.089168 249.653422 327.784241 248.779468 327.241544
C 247.905515 326.698848 247.414464 325.962689 247.414464 325.1952
C 247.414464 324.427711 247.905515 323.691552 248.779468 323.148856
C 249.653422 322.606159 250.838923 322.301232 252.07488 322.301232
z
" clip-path="url(#p8c755e3773)" style="fill: #b9c6d0"/>
   </g>
   <g id="patch_77">
    <path d="M 265.73472 322.301232
C 266.970677 322.301232 268.156178 322.606159 269.030132 323.148856
C 269.904085 323.691552 270.395136 324.427711 270.395136 325.1952
C 270.395136 325.962689 269.904085 326.698848 269.030132 327.241544
C 268.156178 327.784241 266.970677 328.089168 265.73472 328.089168
C 264.498763 328.089168 263.313262 327.784241 262.439308 327.241544
C 261.565355 326.698848 261.074304 325.962689 261.074304 325.1952
C 261.074304 324.427711 261.565355 323.691552 262.439308 323.148856
C 263.313262 322.606159 264.498763 322.301232 265.73472 322.301232
z
" clip-path="url(#p8c755e3773)" style="fill: #b9c6d0"/>
   </g>
   <g id="patch_78">
    <path d="M 279.39456 322.301232
C 280.630517 322.301232 281.816018 322.606159 282.689972 323.148856
C 283.563925 323.691552 284.054976 324.427711 284.054976 325.1952
C 284.054976 325.962689 283.563925 326.698848 282.689972 327.241544
C 281.816018 327.784241 280.630517 328.089168 279.39456 328.089168
C 278.158603 328.089168 276.973102 327.784241 276.099148 327.241544
C 275.225195 326.698848 274.734144 325.962689 274.734144 325.1952
C 274.734144 324.427711 275.225195 323.691552 276.099148 323.148856
C 276.973102 322.606159 278.158603 322.301232 279.39456 322.301232
z
" clip-path="url(#p8c755e3773)" style="fill: #b9c6d0"/>
   </g>
   <g id="patch_79">
    <path d="M 293.0544 322.301232
C 294.290357 322.301232 295.475858 322.606159 296.349812 323.148856
C 297.223765 323.691552 297.714816 324.427711 297.714816 325.1952
C 297.714816 325.962689 297.223765 326.698848 296.349812 327.241544
C 295.475858 327.784241 294.290357 328.089168 293.0544 328.089168
C 291.818443 328.089168 290.632942 327.784241 289.758988 327.241544
C 288.885035 326.698848 288.393984 325.962689 288.393984 325.1952
C 288.393984 324.427711 288.885035 323.691552 289.758988 323.148856
C 290.632942 322.606159 291.818443 322.301232 293.0544 322.301232
z
" clip-path="url(#p8c755e3773)" style="fill: #b9c6d0"/>
   </g>
   <g id="patch_80">
    <path d="M 306.71424 322.301232
C 307.950197 322.301232 309.135698 322.606159 310.009652 323.148856
C 310.883605 323.691552 311.374656 324.427711 311.374656 325.1952
C 311.374656 325.962689 310.883605 326.698848 310.009652 327.241544
C 309.135698 327.784241 307.950197 328.089168 306.71424 328.089168
C 305.478283 328.089168 304.292782 327.784241 303.418828 327.241544
C 302.544875 326.698848 302.053824 325.962689 302.053824 325.1952
C 302.053824 324.427711 302.544875 323.691552 303.418828 323.148856
C 304.292782 322.606159 305.478283 322.301232 306.71424 322.301232
z
" clip-path="url(#p8c755e3773)" style="fill: #b9c6d0"/>
   </g>
   <g id="patch_81">
    <path d="M 320.37408 322.301232
C 321.610037 322.301232 322.795538 322.606159 323.669492 323.148856
C 324.543445 323.691552 325.034496 324.427711 325.034496 325.1952
C 325.034496 325.962689 324.543445 326.698848 323.669492 327.241544
C 322.795538 327.784241 321.610037 328.089168 320.37408 328.089168
C 319.138123 328.089168 317.952622 327.784241 317.078668 327.241544
C 316.204715 326.698848 315.713664 325.962689 315.713664 325.1952
C 315.713664 324.427711 316.204715 323.691552 317.078668 323.148856
C 317.952622 322.606159 319.138123 322.301232 320.37408 322.301232
z
" clip-path="url(#p8c755e3773)" style="fill: #b9c6d0"/>
   </g>
   <g id="patch_82">
    <path d="M 334.03392 322.301232
C 335.269877 322.301232 336.455378 322.606159 337.329332 323.148856
C 338.203285 323.691552 338.694336 324.427711 338.694336 325.1952
C 338.694336 325.962689 338.203285 326.698848 337.329332 327.241544
C 336.455378 327.784241 335.269877 328.089168 334.03392 328.089168
C 332.797963 328.089168 331.612462 327.784241 330.738508 327.241544
C 329.864555 326.698848 329.373504 325.962689 329.373504 325.1952
C 329.373504 324.427711 329.864555 323.691552 330.738508 323.148856
C 331.612462 322.606159 332.797963 322.301232 334.03392 322.301232
z
" clip-path="url(#p8c755e3773)" style="fill: #b9c6d0"/>
   </g>
   <g id="patch_83">
    <path d="M 347.69376 322.301232
C 348.929717 322.301232 350.115218 322.606159 350.989172 323.148856
C 351.863125 323.691552 352.354176 324.427711 352.354176 325.1952
C 352.354176 325.962689 351.863125 326.698848 350.989172 327.241544
C 350.115218 327.784241 348.929717 328.089168 347.69376 328.089168
C 346.457803 328.089168 345.272302 327.784241 344.398348 327.241544
C 343.524395 326.698848 343.033344 325.962689 343.033344 325.1952
C 343.033344 324.427711 343.524395 323.691552 344.398348 323.148856
C 345.272302 322.606159 346.457803 322.301232 347.69376 322.301232
z
" clip-path="url(#p8c755e3773)" style="fill: #b9c6d0"/>
   </g>
   <g id="patch_84">
    <path d="M 88.1568 347.249232
C 89.392757 347.249232 90.578258 347.554159 91.452212 348.096856
C 92.326165 348.639552 92.817216 349.375711 92.817216 350.1432
C 92.817216 350.910689 92.326165 351.646848 91.452212 352.189544
C 90.578258 352.732241 89.392757 353.037168 88.1568 353.037168
C 86.920843 353.037168 85.735342 352.732241 84.861388 352.189544
C 83.987435 351.646848 83.496384 350.910689 83.496384 350.1432
C 83.496384 349.375711 83.987435 348.639552 84.861388 348.096856
C 85.735342 347.554159 86.920843 347.249232 88.1568 347.249232
z
" clip-path="url(#p8c755e3773)" style="fill: #b9c6d0"/>
   </g>
   <g id="patch_85">
    <path d="M 101.81664 347.249232
C 103.052597 347.249232 104.238098 347.554159 105.112052 348.096856
C 105.986005 348.639552 106.477056 349.375711 106.477056 350.1432
C 106.477056 350.910689 105.986005 351.646848 105.112052 352.189544
C 104.238098 352.732241 103.052597 353.037168 101.81664 353.037168
C 100.580683 353.037168 99.395182 352.732241 98.521228 352.189544
C 97.647275 351.646848 97.156224 350.910689 97.156224 350.1432
C 97.156224 349.375711 97.647275 348.639552 98.521228 348.096856
C 99.395182 347.554159 100.580683 347.249232 101.81664 347.249232
z
" clip-path="url(#p8c755e3773)" style="fill: #b9c6d0"/>
   </g>
   <g id="patch_86">
    <path d="M 115.47648 347.249232
C 116.712437 347.249232 117.897938 347.554159 118.771892 348.096856
C 119.645845 348.639552 120.136896 349.375711 120.136896 350.1432
C 120.136896 350.910689 119.645845 351.646848 118.771892 352.189544
C 117.897938 352.732241 116.712437 353.037168 115.47648 353.037168
C 114.240523 353.037168 113.055022 352.732241 112.181068 352.189544
C 111.307115 351.646848 110.816064 350.910689 110.816064 350.1432
C 110.816064 349.375711 111.307115 348.639552 112.181068 348.096856
C 113.055022 347.554159 114.240523 347.249232 115.47648 347.249232
z
" clip-path="url(#p8c755e3773)" style="fill: #b9c6d0"/>
   </g>
   <g id="patch_87">
    <path d="M 129.13632 347.249232
C 130.372277 347.249232 131.557778 347.554159 132.431732 348.096856
C 133.305685 348.639552 133.796736 349.375711 133.796736 350.1432
C 133.796736 350.910689 133.305685 351.646848 132.431732 352.189544
C 131.557778 352.732241 130.372277 353.037168 129.13632 353.037168
C 127.900363 353.037168 126.714862 352.732241 125.840908 352.189544
C 124.966955 351.646848 124.475904 350.910689 124.475904 350.1432
C 124.475904 349.375711 124.966955 348.639552 125.840908 348.096856
C 126.714862 347.554159 127.900363 347.249232 129.13632 347.249232
z
" clip-path="url(#p8c755e3773)" style="fill: #b9c6d0"/>
   </g>
   <g id="patch_88">
    <path d="M 142.79616 347.249232
C 144.032117 347.249232 145.217618 347.554159 146.091572 348.096856
C 146.965525 348.639552 147.456576 349.375711 147.456576 350.1432
C 147.456576 350.910689 146.965525 351.646848 146.091572 352.189544
C 145.217618 352.732241 144.032117 353.037168 142.79616 353.037168
C 141.560203 353.037168 140.374702 352.732241 139.500748 352.189544
C 138.626795 351.646848 138.135744 350.910689 138.135744 350.1432
C 138.135744 349.375711 138.626795 348.639552 139.500748 348.096856
C 140.374702 347.554159 141.560203 347.249232 142.79616 347.249232
z
" clip-path="url(#p8c755e3773)" style="fill: #b9c6d0"/>
   </g>
   <g id="patch_89">
    <path d="M 156.456 347.249232
C 157.691957 347.249232 158.877458 347.554159 159.751412 348.096856
C 160.625365 348.639552 161.116416 349.375711 161.116416 350.1432
C 161.116416 350.910689 160.625365 351.646848 159.751412 352.189544
C 158.877458 352.732241 157.691957 353.037168 156.456 353.037168
C 155.220043 353.037168 154.034542 352.732241 153.160588 352.189544
C 152.286635 351.646848 151.795584 350.910689 151.795584 350.1432
C 151.795584 349.375711 152.286635 348.639552 153.160588 348.096856
C 154.034542 347.554159 155.220043 347.249232 156.456 347.249232
z
" clip-path="url(#p8c755e3773)" style="fill: #b9c6d0"/>
   </g>
   <g id="patch_90">
    <path d="M 170.11584 347.249232
C 171.351797 347.249232 172.537298 347.554159 173.411252 348.096856
C 174.285205 348.639552 174.776256 349.375711 174.776256 350.1432
C 174.776256 350.910689 174.285205 351.646848 173.411252 352.189544
C 172.537298 352.732241 171.351797 353.037168 170.11584 353.037168
C 168.879883 353.037168 167.694382 352.732241 166.820428 352.189544
C 165.946475 351.646848 165.455424 350.910689 165.455424 350.1432
C 165.455424 349.375711 165.946475 348.639552 166.820428 348.096856
C 167.694382 347.554159 168.879883 347.249232 170.11584 347.249232
z
" clip-path="url(#p8c755e3773)" style="fill: #b9c6d0"/>
   </g>
   <g id="patch_91">
    <path d="M 183.77568 347.249232
C 185.011637 347.249232 186.197138 347.554159 187.071092 348.096856
C 187.945045 348.639552 188.436096 349.375711 188.436096 350.1432
C 188.436096 350.910689 187.945045 351.646848 187.071092 352.189544
C 186.197138 352.732241 185.011637 353.037168 183.77568 353.037168
C 182.539723 353.037168 181.354222 352.732241 180.480268 352.189544
C 179.606315 351.646848 179.115264 350.910689 179.115264 350.1432
C 179.115264 349.375711 179.606315 348.639552 180.480268 348.096856
C 181.354222 347.554159 182.539723 347.249232 183.77568 347.249232
z
" clip-path="url(#p8c755e3773)" style="fill: #b9c6d0"/>
   </g>
   <g id="patch_92">
    <path d="M 197.43552 347.249232
C 198.671477 347.249232 199.856978 347.554159 200.730932 348.096856
C 201.604885 348.639552 202.095936 349.375711 202.095936 350.1432
C 202.095936 350.910689 201.604885 351.646848 200.730932 352.189544
C 199.856978 352.732241 198.671477 353.037168 197.43552 353.037168
C 196.199563 353.037168 195.014062 352.732241 194.140108 352.189544
C 193.266155 351.646848 192.775104 350.910689 192.775104 350.1432
C 192.775104 349.375711 193.266155 348.639552 194.140108 348.096856
C 195.014062 347.554159 196.199563 347.249232 197.43552 347.249232
z
" clip-path="url(#p8c755e3773)" style="fill: #b9c6d0"/>
   </g>
   <g id="patch_93">
    <path d="M 211.09536 347.249232
C 212.331317 347.249232 213.516818 347.554159 214.390772 348.096856
C 215.264725 348.639552 215.755776 349.375711 215.755776 350.1432
C 215.755776 350.910689 215.264725 351.646848 214.390772 352.189544
C 213.516818 352.732241 212.331317 353.037168 211.09536 353.037168
C 209.859403 353.037168 208.673902 352.732241 207.799948 352.189544
C 206.925995 351.646848 206.434944 350.910689 206.434944 350.1432
C 206.434944 349.375711 206.925995 348.639552 207.799948 348.096856
C 208.673902 347.554159 209.859403 347.249232 211.09536 347.249232
z
" clip-path="url(#p8c755e3773)" style="fill: #b9c6d0"/>
   </g>
   <g id="patch_94">
    <path d="M 224.7552 347.249232
C 225.991157 347.249232 227.176658 347.554159 228.050612 348.096856
C 228.924565 348.639552 229.415616 349.375711 229.415616 350.1432
C 229.415616 350.910689 228.924565 351.646848 228.050612 352.189544
C 227.176658 352.732241 225.991157 353.037168 224.7552 353.037168
C 223.519243 353.037168 222.333742 352.732241 221.459788 352.189544
C 220.585835 351.646848 220.094784 350.910689 220.094784 350.1432
C 220.094784 349.375711 220.585835 348.639552 221.459788 348.096856
C 222.333742 347.554159 223.519243 347.249232 224.7552 347.249232
z
" clip-path="url(#p8c755e3773)" style="fill: #ce3b36"/>
   </g>
   <g id="patch_95">
    <path d="M 238.41504 347.249232
C 239.650997 347.249232 240.836498 347.554159 241.710452 348.096856
C 242.584405 348.639552 243.075456 349.375711 243.075456 350.1432
C 243.075456 350.910689 242.584405 351.646848 241.710452 352.189544
C 240.836498 352.732241 239.650997 353.037168 238.41504 353.037168
C 237.179083 353.037168 235.993582 352.732241 235.119628 352.189544
C 234.245675 351.646848 233.754624 350.910689 233.754624 350.1432
C 233.754624 349.375711 234.245675 348.639552 235.119628 348.096856
C 235.993582 347.554159 237.179083 347.249232 238.41504 347.249232
z
" clip-path="url(#p8c755e3773)" style="fill: #ce3b36"/>
   </g>
   <g id="patch_96">
    <path d="M 252.07488 347.249232
C 253.310837 347.249232 254.496338 347.554159 255.370292 348.096856
C 256.244245 348.639552 256.735296 349.375711 256.735296 350.1432
C 256.735296 350.910689 256.244245 351.646848 255.370292 352.189544
C 254.496338 352.732241 253.310837 353.037168 252.07488 353.037168
C 250.838923 353.037168 249.653422 352.732241 248.779468 352.189544
C 247.905515 351.646848 247.414464 350.910689 247.414464 350.1432
C 247.414464 349.375711 247.905515 348.639552 248.779468 348.096856
C 249.653422 347.554159 250.838923 347.249232 252.07488 347.249232
z
" clip-path="url(#p8c755e3773)" style="fill: #ce3b36"/>
   </g>
   <g id="patch_97">
    <path d="M 265.73472 347.249232
C 266.970677 347.249232 268.156178 347.554159 269.030132 348.096856
C 269.904085 348.639552 270.395136 349.375711 270.395136 350.1432
C 270.395136 350.910689 269.904085 351.646848 269.030132 352.189544
C 268.156178 352.732241 266.970677 353.037168 265.73472 353.037168
C 264.498763 353.037168 263.313262 352.732241 262.439308 352.189544
C 261.565355 351.646848 261.074304 350.910689 261.074304 350.1432
C 261.074304 349.375711 261.565355 348.639552 262.439308 348.096856
C 263.313262 347.554159 264.498763 347.249232 265.73472 347.249232
z
" clip-path="url(#p8c755e3773)" style="fill: #ce3b36"/>
   </g>
   <g id="patch_98">
    <path d="M 279.39456 347.249232
C 280.630517 347.249232 281.816018 347.554159 282.689972 348.096856
C 283.563925 348.639552 284.054976 349.375711 284.054976 350.1432
C 284.054976 350.910689 283.563925 351.646848 282.689972 352.189544
C 281.816018 352.732241 280.630517 353.037168 279.39456 353.037168
C 278.158603 353.037168 276.973102 352.732241 276.099148 352.189544
C 275.225195 351.646848 274.734144 350.910689 274.734144 350.1432
C 274.734144 349.375711 275.225195 348.639552 276.099148 348.096856
C 276.973102 347.554159 278.158603 347.249232 279.39456 347.249232
z
" clip-path="url(#p8c755e3773)" style="fill: #ce3b36"/>
   </g>
   <g id="patch_99">
    <path d="M 293.0544 347.249232
C 294.290357 347.249232 295.475858 347.554159 296.349812 348.096856
C 297.223765 348.639552 297.714816 349.375711 297.714816 350.1432
C 297.714816 350.910689 297.223765 351.646848 296.349812 352.189544
C 295.475858 352.732241 294.290357 353.037168 293.0544 353.037168
C 291.818443 353.037168 290.632942 352.732241 289.758988 352.189544
C 288.885035 351.646848 288.393984 350.910689 288.393984 350.1432
C 288.393984 349.375711 288.885035 348.639552 289.758988 348.096856
C 290.632942 347.554159 291.818443 347.249232 293.0544 347.249232
z
" clip-path="url(#p8c755e3773)" style="fill: #ce3b36"/>
   </g>
   <g id="patch_100">
    <path d="M 306.71424 347.249232
C 307.950197 347.249232 309.135698 347.554159 310.009652 348.096856
C 310.883605 348.639552 311.374656 349.375711 311.374656 350.1432
C 311.374656 350.910689 310.883605 351.646848 310.009652 352.189544
C 309.135698 352.732241 307.950197 353.037168 306.71424 353.037168
C 305.478283 353.037168 304.292782 352.732241 303.418828 352.189544
C 302.544875 351.646848 302.053824 350.910689 302.053824 350.1432
C 302.053824 349.375711 302.544875 348.639552 303.418828 348.096856
C 304.292782 347.554159 305.478283 347.249232 306.71424 347.249232
z
" clip-path="url(#p8c755e3773)" style="fill: #ce3b36"/>
   </g>
   <g id="patch_101">
    <path d="M 320.37408 347.249232
C 321.610037 347.249232 322.795538 347.554159 323.669492 348.096856
C 324.543445 348.639552 325.034496 349.375711 325.034496 350.1432
C 325.034496 350.910689 324.543445 351.646848 323.669492 352.189544
C 322.795538 352.732241 321.610037 353.037168 320.37408 353.037168
C 319.138123 353.037168 317.952622 352.732241 317.078668 352.189544
C 316.204715 351.646848 315.713664 350.910689 315.713664 350.1432
C 315.713664 349.375711 316.204715 348.639552 317.078668 348.096856
C 317.952622 347.554159 319.138123 347.249232 320.37408 347.249232
z
" clip-path="url(#p8c755e3773)" style="fill: #ce3b36"/>
   </g>
   <g id="patch_102">
    <path d="M 334.03392 347.249232
C 335.269877 347.249232 336.455378 347.554159 337.329332 348.096856
C 338.203285 348.639552 338.694336 349.375711 338.694336 350.1432
C 338.694336 350.910689 338.203285 351.646848 337.329332 352.189544
C 336.455378 352.732241 335.269877 353.037168 334.03392 353.037168
C 332.797963 353.037168 331.612462 352.732241 330.738508 352.189544
C 329.864555 351.646848 329.373504 350.910689 329.373504 350.1432
C 329.373504 349.375711 329.864555 348.639552 330.738508 348.096856
C 331.612462 347.554159 332.797963 347.249232 334.03392 347.249232
z
" clip-path="url(#p8c755e3773)" style="fill: #ce3b36"/>
   </g>
   <g id="patch_103">
    <path d="M 347.69376 347.249232
C 348.929717 347.249232 350.115218 347.554159 350.989172 348.096856
C 351.863125 348.639552 352.354176 349.375711 352.354176 350.1432
C 352.354176 350.910689 351.863125 351.646848 350.989172 352.189544
C 350.115218 352.732241 348.929717 353.037168 347.69376 353.037168
C 346.457803 353.037168 345.272302 352.732241 344.398348 352.189544
C 343.524395 351.646848 343.033344 350.910689 343.033344 350.1432
C 343.033344 349.375711 343.524395 348.639552 344.398348 348.096856
C 345.272302 347.554159 346.457803 347.249232 347.69376 347.249232
z
" clip-path="url(#p8c755e3773)" style="fill: #ce3b36"/>
   </g>
   <g id="patch_104">
    <path d="M 451.7496 123.86484
L 769.14 123.86484
Q 781.99632 123.86484 781.99632 131.8482
L 781.99632 418.7502
Q 781.99632 426.73356 769.14 426.73356
L 451.7496 426.73356
Q 438.89328 426.73356 438.89328 418.7502
L 438.89328 131.8482
Q 438.89328 123.86484 451.7496 123.86484
z
" clip-path="url(#p8c755e3773)" style="fill: #f0ecff; stroke: #7657e8; stroke-width: 1.1; stroke-linejoin: miter"/>
   </g>
   <g id="patch_105">
    <path d="M 478.26576 143.82324
L 702.44784 143.82324
Q 709.67952 143.82324 709.67952 148.31388
L 709.67952 169.2702
Q 709.67952 173.76084 702.44784 173.76084
L 478.26576 173.76084
Q 471.03408 173.76084 471.03408 169.2702
L 471.03408 148.31388
Q 471.03408 143.82324 478.26576 143.82324
z
" clip-path="url(#p8c755e3773)" style="fill: #7657e8; stroke: #7657e8; stroke-width: 1.1; stroke-linejoin: miter"/>
   </g>
   <g id="patch_106">
    <path d="M 489.9168 260.3304
C 492.04776 260.3304 494.091728 260.856136 495.598544 261.79182
C 497.105361 262.727504 497.952 263.996743 497.952 265.32
C 497.952 266.643257 497.105361 267.912496 495.598544 268.84818
C 494.091728 269.783864 492.04776 270.3096 489.9168 270.3096
C 487.78584 270.3096 485.741872 269.783864 484.235056 268.84818
C 482.728239 267.912496 481.8816 266.643257 481.8816 265.32
C 481.8816 263.996743 482.728239 262.727504 484.235056 261.79182
C 485.741872 260.856136 487.78584 260.3304 489.9168 260.3304
z
" clip-path="url(#p8c755e3773)" style="fill: #b9c6d0"/>
   </g>
   <g id="patch_107">
    <path d="M 516.43296 260.3304
C 518.56392 260.3304 520.607888 260.856136 522.114704 261.79182
C 523.621521 262.727504 524.46816 263.996743 524.46816 265.32
C 524.46816 266.643257 523.621521 267.912496 522.114704 268.84818
C 520.607888 269.783864 518.56392 270.3096 516.43296 270.3096
C 514.302 270.3096 512.258032 269.783864 510.751216 268.84818
C 509.244399 267.912496 508.39776 266.643257 508.39776 265.32
C 508.39776 263.996743 509.244399 262.727504 510.751216 261.79182
C 512.258032 260.856136 514.302 260.3304 516.43296 260.3304
z
" clip-path="url(#p8c755e3773)" style="fill: #b9c6d0"/>
   </g>
   <g id="patch_108">
    <path d="M 542.94912 260.3304
C 545.08008 260.3304 547.124048 260.856136 548.630864 261.79182
C 550.137681 262.727504 550.98432 263.996743 550.98432 265.32
C 550.98432 266.643257 550.137681 267.912496 548.630864 268.84818
C 547.124048 269.783864 545.08008 270.3096 542.94912 270.3096
C 540.81816 270.3096 538.774192 269.783864 537.267376 268.84818
C 535.760559 267.912496 534.91392 266.643257 534.91392 265.32
C 534.91392 263.996743 535.760559 262.727504 537.267376 261.79182
C 538.774192 260.856136 540.81816 260.3304 542.94912 260.3304
z
" clip-path="url(#p8c755e3773)" style="fill: #b9c6d0"/>
   </g>
   <g id="patch_109">
    <path d="M 569.46528 260.3304
C 571.59624 260.3304 573.640208 260.856136 575.147024 261.79182
C 576.653841 262.727504 577.50048 263.996743 577.50048 265.32
C 577.50048 266.643257 576.653841 267.912496 575.147024 268.84818
C 573.640208 269.783864 571.59624 270.3096 569.46528 270.3096
C 567.33432 270.3096 565.290352 269.783864 563.783536 268.84818
C 562.276719 267.912496 561.43008 266.643257 561.43008 265.32
C 561.43008 263.996743 562.276719 262.727504 563.783536 261.79182
C 565.290352 260.856136 567.33432 260.3304 569.46528 260.3304
z
" clip-path="url(#p8c755e3773)" style="fill: #b9c6d0"/>
   </g>
   <g id="patch_110">
    <path d="M 595.98144 260.3304
C 598.1124 260.3304 600.156368 260.856136 601.663184 261.79182
C 603.170001 262.727504 604.01664 263.996743 604.01664 265.32
C 604.01664 266.643257 603.170001 267.912496 601.663184 268.84818
C 600.156368 269.783864 598.1124 270.3096 595.98144 270.3096
C 593.85048 270.3096 591.806512 269.783864 590.299696 268.84818
C 588.792879 267.912496 587.94624 266.643257 587.94624 265.32
C 587.94624 263.996743 588.792879 262.727504 590.299696 261.79182
C 591.806512 260.856136 593.85048 260.3304 595.98144 260.3304
z
" clip-path="url(#p8c755e3773)" style="fill: #b9c6d0"/>
   </g>
   <g id="patch_111">
    <path d="M 622.4976 260.3304
C 624.62856 260.3304 626.672528 260.856136 628.179344 261.79182
C 629.686161 262.727504 630.5328 263.996743 630.5328 265.32
C 630.5328 266.643257 629.686161 267.912496 628.179344 268.84818
C 626.672528 269.783864 624.62856 270.3096 622.4976 270.3096
C 620.36664 270.3096 618.322672 269.783864 616.815856 268.84818
C 615.309039 267.912496 614.4624 266.643257 614.4624 265.32
C 614.4624 263.996743 615.309039 262.727504 616.815856 261.79182
C 618.322672 260.856136 620.36664 260.3304 622.4976 260.3304
z
" clip-path="url(#p8c755e3773)" style="fill: #b9c6d0"/>
   </g>
   <g id="patch_112">
    <path d="M 649.01376 260.3304
C 651.14472 260.3304 653.188688 260.856136 654.695504 261.79182
C 656.202321 262.727504 657.04896 263.996743 657.04896 265.32
C 657.04896 266.643257 656.202321 267.912496 654.695504 268.84818
C 653.188688 269.783864 651.14472 270.3096 649.01376 270.3096
C 646.8828 270.3096 644.838832 269.783864 643.332016 268.84818
C 641.825199 267.912496 640.97856 266.643257 640.97856 265.32
C 640.97856 263.996743 641.825199 262.727504 643.332016 261.79182
C 644.838832 260.856136 646.8828 260.3304 649.01376 260.3304
z
" clip-path="url(#p8c755e3773)" style="fill: #b9c6d0"/>
   </g>
   <g id="patch_113">
    <path d="M 675.52992 260.3304
C 677.66088 260.3304 679.704848 260.856136 681.211664 261.79182
C 682.718481 262.727504 683.56512 263.996743 683.56512 265.32
C 683.56512 266.643257 682.718481 267.912496 681.211664 268.84818
C 679.704848 269.783864 677.66088 270.3096 675.52992 270.3096
C 673.39896 270.3096 671.354992 269.783864 669.848176 268.84818
C 668.341359 267.912496 667.49472 266.643257 667.49472 265.32
C 667.49472 263.996743 668.341359 262.727504 669.848176 261.79182
C 671.354992 260.856136 673.39896 260.3304 675.52992 260.3304
z
" clip-path="url(#p8c755e3773)" style="fill: #b9c6d0"/>
   </g>
   <g id="patch_114">
    <path d="M 702.04608 260.3304
C 704.17704 260.3304 706.221008 260.856136 707.727824 261.79182
C 709.234641 262.727504 710.08128 263.996743 710.08128 265.32
C 710.08128 266.643257 709.234641 267.912496 707.727824 268.84818
C 706.221008 269.783864 704.17704 270.3096 702.04608 270.3096
C 699.91512 270.3096 697.871152 269.783864 696.364336 268.84818
C 694.857519 267.912496 694.01088 266.643257 694.01088 265.32
C 694.01088 263.996743 694.857519 262.727504 696.364336 261.79182
C 697.871152 260.856136 699.91512 260.3304 702.04608 260.3304
z
" clip-path="url(#p8c755e3773)" style="fill: #b9c6d0"/>
   </g>
   <g id="patch_115">
    <path d="M 728.56224 260.3304
C 730.6932 260.3304 732.737168 260.856136 734.243984 261.79182
C 735.750801 262.727504 736.59744 263.996743 736.59744 265.32
C 736.59744 266.643257 735.750801 267.912496 734.243984 268.84818
C 732.737168 269.783864 730.6932 270.3096 728.56224 270.3096
C 726.43128 270.3096 724.387312 269.783864 722.880496 268.84818
C 721.373679 267.912496 720.52704 266.643257 720.52704 265.32
C 720.52704 263.996743 721.373679 262.727504 722.880496 261.79182
C 724.387312 260.856136 726.43128 260.3304 728.56224 260.3304
z
" clip-path="url(#p8c755e3773)" style="fill: #b9c6d0"/>
   </g>
   <g id="patch_116">
    <path d="M 489.9168 305.2368
C 492.04776 305.2368 494.091728 305.762536 495.598544 306.69822
C 497.105361 307.633904 497.952 308.903143 497.952 310.2264
C 497.952 311.549657 497.105361 312.818896 495.598544 313.75458
C 494.091728 314.690264 492.04776 315.216 489.9168 315.216
C 487.78584 315.216 485.741872 314.690264 484.235056 313.75458
C 482.728239 312.818896 481.8816 311.549657 481.8816 310.2264
C 481.8816 308.903143 482.728239 307.633904 484.235056 306.69822
C 485.741872 305.762536 487.78584 305.2368 489.9168 305.2368
z
" clip-path="url(#p8c755e3773)" style="fill: #b9c6d0"/>
   </g>
   <g id="patch_117">
    <path d="M 516.43296 305.2368
C 518.56392 305.2368 520.607888 305.762536 522.114704 306.69822
C 523.621521 307.633904 524.46816 308.903143 524.46816 310.2264
C 524.46816 311.549657 523.621521 312.818896 522.114704 313.75458
C 520.607888 314.690264 518.56392 315.216 516.43296 315.216
C 514.302 315.216 512.258032 314.690264 510.751216 313.75458
C 509.244399 312.818896 508.39776 311.549657 508.39776 310.2264
C 508.39776 308.903143 509.244399 307.633904 510.751216 306.69822
C 512.258032 305.762536 514.302 305.2368 516.43296 305.2368
z
" clip-path="url(#p8c755e3773)" style="fill: #b9c6d0"/>
   </g>
   <g id="patch_118">
    <path d="M 542.94912 305.2368
C 545.08008 305.2368 547.124048 305.762536 548.630864 306.69822
C 550.137681 307.633904 550.98432 308.903143 550.98432 310.2264
C 550.98432 311.549657 550.137681 312.818896 548.630864 313.75458
C 547.124048 314.690264 545.08008 315.216 542.94912 315.216
C 540.81816 315.216 538.774192 314.690264 537.267376 313.75458
C 535.760559 312.818896 534.91392 311.549657 534.91392 310.2264
C 534.91392 308.903143 535.760559 307.633904 537.267376 306.69822
C 538.774192 305.762536 540.81816 305.2368 542.94912 305.2368
z
" clip-path="url(#p8c755e3773)" style="fill: #ce3b36"/>
   </g>
   <g id="patch_119">
    <path d="M 569.46528 305.2368
C 571.59624 305.2368 573.640208 305.762536 575.147024 306.69822
C 576.653841 307.633904 577.50048 308.903143 577.50048 310.2264
C 577.50048 311.549657 576.653841 312.818896 575.147024 313.75458
C 573.640208 314.690264 571.59624 315.216 569.46528 315.216
C 567.33432 315.216 565.290352 314.690264 563.783536 313.75458
C 562.276719 312.818896 561.43008 311.549657 561.43008 310.2264
C 561.43008 308.903143 562.276719 307.633904 563.783536 306.69822
C 565.290352 305.762536 567.33432 305.2368 569.46528 305.2368
z
" clip-path="url(#p8c755e3773)" style="fill: #ce3b36"/>
   </g>
   <g id="patch_120">
    <path d="M 595.98144 305.2368
C 598.1124 305.2368 600.156368 305.762536 601.663184 306.69822
C 603.170001 307.633904 604.01664 308.903143 604.01664 310.2264
C 604.01664 311.549657 603.170001 312.818896 601.663184 313.75458
C 600.156368 314.690264 598.1124 315.216 595.98144 315.216
C 593.85048 315.216 591.806512 314.690264 590.299696 313.75458
C 588.792879 312.818896 587.94624 311.549657 587.94624 310.2264
C 587.94624 308.903143 588.792879 307.633904 590.299696 306.69822
C 591.806512 305.762536 593.85048 305.2368 595.98144 305.2368
z
" clip-path="url(#p8c755e3773)" style="fill: #ce3b36"/>
   </g>
   <g id="patch_121">
    <path d="M 622.4976 305.2368
C 624.62856 305.2368 626.672528 305.762536 628.179344 306.69822
C 629.686161 307.633904 630.5328 308.903143 630.5328 310.2264
C 630.5328 311.549657 629.686161 312.818896 628.179344 313.75458
C 626.672528 314.690264 624.62856 315.216 622.4976 315.216
C 620.36664 315.216 618.322672 314.690264 616.815856 313.75458
C 615.309039 312.818896 614.4624 311.549657 614.4624 310.2264
C 614.4624 308.903143 615.309039 307.633904 616.815856 306.69822
C 618.322672 305.762536 620.36664 305.2368 622.4976 305.2368
z
" clip-path="url(#p8c755e3773)" style="fill: #ce3b36"/>
   </g>
   <g id="patch_122">
    <path d="M 649.01376 305.2368
C 651.14472 305.2368 653.188688 305.762536 654.695504 306.69822
C 656.202321 307.633904 657.04896 308.903143 657.04896 310.2264
C 657.04896 311.549657 656.202321 312.818896 654.695504 313.75458
C 653.188688 314.690264 651.14472 315.216 649.01376 315.216
C 646.8828 315.216 644.838832 314.690264 643.332016 313.75458
C 641.825199 312.818896 640.97856 311.549657 640.97856 310.2264
C 640.97856 308.903143 641.825199 307.633904 643.332016 306.69822
C 644.838832 305.762536 646.8828 305.2368 649.01376 305.2368
z
" clip-path="url(#p8c755e3773)" style="fill: #ce3b36"/>
   </g>
   <g id="patch_123">
    <path d="M 675.52992 305.2368
C 677.66088 305.2368 679.704848 305.762536 681.211664 306.69822
C 682.718481 307.633904 683.56512 308.903143 683.56512 310.2264
C 683.56512 311.549657 682.718481 312.818896 681.211664 313.75458
C 679.704848 314.690264 677.66088 315.216 675.52992 315.216
C 673.39896 315.216 671.354992 314.690264 669.848176 313.75458
C 668.341359 312.818896 667.49472 311.549657 667.49472 310.2264
C 667.49472 308.903143 668.341359 307.633904 669.848176 306.69822
C 671.354992 305.762536 673.39896 305.2368 675.52992 305.2368
z
" clip-path="url(#p8c755e3773)" style="fill: #ce3b36"/>
   </g>
   <g id="patch_124">
    <path d="M 702.04608 305.2368
C 704.17704 305.2368 706.221008 305.762536 707.727824 306.69822
C 709.234641 307.633904 710.08128 308.903143 710.08128 310.2264
C 710.08128 311.549657 709.234641 312.818896 707.727824 313.75458
C 706.221008 314.690264 704.17704 315.216 702.04608 315.216
C 699.91512 315.216 697.871152 314.690264 696.364336 313.75458
C 694.857519 312.818896 694.01088 311.549657 694.01088 310.2264
C 694.01088 308.903143 694.857519 307.633904 696.364336 306.69822
C 697.871152 305.762536 699.91512 305.2368 702.04608 305.2368
z
" clip-path="url(#p8c755e3773)" style="fill: #ce3b36"/>
   </g>
   <g id="patch_125">
    <path d="M 728.56224 305.2368
C 730.6932 305.2368 732.737168 305.762536 734.243984 306.69822
C 735.750801 307.633904 736.59744 308.903143 736.59744 310.2264
C 736.59744 311.549657 735.750801 312.818896 734.243984 313.75458
C 732.737168 314.690264 730.6932 315.216 728.56224 315.216
C 726.43128 315.216 724.387312 314.690264 722.880496 313.75458
C 721.373679 312.818896 720.52704 311.549657 720.52704 310.2264
C 720.52704 308.903143 721.373679 307.633904 722.880496 306.69822
C 724.387312 305.762536 726.43128 305.2368 728.56224 305.2368
z
" clip-path="url(#p8c755e3773)" style="fill: #ce3b36"/>
   </g>
   <g id="patch_126">
    <path d="M 387.457211 270.3096
Q 409.563892 270.3096 429.658113 270.3096
" clip-path="url(#p8c755e3773)" style="fill: none; stroke: #7657e8; stroke-width: 1.8; stroke-linecap: round"/>
    <path d="M 424.058113 267.5096
L 429.658113 270.3096
L 424.058113 273.1096
z
" clip-path="url(#p8c755e3773)" style="fill: #7657e8; stroke: #7657e8; stroke-width: 1.8; stroke-linecap: round"/>
   </g>
   <g id="patch_127">
    <path d="M 122.3064 453.17844
L 712.8936 453.17844
Q 725.74992 453.17844 725.74992 461.1618
L 725.74992 483.615
Q 725.74992 491.59836 712.8936 491.59836
L 122.3064 491.59836
Q 109.45008 491.59836 109.45008 483.615
L 109.45008 461.1618
Q 109.45008 453.17844 122.3064 453.17844
z
" clip-path="url(#p8c755e3773)" style="fill: #fff4dd; stroke: #f2c36f; stroke-width: 1.1; stroke-linejoin: miter"/>
   </g>
   <g id="line2d_1">
    <path d="M 47.9808 90.684
L 787.2192 90.684
" clip-path="url(#p8c755e3773)" style="fill: none; stroke: #d9e3ec; stroke-linecap: square"/>
   </g>
   <g id="text_1">
    <text style="font-weight: 700; font-size: 24px; font-family: 'DejaVu Sans'; text-anchor: start; fill: #182431" x="47.9808" y="53.84715" transform="rotate(-0 47.9808 53.84715)">Базовая и условная вероятность</text>
   </g>
   <g id="text_2">
    <text style="font-size: 11px; font-family: 'DejaVu Sans'; text-anchor: start; fill: #5d6b78" x="47.9808" y="74.281625" transform="rotate(-0 47.9808 74.281625)">Сначала смотрим, как часто событие встречается вообще, затем — среди похожих объектов.</text>
   </g>
   <g id="text_3">
    <text style="font-weight: 700; font-size: 10.2px; font-family: 'DejaVu Sans'; text-anchor: middle; fill: #ffffff" x="180.5616" y="161.606603" transform="rotate(-0 180.5616 161.606603)">БАЗОВАЯ ЧАСТОТА</text>
   </g>
   <g id="text_4">
    <text style="font-weight: 700; font-size: 12px; font-family: 'DejaVu Sans'; text-anchor: middle; fill: #182431" x="224.7552" y="209.479575" transform="rotate(-0 224.7552 209.479575)">10 ушли из 100 клиентов</text>
   </g>
   <g id="text_5">
    <text style="font-weight: 700; font-size: 12px; font-family: 'DejaVu Sans'; text-anchor: middle; fill: #0758b4" x="224.7552" y="399.165" transform="rotate(-0 224.7552 399.165)">P(уход) = 10 / 100 = 0,10</text>
   </g>
   <g id="text_6">
    <text style="font-weight: 700; font-size: 10.2px; font-family: 'DejaVu Sans'; text-anchor: middle; fill: #ffffff" x="590.3568" y="161.606603" transform="rotate(-0 590.3568 161.606603)">ПРИ ИЗВЕСТНОМ УСЛОВИИ</text>
   </g>
   <g id="text_7">
    <text style="font-weight: 700; font-size: 11.5px; font-family: 'DejaVu Sans'; text-anchor: middle; fill: #182431" x="610.4448" y="209.103559" transform="rotate(-0 610.4448 209.103559)">из 20 похожих клиентов ушли 8</text>
   </g>
   <g id="text_8">
    <text style="font-weight: 700; font-size: 11.5px; font-family: 'DejaVu Sans'; text-anchor: middle; fill: #7657e8" x="610.4448" y="398.848516" transform="rotate(-0 610.4448 398.848516)">P(уход | признаки) = 8 / 20 = 0,40</text>
   </g>
   <g id="text_9">
    <text style="font-weight: 700; font-size: 10.5px; font-family: 'DejaVu Sans'; text-anchor: middle; fill: #b96a00" x="417.6" y="475.162697" transform="rotate(-0 417.6 475.162697)">Вертикальная черта | читается: «при известном условии».</text>
   </g>
  </g>
 </g>
 <defs>
  <clipPath id="p8c755e3773">
   <rect x="15.84" y="15.84" width="803.52" height="498.96"/>
  </clipPath>
 </defs>
</svg>
