<?xml version="1.0" encoding="utf-8" standalone="no"?>
<!DOCTYPE svg PUBLIC "-//W3C//DTD SVG 1.1//EN"
  "http://www.w3.org/Graphics/SVG/1.1/DTD/svg11.dtd">
<svg xmlns:xlink="http://www.w3.org/1999/xlink" width="838.92705pt" height="530.64pt" viewBox="0 0 838.92705 530.64" xmlns="http://www.w3.org/2000/svg" version="1.1">
 <metadata>
  <rdf:RDF xmlns:dc="http://purl.org/dc/elements/1.1/" xmlns:cc="http://creativecommons.org/ns#" xmlns:rdf="http://www.w3.org/1999/02/22-rdf-syntax-ns#">
   <cc:Work>
    <dc:type rdf:resource="http://purl.org/dc/dcmitype/StillImage"/>
    <dc:format>image/svg+xml</dc:format>
    <dc:creator>
     <cc:Agent>
      <dc:title>Matplotlib v3.10.8, https://matplotlib.org/</dc:title>
     </cc:Agent>
    </dc:creator>
   </cc:Work>
  </rdf:RDF>
 </metadata>
 <defs>
  <style type="text/css">*{stroke-linejoin: round; stroke-linecap: butt}</style>
 </defs>
 <g id="figure_1">
  <g id="patch_1">
   <path d="M 0 530.64
L 838.92705 530.64
L 838.92705 0
L 0 0
z
" style="fill: #ffffff"/>
  </g>
  <g id="axes_1">
   <g id="patch_2">
    <path d="M 58.0248 123.86484
L 262.9224 123.86484
Q 275.77872 123.86484 275.77872 131.8482
L 275.77872 378.8334
Q 275.77872 386.81676 262.9224 386.81676
L 58.0248 386.81676
Q 45.16848 386.81676 45.16848 378.8334
L 45.16848 131.8482
Q 45.16848 123.86484 58.0248 123.86484
z
" clip-path="url(#p8c755e3773)" style="fill: #ffffff; stroke: #0b70e0; stroke-width: 1.1; stroke-linejoin: miter"/>
   </g>
   <g id="patch_3">
    <path d="M 84.54096 143.82324
L 236.40624 143.82324
Q 243.63792 143.82324 243.63792 148.31388
L 243.63792 169.2702
Q 243.63792 173.76084 236.40624 173.76084
L 84.54096 173.76084
Q 77.30928 173.76084 77.30928 169.2702
L 77.30928 148.31388
Q 77.30928 143.82324 84.54096 143.82324
z
" clip-path="url(#p8c755e3773)" style="fill: #0b70e0; stroke: #0b70e0; stroke-width: 1.1; stroke-linejoin: miter"/>
   </g>
   <g id="patch_4">
    <path d="M 315.1512 123.86484
L 520.0488 123.86484
Q 532.90512 123.86484 532.90512 131.8482
L 532.90512 378.8334
Q 532.90512 386.81676 520.0488 386.81676
L 315.1512 386.81676
Q 302.29488 386.81676 302.29488 378.8334
L 302.29488 131.8482
Q 302.29488 123.86484 315.1512 123.86484
z
" clip-path="url(#p8c755e3773)" style="fill: #ffffff; stroke: #138a57; stroke-width: 1.1; stroke-linejoin: miter"/>
   </g>
   <g id="patch_5">
    <path d="M 341.66736 143.82324
L 493.53264 143.82324
Q 500.76432 143.82324 500.76432 148.31388
L 500.76432 169.2702
Q 500.76432 173.76084 493.53264 173.76084
L 341.66736 173.76084
Q 334.43568 173.76084 334.43568 169.2702
L 334.43568 148.31388
Q 334.43568 143.82324 341.66736 143.82324
z
" clip-path="url(#p8c755e3773)" style="fill: #138a57; stroke: #138a57; stroke-width: 1.1; stroke-linejoin: miter"/>
   </g>
   <g id="patch_6">
    <path d="M 572.2776 123.86484
L 777.1752 123.86484
Q 790.03152 123.86484 790.03152 131.8482
L 790.03152 378.8334
Q 790.03152 386.81676 777.1752 386.81676
L 572.2776 386.81676
Q 559.42128 386.81676 559.42128 378.8334
L 559.42128 131.8482
Q 559.42128 123.86484 572.2776 123.86484
z
" clip-path="url(#p8c755e3773)" style="fill: #ffffff; stroke: #7657e8; stroke-width: 1.1; stroke-linejoin: miter"/>
   </g>
   <g id="patch_7">
    <path d="M 598.79376 143.82324
L 750.65904 143.82324
Q 757.89072 143.82324 757.89072 148.31388
L 757.89072 169.2702
Q 757.89072 173.76084 750.65904 173.76084
L 598.79376 173.76084
Q 591.56208 173.76084 591.56208 169.2702
L 591.56208 148.31388
Q 591.56208 143.82324 598.79376 143.82324
z
" clip-path="url(#p8c755e3773)" style="fill: #7657e8; stroke: #7657e8; stroke-width: 1.1; stroke-linejoin: miter"/>
   </g>
   <g id="patch_8">
    <path d="M 160.4736 402.038816
Q 160.4736 417.503767 160.4736 430.956257
" clip-path="url(#p8c755e3773)" style="fill: none; stroke: #ce3b36; stroke-width: 1.8; stroke-linecap: round"/>
    <path d="M 163.2736 425.356257
L 160.4736 430.956257
L 157.6736 425.356257
z
" clip-path="url(#p8c755e3773)" style="fill: #ce3b36; stroke: #ce3b36; stroke-width: 1.8; stroke-linecap: round"/>
   </g>
   <g id="patch_9">
    <path d="M 417.6 402.038816
Q 417.6 417.503767 417.6 430.956257
" clip-path="url(#p8c755e3773)" style="fill: none; stroke: #ce3b36; stroke-width: 1.8; stroke-linecap: round"/>
    <path d="M 420.4 425.356257
L 417.6 430.956257
L 414.8 425.356257
z
" clip-path="url(#p8c755e3773)" style="fill: #ce3b36; stroke: #ce3b36; stroke-width: 1.8; stroke-linecap: round"/>
   </g>
   <g id="patch_10">
    <path d="M 674.7264 402.038816
Q 674.7264 417.503767 674.7264 430.956257
" clip-path="url(#p8c755e3773)" style="fill: none; stroke: #ce3b36; stroke-width: 1.8; stroke-linecap: round"/>
    <path d="M 677.5264 425.356257
L 674.7264 430.956257
L 671.9264 425.356257
z
" clip-path="url(#p8c755e3773)" style="fill: #ce3b36; stroke: #ce3b36; stroke-width: 1.8; stroke-linecap: round"/>
   </g>
   <g id="patch_11">
    <path d="M 106.236 433.22004
L 728.964 433.22004
Q 741.82032 433.22004 741.82032 441.2034
L 741.82032 483.615
Q 741.82032 491.59836 728.964 491.59836
L 106.236 491.59836
Q 93.37968 491.59836 93.37968 483.615
L 93.37968 441.2034
Q 93.37968 433.22004 106.236 433.22004
z
" clip-path="url(#p8c755e3773)" style="fill: #fff0ef; stroke: #ce3b36; stroke-width: 1.1; stroke-linejoin: miter"/>
   </g>
   <g id="line2d_1">
    <path d="M 47.9808 90.684
L 787.2192 90.684
" clip-path="url(#p8c755e3773)" style="fill: none; stroke: #d9e3ec; stroke-linecap: square"/>
   </g>
   <g id="line2d_2">
    <path d="M 80.1216 290.268
L 240.8256 290.268
" clip-path="url(#p8c755e3773)" style="fill: none; stroke: #d9e3ec; stroke-linecap: square"/>
   </g>
   <g id="line2d_3">
    <path d="M 337.248 290.268
L 497.952 290.268
" clip-path="url(#p8c755e3773)" style="fill: none; stroke: #d9e3ec; stroke-linecap: square"/>
   </g>
   <g id="line2d_4">
    <path d="M 594.3744 290.268
L 755.0784 290.268
" clip-path="url(#p8c755e3773)" style="fill: none; stroke: #d9e3ec; stroke-linecap: square"/>
   </g>
   <g id="text_1">
    <text style="font-weight: 700; font-size: 24px; font-family: 'DejaVu Sans'; text-anchor: start; fill: #182431" x="47.9808" y="53.84715" transform="rotate(-0 47.9808 53.84715)">Три инструмента интерпретации — три разных вопроса</text>
   </g>
   <g id="text_2">
    <text style="font-size: 11px; font-family: 'DejaVu Sans'; text-anchor: start; fill: #5d6b78" x="47.9808" y="74.094281" transform="rotate(-0 47.9808 74.094281)">Важность описывает модель и данные, а не причинный эффект.</text>
   </g>
   <g id="text_3">
    <text style="font-weight: 700; font-size: 10.2px; font-family: 'DejaVu Sans'; text-anchor: middle; fill: #ffffff" x="160.4736" y="161.606603" transform="rotate(-0 160.4736 161.606603)">КОЭФФИЦИЕНТ</text>
   </g>
   <g id="text_4">
    <text style="font-weight: 700; font-size: 10.2px; font-family: 'DejaVu Sans'; text-anchor: start; fill: #182431" x="80.1216" y="208.250231" transform="rotate(-0 80.1216 208.250231)">Как меняется линейный результат</text>
   </g>
   <g id="text_5">
    <text style="font-weight: 700; font-size: 10.2px; font-family: 'DejaVu Sans'; text-anchor: start; fill: #182431" x="80.1216" y="224.421806" transform="rotate(-0 80.1216 224.421806)">при росте признака?</text>
   </g>
   <g id="text_6">
    <text style="font-weight: 700; font-size: 8.8px; font-family: 'DejaVu Sans'; text-anchor: start; fill: #ce3b36" x="80.1216" y="316.913025" transform="rotate(-0 80.1216 316.913025)">ОГРАНИЧЕНИЕ</text>
   </g>
   <g id="text_7">
    <text style="font-size: 9.2px; font-family: 'DejaVu Sans'; fill: #5d6b78" transform="translate(108.710663 342.541231)">зависит от масштаба</text>
    <text style="font-size: 9.2px; font-family: 'DejaVu Sans'; fill: #5d6b78" transform="translate(126.941038 352.843219)">и корреляций</text>
   </g>
   <g id="text_8">
    <text style="font-weight: 700; font-size: 10.2px; font-family: 'DejaVu Sans'; text-anchor: middle; fill: #ffffff" x="417.6" y="161.606603" transform="rotate(-0 417.6 161.606603)">PERMUTATION</text>
   </g>
   <g id="text_9">
    <text style="font-weight: 700; font-size: 10.2px; font-family: 'DejaVu Sans'; text-anchor: start; fill: #182431" x="337.248" y="208.5387" transform="rotate(-0 337.248 208.5387)">Насколько упадёт выбранная метрика</text>
   </g>
   <g id="text_10">
    <text style="font-weight: 700; font-size: 10.2px; font-family: 'DejaVu Sans'; text-anchor: start; fill: #182431" x="337.248" y="224.421806" transform="rotate(-0 337.248 224.421806)">после перемешивания?</text>
   </g>
   <g id="text_11">
    <text style="font-weight: 700; font-size: 8.8px; font-family: 'DejaVu Sans'; text-anchor: start; fill: #ce3b36" x="337.248" y="316.913025" transform="rotate(-0 337.248 316.913025)">ОГРАНИЧЕНИЕ</text>
   </g>
   <g id="text_12">
    <text style="font-size: 9.2px; font-family: 'DejaVu Sans'; fill: #5d6b78" transform="translate(369.361094 342.541231)">зависит от метрики</text>
    <text style="font-size: 9.2px; font-family: 'DejaVu Sans'; fill: #5d6b78" transform="translate(384.287375 352.843219)">и test-данных</text>
   </g>
   <g id="text_13">
    <text style="font-weight: 700; font-size: 10.2px; font-family: 'DejaVu Sans'; text-anchor: middle; fill: #ffffff" x="674.7264" y="161.606603" transform="rotate(-0 674.7264 161.606603)">SHAP</text>
   </g>
   <g id="text_14">
    <text style="font-weight: 700; font-size: 10.2px; font-family: 'DejaVu Sans'; text-anchor: start; fill: #182431" x="594.3744" y="208.125919" transform="rotate(-0 594.3744 208.125919)">Как признак сдвинул прогноз</text>
   </g>
   <g id="text_15">
    <text style="font-weight: 700; font-size: 10.2px; font-family: 'DejaVu Sans'; text-anchor: start; fill: #182431" x="594.3744" y="224.7549" transform="rotate(-0 594.3744 224.7549)">относительно выбранного фона?</text>
   </g>
   <g id="text_16">
    <text style="font-weight: 700; font-size: 8.8px; font-family: 'DejaVu Sans'; text-anchor: start; fill: #ce3b36" x="594.3744" y="316.913025" transform="rotate(-0 594.3744 316.913025)">ОГРАНИЧЕНИЕ</text>
   </g>
   <g id="text_17">
    <text style="font-size: 9.2px; font-family: 'DejaVu Sans'; fill: #5d6b78" transform="translate(627.457806 342.541231)">зависит от модели,</text>
    <text style="font-size: 9.2px; font-family: 'DejaVu Sans'; fill: #5d6b78" transform="translate(622.442369 352.843219)">фона и зависимостей</text>
   </g>
   <g id="text_18">
    <text style="font-weight: 700; font-size: 13px; font-family: 'DejaVu Sans'; text-anchor: middle; fill: #ce3b36" x="417.6" y="464.802769" transform="rotate(-0 417.6 464.802769)">СВЯЗЬ ≠ ПРИЧИННОСТЬ</text>
   </g>
   <g id="text_19">
    <text style="font-size: 9.7px; font-family: 'DejaVu Sans'; text-anchor: middle; fill: #ce3b36" x="417.6" y="487.243284" transform="rotate(-0 417.6 487.243284)">Ни коэффициент, ни permutation importance, ни SHAP не доказывают причинный эффект.</text>
   </g>
  </g>
 </g>
 <defs>
  <clipPath id="p8c755e3773">
   <rect x="15.84" y="15.84" width="803.52" height="498.96"/>
  </clipPath>
 </defs>
</svg>
